<?xml version="1.0" encoding="UTF-8"?>
<svg id="Layer_1" data-name="Layer 1" xmlns="http://www.w3.org/2000/svg" xmlns:xlink="http://www.w3.org/1999/xlink" viewBox="0 0 512 512">
  <defs>
    <style>
      .cls-1 {
        fill: url(#linear-gradient-2);
      }

      .cls-2 {
        fill: url(#linear-gradient-6);
      }

      .cls-3 {
        fill: url(#linear-gradient-10);
      }

      .cls-4 {
        fill: url(#linear-gradient-5);
      }

      .cls-5 {
        fill: url(#linear-gradient-7);
      }

      .cls-6 {
        fill: url(#linear-gradient-9);
      }

      .cls-7 {
        fill: url(#linear-gradient-3);
      }

      .cls-8 {
        fill: url(#linear-gradient);
      }

      .cls-9 {
        fill: url(#linear-gradient-4);
      }

      .cls-10 {
        fill: url(#linear-gradient-8);
      }
    </style>
    <linearGradient id="linear-gradient" x1="72.62" y1="216.56" x2="314.6" y2="216.56" gradientUnits="userSpaceOnUse">
      <stop offset="0" stop-color="#f9c213"/>
      <stop offset="1" stop-color="#ffd86c"/>
    </linearGradient>
    <linearGradient id="linear-gradient-2" x1="328.94" y1="175.96" x2="439.38" y2="175.96" xlink:href="#linear-gradient"/>
    <linearGradient id="linear-gradient-3" x1="48.13" y1="312.8" x2="463.87" y2="312.8" xlink:href="#linear-gradient"/>
    <linearGradient id="linear-gradient-4" x1="129.47" y1="217.76" x2="382.53" y2="217.76" xlink:href="#linear-gradient"/>
    <linearGradient id="linear-gradient-5" x1="168.77" y1="218.27" x2="342.19" y2="218.27" xlink:href="#linear-gradient"/>
    <linearGradient id="linear-gradient-6" x1="130.62" y1="288.13" x2="260.38" y2="288.13" xlink:href="#linear-gradient"/>
    <linearGradient id="linear-gradient-7" x1="130.62" y1="318.95" x2="260.38" y2="318.95" xlink:href="#linear-gradient"/>
    <linearGradient id="linear-gradient-8" x1="278.33" y1="305.37" x2="307.83" y2="305.37" xlink:href="#linear-gradient"/>
    <linearGradient id="linear-gradient-9" x1="311.89" y1="305.37" x2="341.4" y2="305.37" xlink:href="#linear-gradient"/>
    <linearGradient id="linear-gradient-10" x1="345.46" y1="305.37" x2="374.96" y2="305.37" xlink:href="#linear-gradient"/>
  </defs>
  <path class="cls-8" d="m78.71,289.58c3.37,0,6.09-2.73,6.09-6.09v-118.58c0-5.07,4.13-9.2,9.2-9.2h214.51c3.36,0,6.09-2.72,6.09-6.09s-2.73-6.09-6.09-6.09H94c-11.79,0-21.38,9.59-21.38,21.38v118.58c0,3.36,2.73,6.09,6.09,6.09Z"/>
  <path class="cls-1" d="m335.03,155.71h82.96c5.07,0,9.2,4.13,9.2,9.2v37.38c0,3.36,2.72,6.09,6.09,6.09s6.09-2.73,6.09-6.09v-37.38c0-11.79-9.59-21.38-21.38-21.38h-82.96c-3.36,0-6.09,2.73-6.09,6.09s2.73,6.09,6.09,6.09Z"/>
  <path class="cls-7" d="m449.66,347.51h-10.28v-118.7c0-3.36-2.73-6.09-6.09-6.09s-6.09,2.73-6.09,6.09v118.7h-106.38c-1.45,0-2.84.51-3.94,1.45l-8.44,7.18h-104.86l-8.44-7.18c-1.1-.94-2.49-1.45-3.94-1.45h-106.39v-37.5c0-3.36-2.72-6.09-6.09-6.09s-6.09,2.73-6.09,6.09v37.5h-10.28c-7.84,0-14.21,6.37-14.21,14.21v18.16c0,12.68,10.32,23,23,23h369.74c12.68,0,23-10.32,23-23v-18.16c0-7.84-6.37-14.21-14.21-14.21Zm2.03,32.37c0,5.97-4.85,10.82-10.82,10.82H71.13c-5.97,0-10.82-4.85-10.82-10.82v-18.16c0-1.12.91-2.03,2.03-2.03h126.61l8.44,7.17c1.1.94,2.5,1.45,3.94,1.45h109.34c1.45,0,2.84-.52,3.95-1.45l8.44-7.17h32.14v5.79c0,3.37,2.73,6.09,6.09,6.09s6.09-2.72,6.09-6.09v-5.79h6.23v5.79c0,3.37,2.73,6.09,6.09,6.09s6.09-2.72,6.09-6.09v-5.79h6.23v5.79c0,3.37,2.73,6.09,6.09,6.09s6.09-2.72,6.09-6.09v-5.79h45.47c1.12,0,2.03.91,2.03,2.03v18.16Z"/>
  <path class="cls-9" d="m382.53,248.83v-62.15c0-7.84-6.37-14.21-14.21-14.21h-224.64c-7.84,0-14.21,6.37-14.21,14.21v62.15c0,7.83,6.37,14.21,14.21,14.21h224.65c7.83,0,14.2-6.37,14.2-14.21Zm-12.18,0c0,1.12-.91,2.03-2.03,2.03h-224.64c-1.12,0-2.03-.91-2.03-2.03v-62.15c0-1.12.91-2.03,2.03-2.03h224.65c1.12,0,2.03.91,2.03,2.03v62.15h0Z"/>
  <path class="cls-4" d="m332.49,195.1l-39.8,29.3-32.86-26.54c-2.31-1.87-5.64-1.79-7.87.18l-29.19,25.87-19.04-17.31c-2.43-2.21-6.17-2.1-8.46.26l-24.78,25.45c-2.34,2.41-2.29,6.26.12,8.61,1.18,1.15,2.72,1.73,4.25,1.73s3.17-.61,4.36-1.84l20.67-21.23,18.73,17.03c2.3,2.09,5.81,2.12,8.14.05l29.43-26.08,32.5,26.26c2.15,1.74,5.2,1.81,7.44.17l43.58-32.08c2.71-1.99,3.29-5.81,1.29-8.52-1.99-2.71-5.81-3.29-8.52-1.29Z"/>
  <path class="cls-2" d="m136.71,294.22h3.92c2.46,6.34,8.61,10.86,15.8,10.86s13.35-4.52,15.8-10.86h82.05c3.36,0,6.09-2.73,6.09-6.09s-2.73-6.09-6.09-6.09h-82.05c-2.45-6.34-8.6-10.86-15.8-10.86s-13.35,4.52-15.8,10.86h-3.92c-3.36,0-6.09,2.73-6.09,6.09s2.73,6.09,6.09,6.09Zm19.73-10.86c2.63,0,4.77,2.14,4.77,4.77s-2.14,4.77-4.77,4.77-4.77-2.14-4.77-4.77,2.14-4.77,4.77-4.77Z"/>
  <path class="cls-5" d="m136.71,325.04h52.83c2.46,6.34,8.61,10.86,15.8,10.86s13.35-4.52,15.8-10.86h33.13c3.36,0,6.09-2.73,6.09-6.09s-2.73-6.09-6.09-6.09h-33.13c-2.46-6.34-8.6-10.86-15.8-10.86s-13.35,4.52-15.8,10.86h-52.84c-3.36,0-6.09,2.73-6.09,6.09s2.73,6.09,6.09,6.09Zm68.64-10.86c2.63,0,4.77,2.14,4.77,4.77s-2.14,4.77-4.77,4.77-4.77-2.14-4.77-4.77,2.14-4.77,4.77-4.77Z"/>
  <path class="cls-10" d="m293.08,335.9c3.36,0,6.09-2.73,6.09-6.09v-30.82h2.57c3.36,0,6.09-2.73,6.09-6.09s-2.73-6.09-6.09-6.09h-2.57v-5.86c0-3.36-2.73-6.09-6.09-6.09s-6.09,2.73-6.09,6.09v5.86h-2.57c-3.36,0-6.09,2.73-6.09,6.09s2.73,6.09,6.09,6.09h2.57v30.82c0,3.36,2.73,6.09,6.09,6.09Z"/>
  <path class="cls-6" d="m326.64,335.9c3.36,0,6.09-2.73,6.09-6.09v-8.63h2.57c3.36,0,6.09-2.73,6.09-6.09s-2.73-6.09-6.09-6.09h-2.57v-28.05c0-3.36-2.73-6.09-6.09-6.09s-6.09,2.73-6.09,6.09v28.05h-2.57c-3.36,0-6.09,2.73-6.09,6.09s2.73,6.09,6.09,6.09h2.57v8.63c0,3.36,2.73,6.09,6.09,6.09Z"/>
  <path class="cls-3" d="m360.2,335.9c3.36,0,6.09-2.73,6.09-6.09v-27.5h2.57c3.36,0,6.09-2.72,6.09-6.09s-2.73-6.09-6.09-6.09h-2.57v-9.18c0-3.36-2.73-6.09-6.09-6.09s-6.09,2.73-6.09,6.09v9.18h-2.57c-3.36,0-6.09,2.73-6.09,6.09s2.73,6.09,6.09,6.09h2.57v27.5c0,3.36,2.73,6.09,6.09,6.09Z"/>
</svg>