<?xml version="1.0" encoding="UTF-8"?>
<svg id="Layer_1" data-name="Layer 1" xmlns="http://www.w3.org/2000/svg" xmlns:xlink="http://www.w3.org/1999/xlink" viewBox="0 0 512 512">
  <defs>
    <style>
      .cls-1 {
        fill: url(#linear-gradient-2);
      }

      .cls-2 {
        fill: url(#linear-gradient-6);
      }

      .cls-3 {
        fill: url(#linear-gradient-11);
      }

      .cls-4 {
        fill: url(#linear-gradient-10);
      }

      .cls-5 {
        fill: url(#linear-gradient-5);
      }

      .cls-6 {
        fill: url(#linear-gradient-7);
      }

      .cls-7 {
        fill: url(#linear-gradient-9);
      }

      .cls-8 {
        fill: url(#linear-gradient-3);
      }

      .cls-9 {
        fill: url(#linear-gradient);
      }

      .cls-10 {
        fill: url(#linear-gradient-4);
      }

      .cls-11 {
        fill: url(#linear-gradient-8);
      }

      .cls-12 {
        fill: url(#linear-gradient-12);
      }
    </style>
    <linearGradient id="linear-gradient" x1="256" y1="175.26" x2="422.46" y2="175.26" gradientUnits="userSpaceOnUse">
      <stop offset="0" stop-color="#f9c213"/>
      <stop offset="1" stop-color="#ffd86c"/>
    </linearGradient>
    <linearGradient id="linear-gradient-2" x1="89.54" y1="283.46" x2="422.46" y2="283.46" xlink:href="#linear-gradient"/>
    <linearGradient id="linear-gradient-3" x1="139.48" y1="305.66" x2="172.77" y2="305.66" xlink:href="#linear-gradient"/>
    <linearGradient id="linear-gradient-4" x1="183.87" y1="244.62" x2="217.16" y2="244.62" xlink:href="#linear-gradient"/>
    <linearGradient id="linear-gradient-5" x1="228.26" y1="269.59" x2="261.55" y2="269.59" xlink:href="#linear-gradient"/>
    <linearGradient id="linear-gradient-6" x1="272.65" y1="305.66" x2="305.94" y2="305.66" xlink:href="#linear-gradient"/>
    <linearGradient id="linear-gradient-7" x1="317.03" y1="325.07" x2="350.33" y2="325.07" xlink:href="#linear-gradient"/>
    <linearGradient id="linear-gradient-8" x1="361.42" y1="333.4" x2="394.71" y2="333.4" xlink:href="#linear-gradient"/>
    <linearGradient id="linear-gradient-9" x1="333.68" y1="164.13" x2="378" y2="164.13" xlink:href="#linear-gradient"/>
    <linearGradient id="linear-gradient-10" x1="145.03" y1="180.81" x2="167.22" y2="180.81" xlink:href="#linear-gradient"/>
    <linearGradient id="linear-gradient-11" x1="178.32" y1="180.81" x2="200.51" y2="180.81" xlink:href="#linear-gradient"/>
    <linearGradient id="linear-gradient-12" x1="211.61" y1="180.81" x2="233.81" y2="180.81" xlink:href="#linear-gradient"/>
  </defs>
  <g id="Page-1">
    <g id="_014---Trading-Position-Waiting" data-name="014---Trading-Position-Waiting">
      <path id="Shape" class="cls-9" d="m339.23,92.04c-45.97,0-83.23,37.26-83.23,83.23s37.26,83.23,83.23,83.23,83.23-37.26,83.23-83.23c-.05-45.94-37.28-83.18-83.23-83.23Zm0,155.36c-39.84,0-72.13-32.29-72.13-72.13s32.29-72.13,72.13-72.13,72.13,32.29,72.13,72.13c-.05,39.82-32.31,72.09-72.13,72.13Z"/>
      <path id="Shape-2" data-name="Shape" class="cls-1" d="m405.81,391.66H122.83v-205.3h5.55c3.06,0,5.55-2.48,5.55-5.55s-2.48-5.55-5.55-5.55h-5.55v-16.65c0-9.19-7.45-16.65-16.65-16.65s-16.65,7.45-16.65,16.65v249.68c0,9.19,7.45,16.65,16.65,16.65h299.62c9.19,0,16.65-7.45,16.65-16.65s-7.45-16.65-16.65-16.65h0Zm0,22.19H106.19c-3.06,0-5.55-2.48-5.55-5.55v-249.68c0-3.06,2.48-5.55,5.55-5.55s5.55,2.48,5.55,5.55v238.59c0,3.06,2.48,5.55,5.55,5.55h288.53c3.06,0,5.55,2.48,5.55,5.55s-2.48,5.55-5.55,5.55h0Z"/>
      <path id="Shape-3" data-name="Shape" class="cls-8" d="m139.48,264.04v83.23c0,6.13,4.97,11.1,11.1,11.1v11.1c0,3.06,2.48,5.55,5.55,5.55s5.55-2.48,5.55-5.55v-11.1c6.13,0,11.1-4.97,11.1-11.1v-83.23c0-6.13-4.97-11.1-11.1-11.1v-11.1c0-3.06-2.48-5.55-5.55-5.55s-5.55,2.48-5.55,5.55v11.1c-6.13,0-11.1,4.97-11.1,11.1Zm11.1,0h11.1v83.23h-11.1v-83.23Z"/>
      <path id="Shape-4" data-name="Shape" class="cls-10" d="m200.51,191.91c-3.06,0-5.55,2.48-5.55,5.55v27.74c-6.13,0-11.1,4.97-11.1,11.1v33.29c0,6.13,4.97,11.1,11.1,11.1v11.1c0,3.06,2.48,5.55,5.55,5.55s5.55-2.48,5.55-5.55v-11.1c6.13,0,11.1-4.97,11.1-11.1v-33.29c0-6.13-4.97-11.1-11.1-11.1v-27.74c0-3.06-2.48-5.55-5.55-5.55h0Zm5.55,77.68h-11.1v-33.29h11.1v33.29Z"/>
      <path id="Shape-5" data-name="Shape" class="cls-5" d="m244.9,208.56c-3.06,0-5.55,2.48-5.55,5.55v16.65c-6.13,0-11.1,4.97-11.1,11.1v49.94c0,6.13,4.97,11.1,11.1,11.1v22.19c0,3.06,2.48,5.55,5.55,5.55s5.55-2.48,5.55-5.55v-22.19c6.13,0,11.1-4.97,11.1-11.1v-49.94c0-6.13-4.97-11.1-11.1-11.1v-16.65c0-3.06-2.48-5.55-5.55-5.55h0Zm5.55,83.23h-11.1v-49.94h11.1v49.94Z"/>
      <path id="Shape-6" data-name="Shape" class="cls-2" d="m289.29,252.94c-3.06,0-5.55,2.48-5.55,5.55v16.65c-6.13,0-11.1,4.97-11.1,11.1v44.39c0,6.13,4.97,11.1,11.1,11.1v11.1c0,3.06,2.48,5.55,5.55,5.55s5.55-2.48,5.55-5.55v-11.1c6.13,0,11.1-4.97,11.1-11.1v-44.39c0-6.13-4.97-11.1-11.1-11.1v-16.64c0-3.06-2.48-5.55-5.55-5.55Zm5.55,77.68h-11.1v-44.39h11.1v44.39Z"/>
      <path id="Shape-7" data-name="Shape" class="cls-6" d="m333.68,269.59c-3.06,0-5.55,2.48-5.55,5.55v22.19c-6.13,0-11.1,4.97-11.1,11.1v33.29c0,6.13,4.97,11.1,11.1,11.1v22.19c0,3.06,2.48,5.55,5.55,5.55s5.55-2.48,5.55-5.55v-22.19c6.13,0,11.1-4.97,11.1-11.1v-33.29c0-6.13-4.97-11.1-11.1-11.1v-22.19c0-3.06-2.48-5.55-5.55-5.55Zm5.55,72.13h-11.1v-33.29h11.1v33.29Z"/>
      <path id="Shape-8" data-name="Shape" class="cls-11" d="m378.07,286.24c-3.06,0-5.55,2.48-5.55,5.55v22.19c-6.13,0-11.1,4.97-11.1,11.1v27.74c0,6.13,4.97,11.1,11.1,11.1v11.1c0,3.06,2.48,5.55,5.55,5.55s5.55-2.48,5.55-5.55v-11.1c6.13,0,11.1-4.97,11.1-11.1v-27.74c0-6.13-4.97-11.1-11.1-11.1v-22.19c0-3.06-2.48-5.55-5.55-5.55Zm5.55,66.58h-11.1v-27.74h11.1v27.74Z"/>
      <path id="Shape-9" data-name="Shape" class="cls-7" d="m344.78,172.97v-53.19c0-3.06-2.48-5.55-5.55-5.55s-5.55,2.48-5.55,5.55v55.49c0,1.47.59,2.88,1.63,3.92l33.29,33.29c2.18,2.1,5.64,2.07,7.78-.07,2.14-2.14,2.17-5.6.07-7.78l-31.67-31.67Z"/>
      <path id="Shape-10" data-name="Shape" class="cls-4" d="m161.67,186.36c3.06,0,5.55-2.48,5.55-5.55s-2.48-5.55-5.55-5.55h-11.1c-3.06,0-5.55,2.48-5.55,5.55s2.48,5.55,5.55,5.55h11.1Z"/>
      <path id="Shape-11" data-name="Shape" class="cls-3" d="m194.97,175.26h-11.1c-3.06,0-5.55,2.48-5.55,5.55s2.48,5.55,5.55,5.55h11.1c3.06,0,5.55-2.48,5.55-5.55s-2.48-5.55-5.55-5.55Z"/>
      <path id="Shape-12" data-name="Shape" class="cls-12" d="m228.26,175.26h-11.1c-3.06,0-5.55,2.48-5.55,5.55s2.48,5.55,5.55,5.55h11.1c3.06,0,5.55-2.48,5.55-5.55s-2.48-5.55-5.55-5.55Z"/>
    </g>
  </g>
</svg>