<?xml version="1.0" encoding="UTF-8"?>
<svg id="Layer_1" data-name="Layer 1" xmlns="http://www.w3.org/2000/svg" xmlns:xlink="http://www.w3.org/1999/xlink" viewBox="0 0 512 512">
  <defs>
    <style>
      .cls-1 {
        fill: url(#linear-gradient-2);
      }

      .cls-2 {
        fill: url(#linear-gradient-6);
      }

      .cls-3 {
        fill: url(#linear-gradient-5);
      }

      .cls-4 {
        fill: url(#linear-gradient-3);
      }

      .cls-5 {
        fill: url(#linear-gradient);
      }

      .cls-6 {
        fill: url(#linear-gradient-4);
      }
    </style>
    <linearGradient id="linear-gradient" x1="87.81" y1="282.15" x2="406.85" y2="282.15" gradientUnits="userSpaceOnUse">
      <stop offset="0" stop-color="#f9c213"/>
      <stop offset="1" stop-color="#ffd86c"/>
    </linearGradient>
    <linearGradient id="linear-gradient-2" x1="295.88" y1="157.31" x2="337.49" y2="157.31" xlink:href="#linear-gradient"/>
    <linearGradient id="linear-gradient-3" x1="351.36" y1="157.31" x2="379.11" y2="157.31" xlink:href="#linear-gradient"/>
    <linearGradient id="linear-gradient-4" x1="143.29" y1="240.54" x2="240.39" y2="240.54" xlink:href="#linear-gradient"/>
    <linearGradient id="linear-gradient-5" x1="143.29" y1="282.15" x2="240.39" y2="282.15" xlink:href="#linear-gradient"/>
    <linearGradient id="linear-gradient-6" x1="143.29" y1="323.76" x2="240.39" y2="323.76" xlink:href="#linear-gradient"/>
  </defs>
  <path class="cls-5" d="m386.04,122.63H108.61c-11.48-.02-20.79,9.28-20.81,20.75,0,.02,0,.04,0,.06v221.94c-.02,11.48,9.28,20.79,20.75,20.81.02,0,.04,0,.06,0h146.76c-.72,3.8-1.09,7.65-1.11,11.51v22.06c-.03,2.48,1.3,4.77,3.47,5.96,36.42,21.27,81.48,21.27,117.91,0,2.17-1.2,3.5-3.49,3.47-5.96v-22.06c-.02-3.86-.39-7.72-1.11-11.51h8.05c11.48.02,20.79-9.28,20.81-20.75,0-.02,0-.04,0-.06v-221.94c.02-11.48-9.28-20.79-20.75-20.81-.02,0-.04,0-.06,0Zm-20.81,293.1c-30.37,16.09-66.73,16.09-97.1,0v-18.03c-.03-3.88.43-7.75,1.39-11.51,1.19-4.9,3.16-9.59,5.83-13.87,8.78-14.29,24.31-23.04,41.08-23.15l.25.02.21-.02c12.79.06,25.04,5.19,34.05,14.27,2.71,2.66,5.08,5.65,7.07,8.88,2.73,4.25,4.71,8.94,5.83,13.87.95,3.76,1.41,7.63,1.39,11.51v18.03Zm-78.6-110.46c-.01-16.6,13.43-30.06,30.03-30.08,16.6-.01,30.06,13.43,30.08,30.03.01,16.53-13.32,29.96-29.84,30.08l-.21-.02-.24.02c-16.49-.14-29.79-13.53-29.81-30.02Zm106.34,60.1c.04,3.79-3.01,6.9-6.8,6.94-.05,0-.09,0-.14,0h-12.35c-3.09-6.99-7.47-13.35-12.9-18.73-5.38-5.33-11.68-9.63-18.6-12.7,19.76-14.08,24.35-41.52,10.27-61.27-14.08-19.76-41.52-24.35-61.27-10.27-19.76,14.08-24.35,41.52-10.27,61.27,2.81,3.95,6.26,7.4,10.2,10.22-13.98,6.29-25.17,17.49-31.45,31.48H108.61c-3.79.04-6.9-3.01-6.94-6.8,0-.05,0-.09,0-.14v-173.39h291.3v173.39Zm0-187.26H101.68v-34.68c-.04-3.79,3.01-6.9,6.8-6.94.05,0,.09,0,.14,0h277.43c3.79-.04,6.9,3.01,6.94,6.8,0,.05,0,.09,0,.14v34.68Z"/>
  <path class="cls-1" d="m330.56,150.37h-27.74c-3.83,0-6.94,3.11-6.94,6.94s3.11,6.94,6.94,6.94h27.74c3.83,0,6.94-3.11,6.94-6.94s-3.11-6.94-6.94-6.94Z"/>
  <path class="cls-4" d="m372.17,150.37h-13.87c-3.83,0-6.94,3.11-6.94,6.94s3.11,6.94,6.94,6.94h13.87c3.83,0,6.94-3.11,6.94-6.94s-3.11-6.94-6.94-6.94Z"/>
  <path class="cls-6" d="m150.23,247.47h83.23c3.83,0,6.94-3.11,6.94-6.94s-3.11-6.94-6.94-6.94h-83.23c-3.83,0-6.94,3.11-6.94,6.94s3.11,6.94,6.94,6.94Z"/>
  <path class="cls-3" d="m150.23,289.09h83.23c3.83,0,6.94-3.11,6.94-6.94s-3.11-6.94-6.94-6.94h-83.23c-3.83,0-6.94,3.11-6.94,6.94s3.11,6.94,6.94,6.94Z"/>
  <path class="cls-2" d="m150.23,330.7h83.23c3.83,0,6.94-3.11,6.94-6.94s-3.11-6.94-6.94-6.94h-83.23c-3.83,0-6.94,3.11-6.94,6.94s3.11,6.94,6.94,6.94Z"/>
</svg>