<?xml version="1.0" encoding="UTF-8"?>
<svg id="Layer_1" data-name="Layer 1" xmlns="http://www.w3.org/2000/svg" xmlns:xlink="http://www.w3.org/1999/xlink" viewBox="0 0 512 512">
  <defs>
    <style>
      .cls-1 {
        fill: url(#linear-gradient-2);
      }

      .cls-2 {
        fill: url(#linear-gradient-3);
      }

      .cls-3 {
        fill: url(#linear-gradient);
      }

      .cls-4 {
        fill: url(#linear-gradient-4);
      }
    </style>
    <linearGradient id="linear-gradient" x1="89.05" y1="183.36" x2="258.77" y2="183.36" gradientUnits="userSpaceOnUse">
      <stop offset="0" stop-color="#f9c213"/>
      <stop offset="1" stop-color="#ffd86c"/>
    </linearGradient>
    <linearGradient id="linear-gradient-2" x1="252.24" y1="359.61" x2="421.96" y2="359.61" xlink:href="#linear-gradient"/>
    <linearGradient id="linear-gradient-3" x1="275.09" y1="193.19" x2="392.59" y2="193.19" xlink:href="#linear-gradient"/>
    <linearGradient id="linear-gradient-4" x1="118.42" y1="349.8" x2="235.92" y2="349.8" xlink:href="#linear-gradient"/>
  </defs>
  <g id="_16_change" data-name="16 change">
    <g>
      <path class="cls-3" d="m258.77,255.16v-20.56c0-9.92-5.55-18.93-14.43-23.37l-42.5-21.28c10.71-6.92,17.76-19,17.76-32.7v-13.06c0-21.61-17.56-39.17-39.17-39.17h-13.06c-21.61,0-39.17,17.56-39.17,39.17v13.06c0,13.71,7.05,25.78,17.76,32.77l-42.5,21.28c-8.88,4.44-14.43,13.38-14.43,23.3v20.56c0,3.59,2.94,6.53,6.53,6.53h156.67c3.59,0,6.53-2.94,6.53-6.53h0Zm-117.5-110.97c0-14.43,11.68-26.11,26.11-26.11h13.06c14.43,0,26.11,11.68,26.11,26.11v13.06c0,14.43-11.68,26.11-26.11,26.11h-13.06c-14.43,0-26.11-11.68-26.11-26.11v-13.06Zm104.44,104.44H102.1v-14.03c0-4.96,2.74-9.47,7.25-11.68l53.07-26.57h22.98l53.07,26.57c4.44,2.22,7.25,6.72,7.25,11.68v14.03Z"/>
      <path class="cls-1" d="m407.53,387.55l-42.5-21.28c10.71-6.98,17.76-19.06,17.76-32.77v-13.06c0-21.61-17.56-39.17-39.17-39.17h-13.06c-21.61,0-39.17,17.56-39.17,39.17v13.06c0,13.71,7.05,25.78,17.76,32.77l-42.5,21.28c-8.88,4.44-14.43,13.38-14.43,23.37v20.5c0,3.59,2.94,6.53,6.53,6.53h156.67c3.59,0,6.53-2.94,6.53-6.53v-20.56c0-9.92-5.55-18.86-14.43-23.3h0Zm-103.07-67.1c0-14.43,11.68-26.11,26.11-26.11h13.06c14.43,0,26.11,11.68,26.11,26.11v13.06c0,14.43-11.68,26.11-26.11,26.11h-13.06c-14.43,0-26.11-11.68-26.11-26.11v-13.06Zm104.44,104.44h-143.61v-14.03c0-4.96,2.74-9.47,7.25-11.68l53.07-26.57h22.98l53.07,26.57c4.44,2.22,7.25,6.72,7.25,11.68v14.03Z"/>
      <path class="cls-2" d="m277.31,191.52l52.22,45.69c1.96,1.7,4.63,2.09,6.98,1.04s3.85-3.39,3.85-5.94v-19.06c11.62,1.83,22,8.36,28.66,18.34l11.62,17.43c1.24,1.83,3.26,2.94,5.42,2.94.65,0,1.24-.07,1.89-.26,2.74-.85,4.63-3.39,4.63-6.27v-26.11c0-30.16-22.91-55.16-52.22-58.36v-20.04c0-2.55-1.5-4.9-3.85-5.94s-5.09-.65-6.98,1.04l-52.22,45.69c-1.44,1.24-2.22,3-2.22,4.9,0,1.89.78,3.66,2.22,4.9h0Zm50-36.23v11.75c0,3.59,2.94,6.53,6.53,6.53,25.2,0,45.69,20.5,45.69,45.69v4.57c-10.31-15.14-27.35-24.15-45.69-24.15-3.59,0-6.53,2.94-6.53,6.53v11.75l-35.77-31.33,35.77-31.33Z"/>
      <path class="cls-4" d="m233.7,351.45l-52.22-45.69c-1.96-1.7-4.63-2.09-6.98-1.04s-3.85,3.39-3.85,5.94v19.06c-11.62-1.83-22-8.36-28.66-18.34l-11.62-17.43c-1.57-2.42-4.57-3.46-7.31-2.61s-4.63,3.39-4.63,6.27v26.11c0,30.16,22.91,55.16,52.22,58.36v19.97c0,2.55,1.5,4.9,3.85,5.94.85.39,1.76.59,2.68.59,1.57,0,3.07-.52,4.31-1.63l52.22-45.69c1.44-1.24,2.22-3,2.22-4.9s-.78-3.65-2.22-4.9h0Zm-50,36.23v-11.75c0-3.59-2.94-6.53-6.53-6.53-25.2,0-45.69-20.5-45.69-45.69v-4.57c10.31,15.14,27.35,24.15,45.69,24.15,3.59,0,6.53-2.94,6.53-6.53v-11.75l35.77,31.33-35.77,31.33Z"/>
    </g>
  </g>
</svg>