<?xml version="1.0" encoding="UTF-8"?>
<svg id="Layer_1" data-name="Layer 1" xmlns="http://www.w3.org/2000/svg" xmlns:xlink="http://www.w3.org/1999/xlink" viewBox="0 0 512 512">
  <defs>
    <style>
      .cls-1 {
        fill: url(#linear-gradient);
      }
    </style>
    <linearGradient id="linear-gradient" x1="130.81" y1="275.21" x2="381.19" y2="275.21" gradientUnits="userSpaceOnUse">
      <stop offset="0" stop-color="#f9c213"/>
      <stop offset="1" stop-color="#ffd86c"/>
    </linearGradient>
  </defs>
  <path class="cls-1" d="m225.14,362.03c.14,9.09,13.66,9.09,13.87,0-.21-9.09-13.73-9.09-13.87,0Zm0-41.61c.14,9.09,13.66,9.09,13.87,0-.21-9.09-13.73-9.09-13.87,0Zm27.74,34.68v13.87h90.16v-13.87h-90.16Zm0-41.61v13.87h90.16v-13.87h-90.16Zm-13.87-41.61v-27.74h13.87v-13.87h-13.87v-48.55h-13.87v104.04h117.91v-13.87h-104.04Zm97.1-69.36h-13.87v13.87h13.87v-13.87Zm-13.87,13.87h-13.87v13.87h13.87v-13.87Zm-13.87,13.87h-13.87v13.87h13.87v-13.87Zm-13.87,27.74v-13.87h-13.87v13.87h13.87Zm-13.87-27.74h-13.87v13.87h13.87v-13.87Zm-13.87,27.74v-13.87h-13.87v13.87h13.87Zm-13.87,110.97h90.16v-13.87h-90.16v13.87Zm0-41.61h90.16v-13.87h-90.16v13.87Zm-13.87-55.49v-27.74h13.87v-13.87h-13.87v-48.55h-13.87v104.04h117.91v-13.87h-104.04Zm97.1-69.36h-13.87v13.87h13.87v-13.87Zm-13.87,13.87h-13.87v13.87h13.87v-13.87Zm-13.87,13.87h-13.87v13.87h13.87v-13.87Zm-13.87,27.74v-13.87h-13.87v13.87h13.87Zm-13.87-27.74h-13.87v13.87h13.87v-13.87Zm-13.87,27.74v-13.87h-13.87v13.87h13.87Zm-41.61,62.42c.14,9.09,13.66,9.09,13.87,0-.21-9.09-13.73-9.09-13.87,0Zm0,41.61c.14,9.09,13.66,9.09,13.87,0-.21-9.09-13.73-9.09-13.87,0Zm156.05,17.34v-235.81h-180.33c-37.11-3.19-70.19,25.38-70.05,63.05v54.86h56.18v145.65h194.2v-13.87h-180.33v-235.81h166.46v221.94h13.87Zm-194.2-131.78h-42.31v-40.99c0-24.76,18.45-45.29,42.31-48.69v89.68Zm65.89,121.37h90.16v-13.87h-90.16v13.87Zm90.16-55.49h-90.16v13.87h90.16v-13.87Zm0-41.61h-104.04v-27.74h13.87v-13.87h-13.87v-48.55h-13.87v104.04h117.91v-13.87Zm-6.94-69.36h-13.87v13.87h13.87v-13.87Zm-13.87,13.87h-13.87v13.87h13.87v-13.87Zm-13.87,13.87h-13.87v13.87h13.87v-13.87Zm-13.87,27.74v-13.87h-13.87v13.87h13.87Zm-13.87-27.74h-13.87v13.87h13.87v-13.87Zm-13.87,27.74v-13.87h-13.87v13.87h13.87Zm-41.61,62.42c.14,9.09,13.66,9.09,13.87,0-.21-9.09-13.73-9.09-13.87,0Zm0,41.61c.14,9.09,13.66,9.09,13.87,0-.21-9.09-13.73-9.09-13.87,0Z"/>
</svg>