<?xml version="1.0" encoding="UTF-8"?>
<svg id="Layer_1" data-name="Layer 1" xmlns="http://www.w3.org/2000/svg" xmlns:xlink="http://www.w3.org/1999/xlink" viewBox="0 0 502.8 314.24">
  <defs>
    <style>
      .cls-1 {
        fill: url(#linear-gradient-2);
      }

      .cls-2 {
        fill: url(#linear-gradient-6);
      }

      .cls-3 {
        fill: url(#linear-gradient-5);
      }

      .cls-4 {
        fill: url(#linear-gradient-7);
      }

      .cls-5 {
        fill: url(#linear-gradient-3);
      }

      .cls-6 {
        fill: url(#linear-gradient);
      }

      .cls-7 {
        fill: url(#linear-gradient-4);
      }

      .cls-8 {
        fill: url(#linear-gradient-8);
      }
    </style>
    <linearGradient id="linear-gradient" x1="73.35" y1="168.25" x2="400.66" y2="168.25" gradientUnits="userSpaceOnUse">
      <stop offset="0" stop-color="#f9c213"/>
      <stop offset="1" stop-color="#ffd86c"/>
    </linearGradient>
    <linearGradient id="linear-gradient-2" x1="104.74" y1="52.37" x2="219.98" y2="52.37" xlink:href="#linear-gradient"/>
    <linearGradient id="linear-gradient-3" x1="377.89" y1="209.29" x2="429.47" y2="209.29" xlink:href="#linear-gradient"/>
    <linearGradient id="linear-gradient-4" x1="282.85" y1="219.95" x2="366.66" y2="219.95" xlink:href="#linear-gradient"/>
    <linearGradient id="linear-gradient-5" x1="251.41" y1="246.15" x2="324.74" y2="246.15" xlink:href="#linear-gradient"/>
    <linearGradient id="linear-gradient-6" x1="209.52" y1="267.09" x2="282.85" y2="267.09" xlink:href="#linear-gradient"/>
    <linearGradient id="linear-gradient-7" x1="0" y1="104.75" x2="125.7" y2="104.75" xlink:href="#linear-gradient"/>
    <linearGradient id="linear-gradient-8" x1="356.52" y1="125.7" x2="502.8" y2="125.7" xlink:href="#linear-gradient"/>
  </defs>
  <path class="cls-6" d="m397,215.46c-9.87-20.57-45.17-49.13-79.27-76.72-19.02-15.38-37-29.92-48.46-41.38-2.87-2.89-7.16-3.81-10.96-2.45-7.06,2.56-11.42,4.53-14.85,6.05-5.24,2.35-7,3.14-14.06,3.85-3.12.31-5.93,1.99-7.67,4.59-14.81,22.14-30.15,20.26-40.39,16.82-3.27-1.09-3.85-2.49-4.17-3.83-2.2-9.2,8.84-30.61,23.15-44.92,34.04-34.06,51.6-42.59,88.68-26.02,42.07,18.81,84.22,33.54,84.64,33.69,5.51,1.91,11.44-.98,13.34-6.45,1.89-5.47-.98-11.44-6.45-13.34-.42-.15-41.73-14.58-82.96-33.04-48.04-21.47-74.39-7.33-112.04,30.34-14.33,14.33-33.79,43.32-28.76,64.59,2.16,9.05,8.53,15.75,18,18.88,23.74,7.84,45.4.33,61.53-21.08,6.66-1.03,10.29-2.53,15.73-4.99,1.97-.88,4.27-1.91,7.33-3.14,11.98,11.25,28.16,24.34,45.19,38.11,30.8,24.91,65.72,53.15,73.58,69.49,3.88,8.07-.29,13.32-3.12,15.73-4.15,3.56-9.83,4.69-12.9,2.53-3.39-2.33-7.81-2.47-11.31-.38-3.52,2.09-5.49,6.05-5.05,10.12.71,6.66-5.38,10.48-8.02,11.8-6.7,3.39-13.7,2.81-16.32.38-2.93-2.72-7.14-3.52-10.87-2.14-3.73,1.4-6.33,4.84-6.7,8.82-.63,6.87-5.72,13.47-12.36,16.05-3.21,1.21-7.86,1.95-12.02-1.86-2.6-2.35-6.2-3.25-9.57-2.43-3.41.84-6.16,3.31-7.35,6.6-.4,1.05-1.3,3.56-11.1,3.56-6.98,0-19.53-4.71-25.66-8.78-7.35-4.84-53.46-39.24-93.29-72.59-5.59-4.71-15.27-14.81-23.82-23.74-7.58-7.92-14.52-15.1-18.08-18.12-4.46-3.77-11.06-3.21-14.77,1.24-3.73,4.42-3.18,11.04,1.24,14.77,3.25,2.74,9.53,9.39,16.47,16.61,9.34,9.76,19,19.86,25.5,25.31,39.01,32.66,85.9,67.92,95.24,74.06,7.71,5.07,24.32,12.19,37.19,12.19,10.33,0,18.27-2.37,23.78-7,7.37,2.87,15.75,2.89,23.82-.25,9.53-3.69,17.37-11.12,21.81-20.13,8.25,1.76,17.7.52,26.29-3.79,8.4-4.23,14.48-10.71,17.49-18.27,8.34.44,16.93-2.51,24.03-8.61,12.03-10.29,15.34-26.29,8.38-40.73h-.06Z"/>
  <path class="cls-1" d="m209.5,41.89h-94.28c-5.78,0-10.48,4.69-10.48,10.48s4.69,10.48,10.48,10.48h94.28c5.78,0,10.48-4.69,10.48-10.48s-4.69-10.48-10.48-10.48Z"/>
  <path class="cls-5" d="m427.69,193.17c-3.25-4.8-9.74-6.12-14.54-2.85l-30.63,20.57c-4.8,3.23-6.08,9.74-2.85,14.54,2.03,3,5.34,4.63,8.72,4.63,1.99,0,4.02-.57,5.82-1.78l30.63-20.57c4.8-3.23,6.07-9.74,2.85-14.54Z"/>
  <path class="cls-7" d="m362.67,243.15c-7.5-5.91-41.04-40.24-61.78-61.87-4-4.19-10.64-4.34-14.81-.31-4.19,4-4.32,10.64-.31,14.81,5.38,5.61,52.88,55.12,63.92,63.83,1.91,1.51,4.21,2.24,6.47,2.24,3.08,0,6.16-1.38,8.25-4,3.58-4.53,2.81-11.13-1.74-14.71h0Z"/>
  <path class="cls-3" d="m320.81,264.17c-12.55-10.04-44.08-43.53-51.2-51.29-3.94-4.27-10.54-4.53-14.81-.63-4.25,3.92-4.55,10.56-.63,14.81.38.4,38,41.02,53.55,53.46,1.93,1.53,4.25,2.28,6.54,2.28,3.06,0,6.12-1.36,8.19-3.92,3.61-4.53,2.87-11.13-1.63-14.73v.02Z"/>
  <path class="cls-2" d="m279.12,285.26c-14.94-12.59-45.5-45.13-51.47-51.52-3.96-4.23-10.6-4.46-14.81-.5-4.23,3.96-4.44,10.58-.5,14.81,8.59,9.2,37.84,40.2,53.28,53.23,1.97,1.65,4.36,2.47,6.75,2.47,2.97,0,5.95-1.28,8.02-3.73,3.73-4.44,3.16-11.04-1.26-14.77h0Z"/>
  <path class="cls-4" d="m122.43,23.81C104.48,6.8,32.68,1.29,11.1.01c-2.97-.15-5.72.84-7.81,2.83C1.19,4.81,0,7.57,0,10.47v188.55c0,5.78,4.69,10.48,10.48,10.48h62.85c4.53,0,8.55-2.91,9.95-7.23,1.53-4.69,37.63-115.48,42.38-169.95.27-3.18-.9-6.33-3.23-8.51h0Zm-56.75,164.73H20.95V21.69c33.67,2.66,69.99,8.44,83.19,14.85-5.55,45.88-30.67,127.4-38.46,151.99h0Z"/>
  <path class="cls-8" d="m492.32,20.94c-82.25,0-127.88,21.05-129.79,21.93-2.72,1.28-4.76,3.65-5.59,6.52s-.42,5.95,1.15,8.51c12.95,20.85,53.49,136.62,61.28,164.86,1.26,4.55,5.38,7.69,10.1,7.69h62.85c5.78,0,10.48-4.69,10.48-10.48V31.42c0-5.8-4.69-10.47-10.48-10.47h0Zm-10.47,188.54h-44.54c-9.93-32.35-39.26-116.69-55.62-151.55,15.98-5.43,50.32-14.75,100.16-15.92v167.47Z"/>
</svg>