<?xml version="1.0" encoding="UTF-8"?>
<svg id="Layer_5" data-name="Layer 5" xmlns="http://www.w3.org/2000/svg" xmlns:xlink="http://www.w3.org/1999/xlink" viewBox="0 0 496 496">
  <defs>
    <style>
      .cls-1 {
        fill: url(#linear-gradient-2);
      }

      .cls-2 {
        fill: url(#linear-gradient-15);
      }

      .cls-3 {
        fill: url(#linear-gradient-14);
      }

      .cls-4 {
        fill: url(#linear-gradient-6);
      }

      .cls-5 {
        fill: url(#linear-gradient-11);
      }

      .cls-6 {
        fill: url(#linear-gradient-10);
      }

      .cls-7 {
        fill: url(#linear-gradient-16);
      }

      .cls-8 {
        fill: url(#linear-gradient-5);
      }

      .cls-9 {
        fill: url(#linear-gradient-7);
      }

      .cls-10 {
        fill: url(#linear-gradient-9);
      }

      .cls-11 {
        fill: url(#linear-gradient-3);
      }

      .cls-12 {
        fill: url(#linear-gradient);
      }

      .cls-13 {
        fill: url(#linear-gradient-4);
      }

      .cls-14 {
        fill: url(#linear-gradient-8);
      }

      .cls-15 {
        fill: url(#linear-gradient-12);
      }

      .cls-16 {
        fill: url(#linear-gradient-13);
      }
    </style>
    <linearGradient id="linear-gradient" x1="304" y1="144" x2="400" y2="144" gradientUnits="userSpaceOnUse">
      <stop offset="0" stop-color="#f9c213"/>
      <stop offset="1" stop-color="#ffd86c"/>
    </linearGradient>
    <linearGradient id="linear-gradient-2" x1="272" x2="432" xlink:href="#linear-gradient"/>
    <linearGradient id="linear-gradient-3" x1="344" y1="248" x2="360" y2="248" xlink:href="#linear-gradient"/>
    <linearGradient id="linear-gradient-4" x1="416" y1="216" x2="432" y2="216" xlink:href="#linear-gradient"/>
    <linearGradient id="linear-gradient-5" x1="448" x2="464" xlink:href="#linear-gradient"/>
    <linearGradient id="linear-gradient-6" x1="416" y1="72" x2="432" y2="72" xlink:href="#linear-gradient"/>
    <linearGradient id="linear-gradient-7" x1="344" y1="40" x2="360" y2="40" xlink:href="#linear-gradient"/>
    <linearGradient id="linear-gradient-8" x1="272" y1="72" x2="288" y2="72" xlink:href="#linear-gradient"/>
    <linearGradient id="linear-gradient-9" x1="240" x2="256" xlink:href="#linear-gradient"/>
    <linearGradient id="linear-gradient-10" x1="272" y1="216" x2="288" y2="216" xlink:href="#linear-gradient"/>
    <linearGradient id="linear-gradient-11" x1="0" y1="248" x2="496" y2="248" xlink:href="#linear-gradient"/>
    <linearGradient id="linear-gradient-12" x1="64" y1="104" x2="80" y2="104" xlink:href="#linear-gradient"/>
    <linearGradient id="linear-gradient-13" x1="128" y1="360" x2="272" y2="360" xlink:href="#linear-gradient"/>
    <linearGradient id="linear-gradient-14" x1="144" y1="280" x2="208" y2="280" xlink:href="#linear-gradient"/>
    <linearGradient id="linear-gradient-15" x1="144" y1="216" x2="208" y2="216" xlink:href="#linear-gradient"/>
    <linearGradient id="linear-gradient-16" x1="128" y1="248" x2="224" y2="248" xlink:href="#linear-gradient"/>
  </defs>
  <path class="cls-12" d="m352,96c-26.47,0-48,21.53-48,48s21.53,48,48,48,48-21.53,48-48-21.53-48-48-48Zm0,80c-17.65,0-32-14.35-32-32s14.35-32,32-32,32,14.35,32,32-14.35,32-32,32Z"/>
  <path class="cls-1" d="m352,64c-44.11,0-80,35.89-80,80s35.89,80,80,80,80-35.89,80-80-35.89-80-80-80Zm0,144c-35.29,0-64-28.71-64-64s28.71-64,64-64,64,28.71,64,64-28.71,64-64,64Z"/>
  <circle class="cls-11" cx="352" cy="248" r="8"/>
  <path class="cls-13" d="m424,208c-2.05,0-4.1.78-5.66,2.34-3.13,3.13-3.13,8.19,0,11.31,1.56,1.56,3.61,2.34,5.66,2.34s4.1-.78,5.66-2.34c3.13-3.13,3.13-8.19,0-11.31-1.56-1.56-3.61-2.34-5.66-2.34Z"/>
  <circle class="cls-8" cx="456" cy="144" r="8"/>
  <path class="cls-4" d="m424,64c-2.05,0-4.1.78-5.66,2.34-3.13,3.13-3.13,8.19,0,11.31,1.56,1.56,3.61,2.34,5.66,2.34s4.1-.78,5.66-2.34c3.13-3.13,3.13-8.19,0-11.31-1.56-1.56-3.61-2.34-5.66-2.34Z"/>
  <circle class="cls-9" cx="352" cy="40" r="8"/>
  <path class="cls-14" d="m280,80c2.05,0,4.1-.78,5.66-2.34,3.13-3.13,3.13-8.19,0-11.31-1.56-1.56-3.61-2.34-5.66-2.34s-4.1.78-5.66,2.34c-3.13,3.13-3.13,8.19,0,11.31,1.56,1.56,3.61,2.34,5.66,2.34Z"/>
  <circle class="cls-10" cx="248" cy="144" r="8"/>
  <path class="cls-6" d="m280,208c-2.05,0-4.1.78-5.66,2.34-3.13,3.13-3.13,8.19,0,11.31,1.56,1.56,3.61,2.34,5.66,2.34s4.1-.78,5.66-2.34c3.13-3.13,3.13-8.19,0-11.31-1.56-1.56-3.61-2.34-5.66-2.34Z"/>
  <path class="cls-5" d="m483.33,112c-8.95,0-16.95-5.34-20.62-14.16-3.44-8.28-1.56-17.74,4.77-24.07l8.98-8.96-45.27-45.27-8.95,8.98c-6.34,6.34-15.81,8.22-24.62,4.54-8.27-3.42-13.62-11.42-13.62-20.38V0h-64v12.67c0,8.95-5.34,16.95-14.16,20.62-8.3,3.44-17.74,1.56-24.07-4.77l-8.96-8.98-12.46,12.46H40C17.94,32,0,49.94,0,72v304c0,22.06,17.94,40,40,40h88v48h-16v16h176v-16h-16v-48h48v56c0,13.23,10.77,24,24,24h16c13.23,0,24-10.77,24-24v-196.67c0-8.95,5.34-16.95,14.01-20.55,8.4-3.47,17.94-1.58,24.34,4.83l8.85,8.85,45.26-45.26-8.98-8.95c-6.34-6.34-8.21-15.8-4.57-24.58,3.46-8.3,11.49-13.66,20.46-13.66h12.62v-64h-12.67ZM40,48h204.35l-16.81,16.81,8.85,8.85c6.41,6.41,8.3,15.95,4.69,24.69-3.13,7.51-10.01,12.57-17.94,13.47-3.78-18.14-19.89-31.82-39.14-31.82-17.32,0-31.96,11.13-37.51,26.56l-34.74-4.97c-1.26-20.91-18.52-37.59-39.75-37.59s-40,17.94-40,40c0,19.31,13.77,35.47,32,39.19v49.62c-18.23,3.72-32,19.88-32,39.19,0,22.06,17.94,40,40,40s40-17.94,40-40c0-8.14-2.47-15.7-6.66-22.02l56.64-56.64c6.33,4.19,13.89,6.66,22.02,6.66,9.04,0,17.3-3.13,24-8.21v24.21h12.67c8.95,0,16.95,5.34,20.62,14.16,3.44,8.28,1.56,17.74-4.77,24.07l-8.98,8.96,45.27,45.27,8.95-8.98c6.35-6.34,15.79-8.2,24.63-4.54,8.26,3.43,13.6,11.43,13.6,20.38v28.66H16V72c0-13.23,10.77-24,24-24Zm32,80c-13.23,0-24-10.77-24-24s10.77-24,24-24,24,10.77,24,24-10.77,24-24,24Zm0,80c13.23,0,24,10.77,24,24s-10.77,24-24,24-24-10.77-24-24,10.77-24,24-24Zm22.02-9.34c-4.19-2.78-8.93-4.82-14.02-5.86v-49.62c13.76-2.81,24.83-12.76,29.51-25.75l34.74,4.97c.44,7.21,2.66,13.94,6.42,19.62l-56.65,56.64Zm65.98-78.66c0-13.23,10.77-24,24-24s24,10.77,24,24-10.77,24-24,24-24-10.77-24-24Zm176,168h32v32h-32v-32Zm-80,176h-112v-48h112v48Zm-216-64c-13.23,0-24-10.77-24-24v-56h304v80H40Zm320,80h-16c-4.42,0-8-3.58-8-8v-136h32v136c0,4.42-3.58,8-8,8Zm120-319.85c-14.07,1.23-26.37,10.17-32.07,23.88-5.5,13.24-3.11,28.22,5.99,39.06l-22.83,22.84c-10.89-9.1-25.95-11.44-39.61-5.78-13.22,5.48-22,17.77-23.23,31.83h-32.5c-1.23-14.06-10.04-26.37-23.78-32.07-4.74-1.97-9.71-2.92-14.62-2.92-8.82,0-17.49,3.07-24.44,8.91l-22.83-22.83c9.1-10.83,11.47-25.85,5.76-39.62-5.49-13.22-17.76-22.12-31.83-23.34v-32.29c14.07-1.23,26.36-10.16,32.01-23.74,5.51-13.3,3.15-28.32-5.94-39.2l22.84-22.83c10.83,9.1,25.85,11.47,39.62,5.76,13.23-5.5,22.11-17.76,23.33-31.83h32.28c1.22,14.07,10.15,26.36,23.89,32.07,13.26,5.51,28.23,3.11,39.06-5.99l22.83,22.83c-9.1,10.83-11.47,25.85-5.76,39.62,5.49,13.22,17.76,22.12,31.83,23.34v32.29h0Z"/>
  <circle class="cls-15" cx="72" cy="104" r="8"/>
  <path class="cls-16" d="m256,336h-112c-8.82,0-16,7.18-16,16v16c0,8.82,7.18,16,16,16h112c8.82,0,16-7.18,16-16v-16c0-8.82-7.18-16-16-16Zm-112,32v-16h112l.02,16h-112.02Z"/>
  <path class="cls-3" d="m144,272h64v16h-64v-16Z"/>
  <path class="cls-2" d="m144,208h64v16h-64v-16Z"/>
  <path class="cls-7" d="m128,240h96v16h-96v-16Z"/>
</svg>