<?xml version="1.0" encoding="UTF-8"?>
<svg id="Layer_5" data-name="Layer 5" xmlns="http://www.w3.org/2000/svg" xmlns:xlink="http://www.w3.org/1999/xlink" viewBox="0 0 512 512">
  <defs>
    <style>
      .cls-1 {
        fill: url(#linear-gradient-2);
      }

      .cls-2 {
        fill: url(#linear-gradient-6);
      }

      .cls-3 {
        fill: url(#linear-gradient-5);
      }

      .cls-4 {
        fill: url(#linear-gradient-7);
      }

      .cls-5 {
        fill: url(#linear-gradient-9);
      }

      .cls-6 {
        fill: url(#linear-gradient-3);
      }

      .cls-7 {
        fill: url(#linear-gradient);
      }

      .cls-8 {
        fill: url(#linear-gradient-4);
      }

      .cls-9 {
        fill: url(#linear-gradient-8);
      }
    </style>
    <linearGradient id="linear-gradient" x1="344" y1="160" x2="424" y2="160" gradientUnits="userSpaceOnUse">
      <stop offset="0" stop-color="#f9c213"/>
      <stop offset="1" stop-color="#ffd86c"/>
    </linearGradient>
    <linearGradient id="linear-gradient-2" x1="296" y1="160" x2="472" y2="160" xlink:href="#linear-gradient"/>
    <linearGradient id="linear-gradient-3" x1="8" y1="254.79" x2="504" y2="254.79" xlink:href="#linear-gradient"/>
    <linearGradient id="linear-gradient-4" x1="416" y1="368" x2="432" y2="368" xlink:href="#linear-gradient"/>
    <linearGradient id="linear-gradient-5" x1="416" y1="400" x2="432" y2="400" xlink:href="#linear-gradient"/>
    <linearGradient id="linear-gradient-6" x1="416" y1="432" x2="432" y2="432" xlink:href="#linear-gradient"/>
    <linearGradient id="linear-gradient-7" x1="304" y1="416" x2="320" y2="416" xlink:href="#linear-gradient"/>
    <linearGradient id="linear-gradient-8" x1="304" y1="448" x2="320" y2="448" xlink:href="#linear-gradient"/>
    <linearGradient id="linear-gradient-9" x1="192" y1="464" x2="208" y2="464" xlink:href="#linear-gradient"/>
  </defs>
  <path class="cls-7" d="m384,200c22.06,0,40-17.94,40-40s-17.94-40-40-40-40,17.94-40,40,17.94,40,40,40Zm0-64c13.23,0,24,10.77,24,24s-10.77,24-24,24-24-10.77-24-24,10.77-24,24-24Z"/>
  <path class="cls-1" d="m308.38,134l-12.38,4.32v43.36l12.38,4.32c1.07,3.14,2.33,6.17,3.74,9.1l-5.69,11.8,30.66,30.66,11.79-5.7c2.93,1.43,5.97,2.68,9.09,3.75l4.34,12.38h43.36l4.33-12.39c3.13-1.07,6.17-2.32,9.09-3.75l11.79,5.7,30.66-30.66-5.69-11.8c1.42-2.93,2.67-5.97,3.74-9.1l12.39-4.31v-43.36l-12.38-4.32c-1.07-3.14-2.33-6.17-3.74-9.1l5.69-11.8-30.66-30.66-11.8,5.69c-2.92-1.42-5.96-2.67-9.09-3.74l-4.33-12.38h-43.36l-4.33,12.39c-3.14,1.07-6.17,2.32-9.1,3.74l-11.79-5.69-30.66,30.66,5.69,11.8c-1.42,2.93-2.67,5.96-3.74,9.1Zm14.13,8.42c1.36-4.78,3.23-9.31,5.56-13.49l2.02-3.63-4.3-8.92,14.6-14.59,8.91,4.3,3.63-2.02c4.16-2.32,8.7-4.18,13.49-5.55l3.99-1.14,3.26-9.38h20.64l3.27,9.38,3.99,1.14c4.78,1.36,9.32,3.23,13.5,5.55l3.62,2.02,8.91-4.3,14.6,14.59-4.3,8.92,2.02,3.63c2.33,4.17,4.2,8.71,5.56,13.49l1.14,3.99,9.36,3.26v20.64l-9.37,3.26-1.14,3.99c-1.36,4.78-3.23,9.31-5.56,13.49l-2.02,3.63,4.3,8.92-14.59,14.59-8.91-4.3-3.63,2.02c-4.18,2.34-8.72,4.2-13.49,5.56l-3.99,1.14-3.27,9.38h-20.64l-3.27-9.38-3.99-1.14c-4.77-1.36-9.31-3.22-13.49-5.56l-3.63-2.02-8.91,4.3-14.59-14.59,4.3-8.92-2.02-3.63c-2.33-4.17-4.2-8.71-5.56-13.49l-1.14-3.99-9.37-3.26v-20.64l9.37-3.26,1.14-3.99Z"/>
  <path class="cls-6" d="m179.28,205.38l85.1-53.18c3.76,68.28,45.67,128.81,109.07,155.98l10.55,4.53,10.55-4.52c66.49-28.5,109.45-93.65,109.45-165.98V48h-9.52c-38.42,0-75.83-13.54-105.36-38.15l-5.12-4.26-5.12,4.26c-29.53,24.61-66.94,38.15-105.36,38.15h-9.52v40.59c-3.06.62-6.02,1.71-8.7,3.37l-80.21,49.36c-9.58,5.89-20.38,9.28-31.5,10.25,10.13-10.14,16.41-24.14,16.41-39.57,0-30.87-25.12-56-56-56s-56,25.13-56,56c0,17.89,8.46,33.81,21.57,44.07-35.65,11.25-61.57,44.62-61.57,83.93v64c0,22.06,17.94,40,40,40v128c0,17.65,14.35,32,32,32s32-14.35,32-32v-136h48v72c0,5.86,1.7,11.27,4.45,16h-20.45v64h-16v16h352v-16h-16v-160h-96v160h-16v-112h-96v112h-16v-64h-20.45c2.75-4.73,4.45-10.14,4.45-16v-96c0-22.06-17.94-40-40-40h-16.01v-46.26c0-8.33,4.22-15.94,11.29-20.35h0ZM384,26.26c29.83,23.06,66.32,36.26,104,37.62v78.32c0,65.92-39.15,125.3-99.75,151.27l-4.25,1.82-4.25-1.82c-60.53-25.94-99.65-85.22-99.74-151.05l3.44-2.14c7.86-4.91,12.55-13.38,12.55-22.65v-2.93c0-10.91-6.6-20.29-16-24.42v-26.4c37.68-1.36,74.17-14.56,104-37.62h0ZM96,168h28.98l-20.98,26.97-20.11-25.86c3.94-.67,7.98-1.1,12.11-1.1Zm-32-56c0-22.06,17.94-40,40-40s40,17.94,40,40-17.94,40-40,40-40-17.94-40-40Zm320,232h64v144h-64v-144Zm-112,48h64v96h-64v-96Zm-48,96h-64v-48h64v48Zm-40-200c13.23,0,24,10.77,24,24v96c0,8.82-7.18,16-16,16s-16-7.18-16-16v-72c0-8.82-7.18-16-16-16h-48v-32h-16v184c0,8.82-7.18,16-16,16s-16-7.18-16-16V208h-16v120c-13.23,0-24-10.77-24-24v-64c0-29.54,17.89-54.95,43.39-66.04l36.61,47.07,41.7-53.61c13.35-1.27,26.29-5.41,37.78-12.48l80.21-49.36c1.69-1.04,3.63-1.58,5.62-1.58,5.9,0,10.7,4.81,10.7,10.7v2.93c0,3.72-1.88,7.11-5.03,9.08l-104.17,65.11c-11.78,7.34-18.8,20.02-18.8,33.91v62.26s32,0,32,0Z"/>
  <path class="cls-8" d="m416,360h16v16h-16v-16Z"/>
  <path class="cls-3" d="m416,392h16v16h-16v-16Z"/>
  <path class="cls-2" d="m416,424h16v16h-16v-16Z"/>
  <path class="cls-4" d="m304,408h16v16h-16v-16Z"/>
  <path class="cls-9" d="m304,440h16v16h-16v-16Z"/>
  <path class="cls-5" d="m192,456h16v16h-16v-16Z"/>
</svg>