<?xml version="1.0" encoding="UTF-8"?>
<svg id="Layer_5" data-name="Layer 5" xmlns="http://www.w3.org/2000/svg" xmlns:xlink="http://www.w3.org/1999/xlink" viewBox="0 0 448 448">
  <defs>
    <style>
      .cls-1 {
        fill: url(#linear-gradient-2);
      }

      .cls-2 {
        fill: url(#linear-gradient-3);
      }

      .cls-3 {
        fill: url(#linear-gradient);
      }

      .cls-4 {
        fill: url(#linear-gradient-4);
      }
    </style>
    <linearGradient id="linear-gradient" x1="96" y1="272" x2="448" y2="272" gradientUnits="userSpaceOnUse">
      <stop offset="0" stop-color="#f9c213"/>
      <stop offset="1" stop-color="#ffd86c"/>
    </linearGradient>
    <linearGradient id="linear-gradient-2" x1="176" y1="272" x2="368" y2="272" xlink:href="#linear-gradient"/>
    <linearGradient id="linear-gradient-3" x1="0" y1="111.34" x2="222.68" y2="111.34" xlink:href="#linear-gradient"/>
    <linearGradient id="linear-gradient-4" x1="64" y1="96" x2="160" y2="96" xlink:href="#linear-gradient"/>
  </defs>
  <g id="_10" data-name="10">
    <path class="cls-3" d="m432,224h-24.36c-1.69-4.76-3.62-9.42-5.78-13.97l17.22-17.23c3-3,4.69-7.07,4.69-11.31s-1.69-8.31-4.69-11.31l-45.25-45.26c-6.25-6.25-16.38-6.25-22.62,0l-17.23,17.22c-4.55-2.16-9.2-4.09-13.97-5.78v-24.36c0-8.84-7.16-16-16-16h-64c-8.84,0-16,7.16-16,16v24.36c-4.77,1.69-9.42,3.62-13.97,5.78l-17.23-17.22c-6.25-6.25-16.38-6.25-22.62,0l-45.25,45.26c-3,3-4.69,7.07-4.69,11.31s1.69,8.31,4.69,11.31l17.22,17.23c-2.16,4.55-4.09,9.21-5.78,13.97h-24.36c-8.84,0-16,7.16-16,16v64c0,8.84,7.16,16,16,16h24.36c1.69,4.76,3.62,9.42,5.78,13.97l-17.22,17.23c-3,3-4.69,7.07-4.69,11.31s1.69,8.31,4.69,11.31l45.25,45.26c6.25,6.25,16.38,6.25,22.62,0l17.23-17.22c4.55,2.16,9.2,4.09,13.97,5.78v24.36c0,8.84,7.16,16,16,16h64c8.84,0,16-7.16,16-16v-24.36c4.77-1.69,9.42-3.62,13.97-5.78l17.23,17.22c6.25,6.25,16.38,6.25,22.62,0l45.25-45.26c3-3,4.69-7.07,4.69-11.31s-1.69-8.31-4.69-11.31l-17.22-17.23c2.16-4.55,4.09-9.21,5.78-13.97h24.36c8.84,0,16-7.16,16-16v-64c0-8.84-7.16-16-16-16Zm-16,64h-20.19c-7.3,0-13.66,4.93-15.48,11.99-2.62,10.15-6.64,19.84-11.94,28.8-3.7,6.29-2.69,14.29,2.47,19.45l14.28,14.27-22.62,22.63-14.28-14.27c-5.16-5.16-13.17-6.18-19.45-2.46-8.94,5.28-18.62,9.28-28.78,11.91-7.06,1.82-12,8.2-12,15.49v20.2h-32v-20.2c0-7.3-4.94-13.67-12-15.49-10.16-2.62-19.84-6.62-28.78-11.91-6.27-3.71-14.3-2.72-19.45,2.46l-14.28,14.27-22.62-22.63,14.28-14.27c5.16-5.16,6.17-13.16,2.47-19.45-5.3-8.96-9.31-18.65-11.94-28.8-1.83-7.06-8.19-11.99-15.48-11.99h-20.19v-32h20.19c7.3,0,13.66-4.93,15.48-11.99,2.62-10.15,6.64-19.84,11.94-28.8,3.7-6.29,2.69-14.29-2.47-19.45l-14.28-14.27,22.62-22.63,14.28,14.27c5.16,5.18,13.19,6.2,19.45,2.46,8.94-5.28,18.62-9.28,28.78-11.91,7.06-1.82,12-8.2,12-15.49v-20.2h32v20.2c0,7.3,4.94,13.67,12,15.49,10.16,2.62,19.84,6.62,28.78,11.91,6.25,3.72,14.3,2.72,19.45-2.46l14.28-14.27,22.62,22.63-14.28,14.27c-5.16,5.16-6.17,13.16-2.47,19.45,5.3,8.96,9.31,18.65,11.94,28.8,1.83,7.06,8.19,11.99,15.48,11.99h20.19v32Z"/>
    <path class="cls-1" d="m357.94,209.14l-80-32c-3.81-1.52-8.06-1.52-11.88,0l-80,32c-6.08,2.44-10.06,8.32-10.06,14.86v96c0,6.54,3.98,12.42,10.06,14.86l80,32c1.91.76,3.92,1.14,5.94,1.14s4.03-.38,5.94-1.14l80-32c6.08-2.44,10.06-8.32,10.06-14.86v-96c0-6.54-3.98-12.42-10.06-14.86Zm-85.94.09l36.92,14.77-36.92,14.77-36.92-14.77,36.92-14.77Zm-64,38.4l48,19.2v61.53l-48-19.2v-61.53Zm80,80.73v-61.53l48-19.2v61.53l-48,19.2Z"/>
    <path class="cls-2" d="m111.78,209.32c1.45-8.72-4.42-16.97-13.14-18.43-38.61-6.48-66.64-39.66-66.64-78.89,0-44.11,35.89-80,80-80,39.23,0,72.41,28.03,78.89,66.65,1.45,8.71,9.52,14.57,18.44,13.13,8.7-1.47,14.59-9.72,13.12-18.43C213.38,39.26,166.92,0,112,0,50.25,0,0,50.24,0,112c0,54.92,39.27,101.38,93.36,110.45.89.15,1.78.22,2.66.22,7.67,0,14.45-5.53,15.77-13.35Z"/>
    <path class="cls-4" d="m132.69,68.69l-27.31,27.31h-25.38c-8.84,0-16,7.16-16,16s7.16,16,16,16h32c4.25,0,8.31-1.69,11.31-4.69l32-32c6.25-6.25,6.25-16.38,0-22.62s-16.38-6.25-22.62,0Z"/>
  </g>
</svg>