<?xml version="1.0" encoding="UTF-8"?>
<svg id="Layer_1" data-name="Layer 1" xmlns="http://www.w3.org/2000/svg" viewBox="0 0 512 512">
  <path d="m208.76,282.33c0-37.22-30.28-67.5-67.5-67.5s-67.5,30.28-67.5,67.5,30.28,67.5,67.5,67.5,67.5-30.28,67.5-67.5Zm-67.5,33.75c-18.61,0-33.75-15.14-33.75-33.75s15.14-33.75,33.75-33.75,33.75,15.14,33.75,33.75-15.14,33.75-33.75,33.75Z"/>
  <path d="m141.26,349.83c-55.83,0-101.25,45.42-101.25,101.25v33.75h202.5v-33.75c0-55.83-45.42-101.25-101.25-101.25Zm-67.5,101.25c0-37.22,30.28-67.5,67.5-67.5s67.5,30.28,67.5,67.5H73.76Z"/>
  <path d="m455.13,86.58c-9.3,0-16.88-7.57-16.88-16.87v-16.88h-168.75v16.88c0,9.3-7.57,16.87-16.88,16.87h-16.88v78.9c0,71.11,45.33,134,112.79,156.49l5.34,1.78,5.34-1.78c67.46-22.49,112.79-85.38,112.79-156.49v-78.9h-16.88Zm-16.88,78.9c0,54.67-33.67,103.22-84.38,122.56-50.7-19.34-84.38-67.9-84.38-122.56v-48.04c14.36-5.09,25.77-16.49,30.86-30.86h107.03c5.09,14.36,16.5,25.77,30.86,30.86v48.04Z"/>
  <path d="m340.38,174.09l-21.82-21.82-23.87,23.86,45.68,45.68,72.68-72.68-23.87-23.86-48.82,48.82Z"/>
</svg>