<?xml version="1.0" encoding="UTF-8"?>
<svg id="Layer_1" data-name="Layer 1" xmlns="http://www.w3.org/2000/svg" viewBox="0 0 512 512">
  <path d="m401.6,363.03c-9.87-20.57-45.17-49.13-79.27-76.72-19.02-15.38-37-29.92-48.46-41.38-2.87-2.89-7.16-3.81-10.96-2.45-7.06,2.56-11.42,4.53-14.85,6.05-5.24,2.35-7,3.14-14.06,3.85-3.12.31-5.93,1.99-7.67,4.59-14.81,22.14-30.15,20.26-40.39,16.82-3.27-1.09-3.85-2.49-4.17-3.83-2.2-9.2,8.84-30.61,23.15-44.92,34.04-34.06,51.6-42.59,88.68-26.02,42.07,18.81,84.22,33.54,84.64,33.69,5.51,1.91,11.44-.98,13.34-6.45,1.89-5.47-.98-11.44-6.45-13.34-.42-.15-41.73-14.58-82.96-33.04-48.04-21.47-74.39-7.33-112.04,30.34-14.33,14.33-33.79,43.32-28.76,64.59,2.16,9.05,8.53,15.75,18,18.88,23.74,7.84,45.4.33,61.53-21.08,6.66-1.03,10.29-2.53,15.73-4.99,1.97-.88,4.27-1.91,7.33-3.14,11.98,11.25,28.16,24.34,45.19,38.11,30.8,24.91,65.72,53.15,73.58,69.49,3.88,8.07-.29,13.32-3.12,15.73-4.15,3.56-9.83,4.69-12.9,2.53-3.39-2.33-7.81-2.47-11.31-.38-3.52,2.09-5.49,6.05-5.05,10.12.71,6.66-5.38,10.48-8.02,11.8-6.7,3.39-13.7,2.81-16.32.38-2.93-2.72-7.14-3.52-10.87-2.14-3.73,1.4-6.33,4.84-6.7,8.82-.63,6.87-5.72,13.47-12.36,16.05-3.21,1.21-7.86,1.95-12.02-1.86-2.6-2.35-6.2-3.25-9.57-2.43-3.41.84-6.16,3.31-7.35,6.6-.4,1.05-1.3,3.56-11.1,3.56-6.98,0-19.53-4.71-25.66-8.78-7.35-4.84-53.46-39.24-93.29-72.59-5.59-4.71-15.27-14.81-23.82-23.74-7.58-7.92-14.52-15.1-18.08-18.12-4.46-3.77-11.06-3.21-14.77,1.24-3.73,4.42-3.18,11.04,1.24,14.77,3.25,2.74,9.53,9.39,16.47,16.61,9.34,9.76,19,19.86,25.5,25.31,39.01,32.66,85.9,67.92,95.24,74.06,7.71,5.07,24.32,12.19,37.19,12.19,10.33,0,18.27-2.37,23.78-7,7.37,2.87,15.75,2.89,23.82-.25,9.53-3.69,17.37-11.12,21.81-20.13,8.25,1.76,17.7.52,26.29-3.79,8.4-4.23,14.48-10.71,17.49-18.27,8.34.44,16.93-2.51,24.03-8.61,12.03-10.29,15.34-26.29,8.38-40.73Z"/>
  <path d="m214.1,189.46h-94.28c-5.78,0-10.48,4.69-10.48,10.48s4.69,10.48,10.48,10.48h94.28c5.78,0,10.48-4.69,10.48-10.48s-4.69-10.48-10.48-10.48Z"/>
  <path d="m432.29,340.74c-3.25-4.8-9.74-6.12-14.54-2.85l-30.63,20.57c-4.8,3.23-6.08,9.74-2.85,14.54,2.03,3,5.34,4.63,8.72,4.63,1.99,0,4.02-.57,5.82-1.78l30.63-20.57c4.8-3.23,6.07-9.74,2.85-14.54Z"/>
  <path d="m367.27,390.72c-7.5-5.91-41.04-40.24-61.78-61.87-4-4.19-10.64-4.34-14.81-.31-4.19,4-4.32,10.64-.31,14.81,5.38,5.61,52.88,55.12,63.92,63.83,1.91,1.51,4.21,2.24,6.47,2.24,3.08,0,6.16-1.38,8.25-4,3.58-4.53,2.81-11.13-1.74-14.71Z"/>
  <path d="m325.41,411.74c-12.55-10.04-44.08-43.53-51.2-51.29-3.94-4.27-10.54-4.53-14.81-.63-4.25,3.92-4.55,10.56-.63,14.81.38.4,38,41.02,53.55,53.46,1.93,1.53,4.25,2.28,6.54,2.28,3.06,0,6.12-1.36,8.19-3.92,3.61-4.53,2.87-11.13-1.63-14.73Z"/>
  <path d="m283.72,432.83c-14.94-12.59-45.5-45.13-51.47-51.52-3.96-4.23-10.6-4.46-14.81-.5-4.23,3.96-4.44,10.58-.5,14.81,8.59,9.2,37.84,40.2,53.28,53.23,1.97,1.65,4.36,2.47,6.75,2.47,2.97,0,5.95-1.28,8.02-3.73,3.73-4.44,3.16-11.04-1.26-14.77Z"/>
  <path d="m127.03,171.38c-17.95-17.01-89.75-22.52-111.33-23.8-2.97-.15-5.72.84-7.81,2.83-2.1,1.97-3.29,4.73-3.29,7.63v188.55c0,5.78,4.69,10.48,10.48,10.48h62.85c4.53,0,8.55-2.91,9.95-7.23,1.53-4.69,37.63-115.48,42.38-169.95.27-3.18-.9-6.33-3.23-8.51Zm-56.75,164.73H25.55v-166.85c33.67,2.66,69.99,8.44,83.19,14.85-5.55,45.88-30.67,127.4-38.46,151.99Z"/>
  <path d="m496.92,168.51c-82.25,0-127.88,21.05-129.79,21.93-2.72,1.28-4.76,3.65-5.59,6.52s-.42,5.95,1.15,8.51c12.95,20.85,53.49,136.62,61.28,164.86,1.26,4.55,5.38,7.69,10.1,7.69h62.85c5.78,0,10.48-4.69,10.48-10.48v-188.55c0-5.8-4.69-10.47-10.48-10.47Zm-10.47,188.55h-44.54c-9.93-32.35-39.26-116.69-55.62-151.55,15.98-5.43,50.32-14.75,100.16-15.92v167.47Z"/>
</svg>