<?xml version="1.0" encoding="UTF-8"?>
<svg id="Layer_1" data-name="Layer 1" xmlns="http://www.w3.org/2000/svg" viewBox="0 0 512 512">
  <path d="m509.16,164.14l-60.93-60.93c-1.5-1.5-3.54-2.34-5.66-2.34h-243.71c-2.12,0-4.16.84-5.66,2.34l-60.93,60.93c-1.51,1.51-2.35,3.55-2.34,5.68s.86,4.17,2.37,5.66l183.66,181.9c1.56,1.54,3.6,2.32,5.63,2.32s4.1-.78,5.66-2.34l181.9-181.9c3.13-3.12,3.13-8.19,0-11.31h0Zm-138.61,13.66l-49.75,149.26-49.89-149.26h99.65Zm-91.44-16l41.61-41.62,41.61,41.62h-83.23Zm60.93-44.93h83.23l-41.61,41.61-41.61-41.61Zm-80.24,41.61l-41.61-41.62h83.23l-41.61,41.62Zm-5.76,19.31l47.83,143.09-144.48-143.09h96.65Zm133.38,0h96.78l-145.16,145.16,48.39-145.16Zm13.55-16l41.61-41.62,41.61,41.62h-83.23Zm-202.1-41.61l41.61,41.62h-83.23l41.61-41.62Zm113.86-49.56V10.84c0-4.42,3.58-8,8-8s8,3.58,8,8v59.79c0,4.42-3.58,8-8,8s-8-3.58-8-8Zm66.67,6.4l29.73-48.29c2.32-3.76,7.24-4.93,11.01-2.62,3.76,2.32,4.93,7.24,2.62,11.01l-29.73,48.29c-1.51,2.46-4.13,3.81-6.82,3.81-1.43,0-2.88-.38-4.19-1.19-3.76-2.32-4.94-7.24-2.62-11.01Zm-160.68-39.9c-2.32-3.76-1.14-8.69,2.62-11.01,3.76-2.32,8.69-1.14,11.01,2.62l29.73,48.29c2.32,3.76,1.14,8.69-2.62,11.01-1.31.81-2.76,1.19-4.19,1.19-2.69,0-5.31-1.35-6.82-3.81l-29.73-48.29Zm253.13,332.64c-10.13-5.85-21.89-7.41-33.11-4.4l-132.78,35.58c1.32-6.89,1.08-14.06-.77-21.07-3.24-12.3-11.03-22.57-21.94-28.92l-119.03-69.35c-.31-.18-.63-.34-.96-.48-18.44-7.65-37.14-7.67-55.58-.05l-42.72,17.65v-7.21c0-8.74-7.11-15.86-15.85-15.86H16.36c-8.74,0-15.85,7.11-15.85,15.86v177.16c0,8.74,7.11,15.86,15.85,15.86h32.74c8.74,0,15.85-7.11,15.85-15.86v-7.47c22.45-9.16,40.63-8.59,60.14,1.75l69.02,36.57c12.16,6.44,24.11,9.64,36.17,9.64,6.19,0,12.4-.84,18.69-2.53l212.36-56.9c23.26-6.23,37.11-30.22,30.88-53.48-3.01-11.23-10.24-20.63-20.36-26.48h0ZM16.5,468.53v-176.87h32.45v176.87H16.5Zm440.68-34.25l-212.36,56.9c-14.42,3.86-28.56,1.97-43.22-5.8l-69.02-36.57c-22.04-11.67-43.26-13.23-67.63-4.72v-128.06l48.83-20.17c14.42-5.96,28.44-6.01,42.85-.16l118.55,69.07c7.21,4.2,12.37,11.01,14.52,19.18s1.02,16.63-3.17,23.84c-4.21,7.22-11.02,12.39-19.17,14.54-8.15,2.15-16.62,1.02-23.85-3.19l-63.58-37.04c-3.82-2.22-8.71-.93-10.94,2.89s-.93,8.71,2.88,10.94l63.58,37.04c7.31,4.26,15.46,6.44,23.73,6.44,4.08,0,8.19-.53,12.25-1.6,10.8-2.85,20.04-9.22,26.44-18.13l144.99-38.85c7.1-1.9,14.55-.91,20.97,2.8,6.42,3.71,11.01,9.66,12.91,16.76,3.95,14.74-4.83,29.94-19.56,33.89h0Z"/>
</svg>