<?xml version="1.0" encoding="UTF-8"?>
<svg id="Layer_1" data-name="Layer 1" xmlns="http://www.w3.org/2000/svg" viewBox="0 0 64 64">
  <defs>
    <style>
      .cls-1 {
        fill: #fed20d;
      }
    </style>
  </defs>
  <path class="cls-1" d="m45.97,29.05s-.02,0-.03,0c0,0,.02-.01.03-.02v.02Z"/>
  <path class="cls-1" d="m18.17,29.08h-.08l.05-.15s.02.1.02.15Z"/>
  <path class="cls-1" d="m37.4,54.19c-.15.7-.53,1.16-1,1.52-1.5,1.15-3.22,1.86-5.1,1.56-1.76-.28-3.47-.87-4.49-2.55-.08-.13-.12-.28-.23-.53h10.83Z"/>
  <path class="cls-1" d="m45.87,34.41c.01,1.77-.55,3.3-1.67,4.56-.24.27-.5.52-.79.77-1.31,1.1-1.93,2.58-2.25,4.21-.01.07-.03.14-.06.31-.68-1.11-1.47-1.97-2.66-2.51.69.97,1.36,1.84,1.95,2.77.63.98,1.18,2.01,1.22,3.23.03.96-.42,1.62-1.23,2.1-.16.09-.33.27-.37.44-.36,1.54-1.29,2.52-2.83,2.86,0,0,0,0-.01,0-.6.13-1.22.14-1.83.21-.02-.04-.05-.09-.07-.13.01-.03.03-.06.04-.08.13-.27.25-.55.42-.8.05-.08.26-.11.39-.1,1.54.13,2.34-.75,2.72-1.95.02-.07.02-.14.04-.24-.72-.03-1.37.14-1.99.42-1.06.48-1.9,1.23-2.53,2.2-.21.33-.46.47-.87.46-1.04-.03-2.08-.01-3.11,0-.27,0-.45-.07-.62-.32-.67-1-1.5-1.82-2.6-2.32-.62-.28-1.27-.45-1.96-.44,0,1.05,1.02,2.13,2.03,2.19.1,0,.21,0,.31,0,.75,0,.96.15,1.12.9.01.05.02.1.03.15-.69.02-1.35,0-1.97-.15-.79-.19-1.5-.6-2.06-1.37-.3-.42-.43-.96-.66-1.43-.09-.18-.2-.4-.37-.49-1.05-.6-1.47-1.64-1.14-2.84.37-1.35,1.09-2.51,1.9-3.62.38-.52.78-1.02,1.14-1.57-1.12.47-1.93,1.3-2.57,2.4-.19-.64-.35-1.21-.53-1.77-.33-1.04-.91-1.93-1.73-2.63-1.9-1.61-2.63-3.58-2.58-5.79.01-.58.08-1.18.19-1.8.1-.54.22-1.08.35-1.61h0s0-.02,0-.03c.04-.16.1-.32.16-.48.02-.06.05-.13.07-.19.11.06.22.13.33.19.47.28.91.57,1.39.76.85.32,1.73.56,2.61.79,2.27.6,3.67,2.05,4.1,4.35.16.85.11,1.74.16,2.61,0,.14,0,.29.1.46.11-.33.25-.67.34-1.01.4-1.45.51-2.88-.17-4.29-.6-1.22-1.59-2.02-2.76-2.63-1.05-.55-2.17-.86-3.34-1.1-2.27-.47-3.06-2.61-2.32-4.47.52-1.3,1.55-2.1,2.76-2.68.68-.32,1.4-.56,2.1-.83.06-.02.11-.08.14-.22-.7.09-1.42.12-2.1.28-.69.16-1.36.46-2.09.71-.04-.96-.09-1.95-.12-2.93,0-.09.11-.2.19-.26,1.17-.92,2.49-1.52,3.94-1.84,2.46-.54,4.88-.35,7.31.23.37.09.81.09,1.18,0,1.92-.5,3.86-.64,5.82-.47,1.97.17,3.77.84,5.35,2.05.1.07.23.19.22.29-.02.99-.06,1.98-.11,3.06-1.35-.84-2.78-.96-4.21-1.1-.01.04-.03.07-.04.11.1.04.2.1.31.13,1.42.48,2.8,1.05,3.87,2.15,1.18,1.21,1.46,2.83.71,4.28-.48.93-1.33,1.39-2.33,1.56-1.78.31-3.41.95-4.76,2.16-1.5,1.34-1.91,3.06-1.53,5,.09.45.22.89.34,1.33.04.15.11.29.26.42,0-.17,0-.33,0-.5-.04-1.25.04-2.48.52-3.66.66-1.64,1.89-2.67,3.54-3.1,1.5-.39,3.01-.73,4.35-1.75.06-.05.13-.1.19-.15.02.06.03.12.05.17.05.17.11.34.16.49h0c.1.32.19.62.24.92.02.14.04.27.06.41h0s0,.02,0,.03c.12.51.22.99.2,1.42,0,.1,0,.21,0,.3h0c0,.08.01.15.01.21h0c.01.21.02.42.02.62Z"/>
  <path class="cls-1" d="m18.08,29.08h.01,0s0,0-.01,0Z"/>
  <path class="cls-1" d="m18.17,29.08h-.08l.05-.15s.02.1.02.15Z"/>
  <path class="cls-1" d="m18.92,23.27c-.01.34-.29.67-.39,1.01-.25.85-.57,1.69-.65,2.56-.06.66.15,1.35.27,2.09h0s-.05.15-.05.15h-.01c-1.05,0-2.2.02-3.35,0-.34,0-.68-.03-1.01-.05-1.39-.11-2.76-.38-4.09-.8-3.76-1.18-6.82-3.27-8.54-6.94-2.16-4.62-.43-9.96,3.97-12.58,2.21-1.32,4.61-1.87,7.27-2.03-.47.38-.85.68-1.23.98-1.36,1.08-2.49,2.36-3.24,3.95-.74,1.57-1,3.23-.67,4.93.21,1.05.94,1.81,1.87,2.35,1.45.84,3.06,1.11,4.7,1.14,1.52.03,3.05-.05,4.58-.11.34-.01.52.02.52.43,0,.98.09,1.96.06,2.93Z"/>
  <path class="cls-1" d="m18.17,29.08h-.08l.05-.15s.02.1.02.15Z"/>
  <path class="cls-1" d="m45.96,29.03v.02s-.02,0-.03,0c0,0,.02-.01.03-.02Z"/>
  <path class="cls-1" d="m56.74,13.25c-.09-.4-.22-.79-.39-1.18,0-.02-.02-.04-.02-.07.22.47.4.94.42,1.24Z"/>
  <path class="cls-1" d="m63.71,18.69c-.13.82-.34,1.59-.64,2.31-.68,1.64-1.77,3.06-3.18,4.28-2.16,1.86-4.71,2.9-7.47,3.44-.76.15-1.52.26-2.28.33-1.32.13-2.65.14-3.95.02-.07,0-.15-.01-.22-.02v-.02s-.02.01-.03.02c-.03,0-.06,0-.09,0,.01-.09.03-.17.04-.25h0c.1-.61.23-1.19.26-1.79.06-1.19-.44-2.25-.92-3.3-.08-.17-.15-.36-.15-.54,0-.96.03-1.93.03-2.89,0-.33.13-.39.43-.36.99.09,1.98.22,2.97.2,1.26-.03,2.51-.14,3.76-.31,1.11-.15,2.16-.5,3.08-1.18.97-.71,1.55-1.64,1.6-2.86.03-.82,0-1.63-.18-2.42,0-.03-.01-.06-.02-.08-.02-.3-.2-.77-.42-1.24,0,0,0,0,0,0-.01-.03-.02-.05-.04-.08-.35-.74-.78-1.46-.83-1.54,0,0,0,0,0,0-.02-.02-.03-.04-.05-.07-.94-1.4-2.17-2.51-3.54-3.47-.03-.02-.05-.06-.11-.16,2.07.09,4.01.48,5.79,1.27,1.25.38,2.6,1.61,2.64,1.65h0c.32.26.64.53.92.82,2.25,2.31,3.08,5.12,2.59,8.27Z"/>
  <path class="cls-1" d="m45.97,29.05s-.02,0-.03,0c0,0,.02-.01.03-.02v.02Z"/>
  <path class="cls-1" d="m56.74,13.25c-.09-.4-.22-.79-.39-1.18,0-.02-.02-.04-.02-.07.22.47.4.94.42,1.24Z"/>
  <path class="cls-1" d="m56.74,13.25c-.09-.4-.22-.79-.39-1.18,0-.02-.02-.04-.02-.07.22.47.4.94.42,1.24Z"/>
  <path class="cls-1" d="m45.96,29.03v.02s-.02,0-.03,0c0,0,.02-.01.03-.02Z"/>
  <path class="cls-1" d="m59.5,34.31c-1.85,1.52-3.82,2.66-6.23,2.79-.05,0-.1,0-.16,0-1.78.06-3.36-.55-4.84-1.51-.74-.48-1.3-.99-1.4-1.9,0,0,0,0,0,0,0-.06-.01-.12-.01-.19h0c-.05-.64-.14-1.27-.23-1.89-.09-.37-.18-.74-.26-1.1-.02-.09-.03-.17-.04-.24-.02-.06-.04-.11-.05-.17.02,0,.04,0,.06,0,.55.04,1.11.06,1.67.06.67,0,1.35-.03,2.04-.09h0c.65.16,1.29.36,1.92.59.87.33,1.72.69,2.56,1.07,1.62.74,3.2,1.57,4.76,2.44.05.03.1.06.2.12Z"/>
  <path class="cls-1" d="m17.63,30.46h0c-.12.51-.25,1.05-.35,1.59-.12.66-.19,1.29-.2,1.89h0c-.01.09-.03.19-.04.28-.03.2-.11.44-.25.56-1.23,1.07-2.62,1.86-4.22,2.2-1.31.27-2.63.17-3.9-.25-1.52-.51-2.88-1.33-4.16-2.44,1.16-.61,2.24-1.24,3.37-1.76,1.57-.73,3.17-1.41,4.78-2.06.38-.15.77-.29,1.16-.41.37-.11.74-.19,1.12-.26.38-.06.76-.1,1.15-.11.15,0,.3,0,.44,0,.65.03.96.12,1.06.42.03.09.04.21.03.34Z"/>
</svg>