<?xml version="1.0" encoding="UTF-8"?>
<svg id="Layer_1" data-name="Layer 1" xmlns="http://www.w3.org/2000/svg" xmlns:xlink="http://www.w3.org/1999/xlink" viewBox="0 0 512 512">
  <defs>
    <style>
      .cls-1 {
        fill: url(#linear-gradient);
      }
    </style>
    <linearGradient id="linear-gradient" x1="272.76" y1="-1478.94" x2="272.76" y2="-1095.45" gradientTransform="translate(0 -1034.8) scale(1 -1)" gradientUnits="userSpaceOnUse">
      <stop offset="0" stop-color="#fd5900"/>
      <stop offset="1" stop-color="#ffde00"/>
    </linearGradient>
  </defs>
  <path class="cls-1" d="m272.61,217.92c43.81,0,78.8-35.33,78.8-78.62,0-5.28-.53-10.57-1.57-15.72-.91-4.47-4.43-7.95-8.92-8.8-4.48-.85-9.04,1.1-11.52,4.93-1.69,2.61-4.66,4.12-7.75,3.98-4.6-.23-5.94-1.6-9.64-15.63-2.51-9.52-5.64-21.36-14.47-30.94-10.21-11.07-25.36-16.46-46.32-16.46h-12.16c-4.95,0-9.32,3.24-10.75,7.98-1.43,4.74.4,9.86,4.52,12.6,1.76,1.17,3.48,2.49,5.12,3.91,4.76,4.12,5.91,11.08,2.74,16.54-4.3,7.4-14.7,8.26-20.15,1.6-2.44-2.98-6.23-4.5-10.05-4.04-3.82.46-7.14,2.85-8.79,6.33-7.13,15.01-9.29,31.78-6.23,48.49,6.29,34.33,37.38,63.86,77.14,63.86h0Zm-54.89-89.92c4.75,1.8,9.9,2.57,15.12,2.15,11.36-.91,21.56-7.34,27.28-17.19,5.25-9.05,6.12-19.61,3.05-29,20.08,3.21,23.25,15.2,27.11,29.83,1.79,6.8,3.65,13.83,7.5,19.7,5.17,7.89,12.82,12.14,22.75,12.63,2.74.14,5.45-.09,8.07-.66-1.57,14.32-8.58,27.52-19.77,36.9-32.91,27.6-83.64,9.26-91.26-32.35-1.36-7.44-1.3-14.88.15-22.01Zm224.31,250.66v-14.67c0-30.97-25.2-56.17-56.17-56.17h-34.45v-11.23c0-6.2-5.03-11.23-11.23-11.23h-11.23v-44.94h11.23c6.2,0,11.23-5.03,11.23-11.23s-5.03-11.23-11.23-11.23h-134.82c-6.2,0-11.23,5.03-11.23,11.23s5.03,11.23,11.23,11.23h11.23v44.94h-11.23c-6.2,0-11.23,5.03-11.23,11.23v11.23h-34.45c-30.97,0-56.17,25.2-56.17,56.17v14.67c-13.08,4.64-22.47,17.13-22.47,31.77v22.47c0,6.2,5.03,11.23,11.23,11.23h44.94c6.2,0,11.23-5.03,11.23-11.23v-22.47c0-14.65-9.39-27.13-22.47-31.77v-14.67c0-18.58,15.12-33.7,33.7-33.7h34.45v11.23c0,6.2,5.03,11.23,11.23,11.23h11.23v68.91h-11.23c-6.2,0-11.23,5.03-11.23,11.23s5.03,11.23,11.23,11.23h134.82c6.2,0,11.23-5.03,11.23-11.23s-5.03-11.23-11.23-11.23h-11.23v-68.91h11.23c6.2,0,11.23-5.03,11.23-11.23v-11.23h34.45c18.58,0,33.7,15.12,33.7,33.7v14.67c-13.08,4.64-22.47,17.13-22.47,31.77v22.47c0,6.2,5.03,11.23,11.23,11.23h44.94c6.2,0,11.23-5.03,11.23-11.23v-22.47c0-14.65-9.39-27.13-22.47-31.77h0Zm-316.08,43.01h-22.47v-11.23c0-6.19,5.04-11.23,11.23-11.23s11.23,5.04,11.23,11.23v11.23Zm113.1-181.26h67.41v44.94h-67.41v-44.94Zm67.41,181.26h-67.41v-68.91h67.41v68.91Zm22.47-91.38h-112.35v-22.47h112.35v22.47Zm113.1,91.38h-22.47v-11.23c0-6.19,5.04-11.23,11.23-11.23s11.23,5.04,11.23,11.23v11.23Z"/>
</svg>