<?xml version="1.0" encoding="UTF-8"?>
<svg id="Layer_1" data-name="Layer 1" xmlns="http://www.w3.org/2000/svg" viewBox="0 0 512 512">
  <defs>
    <style>
      .cls-1, .cls-2 {
        fill: #fff;
      }

      .cls-3 {
        fill: #fded04;
      }

      .cls-2 {
        isolation: isolate;
        opacity: .4;
      }

      .cls-4 {
        fill: #fc0;
      }

      .cls-5 {
        fill: #ffbc00;
      }
    </style>
  </defs>
  <g>
    <path class="cls-4" d="m131.29,326.69l10.88,84.21-105.6-50.29,24.78-68.21,69.94,34.29Z"/>
    <path class="cls-2" d="m91.43,386.66l-21.94-10.42-21.03-48.37,7.86-21.76,35.11,80.55Z"/>
    <path class="cls-2" d="m134.49,407.24l-22.03-10.51-43.89-100.75,22.13,10.79,43.79,100.48Z"/>
    <path class="cls-5" d="m364.34,302.09l-222.17,108.89-10.88-84.3,203.89-96.18,29.17,71.59Z"/>
    <path class="cls-3" d="m335.18,230.5l-203.89,96.18-69.94-34.29,194.47-91.52,79.36,29.62Z"/>
    <g>
      <path class="cls-2" d="m300.07,217.34l-83.2,68.94,54.22-79.73,28.98,10.79Z"/>
      <path class="cls-2" d="m234.33,210.85l-67.2,98.83-34.29,16.18,67.29-98.93,34.19-16.09Z"/>
      <path class="cls-2" d="m144.55,253.18l-40.78,59.98,16.37-48.55,24.41-11.43Z"/>
    </g>
  </g>
  <g>
    <path class="cls-4" d="m242.38,379.35l10.88,84.3-105.6-50.38,24.78-68.21,69.94,34.29Z"/>
    <path class="cls-2" d="m202.51,439.33l-21.94-10.42-21.03-48.37,7.86-21.76,35.11,80.55Z"/>
    <path class="cls-2" d="m245.58,459.9l-22.03-10.42-43.89-100.85,22.13,10.88,43.79,100.39Z"/>
    <path class="cls-5" d="m475.43,354.85l-222.17,108.8-10.88-84.3,203.89-96.18,29.17,71.68Z"/>
    <path class="cls-3" d="m446.26,283.17l-203.89,96.18-69.94-34.29,194.47-91.52,79.36,29.62Z"/>
    <g>
      <path class="cls-2" d="m411.15,270.09l-83.2,68.85,54.22-79.73,28.98,10.88Z"/>
      <path class="cls-2" d="m345.42,263.6l-67.2,98.74-34.29,16.18,67.29-98.83,34.19-16.09Z"/>
      <path class="cls-2" d="m255.63,305.93l-40.78,59.89,16.37-48.46,24.41-11.43Z"/>
    </g>
  </g>
  <g>
    <path class="cls-4" d="m209.74,267.35l10.88,84.3-105.6-50.38,24.78-68.21,69.94,34.29Z"/>
    <path class="cls-2" d="m169.87,327.33l-21.85-10.42-21.12-48.37,7.95-21.76,35.02,80.55Z"/>
    <path class="cls-2" d="m212.94,347.9l-22.03-10.42-43.89-100.85,22.22,10.79,43.7,100.48Z"/>
    <path class="cls-5" d="m442.79,242.85l-222.08,108.8-10.97-84.3,203.89-96.18,29.17,71.68Z"/>
    <path class="cls-3" d="m413.62,171.17l-203.89,96.18-69.85-34.29,194.38-91.52,79.36,29.62Z"/>
    <g>
      <path class="cls-2" d="m378.51,158.09l-83.2,68.85,54.31-79.73,28.89,10.88Z"/>
      <path class="cls-2" d="m312.78,151.6l-67.2,98.74-34.29,16.18,67.29-98.83,34.19-16.09Z"/>
      <path class="cls-2" d="m222.99,193.93l-40.78,59.89,16.37-48.46,24.41-11.43Z"/>
    </g>
  </g>
  <g>
    <path class="cls-1" d="m143.91,282.8c-12.34,7.13-16.55,22.77-9.51,35.11-7.13-12.34-22.77-16.55-35.11-9.51,12.34-7.13,16.55-22.77,9.51-35.11,7.13,12.43,22.77,16.64,35.11,9.51Z"/>
    <path class="cls-1" d="m143.63,317.45c-9.05,5.21-12.16,16.73-6.95,25.78-5.21-9.05-16.73-12.16-25.78-6.95,9.05-5.21,12.16-16.73,6.95-25.78,5.12,9.05,16.73,12.16,25.78,6.95Z"/>
    <path class="cls-1" d="m157.62,281.25c.27,10.42,9.05,18.65,19.47,18.29-10.42.27-18.65,9.05-18.29,19.47-.27-10.42-9.05-18.65-19.47-18.29,10.42-.27,18.56-8.96,18.29-19.47h0Z"/>
  </g>
  <g>
    <path class="cls-1" d="m370.1,178.94c-12.34,7.13-16.55,22.77-9.51,35.11-7.13-12.34-22.77-16.55-35.11-9.51,12.34-7.13,16.55-22.77,9.51-35.11,7.04,12.43,22.77,16.64,35.11,9.51Z"/>
    <path class="cls-1" d="m369.74,213.59c-9.05,5.21-12.16,16.73-6.95,25.78-5.21-9.05-16.73-12.16-25.78-6.95,9.05-5.21,12.16-16.73,6.95-25.78,5.21,9.05,16.73,12.16,25.78,6.95Z"/>
    <path class="cls-1" d="m383.73,177.38c.27,10.42,9.05,18.65,19.47,18.29-10.42.27-18.65,9.05-18.29,19.47-.27-10.42-9.05-18.65-19.47-18.29,10.42-.27,18.65-9.05,18.29-19.47h0Z"/>
  </g>
  <g>
    <path class="cls-3" d="m387.66,114.02s-.64,10.33-2.93,12.62-12.62,2.93-12.62,2.93c0,0,10.33.64,12.62,2.93s2.93,12.62,2.93,12.62c0,0,.64-10.33,2.93-12.62s12.62-2.93,12.62-2.93c0,0-10.33-.64-12.62-2.93s-2.93-12.62-2.93-12.62Z"/>
    <path class="cls-3" d="m362.7,78.73s-17.92,15.73-25.42,15.73-25.42-15.73-25.42-15.73c0,0,15.73,17.92,15.73,25.42s-15.73,25.42-15.73,25.42c0,0,17.92-15.73,25.42-15.73s25.42,15.73,25.42,15.73c0,0-15.73-17.92-15.73-25.42s15.73-25.42,15.73-25.42Z"/>
    <path class="cls-3" d="m260.66,126s14.45.91,17.65,4.11,4.11,17.65,4.11,17.65c0,0,.91-14.45,4.11-17.65s17.65-4.11,17.65-4.11c0,0-14.45-.91-17.65-4.11-3.11-3.29-4.02-17.74-4.02-17.74,0,0-.91,14.45-4.11,17.65-3.29,3.29-17.74,4.21-17.74,4.21h0Z"/>
    <path class="cls-3" d="m81.37,253.91s10.24-8.96,14.54-8.96,14.54,8.96,14.54,8.96c0,0-8.96-10.24-8.96-14.54s8.96-14.54,8.96-14.54c0,0-10.24,8.96-14.54,8.96s-14.54-8.96-14.54-8.96c0,0,8.96,10.24,8.96,14.54.09,4.3-8.96,14.54-8.96,14.54Z"/>
    <path class="cls-3" d="m95.91,206.55s20.75,1.37,25.33,5.94,5.94,25.33,5.94,25.33c0,0,1.37-20.75,5.94-25.33s25.33-5.94,25.33-5.94c0,0-20.75-1.37-25.33-5.94s-5.94-25.33-5.94-25.33c0,0-1.37,20.75-5.94,25.33s-25.33,5.94-25.33,5.94Z"/>
  </g>
</svg>