<?xml version="1.0" encoding="UTF-8"?>
<svg id="Layer_1" data-name="Layer 1" xmlns="http://www.w3.org/2000/svg" viewBox="0 0 512 512">
  <defs>
    <style>
      .cls-1 {
        fill: #5c5c5c;
      }

      .cls-2 {
        fill: #777;
      }

      .cls-3 {
        fill: #fff;
        isolation: isolate;
        opacity: .5;
      }

      .cls-4 {
        fill: #464646;
      }

      .cls-5 {
        fill: #b5b5b5;
      }
    </style>
  </defs>
  <g id="Currency">
    <g id="Sol">
      <g id="Coin">
        <g id="Bottom">
          <circle class="cls-5" cx="265.26" cy="281.25" r="206.48"/>
          <path class="cls-3" d="m265.26,74.77c-114.03,0-206.48,92.45-206.48,206.48s92.45,206.48,206.48,206.48,206.48-92.45,206.48-206.48-92.45-206.48-206.48-206.48Zm0,404.09c-109.14,0-197.61-88.47-197.61-197.61s88.47-197.61,197.61-197.61,197.61,88.47,197.61,197.61-88.47,197.61-197.61,197.61Z"/>
        </g>
        <g id="Shade">
          <path class="cls-3" d="m347.65,91.86L75.87,363.63c-9.08-20.86-14.83-43.53-16.54-67.3l221.01-221.01c23.77,1.71,46.44,7.46,67.3,16.54h0Z"/>
          <path class="cls-3" d="m445.2,179.9L163.92,461.18c-17.49-9.87-33.4-22.22-47.26-36.58L408.62,132.65c14.36,13.86,26.71,29.76,36.58,47.26h0Z"/>
          <path class="cls-3" d="m400.18,124.95L108.96,416.17c-4.56-5.27-8.85-10.78-12.85-16.49L383.69,112.09c5.71,4,11.22,8.29,16.49,12.86Z"/>
          <path class="cls-3" d="m465.27,229.72l-251.53,251.53c-7.6-1.95-15.02-4.32-22.26-7.09L458.17,207.47c2.77,7.23,5.15,14.66,7.09,22.26h0Z"/>
          <path class="cls-3" d="m433,290.18c0,89.34-72.44,161.78-161.78,161.78-50.19,0-95.06-22.86-124.72-58.74,29.54,31.94,71.82,51.93,118.76,51.93,89.34,0,161.78-72.44,161.78-161.78,0-39.14-13.91-75.05-37.05-103.04,26.71,28.86,43.01,67.44,43.01,109.85h0Z"/>
        </g>
        <g id="Top">
          <circle class="cls-2" cx="265.26" cy="283.38" r="161.78"/>
          <path class="cls-1" d="m387.86,177.81c-28.33-24.42-65.23-39.18-105.56-39.18-89.34,0-161.78,72.44-161.78,161.78,0,40.34,14.77,77.23,39.18,105.56-34.42-29.67-56.22-73.59-56.22-122.6,0-89.34,72.44-161.78,161.78-161.78,49,0,92.92,21.79,122.6,56.22Z"/>
        </g>
      </g>
      <g id="Icon">
        <path class="cls-4" d="m326.7,236.95c-5.15-7.73-12.39-13.7-21.7-17.88-9.31-4.19-19.83-6.28-31.56-6.28s-22.87,1.93-32.51,5.77c-9.64,3.85-17.1,9.24-22.37,16.15-3.03,3.98-7.9,11.16-7.9,11.16v12.78c0,18.16,10.57,32.44,31.73,42.83,6.5,3.22,14.87,6.54,25.12,9.98,10.24,3.44,17.4,6.77,21.47,9.98,4.07,3.22,6.11,7.7,6.11,13.45,0,5.08-1.89,9.03-5.66,11.82-3.77,2.81-8.91,4.2-15.41,4.2-10.16,0-17.51-2.07-22.03-6.22-4.52-4.15-6.78-10.6-6.78-19.34h-27.75l-11.72-12.78v12.78c0,10.76,2.71,20.28,8.13,28.54,5.42,8.26,13.49,14.76,24.21,19.51,10.73,4.75,22.7,7.12,35.93,7.12,18.76,0,33.52-4.07,44.29-12.22,10.76-8.15,16.15-19.36,16.15-33.63v-12.78s-13.01-21.52-26.46-29.27c-7.25-4.19-16.52-8.09-27.8-11.72-11.28-3.62-19.17-7.14-23.66-10.54s-6.73-7.19-6.73-11.38c0-4.78,2.03-8.73,6.11-11.82,4.07-3.1,9.62-4.65,16.65-4.65s12.46,1.83,16.53,5.49,6.11,8.82,6.11,15.47h39.24v-12.78s-5.22-9.97-7.73-13.74h-.02Z"/>
        <path class="cls-5" d="m295.08,322.11c0-5.75-2.04-10.24-6.11-13.45-4.07-3.21-11.23-6.54-21.47-9.98-10.24-3.44-18.61-6.77-25.12-9.98-21.16-10.39-31.73-24.66-31.73-42.83,0-9.04,2.64-17.02,7.9-23.94,5.27-6.91,12.73-12.29,22.37-16.15,9.64-3.85,20.48-5.77,32.51-5.77s22.25,2.1,31.56,6.28c9.31,4.19,16.53,10.15,21.7,17.88,5.16,7.73,7.73,16.57,7.73,26.51h-39.24c0-6.65-2.04-11.81-6.11-15.47s-9.58-5.49-16.53-5.49-12.57,1.55-16.65,4.65-6.11,7.04-6.11,11.82c0,4.19,2.24,7.98,6.73,11.38s12.37,6.91,23.66,10.54c11.28,3.63,20.55,7.53,27.8,11.72,17.64,10.16,26.46,24.18,26.46,42.05,0,14.28-5.38,25.49-16.15,33.63-10.76,8.15-25.53,12.22-44.29,12.22-13.23,0-25.21-2.37-35.93-7.12-10.73-4.74-18.8-11.25-24.21-19.51-5.42-8.26-8.13-17.77-8.13-28.54h39.47c0,8.74,2.26,15.19,6.78,19.34,4.52,4.15,11.86,6.22,22.03,6.22,6.5,0,11.64-1.4,15.41-4.2,3.77-2.81,5.66-6.74,5.66-11.82h.02Z"/>
        <g id="Shade-2">
          <path class="cls-3" d="m297.76,203.54l-26.21,26.21c-6.57.14-11.78,1.68-15.66,4.63-4.07,3.11-6.11,7.05-6.11,11.83,0,1.52.3,2.98.9,4.4l-26.16,26.16c-9.24-8.6-13.86-18.91-13.86-30.91,0-9.04,2.64-17.02,7.91-23.93,5.27-6.91,12.72-12.29,22.37-16.15,9.64-3.85,20.48-5.77,32.51-5.77,8.78,0,16.89,1.17,24.32,3.52h0Z"/>
          <path class="cls-3" d="m334.43,321.89c0,14.28-5.38,25.5-16.15,33.64-10.76,8.15-25.53,12.22-44.29,12.22-11.97,0-22.91-1.94-32.84-5.84l24.33-24.33c2.57.39,5.4.58,8.5.58,6.51,0,11.64-1.4,15.41-4.21,3.78-2.8,5.66-6.74,5.66-11.82,0-4.28-1.12-7.86-3.38-10.74l25.34-25.34c11.6,9.42,17.4,21.37,17.4,35.84h0Z"/>
          <path class="cls-3" d="m251.98,331.93c.52.48,1.09.93,1.69,1.35l-23.34,23.35c-6.36-3.84-11.49-8.48-15.41-13.95l30.08-30.08h.19c0,8.74,2.26,15.19,6.78,19.33h0Z"/>
          <path class="cls-3" d="m307.41,279.52l-25.08,25.08c-3.88-1.94-8.82-3.91-14.82-5.93-2.21-.74-4.34-1.48-6.38-2.21l25.99-25.99c7.94,2.86,14.7,5.86,20.3,9.04h0Z"/>
          <path class="cls-3" d="m334.43,250.69h-27.54l22.29-22.29c3.5,6.69,5.24,14.11,5.24,22.29Z"/>
        </g>
      </g>
    </g>
  </g>
</svg>