<?xml version="1.0" encoding="UTF-8"?>
<svg id="Layer_1" data-name="Layer 1" xmlns="http://www.w3.org/2000/svg" xmlns:xlink="http://www.w3.org/1999/xlink" viewBox="0 0 512 512">
  <defs>
    <style>
      .cls-1 {
        fill: url(#linear-gradient);
      }
    </style>
    <linearGradient id="linear-gradient" x1="-2245.53" y1="728.88" x2="-2191.53" y2="728.88" gradientTransform="translate(18013.8 6093) scale(8 -8)" gradientUnits="userSpaceOnUse">
      <stop offset="0" stop-color="#f9c213"/>
      <stop offset="1" stop-color="#ffd86c"/>
    </linearGradient>
  </defs>
  <path class="cls-1" d="m398.95,253.8h-67.03c-12.33.01-22.33,10.01-22.34,22.34v40.26c.01,12.34,10.01,22.33,22.34,22.34h67.03c12.34-.01,22.33-10.01,22.34-22.34v-40.26c-.02-12.33-10.01-22.33-22.34-22.34Zm7.45,62.6c0,4.11-3.34,7.44-7.45,7.45h-67.03c-4.11,0-7.44-3.34-7.45-7.45v-23.14h81.93v23.14Zm0-38.04h-81.93c-.94-4.29,1.77-8.54,6.07-9.48.45-.1.92-.16,1.38-.18h67.03c4.39.18,7.81,3.89,7.63,8.28-.02.47-.08.93-.18,1.38Zm-40.97-64.66c-24.52,0-47.76,10.91-63.42,29.78l-21.98-7.33c73.76-38.05,48.18-149.6-35.96-150.7-84.15,1.14-109.73,112.6-35.96,150.7l-63.63,21.15c-27.84,9.27-46.6,35.33-46.56,64.67v31.34c0,13.69,11.08,24.79,24.77,24.83h232.43c3.41.45,6.85.69,10.3.71,109.5-4.51,109.56-160.61,0-165.15h0Zm-186.14-48.56c.04-35.76,29.02-64.75,64.79-64.79,85.89,3.4,85.86,126.19,0,129.57-35.76-.04-64.75-29.02-64.79-64.79h0Zm-56.59,198.1c-5.47-.02-9.88-4.46-9.87-9.93v-31.34c-.04-22.92,14.62-43.29,36.36-50.53l65.74-21.85c26.25-9.66,53.36-2.9,78.32,6.68-19.99,36.64-9.69,82.42,24.05,106.97H122.7Zm242.73.71c-37.36-.04-67.63-30.32-67.67-67.67,3.55-89.72,131.81-89.69,135.35,0-.04,37.36-30.32,67.63-67.68,67.67ZM265.52,45.94c-119.29,0-216,96.71-216,216s96.71,216,216,216,216-96.71,216-216c-.13-119.24-96.76-215.87-216-216Zm0,417.1c-111.07,0-201.1-90.04-201.1-201.1S154.46,60.84,265.52,60.84s201.1,90.04,201.1,201.1c-.13,111.01-90.09,200.98-201.1,201.1Z"/>
</svg>