<?xml version="1.0" encoding="UTF-8"?>
<svg id="Layer_1" data-name="Layer 1" xmlns="http://www.w3.org/2000/svg" xmlns:xlink="http://www.w3.org/1999/xlink" viewBox="0 0 512 512">
  <defs>
    <style>
      .cls-1 {
        fill: url(#linear-gradient-2);
      }

      .cls-2 {
        fill: url(#linear-gradient-5);
      }

      .cls-3 {
        fill: url(#linear-gradient-3);
      }

      .cls-4 {
        fill: url(#linear-gradient);
      }

      .cls-5 {
        fill: url(#linear-gradient-4);
      }
    </style>
    <linearGradient id="linear-gradient" x1="59.19" y1="269.51" x2="465.58" y2="269.51" gradientUnits="userSpaceOnUse">
      <stop offset="0" stop-color="#f9c213"/>
      <stop offset="1" stop-color="#ffd86c"/>
    </linearGradient>
    <linearGradient id="linear-gradient-2" x1="115.57" y1="222.76" x2="159.17" y2="222.76" xlink:href="#linear-gradient"/>
    <linearGradient id="linear-gradient-3" x1="256.41" y1="151.83" x2="300.01" y2="151.83" xlink:href="#linear-gradient"/>
    <linearGradient id="linear-gradient-4" x1="382.37" y1="199.42" x2="434.98" y2="199.42" xlink:href="#linear-gradient"/>
    <linearGradient id="linear-gradient-5" x1="94.01" y1="290.15" x2="325.23" y2="290.15" xlink:href="#linear-gradient"/>
  </defs>
  <path class="cls-4" d="m427.61,109.03h-73.01v-23.96c0-3.3-2.67-5.97-5.97-5.97s-5.97,2.67-5.97,5.97v23.96h-24.73c-3.3,0-5.97,2.67-5.97,5.97s2.67,5.97,5.97,5.97h24.73v25.28h-4.48c-6.26,0-11.35,5.09-11.35,11.35v70.3c0,6.26,5.09,11.35,11.35,11.35h4.48v47.37c0,3.3,2.67,5.97,5.97,5.97s5.97-2.67,5.97-5.97v-47.37h4.48c6.26,0,11.35-5.09,11.35-11.35v-70.3c0-6.26-5.09-11.35-11.35-11.35h-4.48v-25.28h73.01c14.35,0,26.02,11.67,26.02,26.02v204.37H71.13v-204.37c0-14.35,11.67-26.02,26.02-26.02h104.67v11.65h-4.48c-6.26,0-11.35,5.09-11.35,11.35v70.3c0,6.26,5.09,11.35,11.35,11.35h4.48v52.76c0,3.3,2.67,5.97,5.97,5.97s5.97-2.67,5.97-5.97v-52.76h4.48c6.26,0,11.35-5.09,11.35-11.35v-70.3c0-6.26-5.09-11.35-11.35-11.35h-4.48v-11.65h24.73c3.3,0,5.97-2.67,5.97-5.97s-2.67-5.97-5.97-5.97h-24.73v-2.95c0-3.3-2.67-5.97-5.97-5.97s-5.97,2.67-5.97,5.97v2.95h-104.67c-20.93,0-37.96,17.03-37.96,37.96v210.34c0,20.93,17.03,37.96,37.96,37.96h90.9v30.36l-19.25,22.32h-7.64c-3.3,0-5.97,2.67-5.97,5.97s2.67,5.97,5.97,5.97h201.89c3.3,0,5.97-2.67,5.97-5.97s-2.67-5.97-5.97-5.97h-7.09l-19.25-22.32v-30.36h90.9c20.93,0,37.96-17.03,37.96-37.96v-210.34c0-20.93-17.03-37.96-37.96-37.96h0Zm-69.12,118.28h-19.72v-69.11h19.72v69.11h0Zm-140.84-13.63h-19.72v-69.11h19.72v69.11Zm209.96,169.68h-120.85c-3.3,0-5.97,2.67-5.97,5.97s2.67,5.97,5.97,5.97h18.01v26.61h-14.87c-3.3,0-5.97,2.67-5.97,5.97s2.67,5.97,5.97,5.97h18.11l12.19,14.13h-155.63l12.19-14.13h18.11c3.3,0,5.97-2.67,5.97-5.97s-2.67-5.97-5.97-5.97h-14.87v-26.61h81.33c3.3,0,5.97-2.67,5.97-5.97s-2.67-5.97-5.97-5.97H97.15c-12.29,0-22.62-8.57-25.32-20.05h381.11c-2.71,11.48-13.03,20.05-25.32,20.05h0Z"/>
  <path class="cls-1" d="m121.54,226.4c-3.3,0-5.97,2.67-5.97,5.97v14.42c0,6.26,5.09,11.35,11.35,11.35h4.48v31.8c0,3.3,2.67,5.97,5.97,5.97s5.97-2.67,5.97-5.97v-31.8h4.48c6.26,0,11.35-5.09,11.35-11.35v-70.3c0-6.26-5.09-11.35-11.35-11.35h-4.48v-9.55c0-3.3-2.67-5.97-5.97-5.97s-5.97,2.67-5.97,5.97v9.55h-4.48c-6.26,0-11.35,5.09-11.35,11.35v30.43c0,3.3,2.67,5.97,5.97,5.97s5.97-2.67,5.97-5.97v-29.84h19.72v69.11h-19.72v-13.82c0-3.3-2.67-5.97-5.97-5.97Z"/>
  <path class="cls-3" d="m267.76,213.81h4.48v31.8c0,3.3,2.67,5.97,5.97,5.97s5.97-2.67,5.97-5.97v-31.8h4.48c6.26,0,11.35-5.09,11.35-11.35v-46.84c0-3.3-2.67-5.97-5.97-5.97s-5.97,2.67-5.97,5.97v46.24h-19.72v-108.12h19.72v36.43c0,3.3,2.67,5.97,5.97,5.97s5.97-2.67,5.97-5.97v-37.02c0-6.26-5.09-11.35-11.35-11.35h-4.48v-23.76c0-3.3-2.67-5.97-5.97-5.97s-5.97,2.67-5.97,5.97v23.76h-4.48c-6.26,0-11.35,5.09-11.35,11.35v109.31c0,6.26,5.09,11.35,11.35,11.35h0Z"/>
  <path class="cls-5" d="m383.09,215.78c1.08,2,3.14,3.14,5.26,3.14.96,0,1.93-.23,2.83-.72l27.5-14.83-1.98,5.19c-1.17,3.08.37,6.53,3.45,7.71.7.27,1.42.39,2.12.39,2.41,0,4.67-1.46,5.58-3.85l6.72-17.65c1.17-3.08-.37-6.53-3.45-7.71l-18.73-7.14c-3.08-1.17-6.53.37-7.71,3.45s.37,6.53,3.45,7.71l4.34,1.65-26.98,14.55c-2.9,1.57-3.99,5.19-2.42,8.09h0Z"/>
  <path class="cls-2" d="m94.49,332.45c.97,2.27,3.17,3.62,5.49,3.62.78,0,1.58-.16,2.35-.48l77.05-32.98,7,18.35c.61,1.61,1.89,2.87,3.5,3.47,1.61.6,3.4.47,4.91-.34l127.29-68.63c2.9-1.57,3.99-5.19,2.42-8.09-1.56-2.9-5.19-3.99-8.09-2.42l-121.3,65.4-6.79-17.8c-.58-1.52-1.75-2.73-3.25-3.37-1.5-.63-3.19-.63-4.68,0l-82.76,35.42c-3.03,1.3-4.44,4.81-3.14,7.84h0Z"/>
</svg>