<?xml version="1.0" encoding="UTF-8"?>
<svg id="Layer_1" data-name="Layer 1" xmlns="http://www.w3.org/2000/svg" xmlns:xlink="http://www.w3.org/1999/xlink" viewBox="0 0 512 512">
  <defs>
    <style>
      .cls-1 {
        fill: url(#linear-gradient);
        fill-rule: evenodd;
      }
    </style>
    <linearGradient id="linear-gradient" x1="14886.52" y1="-8324.65" x2="19381.09" y2="-4982.55" gradientTransform="translate(-978.3 -225.62) scale(.07 -.07)" gradientUnits="userSpaceOnUse">
      <stop offset="0" stop-color="#f9c213"/>
      <stop offset="1" stop-color="#ffd86c"/>
    </linearGradient>
  </defs>
  <g id="Layer_1-2" data-name="Layer_1">
    <path class="cls-1" d="m234.14,139.13c-9.16,0-16.84-7.68-16.84-16.84,0-22.29,33.68-22.29,33.68,0,0,9.16-7.18,16.84-16.84,16.84Zm21.79,99.29c-53.98,0-97.56-43.58-97.56-97.56s43.83-97.56,97.56-97.56,97.56,43.58,97.56,97.06-43.58,98.06-97.56,98.06Zm0-186.95c-49.28,0-89.39,39.87-89.39,88.89s40.11,89.39,89.39,89.39,89.39-40.11,89.39-89.39-39.87-88.89-89.39-88.89Zm0,170.11c-44.82,0-80.72-36.15-80.72-80.72s36.4-81.22,80.72-81.22,80.72,36.15,80.72,80.72-36.15,81.22-80.72,81.22Zm0-153.52c-39.87,0-72.55,32.44-72.55,72.3s32.69,72.55,72.55,72.55,72.55-32.19,72.55-72.06-32.44-72.8-72.55-72.8Zm117.12,284.01c-8.17,0-15.85-4.21-20.3-10.9l-49.77-63.39c-8.17-10.65-6.44-25.75,3.71-34.17,10.65-8.42,26.25-6.69,34.42,3.71l8.17,10.4,6.93-82.21c.25-1.98,1.98-3.71,4.21-3.71h25.01c1.98,0,3.71,1.73,4.21,3.71l6.69,82.21,8.42-10.4c8.17-10.4,23.52-12.38,34.17-3.71,10.4,8.17,12.13,23.52,3.96,34.17l-49.52,62.89c-4.46,7.18-12.13,11.39-20.3,11.39Zm-50.76-105.48c-14.36,0-21.05,15.6-12.88,26.25l50.27,63.14c2.97,4.7,8.17,7.43,13.62,7.43,10.4,0,13.62-7.92,14.11-7.92l49.77-63.14c5.7-7.18,4.46-17.09-2.23-22.53-7.18-5.7-17.58-4.46-23.03,2.23l-14.61,18.57c-1.98,2.72-6.93,1.73-7.43-1.98l-7.92-88.4h-17.58l-7.43,88.65c-.25,3.96-5.7,4.7-7.68,2.23l-14.36-18.32c-3.22-4.21-7.92-6.19-12.63-6.19Zm-182.99,105.48c-8.17,0-15.6-4.21-20.06-10.9l-50.02-63.39c-8.42-10.65-6.44-26.25,3.96-34.17,10.65-8.42,26-6.69,34.17,3.71l8.42,10.65,6.69-82.21c.5-1.98,2.23-3.71,4.21-3.71h25.01c2.23,0,3.96,1.73,4.21,3.71l7.18,82.21c7.68-9.41,12.38-18.08,24.76-19.31,21.29-2.23,35.66,22.29,22.04,39.12l-49.77,62.89c-4.46,6.93-12.13,11.39-20.8,11.39Zm-50.76-105.48c-14.61,0-20.8,16.09-12.63,26.25l50.02,63.39c3.22,4.95,8.42,7.68,13.87,7.68,8.17,0,10.65-4.46,13.62-7.92l50.02-63.14c8.67-11.14.5-27.49-14.86-26.25-4.46.5-8.17,2.72-10.65,5.94l-14.36,18.57c-2.23,2.72-6.93,1.49-7.68-2.23l-7.92-88.65h-17.09l-7.68,88.65c0,3.96-5.2,4.7-7.18,2.23l-14.86-18.32c-3.22-4.21-7.92-6.19-12.63-6.19Zm205.02,210.97c-2.97,0-5.2-4.21-2.97-6.93l35.66-45.31c3.47-4.21,9.9.99,6.69,5.2l-35.9,45.31c-.99,1.49-2.23,1.73-3.47,1.73Zm-110.19-105.73c-3.71,0-5.45-5.2-2.48-7.68,13.12-10.15,30.7-11.64,44.82-3.71,4.95,2.48.5,9.66-3.96,7.18-11.64-6.19-25.26-4.7-35.66,3.47-.74.25-1.73.74-2.72.74Zm106.97-3.47c-2.23,0-3.96-1.73-4.21-3.71l-4.95-56.21c-.5-4.95,7.68-6.44,8.42-.5l4.7,55.96c.25,2.72-1.73,4.46-3.96,4.46Zm-33.43,117.12c-8.17,0-15.85-4.21-20.3-10.9l-49.52-62.89c-8.42-10.65-6.44-26.25,3.96-34.42,10.65-8.17,25.75-6.44,34.17,3.71l8.42,10.65,6.69-81.96c.5-2.23,2.23-3.96,4.21-3.96h24.76c1.98,0,3.71,1.73,4.21,3.96l7.18,82.46,8.17-10.65c13.87-17.58,41.35-8.42,43.58,12.63.74,6.44-.99,12.63-5.2,17.83l-49.28,62.89c-4.95,6.19-12.88,10.65-21.05,10.65Zm-50.76-105.48c-14.86,0-20.8,16.09-12.88,25.75l50.27,63.64c2.97,4.7,8.17,7.43,13.62,7.43,10.15,0,13.62-7.92,14.11-7.92l49.77-63.14c5.7-6.93,4.7-16.84-2.72-22.78-6.69-5.45-17.09-4.46-22.53,2.48l-14.61,19.07c-2.23,3.22-6.93.99-7.43-2.23l-7.92-88.89h-17.09l-7.68,88.89c0,3.71-5.45,4.7-7.43,2.23l-14.86-18.32c-3.22-4.21-7.92-6.19-12.63-6.19Zm24.76-180.26c-3.47,0-5.45-3.96-3.47-6.69l50.51-69.58c3.47-4.7,9.9.25,6.69,4.7l-50.51,69.83c-.99.99-1.98,1.73-3.22,1.73Zm47.05-3.47c-22.53,0-22.04-33.68,0-33.68,9.16,0,16.84,7.43,16.84,16.84-.5,9.16-7.68,16.84-16.84,16.84Zm0-25.5c-11.39,0-11.39,17.09,0,17.09s10.65-17.09,0-17.09Zm-43.83-37.14c-11.14,0-11.14,17.33,0,17.33s11.39-17.33,0-17.33Z"/>
  </g>
</svg>