<?xml version="1.0" encoding="UTF-8"?>
<svg id="Layer_1" data-name="Layer 1" xmlns="http://www.w3.org/2000/svg" xmlns:xlink="http://www.w3.org/1999/xlink" viewBox="0 0 512 512">
  <defs>
    <style>
      .cls-1 {
        fill: url(#linear-gradient-2);
      }

      .cls-2 {
        fill: url(#linear-gradient-6);
      }

      .cls-3 {
        fill: url(#linear-gradient-5);
      }

      .cls-4 {
        fill: url(#linear-gradient-7);
      }

      .cls-5 {
        fill: url(#linear-gradient-3);
      }

      .cls-6 {
        fill: url(#linear-gradient);
      }

      .cls-7 {
        fill: url(#linear-gradient-4);
      }

      .cls-8 {
        fill: url(#linear-gradient-8);
      }
    </style>
    <linearGradient id="linear-gradient" x1="88.51" y1="363.73" x2="315.51" y2="363.73" gradientUnits="userSpaceOnUse">
      <stop offset="0" stop-color="#f9c213"/>
      <stop offset="1" stop-color="#ffd86c"/>
    </linearGradient>
    <linearGradient id="linear-gradient-2" x1="245.66" y1="358.82" x2="288.45" y2="358.82" xlink:href="#linear-gradient"/>
    <linearGradient id="linear-gradient-3" x1="153.48" y1="239.63" x2="250.67" y2="239.63" xlink:href="#linear-gradient"/>
    <linearGradient id="linear-gradient-4" x1="261.42" y1="172.21" x2="423.49" y2="172.21" xlink:href="#linear-gradient"/>
    <linearGradient id="linear-gradient-5" x1="288.45" y1="137" x2="396.52" y2="137" xlink:href="#linear-gradient"/>
    <linearGradient id="linear-gradient-6" x1="337.11" y1="169.38" x2="347.93" y2="169.38" xlink:href="#linear-gradient"/>
    <linearGradient id="linear-gradient-7" x1="358.74" y1="169.38" x2="369.56" y2="169.38" xlink:href="#linear-gradient"/>
    <linearGradient id="linear-gradient-8" x1="315.49" y1="169.38" x2="326.3" y2="169.38" xlink:href="#linear-gradient"/>
  </defs>
  <path class="cls-6" d="m303.22,332.05c-.92-1.38-1.98-2.7-2.97-3.96-9.5-11.87-21.96-20.24-35.94-24.2l-16.22-4.62-2.04-.46-3.63,1.65-24.4,53.34-5.28-27.69h5.47v-10.81h-32.44v10.81h5.47l-5.28,27.69-23.54-51.5-.92-1.78-3.56-1.78-18.26,5.14c-13.98,3.96-26.44,12.33-35.94,24.2-1.06,1.32-2.04,2.64-2.97,3.96-5.6,7.98-9.5,17.21-11.67,27.36-2.84,13.45,5.01,59.61,5.93,64.82l.79,4.48h212.32l.79-4.48c.92-5.21,8.77-51.37,5.93-64.82-2.18-10.15-6.07-19.39-11.67-27.36h0Zm-101.15-4.68l8.24,43.45-8.31,18-8.24-18,8.31-43.45Zm96.99,90.53h-26.77v-37.58h-10.81v37.58h-118.89v-37.58h-10.81v37.58h-26.77c-3.23-19.78-6.92-48.27-5.28-56.24,1.85-8.7,5.14-16.62,9.89-23.41.79-1.19,1.65-2.31,2.57-3.43,8.11-10.09,18.66-17.21,30.46-20.57l11.87-3.36,47.48,103.92,47.48-103.92,11.87,3.36c11.8,3.36,22.35,10.48,30.46,20.57.86,1.12,1.71,2.24,2.57,3.43,4.75,6.79,8.11,14.64,9.89,23.41,1.71,8.04-1.98,36.46-5.21,56.24Z"/>
  <path class="cls-1" d="m245.66,353.41h42.79v10.81h-42.79v-10.81Z"/>
  <path class="cls-5" d="m202.07,299.67c27.36,0,48.6-35.21,48.6-65.41s-21.83-54.66-48.6-54.66-48.6,24.53-48.6,54.66c-.07,30.2,21.17,65.41,48.6,65.41Zm0-109.26c20.84,0,37.85,19.65,37.85,43.85s-17.47,54.66-37.85,54.66-37.85-30.07-37.85-54.66,16.95-43.85,37.85-43.85h0Z"/>
  <path class="cls-7" d="m385.71,93.75h-86.44c-20.84,0-37.85,16.95-37.85,37.85v43.19c0,15.17,9.17,28.75,22.75,34.68l-11.21,41.21,41.87-38.11h70.82c20.84,0,37.85-16.95,37.85-37.85v-43.12c.07-20.9-16.88-37.85-37.78-37.85Zm27.03,81.04c0,14.9-12.13,27.03-27.03,27.03h-74.97l-17.54,15.89,4.22-15.5-5.21-1.45c-11.74-3.17-19.91-13.91-19.91-26.05v-43.12c0-14.9,12.13-27.03,27.03-27.03h86.44c14.9,0,27.03,12.13,27.03,27.03v43.19h-.07Z"/>
  <path class="cls-3" d="m288.45,131.59h108.07v10.81h-108.07v-10.81Z"/>
  <path class="cls-2" d="m337.11,163.97h10.81v10.81h-10.81v-10.81Z"/>
  <path class="cls-4" d="m358.74,163.97h10.81v10.81h-10.81v-10.81Z"/>
  <path class="cls-8" d="m315.49,163.97h10.81v10.81h-10.81v-10.81Z"/>
</svg>