<?xml version="1.0" encoding="UTF-8"?>
<svg id="Layer_1" data-name="Layer 1" xmlns="http://www.w3.org/2000/svg" xmlns:xlink="http://www.w3.org/1999/xlink" viewBox="0 0 512 512">
  <defs>
    <style>
      .cls-1 {
        fill: url(#linear-gradient-2);
      }

      .cls-2 {
        fill: url(#linear-gradient-17);
      }

      .cls-3 {
        fill: url(#linear-gradient-15);
      }

      .cls-4 {
        fill: url(#linear-gradient-18);
      }

      .cls-5 {
        fill: url(#linear-gradient-14);
      }

      .cls-6 {
        fill: url(#linear-gradient-20);
      }

      .cls-7 {
        fill: url(#linear-gradient-6);
      }

      .cls-8 {
        fill: url(#linear-gradient-11);
      }

      .cls-9 {
        fill: url(#linear-gradient-10);
      }

      .cls-10 {
        fill: url(#linear-gradient-16);
      }

      .cls-11 {
        fill: url(#linear-gradient-5);
      }

      .cls-12 {
        fill: url(#linear-gradient-7);
      }

      .cls-13 {
        fill: url(#linear-gradient-9);
      }

      .cls-14 {
        fill: url(#linear-gradient-3);
      }

      .cls-15 {
        fill: url(#linear-gradient);
      }

      .cls-16 {
        fill: url(#linear-gradient-19);
      }

      .cls-17 {
        fill: url(#linear-gradient-4);
      }

      .cls-18 {
        fill: url(#linear-gradient-8);
      }

      .cls-19 {
        fill: url(#linear-gradient-12);
      }

      .cls-20 {
        fill: url(#linear-gradient-13);
      }
    </style>
    <linearGradient id="linear-gradient" x1="163.46" y1="264.7" x2="374.54" y2="264.7" gradientUnits="userSpaceOnUse">
      <stop offset="0" stop-color="#f9c213"/>
      <stop offset="1" stop-color="#ffd86c"/>
    </linearGradient>
    <linearGradient id="linear-gradient-2" x1="263.14" y1="121.04" x2="274.86" y2="121.04" xlink:href="#linear-gradient"/>
    <linearGradient id="linear-gradient-3" x1="239.76" y1="106.39" x2="298.32" y2="106.39" xlink:href="#linear-gradient"/>
    <linearGradient id="linear-gradient-4" x1="93.1" x2="157.6" xlink:href="#linear-gradient"/>
    <linearGradient id="linear-gradient-5" x1="93.1" y1="264.73" x2="128.28" y2="264.73" xlink:href="#linear-gradient"/>
    <linearGradient id="linear-gradient-6" x1="263.14" y1="408.35" x2="274.86" y2="408.35" xlink:href="#linear-gradient"/>
    <linearGradient id="linear-gradient-7" x1="239.75" y1="423.04" x2="298.25" y2="423.04" xlink:href="#linear-gradient"/>
    <linearGradient id="linear-gradient-8" x1="380.4" x2="444.9" xlink:href="#linear-gradient"/>
    <linearGradient id="linear-gradient-9" x1="409.72" y1="264.73" x2="444.9" y2="264.73" xlink:href="#linear-gradient"/>
    <linearGradient id="linear-gradient-10" x1="351.09" y1="159.19" x2="397.92" y2="159.19" xlink:href="#linear-gradient"/>
    <linearGradient id="linear-gradient-11" x1="351.09" y1="159.16" x2="397.99" y2="159.16" xlink:href="#linear-gradient"/>
    <linearGradient id="linear-gradient-12" x1="140.08" y1="159.19" x2="186.91" y2="159.19" xlink:href="#linear-gradient"/>
    <linearGradient id="linear-gradient-13" x1="140.01" y1="159.16" x2="186.91" y2="159.16" xlink:href="#linear-gradient"/>
    <linearGradient id="linear-gradient-14" x1="140.01" y1="370.27" x2="186.84" y2="370.27" xlink:href="#linear-gradient"/>
    <linearGradient id="linear-gradient-15" x1="140.01" y1="370.24" x2="186.91" y2="370.24" xlink:href="#linear-gradient"/>
    <linearGradient id="linear-gradient-16" x1="351.16" y1="370.27" x2="397.99" y2="370.27" xlink:href="#linear-gradient"/>
    <linearGradient id="linear-gradient-17" x1="351.09" y1="370.24" x2="397.99" y2="370.24" xlink:href="#linear-gradient"/>
    <linearGradient id="linear-gradient-18" x1="222.09" y1="264.73" x2="315.84" y2="264.73" xlink:href="#linear-gradient"/>
    <linearGradient id="linear-gradient-19" x1="233.82" y1="241.24" x2="269" y2="241.24" xlink:href="#linear-gradient"/>
    <linearGradient id="linear-gradient-20" x1="274.86" y1="282.29" x2="310.04" y2="282.29" xlink:href="#linear-gradient"/>
  </defs>
  <path class="cls-15" d="m269,370.24c-58.29,0-105.54-47.25-105.54-105.54s47.25-105.54,105.54-105.54,105.54,47.25,105.54,105.54c-.07,58.26-47.28,105.47-105.54,105.54Zm0-199.36c-51.81,0-93.81,42-93.81,93.81s42,93.81,93.81,93.81,93.81-42,93.81-93.81c-.06-51.79-42.03-93.75-93.81-93.81Z"/>
  <path class="cls-1" d="m269,153.29c-3.24,0-5.86-2.63-5.86-5.86v-52.77c0-3.24,2.63-5.86,5.86-5.86s5.86,2.63,5.86,5.86v52.77c0,3.24-2.63,5.86-5.86,5.86Z"/>
  <path class="cls-14" d="m292.45,123.98c-1.55,0-3.05-.62-4.15-1.72l-19.31-19.31-19.31,19.31c-2.33,2.25-6.04,2.19-8.29-.14-2.19-2.27-2.19-5.87,0-8.15l23.45-23.45c2.29-2.29,6-2.29,8.29,0l23.45,23.45c2.29,2.29,2.29,6,0,8.29-1.1,1.1-2.59,1.72-4.14,1.72Z"/>
  <path class="cls-17" d="m151.73,270.56h-52.77c-3.24,0-5.86-2.63-5.86-5.86s2.63-5.86,5.86-5.86h52.77c3.24,0,5.86,2.63,5.86,5.86s-2.63,5.86-5.86,5.86Z"/>
  <path class="cls-11" d="m122.42,294.01c-1.55,0-3.05-.62-4.15-1.72l-23.45-23.45c-2.29-2.29-2.29-6,0-8.29l23.45-23.45c2.33-2.25,6.04-2.19,8.29.14,2.19,2.27,2.19,5.87,0,8.15l-19.31,19.31,19.31,19.31c2.29,2.29,2.29,6,0,8.29-1.1,1.1-2.59,1.72-4.14,1.72Z"/>
  <path class="cls-7" d="m269,440.6c-3.24,0-5.86-2.63-5.86-5.86v-52.77c0-3.24,2.63-5.86,5.86-5.86s5.86,2.63,5.86,5.86v52.77c0,3.24-2.63,5.86-5.86,5.86Z"/>
  <path class="cls-12" d="m269,440.6c-1.55,0-3.05-.62-4.15-1.72l-23.45-23.45c-2.25-2.33-2.19-6.04.14-8.29,2.27-2.19,5.87-2.19,8.15,0l19.31,19.31,19.31-19.31c2.33-2.25,6.04-2.19,8.29.14,2.19,2.27,2.19,5.87,0,8.15l-23.45,23.45c-1.1,1.1-2.59,1.72-4.15,1.72Z"/>
  <path class="cls-18" d="m439.04,270.56h-52.77c-3.24,0-5.86-2.63-5.86-5.86s2.63-5.86,5.86-5.86h52.77c3.24,0,5.86,2.63,5.86,5.86s-2.63,5.86-5.86,5.86Z"/>
  <path class="cls-13" d="m415.58,294.01c-3.24,0-5.86-2.63-5.86-5.86,0-1.55.62-3.04,1.72-4.14l19.31-19.31-19.31-19.31c-2.25-2.33-2.19-6.04.14-8.29,2.27-2.19,5.87-2.19,8.15,0l23.45,23.45c2.29,2.29,2.29,6,0,8.29l-23.45,23.45c-1.1,1.1-2.59,1.72-4.15,1.72Z"/>
  <path class="cls-9" d="m356.95,182.61c-3.24,0-5.86-2.63-5.86-5.86,0-1.55.62-3.04,1.72-4.14l35.18-35.18c2.33-2.25,6.04-2.19,8.29.14,2.19,2.27,2.19,5.87,0,8.15l-35.18,35.18c-1.1,1.1-2.59,1.72-4.15,1.72Z"/>
  <path class="cls-8" d="m392.13,182.61c-3.24,0-5.86-2.63-5.86-5.86v-29.32h-29.32c-3.24,0-5.86-2.63-5.86-5.86s2.63-5.86,5.86-5.86h35.18c3.24,0,5.86,2.63,5.86,5.86v35.18c0,3.24-2.63,5.86-5.86,5.86Z"/>
  <path class="cls-19" d="m181.05,182.61c-1.55,0-3.05-.62-4.15-1.72l-35.18-35.18c-2.25-2.33-2.19-6.04.14-8.29,2.27-2.19,5.87-2.19,8.15,0l35.18,35.18c2.29,2.29,2.29,6,0,8.29-1.1,1.1-2.59,1.72-4.14,1.72Z"/>
  <path class="cls-20" d="m145.87,182.61c-3.24,0-5.86-2.63-5.86-5.86v-35.18c0-3.24,2.63-5.86,5.86-5.86h35.18c3.24,0,5.86,2.63,5.86,5.86s-2.63,5.86-5.86,5.86h-29.32v29.32c0,3.24-2.63,5.86-5.86,5.86Z"/>
  <path class="cls-5" d="m145.87,393.69c-3.24,0-5.86-2.63-5.86-5.86,0-1.55.62-3.04,1.72-4.14l35.18-35.18c2.33-2.25,6.04-2.19,8.29.14,2.19,2.27,2.19,5.87,0,8.15l-35.18,35.18c-1.1,1.1-2.59,1.72-4.15,1.72Z"/>
  <path class="cls-3" d="m181.05,393.69h-35.18c-3.24,0-5.86-2.63-5.86-5.86v-35.18c0-3.24,2.63-5.86,5.86-5.86s5.86,2.63,5.86,5.86v29.32h29.32c3.24,0,5.86,2.63,5.86,5.86s-2.63,5.86-5.86,5.86Z"/>
  <path class="cls-10" d="m392.13,393.69c-1.55,0-3.05-.62-4.15-1.72l-35.18-35.18c-2.25-2.33-2.19-6.04.14-8.29,2.27-2.19,5.87-2.19,8.15,0l35.18,35.18c2.29,2.29,2.29,6,0,8.29-1.1,1.1-2.59,1.72-4.14,1.72Z"/>
  <path class="cls-2" d="m392.13,393.69h-35.18c-3.24,0-5.86-2.63-5.86-5.86s2.63-5.86,5.86-5.86h29.32v-29.32c0-3.24,2.63-5.86,5.86-5.86s5.86,2.63,5.86,5.86v35.18c0,3.24-2.63,5.86-5.86,5.86Z"/>
  <path class="cls-4" d="m227.96,311.6c-3.24,0-5.86-2.63-5.86-5.86,0-1.55.62-3.04,1.72-4.14l82.09-82.09c2.33-2.25,6.04-2.19,8.29.14,2.19,2.27,2.19,5.87,0,8.15l-82.09,82.09c-1.1,1.1-2.59,1.72-4.15,1.72Z"/>
  <path class="cls-16" d="m251.41,258.83c-9.71,0-17.59-7.88-17.59-17.59s7.88-17.59,17.59-17.59,17.59,7.88,17.59,17.59-7.88,17.59-17.59,17.59Zm0-23.45c-3.24,0-5.86,2.63-5.86,5.86s2.63,5.86,5.86,5.86,5.86-2.63,5.86-5.86-2.63-5.86-5.86-5.86Z"/>
  <path class="cls-6" d="m292.45,299.88c-9.71,0-17.59-7.88-17.59-17.59s7.88-17.59,17.59-17.59,17.59,7.88,17.59,17.59-7.88,17.59-17.59,17.59Zm0-23.45c-3.24,0-5.86,2.63-5.86,5.86s2.63,5.86,5.86,5.86,5.86-2.63,5.86-5.86-2.63-5.86-5.86-5.86Z"/>
</svg>