<?xml version="1.0" encoding="UTF-8"?>
<svg id="Layer_1" data-name="Layer 1" xmlns="http://www.w3.org/2000/svg" xmlns:xlink="http://www.w3.org/1999/xlink" viewBox="0 0 512 512">
  <defs>
    <style>
      .cls-1 {
        fill: url(#linear-gradient-2);
      }

      .cls-2 {
        fill: url(#linear-gradient-6);
      }

      .cls-3 {
        fill: url(#linear-gradient-5);
      }

      .cls-4 {
        fill: url(#linear-gradient-7);
      }

      .cls-5 {
        fill: url(#linear-gradient-9);
      }

      .cls-6 {
        fill: url(#linear-gradient-3);
      }

      .cls-7 {
        fill: url(#linear-gradient);
      }

      .cls-8 {
        fill: url(#linear-gradient-4);
      }

      .cls-9 {
        fill: url(#linear-gradient-8);
      }
    </style>
    <linearGradient id="linear-gradient" x1="91.11" y1="275.03" x2="420.89" y2="275.03" gradientUnits="userSpaceOnUse">
      <stop offset="0" stop-color="#f9c213"/>
      <stop offset="1" stop-color="#ffd86c"/>
    </linearGradient>
    <linearGradient id="linear-gradient-2" x1="206.47" y1="99.18" x2="219.68" y2="99.18" xlink:href="#linear-gradient"/>
    <linearGradient id="linear-gradient-3" x1="289.74" y1="120.22" x2="315.77" y2="120.22" xlink:href="#linear-gradient"/>
    <linearGradient id="linear-gradient-4" x1="115.91" y1="120.22" x2="141.94" y2="120.22" xlink:href="#linear-gradient"/>
    <linearGradient id="linear-gradient-5" x1="210.52" y1="235.42" x2="292.97" y2="235.42" xlink:href="#linear-gradient"/>
    <linearGradient id="linear-gradient-6" x1="207.33" y1="210.7" x2="245.22" y2="210.7" xlink:href="#linear-gradient"/>
    <linearGradient id="linear-gradient-7" x1="257.86" y1="261.23" x2="295.75" y2="261.23" xlink:href="#linear-gradient"/>
    <linearGradient id="linear-gradient-8" x1="133.22" y1="233.58" x2="191" y2="233.58" xlink:href="#linear-gradient"/>
    <linearGradient id="linear-gradient-9" x1="103.11" y1="199.16" x2="116.29" y2="199.16" xlink:href="#linear-gradient"/>
  </defs>
  <path class="cls-7" d="m414.28,302.88h-41.28l-.31-.15c-16.52-9.82-29.81-15.48-42.77-17.26,3.39-11.32,5.11-23.07,5.11-35.05,0-67.26-54.71-121.97-121.97-121.97-35.31,0-68.86,15.29-92.06,41.96-2.39,2.75-2.1,6.92.65,9.32,2.75,2.39,6.92,2.1,9.32-.65,20.68-23.78,50.61-37.42,82.09-37.42,59.97,0,108.76,48.79,108.76,108.77,0,11.88-1.89,23.5-5.62,34.61-11.91.85-23.36,4.78-34.27,9.46h-45.78c-16.11,0-29.59,13.48-29.59,29.59,0,5.82,1.72,11.58,4.96,16.41h-1.65l-78.85-22.62c-1.29-.37-2.62-.65-3.94-.83-14.71-18.98-22.78-42.52-22.78-66.62,0-7.15.7-14.31,2.09-21.3.71-3.58-1.61-7.05-5.19-7.76-3.58-.71-7.05,1.61-7.76,5.19-1.55,7.83-2.34,15.86-2.34,23.87,0,24.48,7.43,48.46,21.1,68.57-7.24,3.07-13.13,9.15-15.77,17.24-4.71,14.45,3.24,30.45,17.59,35.42l95.97,33.25c17.49,6.06,36.42,7.91,54.75,5.37l86.59-12.02h13.55v16.75c0,3.65,2.96,6.6,6.6,6.6h42.8c3.65,0,6.6-2.96,6.6-6.6v-105.52c0-3.65-2.96-6.6-6.61-6.6h0Zm-63.41,82.17c-.3,0-.61.02-.91.06l-87.04,12.08c-16.29,2.26-33.1.61-48.61-4.77l-95.97-33.25c-7.64-2.64-11.86-11.16-9.35-18.85,2.48-7.61,10.71-11.96,18.41-9.76l79.74,22.88c.59.17,1.21.26,1.82.26h74.36c3.65,0,6.6-2.99,6.6-6.64s-2.96-6.6-6.6-6.6h-47.14c-8.93,0-16.39-7.46-16.39-16.39s7.46-16.38,16.39-16.38h47.15c.91,0,1.81-.19,2.64-.55,11.96-5.22,24.77-9.69,38.01-8.95,14.77.83,28.4,7.89,40.91,15.25v71.6h-14.01Zm56.8,23.35h-29.59v-92.31h29.59v92.31Z"/>
  <path class="cls-1" d="m213.08,114.85c3.65,0,6.6-2.96,6.6-6.6v-18.13c0-3.65-2.96-6.6-6.6-6.6s-6.6,2.96-6.6,6.6v18.13c0,3.65,2.96,6.6,6.6,6.6Z"/>
  <path class="cls-6" d="m292.14,133.09c1.23,1.01,2.72,1.51,4.2,1.51,1.9,0,3.79-.82,5.1-2.4l12.82-15.54c2.32-2.81,1.92-6.98-.89-9.3-2.81-2.32-6.98-1.92-9.3.89l-12.82,15.54c-2.32,2.81-1.92,6.98.89,9.3Z"/>
  <path class="cls-8" d="m130.24,132.2c1.31,1.58,3.19,2.4,5.1,2.4,1.48,0,2.97-.49,4.2-1.51,2.81-2.32,3.21-6.48.89-9.3l-12.82-15.54c-2.32-2.81-6.48-3.21-9.3-.89-2.81,2.32-3.21,6.48-.89,9.3l12.82,15.54Z"/>
  <path class="cls-3" d="m281.7,196.14l-69.25,69.25c-2.58,2.58-2.58,6.76,0,9.34,2.54,2.54,6.8,2.54,9.34,0l69.25-69.25c2.58-2.58,2.58-6.76,0-9.34-2.58-2.58-6.76-2.58-9.34,0Z"/>
  <path class="cls-2" d="m226.28,191.75c-10.45,0-18.95,8.5-18.95,18.95s8.5,18.95,18.95,18.95,18.95-8.5,18.95-18.95-8.5-18.95-18.95-18.95Zm0,24.68c-3.16,0-5.74-2.57-5.74-5.74s2.57-5.74,5.74-5.74,5.74,2.57,5.74,5.74-2.57,5.74-5.74,5.74Z"/>
  <path class="cls-4" d="m276.81,242.28c-10.45,0-18.95,8.5-18.95,18.95s8.5,18.95,18.95,18.95,18.95-8.5,18.95-18.95-8.5-18.95-18.95-18.95Zm0,24.68c-3.16,0-5.74-2.57-5.74-5.74s2.57-5.74,5.74-5.74,5.74,2.57,5.74,5.74-2.57,5.74-5.74,5.74Z"/>
  <path class="cls-9" d="m166.55,276.66c13.48,0,24.45-10.97,24.45-24.45v-37.27c0-13.48-10.97-24.45-24.45-24.45h-8.88c-13.48,0-24.45,10.97-24.45,24.45v37.27c0,13.48,10.97,24.45,24.45,24.45h8.88Zm-20.12-24.45v-37.27c0-6.2,5.04-11.25,11.25-11.25h8.88c6.2,0,11.25,5.04,11.25,11.25v37.27c0,6.2-5.04,11.25-11.25,11.25h-8.88c-6.2,0-11.25-5.04-11.25-11.25Z"/>
  <path class="cls-5" d="m103.6,201.69c1.36,3.33,5.31,4.95,8.62,3.57,3.32-1.38,4.95-5.3,3.57-8.62-1.38-3.32-5.3-4.95-8.62-3.57-3.32,1.38-4.96,5.3-3.57,8.62Z"/>
</svg>