<?xml version="1.0" encoding="UTF-8"?>
<svg id="Capa_1" data-name="Capa 1" xmlns="http://www.w3.org/2000/svg" xmlns:xlink="http://www.w3.org/1999/xlink" viewBox="0 0 512 512">
  <defs>
    <style>
      .cls-1 {
        fill: url(#linear-gradient-2);
      }

      .cls-2 {
        fill: url(#linear-gradient-3);
      }

      .cls-3 {
        fill: url(#linear-gradient);
      }

      .cls-4 {
        fill: url(#linear-gradient-4);
      }
    </style>
    <linearGradient id="linear-gradient" x1="66" y1="430.13" x2="447" y2="430.13" gradientUnits="userSpaceOnUse">
      <stop offset="0" stop-color="#f9c213"/>
      <stop offset="1" stop-color="#ffd86c"/>
    </linearGradient>
    <linearGradient id="linear-gradient-2" x1="110.01" y1="148.37" x2="390.05" y2="148.37" xlink:href="#linear-gradient"/>
    <linearGradient id="linear-gradient-3" x1="142.5" y1="43.5" x2="157.5" y2="43.5" xlink:href="#linear-gradient"/>
    <linearGradient id="linear-gradient-4" x1="342.55" y1="234.12" x2="357.55" y2="234.12" xlink:href="#linear-gradient"/>
  </defs>
  <path class="cls-3" d="m439.46,393h-64.27l-5.5-5.21c-2.55-2.57-4.75-5.05-6.88-7.44-5.55-6.24-10.79-12.13-20.6-18.43-.02-.02-.05-.03-.07-.04-.02-.01-.04-.02-.05-.04-13.86-8.89-29.9-13.59-46.4-13.59-.28,0-.55.02-.83.05l-57.7,6.38c-17.98.12-31.17,7.58-35.97,19.94-27.82,1.03-45.3,1.55-52.01,1.55-10.78,0-33.68-14.6-45.57-23.8-.3-.23-.62-.45-.96-.63-6.07-3.36-13.06-4.11-19.71-2.09-6.64,2.02-12.03,6.52-15.2,12.72l-.32.64c-2.9,5.68-1.26,12.66,3.78,16.48,1.96,1.76,13.17,11.71,26.09,21.82,26.45,20.7,36.05,23.35,41.46,23.35,10.93,0,64.3,5.47,92.03,8.47l37.68,16.27c.98.42,2,.62,3,.62,2.91,0,5.69-1.69,6.92-4.52,1.66-3.8-.09-8.22-3.91-9.87l-38.72-16.72c-.7-.3-1.43-.5-2.18-.58-3.27-.36-80.15-8.68-94.8-8.68-6.34-.13-32.47-18.91-57.23-41.11,1.3-2.2,3.35-3.8,5.82-4.55,2.52-.77,5.18-.55,7.53.61,5.45,4.16,35.6,26.56,54.31,26.56,6.82,0,23.38-.49,50.54-1.48,1.71,6.22,7.45,10.8,14.25,10.8h34.61c12.41,0,23.96,5.52,31.71,15.13,1.49,1.85,3.68,2.81,5.89,2.81,1.66,0,3.32-.54,4.71-1.65,3.25-2.59,3.77-7.31,1.17-10.54-10.62-13.19-26.48-20.75-43.48-20.75h-34.29c.01-.82.08-1.64.19-2.43,0-.05.02-.09.02-.14.64-4.05,4.17-13.24,23.1-13.24.28,0,.55-.02.83-.05l57.67-6.38c13.42.08,26.46,3.93,37.74,11.14.07.05.14.09.21.14,8.06,5.18,12.42,10.09,17.47,15.76,2.29,2.56,4.64,5.21,7.55,8.14.05.05.11.11.16.16l8.26,7.82v76.7l-63.54-33.37c-3.69-1.93-8.25-.53-10.19,3.13-1.95,3.66-.54,8.2,3.15,10.13l70.58,37.07v4.42c0,4.14,3.38,7.5,7.54,7.5h64.43c4.17,0,7.54-3.36,7.54-7.5v-104c0-4.15-3.38-7.5-7.54-7.5Zm-56.89,44.52h11.73c4.09,0,7.42,3.31,7.42,7.38v.23c0,4.07-3.33,7.38-7.42,7.38h-11.73v-15Zm49.35,59.48h-49.35v-29.48h11.73c12.41,0,22.5-10.04,22.5-22.38v-.23c0-12.34-10.09-22.38-22.5-22.38h-11.73v-14.52h49.35v89Z"/>
  <path class="cls-1" d="m138.19,95.58c-11.64,20.22-17.77,43.1-17.81,66.64,0,.07,0,.14,0,.22s0,.15,0,.23c.05,31.96,11.33,61.35,30.09,84.41.25.37.53.71.84,1.02,24.65,29.7,61.84,48.65,103.37,48.65,25.94,0,50.82-7.3,72.42-21.18,1.08,1.26,2.12,2.39,3.07,3.39,2.86,2.97,12.73,12.66,19.88,12.66s17.03-9.69,19.89-12.66c7.88-8.2,20.97-25.39,20.07-48.49-.35-9.05-3.45-17.32-8.43-23.94,4.91-14.14,7.4-28.95,7.4-44.08,0-11.27-1.4-22.48-4.16-33.31-1.02-4.02-5.11-6.44-9.12-5.41-4.02,1.02-6.44,5.11-5.41,9.12,1.84,7.21,3,14.62,3.47,22.1h-29.16c-.75-20.63-4.6-40.41-11.2-58.08,6.15-1.72,11.83-3.62,16.99-5.68,3.23,4.34,6.2,8.93,8.85,13.74,1.37,2.48,3.93,3.88,6.57,3.88,1.22,0,2.46-.3,3.61-.93,3.63-2,4.95-6.56,2.95-10.19-23.59-42.78-68.52-69.4-117.3-69.54-.12,0-.25,0-.38,0s-.26,0-.39,0c-22.8.07-44.73,5.75-64.34,16.58.07-1.6.08-3.22.02-4.88-.87-22.35-18.42-39.85-39.95-39.85s-39.09,17.5-39.96,39.85c-.88,22.46,12.22,43.62,28.14,55.73Zm191.38,74.36c-.39,9.86-1.55,19.53-3.45,28.89-7.49,5.8-12.95,14.28-15.07,24.14-8.34-1.48-17.06-2.64-26.04-3.45,1.54-15.36,2.43-32.15,2.64-49.58h41.93Zm20.48,20.68c-2.53,0-5.01.24-7.41.7,1.02-7.01,1.67-14.16,1.93-21.38h29.16c-.54,8.76-2.03,17.37-4.46,25.75-5.71-3.24-12.26-5.07-19.23-5.07Zm-214.44-20.68h29.16c.75,20.49,4.57,40.29,11.2,58.07-6.13,1.72-11.8,3.61-16.95,5.66-13.45-18.02-21.94-39.94-23.42-63.73Zm48.47-15h-4.3c.76-19.5,4.5-38.09,10.86-54.51,10.56,2.21,21.86,3.86,33.7,4.93-1.54,15.36-2.44,32.15-2.64,49.58h-4.98c-4.14,0-7.5,3.36-7.5,7.5s3.36,7.5,7.5,7.5h4.98c.2,17.43,1.1,34.22,2.64,49.58-11.82,1.06-23.11,2.71-33.68,4.92-6.41-16.55-10.12-35.16-10.88-54.5h4.3c4.14,0,7.5-3.36,7.5-7.5s-3.36-7.5-7.5-7.5Zm41.64,79.52c.12-.01.25-.02.38-.03.93,6.8,1.99,13.21,3.19,19.16,1.98,9.86,4.21,17.95,6.71,24.35-15.1-6.26-28.78-19.99-38.99-39.46,9.06-1.77,18.68-3.11,28.71-4.01Zm28.95,46.78c-2.34-2.52-7.32-11.79-11.57-35.27-.72-3.96-1.38-8.14-1.99-12.48,9-.36,18.13-.36,27.12,0-.6,4.34-1.27,8.52-1.98,12.48-4.26,23.48-9.23,32.75-11.57,35.27Zm18.67-3.29c2.51-6.41,4.73-14.5,6.72-24.37,1.2-5.94,2.26-12.36,3.19-19.16.12.01.24.02.36.03,9.25.83,18.2,2.04,26.7,3.62.11,1.14.24,2.27.41,3.37-10.09,18.01-23.11,30.6-37.37,36.5Zm-3.33-59.4c-10.18-.44-20.51-.44-30.69,0-1.52-15.04-2.42-31.55-2.62-48.61h35.93c-.21,17.05-1.1,33.57-2.62,48.61Zm-33.31-63.61c.2-17.05,1.1-33.57,2.62-48.61,5.08.22,10.21.33,15.35.33s10.25-.11,15.34-.33c1.52,15.04,2.41,31.55,2.62,48.61h-35.93Zm17.96-111.29c2.34,2.52,7.32,11.79,11.57,35.27.72,3.96,1.38,8.14,1.98,12.48-9,.36-18.13.36-27.12,0,.61-4.34,1.27-8.52,1.99-12.48,4.26-23.48,9.23-32.75,11.57-35.27Zm28.58,46.81c-.93-6.8-1.99-13.21-3.19-19.16-1.98-9.87-4.21-17.96-6.72-24.37,12.41,5.12,23.89,15.32,33.41,29.95,1.98,3.04,3.85,6.23,5.59,9.54-9.07,1.77-18.69,3.11-28.72,4.01-.12,0-.25.02-.37.03Zm-47.25-43.53c-2.51,6.41-4.74,14.51-6.72,24.37-1.2,5.94-2.26,12.36-3.19,19.16-.12-.01-.24-.02-.36-.03-10.05-.9-19.67-2.25-28.73-4.01,1.74-3.31,3.61-6.49,5.59-9.54,9.52-14.62,21-24.83,33.41-29.95Zm-71.23,108.02h-29.16c1.2-19.27,7.02-37.85,17.03-54.32,4.03-1.09,8.5-4.32,11.99-7.31,3.57,1.26,7.36,2.45,11.34,3.56-6.6,17.67-10.44,37.45-11.2,58.08Zm4.63,90.86c3.89-1.38,8.08-2.67,12.55-3.87,4.78,9.76,10.36,18.39,16.57,25.75-10.8-5.79-20.62-13.19-29.12-21.88Zm141.36,21.98c2.05-2.43,4.04-5.01,5.96-7.73.56,1.11,1.14,2.2,1.73,3.24-2.51,1.59-5.07,3.09-7.68,4.48Zm39.29,8.37c-10.68-6.26-25.77-24.65-24.97-45.1.55-14.26,11.52-25.43,24.97-25.43s24.41,11.17,24.97,25.43c.94,24.07-18.69,41.42-24.97,45.1Zm-62.41-121.21c-.2-17.43-1.1-34.22-2.64-49.58,11.82-1.06,23.13-2.72,33.7-4.93,6.37,16.42,10.1,35,10.86,54.51h-41.93Zm52.36-75.88c-3.91,1.38-8.11,2.68-12.6,3.89-2.45-4.99-5.14-9.75-8.07-14.26-2.69-4.12-5.52-7.96-8.49-11.49,10.73,5.73,20.58,13.09,29.16,21.86Zm-141.41-21.96c-3,3.56-5.86,7.43-8.57,11.59-2.93,4.5-5.63,9.27-8.08,14.26-2.05-.55-4.05-1.12-5.99-1.71,3.25-4.28,6.59-9.58,9.21-15.77,4.32-3.1,8.8-5.9,13.43-8.37Zm-73.56-16.67c.55-14.26,11.52-25.43,24.97-25.43s24.41,11.17,24.97,25.43c.77,19.65-13.42,38.32-24.97,45.1-6.28-3.68-25.91-21.03-24.97-45.1Z"/>
  <path class="cls-2" d="m150,58.5c4.14,0,7.5-3.36,7.5-7.5v-15c0-4.14-3.36-7.5-7.5-7.5s-7.5,3.36-7.5,7.5v15c0,4.14,3.36,7.5,7.5,7.5Z"/>
  <path class="cls-4" d="m350.05,219.12c-4.14,0-7.5,3.36-7.5,7.5v15c0,4.14,3.36,7.5,7.5,7.5s7.5-3.36,7.5-7.5v-15c0-4.14-3.36-7.5-7.5-7.5Z"/>
</svg>