<?xml version="1.0" encoding="UTF-8"?>
<svg id="Layer_1" data-name="Layer 1" xmlns="http://www.w3.org/2000/svg" viewBox="0 0 682 432.37">
  <path d="m68.01,232.62c5.18,0,9.37-4.19,9.37-9.37V40.89c0-7.8,6.35-14.15,14.15-14.15h329.9c5.17,0,9.37-4.19,9.37-9.37s-4.2-9.37-9.37-9.37H91.53c-18.13,0-32.89,14.75-32.89,32.89v182.36c0,5.17,4.2,9.37,9.37,9.37Z"/>
  <path d="m462.21,26.74h127.59c7.8,0,14.15,6.35,14.15,14.15v57.49c0,5.17,4.19,9.37,9.37,9.37s9.37-4.19,9.37-9.37v-57.49c0-18.13-14.75-32.89-32.89-32.89h-127.59c-5.17,0-9.37,4.19-9.37,9.37s4.2,9.37,9.37,9.37Z"/>
  <path d="m638.5,321.72h-15.81v-182.55c0-5.17-4.2-9.37-9.37-9.37s-9.37,4.2-9.37,9.37v182.55h-163.61c-2.22,0-4.37.79-6.06,2.23l-12.98,11.04h-161.26l-12.98-11.04c-1.69-1.44-3.84-2.23-6.06-2.23H77.37v-57.67c0-5.17-4.19-9.37-9.37-9.37s-9.37,4.2-9.37,9.37v57.67h-15.81c-12.05,0-21.85,9.8-21.85,21.85v27.92c0,19.5,15.87,35.37,35.37,35.37h568.63c19.5,0,35.37-15.87,35.37-35.37v-27.92c0-12.05-9.8-21.85-21.85-21.85Zm3.12,49.78c0,9.17-7.46,16.64-16.64,16.64H56.35c-9.18,0-16.64-7.47-16.64-16.64v-27.92c0-1.72,1.4-3.12,3.12-3.12h194.71l12.98,11.03c1.69,1.44,3.84,2.23,6.06,2.23h168.15c2.22,0,4.37-.79,6.07-2.23l12.98-11.03h49.44v8.91c0,5.18,4.2,9.37,9.37,9.37s9.37-4.19,9.37-9.37v-8.91h9.58v8.91c0,5.18,4.19,9.37,9.37,9.37s9.37-4.19,9.37-9.37v-8.91h9.58v8.91c0,5.18,4.19,9.37,9.37,9.37s9.37-4.19,9.37-9.37v-8.91h69.93c1.72,0,3.12,1.4,3.12,3.12v27.92Z"/>
  <path d="m535.27,169.95v-95.59c0-12.05-9.8-21.85-21.85-21.85H167.92c-12.05,0-21.85,9.8-21.85,21.85v95.59c0,12.05,9.8,21.85,21.85,21.85h345.5c12.04,0,21.85-9.8,21.85-21.85Zm-18.73,0c0,1.72-1.4,3.12-3.12,3.12H167.92c-1.72,0-3.12-1.4-3.12-3.12v-95.59c0-1.72,1.4-3.12,3.12-3.12h345.5c1.72,0,3.12,1.4,3.12,3.12v95.59h0Z"/>
  <path d="m458.31,87.31l-61.21,45.06-50.53-40.82c-3.56-2.88-8.67-2.76-12.1.28l-44.9,39.79-29.28-26.63c-3.73-3.4-9.49-3.22-13.01.4l-38.11,39.14c-3.61,3.71-3.53,9.63.18,13.24,1.82,1.77,4.18,2.65,6.53,2.65s4.87-.94,6.71-2.83l31.79-32.65,28.8,26.19c3.54,3.22,8.93,3.25,12.52.08l45.26-40.11,49.99,40.38c3.31,2.67,8,2.78,11.44.26l67.03-49.34c4.17-3.07,5.05-8.93,1.99-13.1-3.07-4.17-8.93-5.05-13.1-1.99Z"/>
  <path d="m157.21,239.75h6.03c3.78,9.76,13.24,16.7,24.3,16.7s20.53-6.95,24.3-16.7h126.18c5.17,0,9.37-4.19,9.37-9.37s-4.19-9.37-9.37-9.37h-126.18c-3.77-9.76-13.23-16.7-24.3-16.7s-20.53,6.95-24.3,16.7h-6.03c-5.17,0-9.37,4.19-9.37,9.37s4.19,9.37,9.37,9.37Zm30.34-16.7c4.05,0,7.34,3.29,7.34,7.34s-3.29,7.34-7.34,7.34-7.34-3.29-7.34-7.34,3.29-7.34,7.34-7.34Z"/>
  <path d="m157.21,287.14h81.26c3.78,9.76,13.24,16.7,24.3,16.7s20.53-6.95,24.3-16.7h50.96c5.17,0,9.37-4.19,9.37-9.37s-4.2-9.37-9.37-9.37h-50.96c-3.78-9.76-13.23-16.7-24.3-16.7s-20.53,6.95-24.3,16.7h-81.26c-5.17,0-9.37,4.19-9.37,9.37s4.19,9.37,9.37,9.37Zm105.56-16.7c4.04,0,7.34,3.29,7.34,7.34s-3.29,7.34-7.34,7.34-7.34-3.29-7.34-7.34,3.29-7.34,7.34-7.34Z"/>
  <path d="m397.7,303.85c5.17,0,9.37-4.19,9.37-9.37v-47.4h3.95c5.17,0,9.37-4.19,9.37-9.37s-4.19-9.37-9.37-9.37h-3.95v-9.02c0-5.17-4.2-9.37-9.37-9.37s-9.37,4.2-9.37,9.37v9.02h-3.96c-5.17,0-9.37,4.19-9.37,9.37s4.19,9.37,9.37,9.37h3.96v47.4c0,5.17,4.19,9.37,9.37,9.37Z"/>
  <path d="m449.31,303.85c5.17,0,9.37-4.19,9.37-9.37v-13.27h3.96c5.17,0,9.37-4.19,9.37-9.37s-4.2-9.37-9.37-9.37h-3.96v-43.15c0-5.17-4.19-9.37-9.37-9.37s-9.37,4.2-9.37,9.37v43.15h-3.96c-5.17,0-9.37,4.2-9.37,9.37s4.2,9.37,9.37,9.37h3.96v13.27c0,5.17,4.19,9.37,9.37,9.37Z"/>
  <path d="m500.92,303.85c5.17,0,9.37-4.19,9.37-9.37v-42.3h3.96c5.17,0,9.37-4.19,9.37-9.37s-4.19-9.37-9.37-9.37h-3.96v-14.12c0-5.17-4.19-9.37-9.37-9.37s-9.37,4.2-9.37,9.37v14.12h-3.95c-5.17,0-9.37,4.19-9.37,9.37s4.19,9.37,9.37,9.37h3.95v42.3c0,5.17,4.2,9.37,9.37,9.37Z"/>
</svg>