<svg id="visual" viewBox="0 0 1920 1080" width="1920" height="1080" xmlns="http://www.w3.org/2000/svg" xmlns:xlink="http://www.w3.org/1999/xlink" version="1.1"><g stroke-width="1" stroke-linejoin="bevel"><path d="M960 623.1L930 758.4L1089 742.4Z" fill="#c55260" stroke="#c55260"></path><path d="M1089 742.4L1122 594.1L960 623.1Z" fill="#1e1e2b" stroke="#1e1e2b"></path><path d="M960 623.1L823 750.4L930 758.4Z" fill="#c55260" stroke="#c55260"></path><path d="M1122 594.1L1102 488.9L960 623.1Z" fill="#fd9f2e" stroke="#fd9f2e"></path><path d="M960 623.1L763 593.1L823 750.4Z" fill="#fd9f2e" stroke="#fd9f2e"></path><path d="M823 750.4L923 926.7L930 758.4Z" fill="#c55260" stroke="#c55260"></path><path d="M930 758.4L923 926.7L1089 742.4Z" fill="#e16554" stroke="#e16554"></path><path d="M923 926.7L1147 895.7L1089 742.4Z" fill="#a24564" stroke="#a24564"></path><path d="M1089 742.4L1278 592.1L1122 594.1Z" fill="#a24564" stroke="#a24564"></path><path d="M1102 488.9L977 457.9L960 623.1Z" fill="#372a42" stroke="#372a42"></path><path d="M792 434.9L763 593.1L960 623.1Z" fill="#c55260" stroke="#c55260"></path><path d="M1314 767.4L1278 592.1L1089 742.4Z" fill="#1e1e2b" stroke="#1e1e2b"></path><path d="M1122 594.1L1278 592.1L1102 488.9Z" fill="#f57f44" stroke="#f57f44"></path><path d="M652 891.7L838 955.7L823 750.4Z" fill="#7c3c61" stroke="#7c3c61"></path><path d="M823 750.4L838 955.7L923 926.7Z" fill="#372a42" stroke="#372a42"></path><path d="M923 926.7L1094 1080L1147 895.7Z" fill="#573455" stroke="#573455"></path><path d="M1147 895.7L1314 767.4L1089 742.4Z" fill="#372a42" stroke="#372a42"></path><path d="M977 457.9L792 434.9L960 623.1Z" fill="#372a42" stroke="#372a42"></path><path d="M1260 1080L1315 892.7L1147 895.7Z" fill="#e16554" stroke="#e16554"></path><path d="M1147 895.7L1315 892.7L1314 767.4Z" fill="#fd9f2e" stroke="#fd9f2e"></path><path d="M653 587.1L640 738.4L763 593.1Z" fill="#fac211" stroke="#fac211"></path><path d="M763 593.1L640 738.4L823 750.4Z" fill="#0d0e11" stroke="#0d0e11"></path><path d="M641 458.9L653 587.1L763 593.1Z" fill="#e16554" stroke="#e16554"></path><path d="M838 955.7L968 1080L923 926.7Z" fill="#e16554" stroke="#e16554"></path><path d="M968 1080L1094 1080L923 926.7Z" fill="#e16554" stroke="#e16554"></path><path d="M1436 464.9L1293 444.9L1278 592.1Z" fill="#573455" stroke="#573455"></path><path d="M1278 592.1L1293 444.9L1102 488.9Z" fill="#fd9f2e" stroke="#fd9f2e"></path><path d="M1103 284.6L995 279.6L977 457.9Z" fill="#7c3c61" stroke="#7c3c61"></path><path d="M977 457.9L837 345.6L792 434.9Z" fill="#573455" stroke="#573455"></path><path d="M995 279.6L837 345.6L977 457.9Z" fill="#fac211" stroke="#fac211"></path><path d="M792 434.9L641 458.9L763 593.1Z" fill="#f57f44" stroke="#f57f44"></path><path d="M640 738.4L652 891.7L823 750.4Z" fill="#c55260" stroke="#c55260"></path><path d="M838 955.7L838 1080L968 1080Z" fill="#372a42" stroke="#372a42"></path><path d="M647 1080L838 1080L838 955.7Z" fill="#0d0e11" stroke="#0d0e11"></path><path d="M1103 284.6L977 457.9L1102 488.9Z" fill="#c55260" stroke="#c55260"></path><path d="M1293 444.9L1103 284.6L1102 488.9Z" fill="#fac211" stroke="#fac211"></path><path d="M657 305.6L641 458.9L792 434.9Z" fill="#0d0e11" stroke="#0d0e11"></path><path d="M653 587.1L517 646.1L640 738.4Z" fill="#fd9f2e" stroke="#fd9f2e"></path><path d="M1094 1080L1260 1080L1147 895.7Z" fill="#372a42" stroke="#372a42"></path><path d="M1314 767.4L1455 580.1L1278 592.1Z" fill="#573455" stroke="#573455"></path><path d="M1293 444.9L1260 276.6L1103 284.6Z" fill="#f57f44" stroke="#f57f44"></path><path d="M1476 805.4L1455 580.1L1314 767.4Z" fill="#7c3c61" stroke="#7c3c61"></path><path d="M1476 805.4L1314 767.4L1315 892.7Z" fill="#e16554" stroke="#e16554"></path><path d="M1462 950.7L1476 805.4L1315 892.7Z" fill="#7c3c61" stroke="#7c3c61"></path><path d="M641 458.9L517 646.1L653 587.1Z" fill="#7c3c61" stroke="#7c3c61"></path><path d="M640 738.4L515 783.4L652 891.7Z" fill="#fac211" stroke="#fac211"></path><path d="M1455 580.1L1436 464.9L1278 592.1Z" fill="#fd9f2e" stroke="#fd9f2e"></path><path d="M517 646.1L515 783.4L640 738.4Z" fill="#fd9f2e" stroke="#fd9f2e"></path><path d="M652 891.7L647 1080L838 955.7Z" fill="#1e1e2b" stroke="#1e1e2b"></path><path d="M1479 314.6L1260 276.6L1293 444.9Z" fill="#7c3c61" stroke="#7c3c61"></path><path d="M1103 284.6L990 186.3L995 279.6Z" fill="#fac211" stroke="#fac211"></path><path d="M1098 149.3L990 186.3L1103 284.6Z" fill="#372a42" stroke="#372a42"></path><path d="M995 279.6L990 186.3L837 345.6Z" fill="#7c3c61" stroke="#7c3c61"></path><path d="M837 345.6L657 305.6L792 434.9Z" fill="#c55260" stroke="#c55260"></path><path d="M490 888.7L647 1080L652 891.7Z" fill="#fac211" stroke="#fac211"></path><path d="M1260 1080L1462 950.7L1315 892.7Z" fill="#573455" stroke="#573455"></path><path d="M811 128.3L657 305.6L837 345.6Z" fill="#a24564" stroke="#a24564"></path><path d="M641 458.9L450 455.9L517 646.1Z" fill="#372a42" stroke="#372a42"></path><path d="M306 793.4L490 888.7L515 783.4Z" fill="#fac211" stroke="#fac211"></path><path d="M515 783.4L490 888.7L652 891.7Z" fill="#fac211" stroke="#fac211"></path><path d="M1260 276.6L1098 149.3L1103 284.6Z" fill="#1e1e2b" stroke="#1e1e2b"></path><path d="M1260 1080L1456 1080L1462 950.7Z" fill="#c55260" stroke="#c55260"></path><path d="M1615 808.4L1591 648.1L1476 805.4Z" fill="#e16554" stroke="#e16554"></path><path d="M1615 808.4L1476 805.4L1638 902.7Z" fill="#372a42" stroke="#372a42"></path><path d="M1476 805.4L1591 648.1L1455 580.1Z" fill="#c55260" stroke="#c55260"></path><path d="M1455 580.1L1606 453.9L1436 464.9Z" fill="#1e1e2b" stroke="#1e1e2b"></path><path d="M985 0L811 128.3L990 186.3Z" fill="#f57f44" stroke="#f57f44"></path><path d="M990 186.3L811 128.3L837 345.6Z" fill="#1e1e2b" stroke="#1e1e2b"></path><path d="M472 274.6L450 455.9L641 458.9Z" fill="#e16554" stroke="#e16554"></path><path d="M517 646.1L306 793.4L515 783.4Z" fill="#e16554" stroke="#e16554"></path><path d="M472 274.6L641 458.9L657 305.6Z" fill="#573455" stroke="#573455"></path><path d="M1606 453.9L1479 314.6L1436 464.9Z" fill="#0d0e11" stroke="#0d0e11"></path><path d="M1436 464.9L1479 314.6L1293 444.9Z" fill="#f57f44" stroke="#f57f44"></path><path d="M1260 276.6L1297 137.3L1098 149.3Z" fill="#a24564" stroke="#a24564"></path><path d="M1638 902.7L1476 805.4L1462 950.7Z" fill="#a24564" stroke="#a24564"></path><path d="M1454 130.3L1297 137.3L1260 276.6Z" fill="#f57f44" stroke="#f57f44"></path><path d="M1098 149.3L985 0L990 186.3Z" fill="#7c3c61" stroke="#7c3c61"></path><path d="M1591 648.1L1606 453.9L1455 580.1Z" fill="#f57f44" stroke="#f57f44"></path><path d="M1739 588.1L1606 453.9L1591 648.1Z" fill="#e16554" stroke="#e16554"></path><path d="M1621 1080L1638 902.7L1462 950.7Z" fill="#c55260" stroke="#c55260"></path><path d="M1756 749.4L1739 588.1L1591 648.1Z" fill="#fac211" stroke="#fac211"></path><path d="M450 455.9L343 600.1L517 646.1Z" fill="#1e1e2b" stroke="#1e1e2b"></path><path d="M490 888.7L441 1080L647 1080Z" fill="#1e1e2b" stroke="#1e1e2b"></path><path d="M287 894.7L441 1080L490 888.7Z" fill="#0d0e11" stroke="#0d0e11"></path><path d="M472 186.3L472 274.6L657 305.6Z" fill="#372a42" stroke="#372a42"></path><path d="M450 455.9L284 488.9L343 600.1Z" fill="#c55260" stroke="#c55260"></path><path d="M811 128.3L613 124.3L657 305.6Z" fill="#a24564" stroke="#a24564"></path><path d="M611 0L613 124.3L811 128.3Z" fill="#372a42" stroke="#372a42"></path><path d="M1145 0L985 0L1098 149.3Z" fill="#c55260" stroke="#c55260"></path><path d="M343 600.1L306 793.4L517 646.1Z" fill="#1e1e2b" stroke="#1e1e2b"></path><path d="M1241 0L1145 0L1098 149.3Z" fill="#fac211" stroke="#fac211"></path><path d="M1456 1080L1621 1080L1462 950.7Z" fill="#f57f44" stroke="#f57f44"></path><path d="M985 0L820 0L811 128.3Z" fill="#573455" stroke="#573455"></path><path d="M1479 314.6L1454 130.3L1260 276.6Z" fill="#c55260" stroke="#c55260"></path><path d="M1297 137.3L1241 0L1098 149.3Z" fill="#f57f44" stroke="#f57f44"></path><path d="M1637 186.3L1454 130.3L1479 314.6Z" fill="#c55260" stroke="#c55260"></path><path d="M1725 304.6L1634 312.6L1606 453.9Z" fill="#573455" stroke="#573455"></path><path d="M1606 453.9L1634 312.6L1479 314.6Z" fill="#1e1e2b" stroke="#1e1e2b"></path><path d="M1412 0L1241 0L1297 137.3Z" fill="#1e1e2b" stroke="#1e1e2b"></path><path d="M306 793.4L287 894.7L490 888.7Z" fill="#fd9f2e" stroke="#fd9f2e"></path><path d="M492 0L472 186.3L613 124.3Z" fill="#f57f44" stroke="#f57f44"></path><path d="M613 124.3L472 186.3L657 305.6Z" fill="#f57f44" stroke="#f57f44"></path><path d="M336 268.6L284 488.9L450 455.9Z" fill="#573455" stroke="#573455"></path><path d="M1756 749.4L1615 808.4L1638 902.7Z" fill="#fd9f2e" stroke="#fd9f2e"></path><path d="M1756 749.4L1591 648.1L1615 808.4Z" fill="#372a42" stroke="#372a42"></path><path d="M336 268.6L450 455.9L472 274.6Z" fill="#1e1e2b" stroke="#1e1e2b"></path><path d="M343 600.1L156 609.1L306 793.4Z" fill="#a24564" stroke="#a24564"></path><path d="M137 755.4L175 958.7L287 894.7Z" fill="#573455" stroke="#573455"></path><path d="M1724 942.7L1756 749.4L1638 902.7Z" fill="#e16554" stroke="#e16554"></path><path d="M1621 1080L1724 942.7L1638 902.7Z" fill="#a24564" stroke="#a24564"></path><path d="M287 894.7L310 1080L441 1080Z" fill="#1e1e2b" stroke="#1e1e2b"></path><path d="M1739 588.1L1776 500.9L1606 453.9Z" fill="#573455" stroke="#573455"></path><path d="M1920 578.1L1776 500.9L1739 588.1Z" fill="#c55260" stroke="#c55260"></path><path d="M342 183.3L336 268.6L472 274.6Z" fill="#fd9f2e" stroke="#fd9f2e"></path><path d="M820 0L611 0L811 128.3Z" fill="#573455" stroke="#573455"></path><path d="M472 186.3L342 183.3L472 274.6Z" fill="#f57f44" stroke="#f57f44"></path><path d="M1587 0L1412 0L1454 130.3Z" fill="#f57f44" stroke="#f57f44"></path><path d="M1454 130.3L1412 0L1297 137.3Z" fill="#a24564" stroke="#a24564"></path><path d="M1637 186.3L1479 314.6L1634 312.6Z" fill="#7c3c61" stroke="#7c3c61"></path><path d="M1725 304.6L1637 186.3L1634 312.6Z" fill="#e16554" stroke="#e16554"></path><path d="M1776 500.9L1725 304.6L1606 453.9Z" fill="#c55260" stroke="#c55260"></path><path d="M343 0L342 183.3L472 186.3Z" fill="#372a42" stroke="#372a42"></path><path d="M172 446.9L156 609.1L284 488.9Z" fill="#f57f44" stroke="#f57f44"></path><path d="M172 446.9L284 488.9L169 346.6Z" fill="#f57f44" stroke="#f57f44"></path><path d="M284 488.9L156 609.1L343 600.1Z" fill="#0d0e11" stroke="#0d0e11"></path><path d="M287 894.7L175 958.7L310 1080Z" fill="#573455" stroke="#573455"></path><path d="M137 755.4L287 894.7L306 793.4Z" fill="#573455" stroke="#573455"></path><path d="M156 609.1L137 755.4L306 793.4Z" fill="#372a42" stroke="#372a42"></path><path d="M611 0L492 0L613 124.3Z" fill="#7c3c61" stroke="#7c3c61"></path><path d="M169 346.6L284 488.9L336 268.6Z" fill="#7c3c61" stroke="#7c3c61"></path><path d="M0 586.1L0 763.4L137 755.4Z" fill="#1e1e2b" stroke="#1e1e2b"></path><path d="M1621 1080L1797 1080L1724 942.7Z" fill="#f57f44" stroke="#f57f44"></path><path d="M1920 893.7L1920 751.4L1756 749.4Z" fill="#0d0e11" stroke="#0d0e11"></path><path d="M1756 749.4L1920 578.1L1739 588.1Z" fill="#a24564" stroke="#a24564"></path><path d="M132 115.3L169 346.6L336 268.6Z" fill="#fac211" stroke="#fac211"></path><path d="M0 586.1L137 755.4L156 609.1Z" fill="#e16554" stroke="#e16554"></path><path d="M132 115.3L336 268.6L342 183.3Z" fill="#f57f44" stroke="#f57f44"></path><path d="M1637 186.3L1587 0L1454 130.3Z" fill="#f57f44" stroke="#f57f44"></path><path d="M1751 140.3L1587 0L1637 186.3Z" fill="#fd9f2e" stroke="#fd9f2e"></path><path d="M1920 893.7L1756 749.4L1724 942.7Z" fill="#a24564" stroke="#a24564"></path><path d="M1776 500.9L1920 431.9L1725 304.6Z" fill="#1e1e2b" stroke="#1e1e2b"></path><path d="M1920 751.4L1920 578.1L1756 749.4Z" fill="#e16554" stroke="#e16554"></path><path d="M1725 304.6L1751 140.3L1637 186.3Z" fill="#f57f44" stroke="#f57f44"></path><path d="M1797 1080L1920 893.7L1724 942.7Z" fill="#0d0e11" stroke="#0d0e11"></path><path d="M1920 161.3L1751 140.3L1725 304.6Z" fill="#1e1e2b" stroke="#1e1e2b"></path><path d="M0 945.7L143 1080L175 958.7Z" fill="#573455" stroke="#573455"></path><path d="M175 958.7L143 1080L310 1080Z" fill="#a24564" stroke="#a24564"></path><path d="M1920 578.1L1920 431.9L1776 500.9Z" fill="#0d0e11" stroke="#0d0e11"></path><path d="M492 0L343 0L472 186.3Z" fill="#1e1e2b" stroke="#1e1e2b"></path><path d="M1797 1080L1920 1080L1920 893.7Z" fill="#f57f44" stroke="#f57f44"></path><path d="M1920 431.9L1920 320.6L1725 304.6Z" fill="#c55260" stroke="#c55260"></path><path d="M0 586.1L156 609.1L0 475.9Z" fill="#a24564" stroke="#a24564"></path><path d="M137 755.4L0 945.7L175 958.7Z" fill="#a24564" stroke="#a24564"></path><path d="M0 475.9L172 446.9L169 346.6Z" fill="#372a42" stroke="#372a42"></path><path d="M0 475.9L156 609.1L172 446.9Z" fill="#7c3c61" stroke="#7c3c61"></path><path d="M0 288.6L0 475.9L169 346.6Z" fill="#0d0e11" stroke="#0d0e11"></path><path d="M0 763.4L0 945.7L137 755.4Z" fill="#7c3c61" stroke="#7c3c61"></path><path d="M1920 161.3L1776 0L1751 140.3Z" fill="#c55260" stroke="#c55260"></path><path d="M1751 140.3L1776 0L1587 0Z" fill="#372a42" stroke="#372a42"></path><path d="M343 0L132 115.3L342 183.3Z" fill="#fac211" stroke="#fac211"></path><path d="M1920 320.6L1920 161.3L1725 304.6Z" fill="#e16554" stroke="#e16554"></path><path d="M0 945.7L0 1080L143 1080Z" fill="#e16554" stroke="#e16554"></path><path d="M132 115.3L0 288.6L169 346.6Z" fill="#372a42" stroke="#372a42"></path><path d="M343 0L160 0L132 115.3Z" fill="#f57f44" stroke="#f57f44"></path><path d="M132 115.3L0 169.3L0 288.6Z" fill="#a24564" stroke="#a24564"></path><path d="M0 0L0 169.3L132 115.3Z" fill="#573455" stroke="#573455"></path><path d="M1920 161.3L1920 0L1776 0Z" fill="#e16554" stroke="#e16554"></path><path d="M160 0L0 0L132 115.3Z" fill="#372a42" stroke="#372a42"></path></g></svg>