<svg width="40" height="40" viewBox="0 0 40 40" fill="none" xmlns="http://www.w3.org/2000/svg">
<g clip-path="url(#clip0_9_122)">
<path d="M30.728 2H9.272C5.2535 2 2 5.2535 2 9.272V30.7325C2 34.7465 5.2535 38 9.272 38H30.7325C34.7465 38 38.0045 34.7465 38.0045 30.728V9.272C38 5.2535 34.7465 2 30.728 2Z" fill="url(#paint0_linear_9_122)"/>
<path d="M19.8469 10.271L20.5759 9.01101C21.0259 8.22351 22.0294 7.95801 22.8169 8.40801C23.6044 8.85801 23.8699 9.86151 23.4199 10.649L16.3954 22.808H21.4759C23.1229 22.808 24.0454 24.743 23.3299 26.084H8.43494C7.52594 26.084 6.79694 25.355 6.79694 24.446C6.79694 23.537 7.52594 22.808 8.43494 22.808H12.6109L17.9569 13.5425L16.2874 10.6445C15.8374 9.85701 16.1029 8.86251 16.8904 8.40351C17.6779 7.95351 18.6724 8.21901 19.1314 9.00651L19.8469 10.271ZM13.5289 27.7715L11.9539 30.503C11.5039 31.2905 10.5004 31.556 9.71294 31.106C8.92544 30.656 8.65994 29.6525 9.10994 28.865L10.2799 26.84C11.6029 26.4305 12.6784 26.7455 13.5289 27.7715ZM27.0919 22.817H31.3534C32.2624 22.817 32.9914 23.546 32.9914 24.455C32.9914 25.364 32.2624 26.093 31.3534 26.093H28.9864L30.5839 28.865C31.0339 29.6525 30.7684 30.647 29.9809 31.106C29.1934 31.556 28.1989 31.2905 27.7399 30.503C25.0489 25.8365 23.0284 22.3445 21.6874 20.018C20.3149 17.651 21.2959 15.275 22.2634 14.4695C23.3389 16.3145 24.9454 19.1 27.0919 22.817Z" fill="white"/>
</g>
<defs>
<linearGradient id="paint0_linear_9_122" x1="20.0022" y1="2" x2="20.0022" y2="38" gradientUnits="userSpaceOnUse">
<stop stop-color="#18BDFB"/>
<stop offset="1" stop-color="#2074F3"/>
</linearGradient>
<clipPath id="clip0_9_122">
<rect width="36" height="36" fill="white" transform="translate(2 2)"/>
</clipPath>
</defs>
</svg>
