<?xml version="1.0" encoding="UTF-8"?>
<svg id="Capa_1" data-name="Capa 1" xmlns="http://www.w3.org/2000/svg" xmlns:xlink="http://www.w3.org/1999/xlink" viewBox="0 0 500 500">
  <defs>
    <style>
      .cls-1 {
        fill: url(#linear-gradient-2);
      }

      .cls-2 {
        fill: url(#linear-gradient-6);
      }

      .cls-3 {
        fill: url(#linear-gradient-5);
      }

      .cls-4 {
        fill: url(#linear-gradient-7);
      }

      .cls-5 {
        fill: url(#linear-gradient-3);
      }

      .cls-6 {
        fill: url(#linear-gradient);
      }

      .cls-7 {
        fill: url(#linear-gradient-4);
      }

      .cls-8 {
        fill: url(#linear-gradient-8);
      }
    </style>
    <linearGradient id="linear-gradient" x1="99.06" y1="84.69" x2="228.44" y2="84.69" gradientUnits="userSpaceOnUse">
      <stop offset="0" stop-color="#f9c213"/>
      <stop offset="1" stop-color="#ffd86c"/>
    </linearGradient>
    <linearGradient id="linear-gradient-2" x1="20" y1="250" x2="480" y2="250" xlink:href="#linear-gradient"/>
    <linearGradient id="linear-gradient-3" x1="400.94" y1="242.81" x2="458.44" y2="242.81" xlink:href="#linear-gradient"/>
    <linearGradient id="linear-gradient-4" x1="84.69" y1="350.62" x2="142.19" y2="350.62" xlink:href="#linear-gradient"/>
    <linearGradient id="linear-gradient-5" x1="163.75" y1="300.31" x2="221.25" y2="300.31" xlink:href="#linear-gradient"/>
    <linearGradient id="linear-gradient-6" x1="242.81" y1="250" x2="300.31" y2="250" xlink:href="#linear-gradient"/>
    <linearGradient id="linear-gradient-7" x1="321.87" y1="321.88" x2="379.37" y2="321.88" xlink:href="#linear-gradient"/>
    <linearGradient id="linear-gradient-8" x1="135" x2="192.5" xlink:href="#linear-gradient"/>
  </defs>
  <g id="Stock_Market-2" data-name="Stock Market-2">
    <path class="cls-6" d="m163.75,149.38c35.73,0,64.69-28.96,64.69-64.69s-28.96-64.69-64.69-64.69-64.69,28.96-64.69,64.69c.04,35.71,28.98,64.65,64.69,64.69Zm0-115c27.79,0,50.31,22.53,50.31,50.31s-22.53,50.31-50.31,50.31-50.31-22.53-50.31-50.31c.03-27.77,22.54-50.28,50.31-50.31Z"/>
    <path class="cls-1" d="m472.81,436.87H63.13v-205.03l72.07-58.97,52.99,39.75c2.86,2.15,6.87,1.86,9.4-.67l74.91-74.91,71.2,47.07c2.99,1.98,7,1.45,9.36-1.25l69.44-79.1v45.61c0,3.97,3.22,7.19,7.19,7.19s7.19-3.22,7.19-7.19v-64.69c-.13-3.91-3.27-7.05-7.19-7.19h-64.69c-3.97,0-7.19,3.22-7.19,7.19s3.22,7.19,7.19,7.19h48.81l-67.42,76.8-70.87-46.85c-2.85-1.89-6.63-1.5-9.04.91l-74.65,74.65-52.51-39.38c-2.64-1.99-6.31-1.91-8.87.19l-67.32,55.08V27.19c0-3.97-3.22-7.19-7.19-7.19h-28.75c-3.97,0-7.19,3.22-7.19,7.19v416.87c.02,19.84,16.1,35.91,35.94,35.94h416.87c3.97,0,7.19-3.22,7.19-7.19v-28.75c0-3.97-3.22-7.19-7.19-7.19Zm-7.19,28.75H55.94c-11.9-.01-21.55-9.66-21.56-21.56V34.38h14.38v409.69c0,3.97,3.22,7.19,7.19,7.19h409.69v14.38Z"/>
    <path class="cls-5" d="m436.87,178.13c0-3.97-3.22-7.19-7.19-7.19s-7.19,3.22-7.19,7.19v21.56h-14.38c-3.97,0-7.19,3.22-7.19,7.19v71.87c0,3.97,3.22,7.19,7.19,7.19h14.38v21.56c0,3.97,3.22,7.19,7.19,7.19s7.19-3.22,7.19-7.19v-21.56h14.38c3.97,0,7.19-3.22,7.19-7.19v-71.87c0-3.97-3.22-7.19-7.19-7.19h-14.38v-21.56Zm7.19,93.44h-28.75v-57.5h28.75v57.5Z"/>
    <path class="cls-7" d="m113.44,422.5c3.97,0,7.19-3.22,7.19-7.19v-21.56h14.38c3.97,0,7.19-3.22,7.19-7.19v-71.87c0-3.97-3.22-7.19-7.19-7.19h-14.38v-21.56c0-3.97-3.22-7.19-7.19-7.19s-7.19,3.22-7.19,7.19v21.56h-14.38c-3.97,0-7.19,3.22-7.19,7.19v71.87c0,3.97,3.22,7.19,7.19,7.19h14.38v21.56c0,3.97,3.22,7.19,7.19,7.19Zm-14.38-100.62h28.75v57.5h-28.75v-57.5Z"/>
    <path class="cls-3" d="m192.5,372.19c3.97,0,7.19-3.22,7.19-7.19v-21.56h14.38c3.97,0,7.19-3.22,7.19-7.19v-71.87c0-3.97-3.22-7.19-7.19-7.19h-14.38v-21.56c0-3.97-3.22-7.19-7.19-7.19s-7.19,3.22-7.19,7.19v21.56h-14.38c-3.97,0-7.19,3.22-7.19,7.19v71.87c0,3.97,3.22,7.19,7.19,7.19h14.38v21.56c0,3.97,3.22,7.19,7.19,7.19Zm-14.38-100.62h28.75v57.5h-28.75v-57.5Z"/>
    <path class="cls-2" d="m271.56,321.88c3.97,0,7.19-3.22,7.19-7.19v-21.56h14.38c3.97,0,7.19-3.22,7.19-7.19v-71.87c0-3.97-3.22-7.19-7.19-7.19h-14.38v-21.56c0-3.97-3.22-7.19-7.19-7.19s-7.19,3.22-7.19,7.19v21.56h-14.37c-3.97,0-7.19,3.22-7.19,7.19v71.87c0,3.97,3.22,7.19,7.19,7.19h14.37v21.56c0,3.97,3.22,7.19,7.19,7.19Zm-14.38-100.62h28.75v57.5h-28.75v-57.5Z"/>
    <path class="cls-4" d="m350.62,393.75c3.97,0,7.19-3.22,7.19-7.19v-21.56h14.38c3.97,0,7.19-3.22,7.19-7.19v-71.87c0-3.97-3.22-7.19-7.19-7.19h-14.38v-21.56c0-3.97-3.22-7.19-7.19-7.19s-7.19,3.22-7.19,7.19v21.56h-14.38c-3.97,0-7.19,3.22-7.19,7.19v71.87c0,3.97,3.22,7.19,7.19,7.19h14.38v21.56c0,3.97,3.22,7.19,7.19,7.19Zm-14.38-100.62h28.75v57.5h-28.75v-57.5Z"/>
    <path class="cls-8" d="m149.38,101.99c-.08-3.97-3.36-7.12-7.33-7.05-3.97.08-7.12,3.36-7.05,7.33,0,0,0,0,0,0,.04,1.74,1.03,15.55,21.56,17.95v.39c0,3.97,3.22,7.19,7.19,7.19s7.19-3.22,7.19-7.19v-.52c14.17-2.21,21.56-11.7,21.56-21.05,0-9.35-7.41-18.85-21.56-21.05v-14.38c5.29.94,7.06,2.96,7.19,3.85.22,3.89,3.43,6.94,7.33,6.96,3.97-.08,7.12-3.36,7.04-7.33-.04-1.74-1.03-15.55-21.56-17.95v-.39c0-3.97-3.22-7.19-7.19-7.19s-7.19,3.22-7.19,7.19v.52c-14.17,2.21-21.56,11.7-21.56,21.05,0,9.35,7.41,18.85,21.56,21.05v14.36c-5.36-.95-7.09-2.95-7.19-3.74Zm21.56-9.35c4.72,1.25,7.18,3.85,7.18,6.42s-2.46,5.17-7.18,6.41v-12.83Zm-21.56-22.33c0-2.57,2.46-5.17,7.18-6.41v12.83c-4.72-1.25-7.18-3.85-7.18-6.42Z"/>
  </g>
</svg>