<?xml version="1.0" encoding="UTF-8"?>
<svg id="Capa_1" data-name="Capa 1" xmlns="http://www.w3.org/2000/svg" xmlns:xlink="http://www.w3.org/1999/xlink" viewBox="0 0 512 512">
  <defs>
    <style>
      .cls-1 {
        fill: url(#linear-gradient);
      }
    </style>
    <linearGradient id="linear-gradient" x1="0" y1="256" x2="512" y2="256" gradientUnits="userSpaceOnUse">
      <stop offset="0" stop-color="#f9c213"/>
      <stop offset="1" stop-color="#ffd86c"/>
    </linearGradient>
  </defs>
  <path class="cls-1" d="m352.09,385.38c2.93,2.93,7.68,2.93,10.61,0s2.93-7.68,0-10.61l-20.76-20.76c-2.93-2.93-7.68-2.93-10.61,0l-49.26,49.26c-2.93,2.93-2.93,7.68,0,10.61l20.76,20.76c2.93,2.93,7.68,2.93,10.61,0,2.93-2.93,2.93-7.68,0-10.61l-15.45-15.45,14.02-14.02,13.92,13.92c2.93,2.93,7.68,2.93,10.61,0s2.93-7.68,0-10.61l-13.92-13.92,14.02-14.02,15.46,15.45Zm51.41-97.75l8.48-8.48c2.93-2.93,2.93-7.68,0-10.61-2.93-2.93-7.68-2.93-10.61,0l-8.48,8.48c-2.93,2.93-2.93,7.68,0,10.61,2.93,2.93,7.68,2.93,10.61,0Zm108.5-77.76c0-21.99-15.22-40.49-35.68-45.52,14.52-18.38,13.31-45.22-3.65-62.18-17.15-17.15-43.98-18.08-62.18-3.66-5.03-20.46-23.53-35.67-45.52-35.67s-40.65,15.37-45.57,35.98c-13.74-9.64-29.55-15.64-46.36-17.49-19.02-2.1-43.39-2.96-70.56-2.52-2.97-14.54-9.15-28.25-18.07-39.97-2.51-3.3-7.21-3.94-10.51-1.43-3.3,2.51-3.94,7.21-1.43,10.51,7.02,9.22,12.03,19.91,14.73,31.27-9.19.31-18.51.75-27.69,1.32-7.76-23.31-29.64-39.14-55.69-38.34-16.05.48-31.31,7.17-42.97,18.83-11.66,11.66-18.35,26.92-18.83,42.97-1.05,35.19,27.97,61.72,62.63,58.43,14.56-1.38,28.42-7.98,39.02-18.58,5.26-5.26,13.83-5.26,19.09,0,5.28,5.28,5.28,13.81,0,19.09-15.03,15.03-34.76,24.4-55.56,26.37-25.43,2.41-50.16-6.33-67.81-23.99-16.4-16.4-25.05-38.46-24.34-62.12.69-22.96,10.18-44.71,26.72-61.25,16.54-16.55,38.3-26.04,61.25-26.72,16.18-.47,31.84,3.46,45.35,11.37,3.57,2.09,8.17.89,10.26-2.68s.89-8.17-2.68-10.26C140.01,4.27,121.56-.38,102.57.18c-26.79.8-52.15,11.85-71.41,31.11C11.9,50.55.85,75.91.05,102.7c-.83,27.83,9.37,53.82,28.73,73.18,12.75,12.75,28.6,21.57,45.85,25.83-.53,23.7-.17,52.03,2.43,75.6,1.74,15.79,7.13,30.7,15.77,43.84-17.63,6.84-29.84,23.92-29.84,43.68,0,21.99,15.22,40.49,35.68,45.52-14.53,18.38-13.31,45.22,3.65,62.18,16.96,16.96,43.8,18.18,62.18,3.65,5.03,20.46,23.53,35.68,45.52,35.68,18.35,0,34.53-10.61,42.18-26.46,12.45,10.62,27.75,15.92,43.04,15.92,17,0,33.98-6.53,46.97-19.52l29.58-29.58c2.93-2.93,2.93-7.68,0-10.61-2.93-2.93-7.68-2.93-10.61,0l-29.58,29.58c-19.56,19.56-50.82,20.21-71.17,1.48-20.17-18.57-38.88-36.43-55.6-53.08-37.8-37.63-73.4-76.35-91.26-96.08-12.16-13.44-19.63-29.99-21.6-47.85-2.45-22.23-2.83-49.01-2.39-71.44,6.12.56,12.43.6,19.04-.03,24.27-2.3,47.26-13.2,64.75-30.69,11.14-11.14,11.14-29.16,0-40.3-11.11-11.11-29.19-11.11-40.3,0-8.14,8.14-18.73,13.2-29.83,14.25-3.66.35-7.28.23-10.79-.29.29-3.51.59-6.96.9-10.29,1.96-20.79,18.47-37.3,39.26-39.26,21.59-2.04,45.94-3.39,68.57-3.8,27.17-.49,51.45.34,70.21,2.41,17.86,1.97,34.41,9.44,47.85,21.6,19.73,17.85,58.44,53.44,96.08,91.26,16.65,16.73,34.51,35.44,53.08,55.6,18.73,20.35,18.08,51.61-1.48,71.17l-80.49,80.49c-2.93,2.93-2.93,7.68,0,10.61,1.46,1.46,3.38,2.2,5.3,2.2s3.84-.73,5.3-2.2l80.49-80.49c25.27-25.27,26.11-65.65,1.91-91.94-.01-.01-.03-.03-.04-.04,18.89-6.04,32.61-23.75,32.61-44.62h0Zm-317.76,220.36c14.1,14.03,29.6,28.92,46.17,44.34-4.11,13.12-16.32,22.29-30.39,22.29-17.57,0-31.87-14.3-31.87-31.87v-5.11c0-6.67-8.09-10.02-12.8-5.3l-7.35,7.35c-12.43,12.42-32.65,12.43-45.07,0-12.43-12.43-12.43-32.65,0-45.07l7.35-7.35c4.71-4.71,1.36-12.8-5.3-12.8h-5.11c-17.57,0-31.87-14.3-31.87-31.87,0-15.02,10.36-27.76,24.65-31.05,21.94,24.24,55.57,60.57,91.61,96.44h0Zm-63.04-347.54c-27.95,2.64-50.15,24.84-52.78,52.78-.21,2.19-.41,4.44-.6,6.72-13.14-7.42-21.28-21.48-20.79-37.78.37-12.21,5.49-23.87,14.44-32.81,8.94-8.95,20.6-14.07,32.81-14.44,17.85-.55,32.95,9.3,39.6,24.44-4.3.34-8.53.7-12.67,1.09h0Zm336.27,158.96c-14.42-15.42-28.34-29.89-41.52-43.13-35.6-35.77-72.12-69.53-92.85-88.36v-.44c0-17.57,14.3-31.87,31.87-31.87s31.87,14.3,31.87,31.87v5.11c0,6.67,8.09,10.02,12.8,5.3l7.35-7.35c12.46-12.46,32.62-12.46,45.07,0,12.43,12.43,12.43,32.65,0,45.07l-7.35,7.35c-4.71,4.71-1.36,12.8,5.3,12.8h5.11c17.57,0,31.87,14.3,31.87,31.87,0,16.79-13.05,30.57-29.53,31.78h0Zm-100.63-5.15c-1.9-5.81-6.13-10.84-11.89-16.6-5.77-5.76-10.79-9.99-16.6-11.89-5.37-1.76-13.56-2.06-22.09,6.46-12.92,12.92-14.53,33.57-1.99,46.11,11.99,11.99,32.65,11.46,46.11-1.99,8.53-8.52,8.22-16.72,6.46-22.09Zm-17.07,11.48c-7.41,7.41-18.58,8.31-24.89,1.99-6.56-6.56-5.09-17.81,1.99-24.9,1.8-1.8,3.25-3.08,5.2-3.08,2.58,0,6.02,2.24,12.28,8.5,3.49,3.49,7.21,7.49,8.24,10.66.37,1.13.99,3.02-2.81,6.82Zm-69.63,114.71c2.93,2.93,7.68,2.93,10.61,0s2.93-7.68,0-10.61l-13.92-13.92,14.02-14.02,15.45,15.45c2.93,2.93,7.68,2.93,10.61,0s2.93-7.68,0-10.61l-20.76-20.76c-2.93-2.93-7.68-2.93-10.61,0l-49.26,49.26c-2.93,2.93-2.93,7.68,0,10.61l20.76,20.76c2.93,2.93,7.68,2.93,10.61,0,2.93-2.93,2.93-7.68,0-10.61l-15.45-15.45,14.02-14.02,13.92,13.92Zm17.68-180.74l8.48-8.49c2.93-2.93,2.93-7.68,0-10.61-2.93-2.93-7.68-2.93-10.61,0l-8.48,8.49c-2.93,2.93-2.93,7.68,0,10.61,2.93,2.93,7.68,2.93,10.61,0Zm-88.24,60.75c2.93,2.93,7.68,2.93,10.61,0s2.93-7.68,0-10.61l-20-20c-1.41-1.41-3.31-2.2-5.3-2.2s-3.9.79-5.3,2.2l-49.35,49.35c-2.93,2.93-2.93,7.68,0,10.61,2.93,2.93,7.68,2.93,10.61,0l19.84-19.84,13.11,13.11c2.93,2.93,7.68,2.93,10.61,0s2.93-7.68,0-10.61l-13.11-13.11,13.6-13.6,14.7,14.7Zm6.86,103.37c.16.01.32.02.48.02,3.93,0,7.23-3.05,7.48-7.02l1.86-29.11c4.16,2.72,8.99,4.27,14.03,4.42,7.16.22,13.81-2.36,18.73-7.28,4.92-4.92,7.5-11.57,7.28-18.73-.22-6.95-3.06-13.51-8.01-18.45l-13.21-13.21h0s0-.01-.01-.02c-2.93-2.93-7.68-2.93-10.61,0l-49.71,49.71c-2.93,2.93-2.93,7.68,0,10.61,2.93,2.93,7.68,2.93,10.61,0l16.49-16.49-2.4,37.58c-.26,4.13,2.87,7.7,7.01,7.96h0Zm23.31-73.47l7.92,7.92c2.21,2.2,3.52,5.23,3.62,8.31.09,2.98-.93,5.7-2.89,7.65-1.96,1.96-4.64,2.98-7.65,2.89-3.08-.1-6.11-1.42-8.31-3.62-1.83-1.83-5.12-5.09-7.95-7.89l15.26-15.26Z"/>
</svg>