<?xml version="1.0" encoding="UTF-8"?>
<svg id="Capa_1" data-name="Capa 1" xmlns="http://www.w3.org/2000/svg" xmlns:xlink="http://www.w3.org/1999/xlink" viewBox="0 0 512 512">
  <defs>
    <style>
      .cls-1 {
        fill: url(#linear-gradient-2);
      }

      .cls-2 {
        fill: url(#linear-gradient-3);
      }

      .cls-3 {
        fill: url(#linear-gradient);
      }
    </style>
    <linearGradient id="linear-gradient" x1="356" y1="406" x2="376" y2="406" gradientUnits="userSpaceOnUse">
      <stop offset="0" stop-color="#f9c213"/>
      <stop offset="1" stop-color="#ffd86c"/>
    </linearGradient>
    <linearGradient id="linear-gradient-2" x1="26" y1="256" x2="486" y2="256" xlink:href="#linear-gradient"/>
    <linearGradient id="linear-gradient-3" x1="391.14" y1="440.55" x2="436.6" y2="440.55" xlink:href="#linear-gradient"/>
  </defs>
  <path class="cls-3" d="m366,396c-5.52,0-10,4.48-10,10s4.48,10,10,10,10-4.48,10-10-4.48-10-10-10Z"/>
  <path class="cls-1" d="m390.62,363.66l-47.53-15.84-17.06-34.13c15.37-15.65,26.05-36.35,29.64-57.94l2.13-12.75h18.2c16.54,0,30-13.46,30-30v-63C406,67.29,338.71,0,256,0S106,67.1,106,150v63c0,13.04,8.36,24.15,20,28.28v11.72c0,16.54,13.46,30,30,30h8.78c4.34,9.42,9.95,18.14,16.77,25.97,1.42,1.63,2.89,3.21,4.41,4.74l-17.05,34.11-47.53,15.84c-55.27,18.43-95.38,76.61-95.38,138.34,0,5.52,4.48,10,10,10h440c5.52,0,10-4.48,10-10,0-61.73-40.11-119.91-95.38-138.34Zm-4.62-150.66c0,5.51-4.49,10-10,10h-15.26c2.54-19.69,4.24-40.64,4.92-61.28.02-.58.04-1.15.05-1.72h20.29v53Zm-250,10c-5.51,0-10-4.49-10-10v-53h20.3c.03,1.04.07,2.09.11,3.15,0,.04,0,.07,0,.11h0c.7,20.08,2.37,40.49,4.86,59.75h-15.26Zm20,40c-5.51,0-10-4.49-10-10v-10h8.2l2.13,12.76c.41,2.42.9,4.84,1.48,7.24h-1.81Zm-9.98-123h-19.64c5.07-67.02,61-120,129.62-120s124.5,52.97,129.62,120h-19.64c-.72-55.23-45.69-100-101.03-100h-17.9c-55.34,0-100.32,44.77-101.03,100Zm101.03-80h17.9c44.81,0,81.08,36.65,81.05,81.41,0,3.15-.02,5.89-.08,8.38,0,.03,0,.07,0,.1l-12.51-1.79c-33.98-4.85-66.06-20.89-90.34-45.17-1.88-1.88-4.42-2.93-7.07-2.93-26.86,0-52.56,12.24-69.56,32.91,4.19-40.72,38.61-72.91,80.61-72.91Zm-68.51,203c-5.01-16.65-10.73-65.65-12-97.05l13.46-17.95c12.36-16.48,31.59-26.71,52.05-27.89,26.92,25.62,61.74,42.53,98.54,47.79l14.72,2.1c-.98,20.88-2.99,41.84-5.88,61.12,0,0,0,.01,0,.02-.92,6.2-1.64,10.18-3.48,21.32-5.3,31.76-29,60.49-60.29,68.31-12.88,3.21-26.44,3.21-39.31,0-19.54-4.88-37.45-18.4-49.01-37.78h20.39c4.13,11.64,15.24,20,28.28,20h20c16.58,0,30-13.42,30-30s-13.46-30-30-30h-20c-13.33,0-24.28,8.61-28.3,20h-29.16Zm56.62,78.02c6.86,1.45,13.85,2.18,20.84,2.18,5.47,0,10.94-.46,16.35-1.35l-17.67,18.69-19.52-19.52Zm5.78,34.06l-31.72,33.54c-8.73-16.71-16.24-34.11-22.39-51.92l11.91-23.82,42.2,42.2Zm70.63-45.59l13.6,27.21c-6.16,17.84-13.67,35.24-22.39,51.93l-33.95-33.95,42.74-45.19Zm-85.57-56.49c0-5.52,4.48-10,10-10h20c5.51,0,10,4.49,10,10s-4.48,10-10,10h-20c-5.51,0-10-4.49-10-10ZM46.4,492c3.96-49.54,36.93-94.57,81.3-109.36l42.09-14.03c7.71,21.33,17.27,42.05,28.46,61.74.02.03.04.07.06.1,0,0,0,0,0,0,8.18,14.39,17.39,28.45,27.37,41.8l12.3,19.75H46.4Zm209.6-8.91l-13.56-21.77c-.15-.24-.31-.48-.49-.71-8.1-10.8-15.65-22.1-22.53-33.66l35.66-37.71,37.58,37.58c-6.93,11.65-14.51,22.99-22.61,33.8-.49.65.2-.38-14.05,22.49Zm18.01,8.91l12.3-19.75c10.03-13.4,19.3-27.57,27.56-42.13.05-.09.1-.18.15-.27,0-.01.01-.02.02-.03,11.05-19.5,20.51-40.05,28.16-61.21l42.09,14.03c44.37,14.8,77.34,59.82,81.3,109.36h-191.59Z"/>
  <path class="cls-2" d="m435.55,451.53c-6.68-13.38-16.47-25.26-28.31-34.37-4.38-3.37-10.66-2.55-14.02,1.83-3.37,4.38-2.55,10.66,1.83,14.02,9.45,7.27,17.27,16.77,22.61,27.45,2.47,4.95,8.48,6.94,13.42,4.48,4.94-2.47,6.95-8.47,4.48-13.41Z"/>
</svg>