<?xml version="1.0" encoding="UTF-8"?>
<svg id="Layer_1" data-name="Layer 1" xmlns="http://www.w3.org/2000/svg" viewBox="0 0 512 512">
  <path d="m248,217.91v6.09h16v-6.09c11.39-2.92,18.25-14.52,15.33-25.91-2.42-9.43-10.93-16.02-20.67-16h-5.33c-2.94.02-5.35-2.36-5.36-5.3-.02-2.94,2.36-5.35,5.3-5.36.02,0,.04,0,.06,0h5.33c2.94,0,5.33,2.38,5.34,5.33v2.67h16v-2.67c-.03-9.7-6.61-18.15-16-20.57v-6.09h-16v6.09c-11.39,2.92-18.25,14.52-15.33,25.91,2.42,9.43,10.93,16.02,20.67,16h5.33c2.94-.02,5.35,2.36,5.36,5.3s-2.36,5.35-5.3,5.36c-.02,0-.04,0-.06,0h-5.33c-2.94,0-5.33-2.38-5.34-5.33v-2.67h-16v2.67c.03,9.7,6.61,18.15,16,20.57Z"/>
  <path d="m359.77,195.38l-41-1.58c-2.99-.2-5.82,1.36-7.23,4-1.49,2.57-1.42,5.76.17,8.27l7.95,12.57-63.73,28.64-52.77-22.62c-2.3-1-4.94-.85-7.12.41l-56,32,7.94,13.89,52.54-30.02,52.34,22.43c2.06.88,4.39.86,6.43-.05l69.01-31.01,8.71,13.77c1.46,2.32,4.01,3.73,6.76,3.73.23,0,.47,0,.7-.03,2.98-.26,5.57-2.17,6.7-4.95l15.7-38.42c1.67-4.09-.29-8.76-4.38-10.43-.86-.35-1.78-.55-2.72-.59h0Zm-17.54,29.02l-8.87-14.03,14.38.55-5.51,13.48Z"/>
  <path d="m272,296h-32c-4.42,0-8,3.58-8,7.99h0v56.01c0,4.42,3.58,8,7.99,8h32.01c4.42,0,8-3.58,8-7.99h0v-56.01c0-4.42-3.58-8-7.99-8h0Zm-8,56h-16v-40h16v40Z"/>
  <path d="m328,272h-32c-4.42,0-8,3.58-8,7.99h0v80.01c0,4.42,3.58,8,7.99,8h32.01c4.42,0,8-3.58,8-7.99h0v-80.01c0-4.42-3.58-8-7.99-8h0Zm-8,80h-16v-64h16v64Z"/>
  <path d="m216,280h-32c-4.42,0-8,3.58-8,7.99h0v72.01c0,4.42,3.58,8,7.99,8h32.01c4.42,0,8-3.58,8-7.99h0v-72.01c0-4.42-3.58-8-7.99-8h0Zm-8,72h-16v-56h16v56Z"/>
  <path d="m453.66,202.34c-3.12-3.12-8.19-3.12-11.31,0-1.5,1.5-2.34,3.54-2.34,5.66v16h-40v-88c-.01-13.25-10.75-23.99-24-24h-88v-40h16c4.42,0,8-3.58,8-8,0-2.12-.84-4.16-2.34-5.66l-48-48c-3.12-3.12-8.19-3.13-11.31,0,0,0,0,0,0,0l-48,48c-3.12,3.12-3.12,8.19,0,11.31,1.5,1.5,3.54,2.34,5.66,2.34h16v40h-88c-13.25.01-23.99,10.75-24,24v88h-40v-16c0-4.42-3.58-8-8-8-2.12,0-4.16.84-5.66,2.34l-48,48c-3.12,3.12-3.13,8.19,0,11.31,0,0,0,0,0,0l48,48c3.12,3.12,8.19,3.12,11.31,0,1.5-1.5,2.34-3.54,2.34-5.66v-16h40v88c.01,13.25,10.75,23.99,24,24h88v40h-16c-4.42,0-8,3.58-8,8,0,2.12.84,4.16,2.34,5.66l48,48c3.12,3.12,8.19,3.13,11.31,0h0s48-48,48-48c3.12-3.12,3.12-8.19,0-11.31-1.5-1.5-3.54-2.34-5.66-2.34h-16v-40h88c13.25-.01,23.99-10.75,24-24v-88h40v16c0,4.42,3.58,8,8,8,2.12,0,4.16-.84,5.66-2.34l48-48c3.12-3.12,3.13-8.19,0-11.31,0,0,0,0,0,0l-48-48Zm-341.66,69.66h-48c-4.42,0-8,3.58-8,7.99h0v4.7l-28.69-28.69,28.69-28.69v4.69c0,4.42,3.58,8,7.99,8h48.01v32ZM256,27.31l28.69,28.69h-4.69c-4.42,0-8,3.58-8,7.99h0v48.01h-32v-48c0-4.42-3.58-8-7.99-8h-4.7l28.69-28.69Zm0,457.38l-28.69-28.69h4.69c4.42,0,8-3.58,8-7.99h0v-48.01h32v48c0,4.42,3.58,8,7.99,8h4.7l-28.69,28.69Zm128-108.69c0,4.42-3.58,8-8,8h-240c-4.42,0-8-3.58-8-8v-240c0-4.42,3.58-8,8-8h240c4.42,0,8,3.58,8,8v240Zm72-91.31v-4.69c0-4.42-3.58-8-7.99-8h-48.01v-32h48c4.42,0,8-3.58,8-7.99h0v-4.7l28.69,28.69-28.69,28.69Z"/>
</svg>