<?xml version="1.0" encoding="UTF-8"?>
<svg id="Layer_5" data-name="Layer 5" xmlns="http://www.w3.org/2000/svg" xmlns:xlink="http://www.w3.org/1999/xlink" viewBox="0 0 445.64 460.99">
  <defs>
    <style>
      .cls-1 {
        fill: url(#linear-gradient);
        fill-rule: evenodd;
      }
    </style>
    <linearGradient id="linear-gradient" x1="0" y1="230.49" x2="445.64" y2="230.49" gradientUnits="userSpaceOnUse">
      <stop offset="0" stop-color="#f9c213"/>
      <stop offset="1" stop-color="#ffd86c"/>
    </linearGradient>
  </defs>
  <path class="cls-1" d="m310.3,221.38v111.97c0,18.44-14.98,32.39-33.09,33.35l-59.62,3.17.86,68.86c.04,3.05-2.43,5.54-5.48,5.54v.02h-85.96l-13.74,14.92c-2.18,2.36-5.91,2.36-8.08,0l-13.74-14.92H5.5c-3.04,0-5.5-2.46-5.5-5.5v-71.72c0-49.47,33.49-92.22,79.96-105.23-39.07-19.86-47.66-72.26-16.47-103.45,25.27-25.27,66.23-25.27,91.49,0,31.37,31.37,22.46,84.09-16.97,103.7,31.61,6.86,67.57,17.99,98.2,26.6v-71.46c0-11.8,6.07-22.62,15.69-28.96-41.17-44.08-39.98-112.85,2.68-155.51,43.71-43.71,114.57-43.71,158.28,0s43.71,114.57,0,158.28c-26.39,26.4-64.73,38.38-102.56,30.32h0Zm37.98-83.23c11.74-12.74,2.71-33.34-14.55-33.34s-26.3,20.6-14.55,33.34l-4.76,14.02c-1.5,3.99,1.4,7.6,5.08,7.6h28.45c3.7,0,6.42-3.67,5.2-7.26l-4.87-14.36Zm-7.99,10.62l-3.49-10.3c-.91-2.32-.16-5.04,1.98-6.52,7.13-4.95,3.57-16.14-5.05-16.14s-12.17,11.19-5.05,16.14h0c1.96,1.36,2.87,3.9,2.07,6.27l-3.58,10.55h13.13Zm-235.28,26.95c-14.19.79-21.29,18-11.31,28.53,5.6,5.91,11.58,5.27,18.99,5.47,1.61.04,3.08.76,4.14,1.88,3.68,3.89.72,10.17-4.5,10.03l-15.69-.43c-3.03-.07-5.54,2.32-5.61,5.35s2.32,5.54,5.35,5.61l7.09.19-.16,5.78c-.07,3.03,2.32,5.54,5.35,5.61s5.54-2.32,5.61-5.35l.16-5.91c13.68-1.55,20.02-18.24,10.35-28.45-5.6-5.91-11.58-5.27-18.99-5.47-1.61-.04-3.08-.76-4.14-1.88-3.68-3.89-.72-10.17,4.5-10.03l15.69.43c3.03.07,5.54-2.32,5.61-5.35s-2.32-5.54-5.35-5.61l-6.13-.17.16-5.78c.07-3.03-2.32-5.54-5.35-5.61s-5.54,2.32-5.61,5.35l-.16,5.8Zm203.62-92.11h50.2v-8c0-22.03-26.89-33.65-42.82-17.72-4.55,4.55-7.38,10.83-7.38,17.72v8Zm61.2.1v-8.1c0-19.87-16.23-36.1-36.1-36.1s-36.1,16.23-36.1,36.1v8.1c-8.03.88-14.25,7.72-14.25,15.9v68.7c0,8.81,7.19,16,16,16h68.7c8.81,0,16-7.19,16-16v-68.7c0-8.18-6.22-15.02-14.25-15.9h0Zm-1.75,10.9h-68.7c-2.74,0-5,2.26-5,5v68.7c0,2.74,2.26,5,5,5h68.7c2.74,0,5-2.26,5-5v-68.7c0-2.74-2.26-5-5-5Zm-107.99,101.58c-7.83,4.02-12.87,12.03-12.87,21.04v78.68h0c0,3.59-3.41,6.24-6.91,5.31-14.66-3.92-37.88-10.91-55.18-15.76l-51.17,51.17,8,88.79c.14,1.6-.42,3.09-1.43,4.18h0s-3.39,3.68-3.39,3.68h70.28l-.79-63.12h-18.17c-3.04,0-5.5-2.46-5.5-5.5s2.46-5.5,5.5-5.5h23.69s64.5-3.43,64.5-3.43c12.25-.65,22.65-9.87,22.65-22.39v-114.91c-14.62-4.72-27.92-12.37-39.22-22.24h0ZM405.09,40.56c-39.41-39.41-103.31-39.41-142.72,0-39.41,39.41-39.41,103.31,0,142.72s103.31,39.41,142.72,0c39.41-39.41,39.41-103.31,0-142.72ZM47.68,433.3v-38.01c0-3.04,2.46-5.5,5.5-5.5s5.5,2.46,5.5,5.5v38.01h22.65c-2.78-3.02-5.2-4.71-4.77-8.24l7.97-88.42-41.74-41.74c-19.58,18.05-31.79,43.8-31.79,72.18v66.22h36.68Zm72.56-126.66h-22.01l-10.57,117.32,21.58,23.43,21.58-23.43-10.58-117.32Zm-21.02-11h20.02l-2.37-26.23c-5.74-.71-9.8-.69-15.27-.27l-2.39,26.5Zm28.82-24.42l4.61,51.15,40.27-40.27c-16.18-4.4-32.2-8.44-44.88-10.88Zm-42.23,51.15l4.66-51.72c-14.41,2.82-27.72,8.81-39.16,17.22l34.5,34.5Zm19.38,136.84h0s0,0,0,0Zm42.01-293.04c-20.97-20.97-54.97-20.97-75.94,0-20.97,20.97-20.97,54.97,0,75.94,20.97,20.97,54.97,20.97,75.94,0,20.97-20.97,20.97-54.97,0-75.94Z"/>
</svg>