<?xml version="1.0" encoding="UTF-8"?>
<svg id="Capa_1" data-name="Capa 1" xmlns="http://www.w3.org/2000/svg" xmlns:xlink="http://www.w3.org/1999/xlink" viewBox="0 0 512 512">
  <defs>
    <style>
      .cls-1 {
        fill: url(#linear-gradient);
      }
    </style>
    <linearGradient id="linear-gradient" x1="0" y1="256" x2="512" y2="256" gradientUnits="userSpaceOnUse">
      <stop offset="0" stop-color="#f9c213"/>
      <stop offset="1" stop-color="#ffd86c"/>
    </linearGradient>
  </defs>
  <path class="cls-1" d="m206.36,189.17c-11.25-12.1-18.13-28.31-18.13-46.11,0-37.41,30.38-67.76,67.76-67.76s67.76,30.38,67.76,67.76c0,17.8-6.88,34.01-18.13,46.11l15.11,20.15c4.99,6.65,3.64,16.09-3.01,21.08-6.65,4.99-16.09,3.64-21.08-3.01l-15.92-21.23c-7.67,3.01-16.01,4.67-24.74,4.67s-17.07-1.65-24.74-4.66l-15.92,21.23c-4.99,6.65-14.43,8-21.08,3.01-6.65-4.99-8-14.43-3.01-21.08l15.11-20.15Zm11.99-46.11c0,20.76,16.88,37.65,37.65,37.65s37.65-16.88,37.65-37.65-16.88-37.65-37.65-37.65-37.65,16.88-37.65,37.65Zm10.77,161.04c5.82,5.94,5.72,15.48-.22,21.3s-15.48,5.72-21.3-.22c-30.7-31.36-62.11-46.58-94.66-46.58-45.74,0-82.82,37.08-82.82,82.82s37.08,82.82,82.82,82.82,88.87-29.77,130.6-91.28c46.82-69,98.68-104.49,155.52-104.49,62.38,0,112.94,50.57,112.94,112.94s-50.57,112.94-112.94,112.94c-41.29,0-80.16-18.84-116.17-55.62-5.82-5.94-5.72-15.48.22-21.3s15.48-5.72,21.3.22c30.7,31.35,62.11,46.57,94.65,46.57,45.74,0,82.82-37.08,82.82-82.82s-37.08-82.82-82.82-82.82-88.87,29.77-130.6,91.28c-46.82,69-98.68,104.49-155.52,104.49-62.38,0-112.94-50.57-112.94-112.94s50.57-112.94,112.94-112.94c41.29,0,80.16,18.84,116.18,55.63h0ZM192.65,42.06c5.88-5.88,15.42-5.88,21.3,0s5.88,15.42,0,21.3l-30.12,30.12c-5.88,5.88-15.42,5.88-21.3,0s-5.88-15.42,0-21.3l30.12-30.12Zm105.41,21.3c-5.88-5.88-5.88-15.42,0-21.3s15.42-5.88,21.3,0l30.12,30.12c5.88,5.88,5.88,15.42,0,21.3s-15.42,5.88-21.3,0l-30.12-30.12Z"/>
</svg>