<svg width="184" height="60" viewBox="0 0 184 60" fill="none" xmlns="http://www.w3.org/2000/svg">
<path d="M183 30C183 33.6948 180.704 37.3821 176.16 40.8854C171.629 44.378 165.011 47.5666 156.744 50.2625C140.22 55.6507 117.329 59 92 59C66.6707 59 43.7802 55.6507 27.2562 50.2625C18.9887 47.5666 12.3706 44.378 7.84038 40.8854C3.29626 37.3821 1 33.6948 1 30C1 26.3052 3.29626 22.6179 7.84038 19.1146C12.3706 15.622 18.9887 12.4334 27.2562 9.73753C43.7802 4.34928 66.6707 1 92 1C117.329 1 140.22 4.34928 156.744 9.73753C165.011 12.4334 171.629 15.622 176.16 19.1146C180.704 22.6179 183 26.3052 183 30Z" stroke="#7800FF" stroke-width="2"/>
</svg>
