<?xml version="1.0" encoding="UTF-8"?>
<svg id="Layer_1" data-name="Layer 1" xmlns="http://www.w3.org/2000/svg" viewBox="0 0 512 512">
  <path d="m348.43,404.52c1.75-3.19,2.68-6.62,2.84-10.04,2.32.03,4.68-.27,6.98-.94,6.03-1.75,11.02-5.73,14.03-11.21,2.84-5.16,3.5-10.96,2.3-16.35,5.4-1.94,9.84-5.72,12.61-10.77,2.25-4.1,3.18-8.74,2.77-13.3l12.5-5.22.89,2.29c2.74,7.07,9.51,11.4,16.67,11.4,2.14,0,4.32-.39,6.43-1.21l20.12-7.8c4.44-1.72,7.94-5.07,9.87-9.44,1.93-4.37,2.04-9.22.32-13.66l-40.52-104.52c-1.72-4.44-5.07-7.94-9.44-9.87-4.37-1.93-9.22-2.04-13.66-.32l-20.12,7.8c-9.18,3.56-13.75,13.92-10.19,23.1l2.33,6.02-9.35,5c-5.23,2.72-10.9.64-20.47-3.28-13.96-5.71-32.8-13.39-57.37,1.21-17.74-9.89-32.84-6.37-45.17-3.48-10.1,2.37-16.11,3.54-22.08.18-.19-.1-.38-.2-.57-.29l-10.75-4.96,2.47-5.58c3.98-9.01-.11-19.57-9.11-23.55l-19.74-8.72c-4.35-1.92-9.2-2.03-13.66-.31-4.46,1.72-7.97,5.07-9.89,9.42l-45.32,102.53c-3.98,9,.11,19.57,9.11,23.55l19.74,8.72c2.34,1.03,4.78,1.52,7.19,1.52,6.86,0,13.41-3.97,16.36-10.64l1.23-2.77c6.77,3,8.77,3.84,9.67,4.18,1.43.55,2.22,4.81,2.85,8.23.51,2.73,1.06,5.69,2.1,8.52l-4.9,9.17c-3.01,5.62-3.64,12.09-1.78,18.22s5.98,11.16,11.6,14.17c2.9,1.55,6.02,2.45,9.18,2.72-.37,8.89,4.26,17.66,12.62,22.13,6.6,3.53,14.13,3.63,20.56.93,2.18,3.68,5.35,6.8,9.28,8.9,5.86,3.13,12.54,3.58,18.51,1.69,2.16,4.32,5.63,7.99,10.12,10.39,3.51,1.88,7.34,2.83,11.22,2.83,2.34,0,4.7-.35,7-1.05,4.44-1.35,8.3-3.89,11.23-7.33l3.79,2.18c3.5,2.01,7.39,3.04,11.35,3.04,2.11,0,4.24-.29,6.34-.88,6.07-1.7,11.29-5.83,14.32-11.34,1.6-2.91,2.52-6.03,2.79-9.16,2.88.27,5.81,0,8.67-.83,6.07-1.75,11.07-5.74,14.1-11.24h0Zm30.39-178.25l20.12-7.8c.23-.09.45-.12.64-.12.33,0,.6.09.77.16.27.12.75.41.98,1.02l40.52,104.52c.24.61.07,1.15-.04,1.41-.12.27-.41.75-1.02.99l-20.12,7.8c-.94.36-2.04-.12-2.4-1.06l-40.52-104.52c-.36-.94.12-2.04,1.06-2.4h0Zm-49.51,30.74c10.24,4.19,21.85,8.93,33.99,2.62l7.71-4.12,25.69,66.26-13.45,5.61c-1.53-1.55-3.27-2.89-5.19-3.98l-53.51-30.5c-14.84-8.46-31.11-1.87-45.47,3.94-18.69,7.57-31.52,11.84-43.7.49,13.35-8.35,24.85-17.36,34.26-26.87,4.35-4.4,8.73-8.11,13.01-11.04,19.63-13.47,32.77-8.1,46.67-2.41h0Zm-189.81,69.28l-19.74-8.72c-.6-.26-.86-.76-.97-1.03s-.24-.82.02-1.42l45.32-102.53c.26-.6.76-.86,1.03-.97.15-.06.4-.13.69-.13.22,0,.47.04.72.15l19.74,8.72c.92.41,1.35,1.53.95,2.45l-45.32,102.53c-.4.92-1.53,1.35-2.45.95h0Zm45.39,51.14c-1.85-.99-3.21-2.66-3.83-4.7-.62-2.04-.41-4.18.58-6.04l9.82-18.37c2.06-3.85,6.88-5.31,10.74-3.25,3.54,1.89,5.1,6.35,3.56,10.05l-12.59,21.79c-2.43,1.7-5.65,1.94-8.29.52Zm21.8,24.85c-3.86-2.06-5.32-6.88-3.26-10.74l15.7-27.58c2.44-1.73,5.68-1.99,8.36-.56,2.95,1.57,4.58,4.95,4.08,8.24l-14.11,27.33c-2.09,3.89-6.92,5.37-10.77,3.31Zm29.83,9.83c-2.62-1.4-4.21-4.18-4.17-7.12l13.34-25.83c2.45-2.22,6.14-2.74,9.09-1.17,2.95,1.57,4.58,4.95,4.08,8.23l-12.41,23.85c-2.37,2.95-6.55,3.84-9.92,2.04Zm34.67,12.66c-2.04.62-4.18.41-6.04-.58-2.69-1.44-4.3-4.4-4.15-7.43l11.96-22.99c2.45-2.23,6.15-2.76,9.09-1.18,1.04.56,1.92,1.32,2.61,2.25,1.82,2.48,2.07,5.81.64,8.48l-9.42,17.61c-.99,1.85-2.66,3.21-4.7,3.83h0Zm37.65-6.73c-.97,1.76-2.65,3.09-4.62,3.64-1.87.52-3.79.3-5.4-.62l-3.71-2.13,4.31-8.06c.95-1.79,1.65-3.67,2.11-5.6,0,0,3.98,2.36,4.33,2.56,3.62,2.03,4.96,6.61,2.98,10.21h0Zm21.06-17.66c-1.92.55-3.91.33-5.61-.61l-27.8-15.73c-1.93-2.27-4.24-4.14-6.9-5.57-5.15-2.75-10.92-3.46-16.31-2.3-2.03-5.13-5.83-9.55-10.98-12.3-5.15-2.75-10.92-3.45-16.31-2.3-2.03-5.13-5.82-9.55-10.98-12.3-4.16-2.22-8.78-3.11-13.29-2.72-1.53-6.47-5.73-12.26-12-15.61-8.21-4.38-17.86-3.48-25.01,1.52-1.54-5.54-4.44-11.44-11.46-14.17-.79-.31-3.06-1.27-8.99-3.9l28.69-64.91,10.25,4.73c11.59,6.37,23.11,3.67,33.28,1.29,8.85-2.07,17.33-4.05,26.8-1.11-1.68,1.52-3.36,3.11-5.03,4.8-9.9,10.01-22.49,19.49-37.4,28.2-2.45,1.43-4.17,3.85-4.71,6.67-.53,2.78.17,5.66,1.9,7.88,21.78,28.03,47.94,17.44,67.03,9.71,12.58-5.09,23.44-9.49,31.54-4.87l53.51,30.5c1.39.79,2.49,1.96,3.18,3.39,0,0,0,0,0,0,1.08,2.22,1.03,4.71-.13,6.82-.97,1.76-2.58,3.03-4.54,3.59-1.9.54-3.88.33-5.56-.62,0,0,0,0,0,0-11.32-6.34-24.14-13.52-36.76-20.74-3.84-2.2-8.72-.87-10.92,2.97s-.86,8.72,2.97,10.92c12.68,7.26,25.53,14.46,36.88,20.81,0,0,0,0,0,0,3.63,2.04,4.98,6.61,3.01,10.19-.95,1.73-2.54,3-4.47,3.56-1.93.56-3.94.34-5.67-.61l-48.41-27.24c-3.85-2.17-8.73-.8-10.89,3.05s-.8,8.73,3.05,10.89c0,0,39.18,22.16,39.53,22.36,3.63,2.04,4.98,6.61,3.02,10.19-.96,1.75-2.56,3.02-4.51,3.58h0Zm-151.76-172.77c-.17,3.7-3.31,6.56-7.01,6.39s-6.56-3.31-6.39-7.01c.17-3.7,3.31-6.56,7.01-6.39,3.7.17,6.56,3.31,6.39,7.01Zm208.5,6.27c0-3.7,3-6.71,6.7-6.71s6.7,3,6.7,6.71-3,6.71-6.7,6.71-6.7-3-6.7-6.71Zm67.86,132.5c-2.03-2.83-5.67-4.02-8.99-2.94-3.32,1.09-5.55,4.2-5.51,7.69.32,30.26-32.48,54.06-54.62,62.91l-2.2-8.23c-.78-2.91-3.13-5.14-6.08-5.76-2.95-.62-6,.47-7.89,2.82l-34.82,43.41c-1.54,1.92-2.11,4.43-1.55,6.83.56,2.39,2.19,4.4,4.42,5.43l53.06,24.66c1.08.5,2.23.74,3.37.74,1.85,0,3.68-.64,5.15-1.88,2.38-2,3.39-5.19,2.58-8.2l-2.24-8.36c29.46-10.12,52.26-31.38,61.78-58.04,7.9-22.11,5.55-44.39-6.46-61.12h0Zm-8.61,55.73c-8.57,23.98-30.44,42.78-58.51,50.3-2.05.55-3.8,1.89-4.86,3.73-.94,1.63-1.27,3.52-.96,5.36l-28.32-13.16,18.56-23.13.32,1.2c.55,2.05,1.89,3.8,3.73,4.86,1.84,1.06,4.02,1.35,6.07.8,18.17-4.87,53.07-23.52,67.54-53.01.41,7.37-.76,15.19-3.58,23.06h0ZM68.77,256.77c1.47,1.2,3.27,1.81,5.07,1.81,1.52,0,3.04-.43,4.37-1.3,2.92-1.91,4.27-5.49,3.33-8.85-8.14-29.15,17.38-60.62,36.48-74.91l4.26,7.38c1.51,2.61,4.36,4.16,7.37,3.99,3.01-.16,5.67-2.01,6.89-4.77l22.4-50.95c.99-2.25.89-4.83-.27-7-1.16-2.17-3.25-3.68-5.67-4.1l-57.64-10.09c-3.06-.53-6.15.75-7.93,3.3s-1.93,5.89-.37,8.58l4.32,7.49c-25.84,17.4-42.35,43.83-44.66,72.05-1.91,23.4,6.13,44.31,22.06,57.36h0Zm-6.11-56.06c2.07-25.38,18.33-49.2,43.5-63.73,1.84-1.06,3.18-2.81,3.73-4.86.49-1.81.32-3.73-.46-5.43l30.76,5.38-11.94,27.15-.62-1.07c-2.21-3.82-7.1-5.14-10.93-2.93-16.29,9.41-45.18,36.45-51.52,68.68-2.31-7.01-3.19-14.88-2.51-23.2h0Zm134.71-99.32c2.49,4.85,3.86,7.52,4.18,9.36.32,1.84-.05,4.82-.73,10.23-.18,1.46-.39,3.1-.61,4.93-1.32,11.05,4.66,21.41,14.89,25.79,1.13.49,2.18.93,3.16,1.34l-20.48,43.99c-1.26,2.7-.91,5.88.9,8.24,1.81,2.37,4.79,3.53,7.73,3.01l22.06-3.85,11.25,19.36c1.44,2.47,4.07,3.98,6.92,3.98.12,0,.24,0,.36,0,2.98-.13,5.63-1.91,6.89-4.62l21.05-45.21c2.47-.72,4.14-1.11,5.37-1.11,1.87,0,4.74.88,9.95,2.49.28.09.58.18.87.27l14.96,34.74c1.18,2.74,3.78,4.59,6.75,4.81.2.01.4.02.6.02,2.75,0,5.33-1.42,6.8-3.78l11.8-19.02,21.93,4.49c2.92.6,5.93-.48,7.81-2.79,1.88-2.31,2.32-5.48,1.14-8.21l-16.6-38.55c9.72-4.57,15.36-14.66,14.08-25.4-.22-1.83-.42-3.47-.61-4.93-.68-5.41-1.05-8.39-.73-10.23.33-1.84,1.7-4.52,4.18-9.37.67-1.31,1.42-2.78,2.26-4.42,5.02-9.93,2.94-21.72-5.17-29.33-1.35-1.26-2.55-2.38-3.63-3.39-4-3.71-6.2-5.75-7.13-7.37-.94-1.62-1.6-4.55-2.82-9.86-.33-1.44-.69-3.04-1.11-4.84-2.54-10.83-11.7-18.53-22.81-19.15-1.84-.1-3.48-.18-4.96-.26-5.44-.27-8.44-.42-10.2-1.06-1.76-.64-4.15-2.45-8.5-5.74-1.18-.89-2.49-1.88-3.97-2.99-8.91-6.67-20.88-6.67-29.78,0-1.48,1.11-2.79,2.1-3.97,2.99-4.35,3.29-6.74,5.11-8.5,5.74s-4.76.79-10.2,1.06c-1.48.07-3.12.16-4.96.26-11.11.62-20.28,8.31-22.81,19.14-.42,1.8-.79,3.4-1.12,4.84-1.21,5.31-1.88,8.24-2.82,9.86s-3.14,3.66-7.13,7.37c-1.08,1-2.29,2.12-3.63,3.39-8.11,7.61-10.19,19.4-5.17,29.33.83,1.65,1.58,3.11,2.25,4.43h0Zm48.49,101.12l-6.35-10.93c-1.68-2.9-5-4.44-8.29-3.86l-12.45,2.18,13.1-28.13c.85,1.24,1.84,2.77,3.06,4.67.8,1.24,1.69,2.62,2.7,4.17,4.17,6.37,10.75,10.3,17.91,11.11l-9.68,20.8Zm83.94-22.93c-3.28-.67-6.64.77-8.4,3.62l-6.66,10.74-5.61-13.04c5.56-1.6,10.51-5.15,13.88-10.3,1.01-1.54,1.9-2.93,2.7-4.17,2.96-4.58,4.59-7.1,6.02-8.3.03-.02.06-.05.09-.07l10.36,24.06-12.38-2.54Zm-118.56-100.28c1.32-1.24,2.5-2.34,3.57-3.32,10.62-9.85,11.44-11.28,14.67-25.4.32-1.41.68-2.99,1.1-4.75.92-3.92,4.11-6.59,8.12-6.82,1.81-.1,3.42-.18,4.87-.25,14.47-.72,16.02-1.28,27.56-10.03,1.15-.88,2.44-1.85,3.89-2.93,3.22-2.41,7.39-2.41,10.61,0,1.45,1.09,2.74,2.06,3.89,2.93,11.55,8.75,13.09,9.31,27.56,10.03,1.45.07,3.06.15,4.87.25,4.02.22,7.21,2.9,8.12,6.82.41,1.76.77,3.34,1.09,4.75,3.22,14.13,4.05,15.55,14.67,25.4,1.06.99,2.24,2.08,3.57,3.32,2.93,2.75,3.66,6.85,1.84,10.44-.82,1.62-1.55,3.05-2.21,4.34-6.61,12.89-6.9,14.51-5.1,28.89.18,1.44.38,3.04.6,4.84.48,4-1.6,7.6-5.3,9.18-1.67.71-3.15,1.34-4.49,1.9-13.35,5.63-14.61,6.68-22.47,18.85-.79,1.22-1.66,2.57-2.65,4.09-2.2,3.37-6.12,4.79-9.97,3.63-1.73-.52-3.28-1-4.66-1.43-6.92-2.14-10.79-3.2-14.67-3.2s-7.74,1.07-14.67,3.2c-1.38.43-2.93.9-4.66,1.43-3.85,1.16-7.76-.26-9.97-3.63-.99-1.52-1.87-2.87-2.65-4.09-7.86-12.17-9.12-13.23-22.47-18.85-1.34-.56-2.82-1.19-4.49-1.9-3.7-1.58-5.78-5.19-5.3-9.18.21-1.8.42-3.4.6-4.84,1.8-14.38,1.52-16-5.09-28.89-.66-1.29-1.4-2.72-2.21-4.34-1.82-3.59-1.09-7.69,1.84-10.45h0Zm69.08,70.78c30.42,0,55.16-24.74,55.16-55.16s-24.74-55.16-55.16-55.16-55.16,24.74-55.16,55.16,24.74,55.16,55.16,55.16Zm0-94.32c21.59,0,39.16,17.57,39.16,39.16s-17.57,39.16-39.16,39.16-39.16-17.57-39.16-39.16,17.57-39.16,39.16-39.16Zm-16.27,61.19l-14.86-14.86c-3.12-3.12-3.12-8.19,0-11.31,3.12-3.12,8.19-3.12,11.31,0l9.47,9.47,30.44-27.62c3.27-2.97,8.33-2.72,11.3.55s2.73,8.33-.55,11.3l-36.08,32.75c-1.53,1.39-3.45,2.08-5.38,2.08-2.05,0-4.1-.79-5.66-2.34h0Zm-84.69,361.5h-.08c-30.27.3-54.06-32.48-62.91-54.62l8.23-2.2c2.91-.78,5.14-3.13,5.76-6.08s-.47-6-2.82-7.89l-43.41-34.82c-1.92-1.54-4.44-2.11-6.83-1.55-2.39.56-4.4,2.19-5.43,4.42l-24.66,53.06c-1.31,2.82-.87,6.14,1.13,8.52,2,2.38,5.19,3.38,8.19,2.58l8.35-2.24c10.12,29.46,31.38,52.26,58.04,61.78,8.62,3.08,17.26,4.6,25.59,4.6,13.04,0,25.32-3.73,35.53-11.06,2.84-2.04,4.02-5.67,2.94-8.99-1.08-3.29-4.15-5.51-7.6-5.51h0Zm-51.07,5.89c-23.98-8.57-42.78-30.44-50.3-58.51-.96-3.57-4.19-5.93-7.72-5.93-.45,0-.91.04-1.36.12l13.16-28.32,23.13,18.56-1.2.32c-2.05.55-3.8,1.89-4.86,3.73-1.06,1.84-1.35,4.02-.8,6.07,4.87,18.17,23.52,53.07,53.01,67.54-7.38.41-15.2-.77-23.06-3.58h0Z"/>
</svg>