<svg width="48" height="48" viewBox="0 0 48 48" fill="none" xmlns="http://www.w3.org/2000/svg">
<g clip-path="url(#clip0_417_12396)">
<path d="M23.9995 44C13.3199 44 4.58203 35.2621 4.58203 24.5825C4.58203 13.9029 13.3199 5.16504 23.9995 5.16504C34.6791 5.16504 43.417 13.9029 43.417 24.5825C43.417 35.2621 34.6791 44 23.9995 44Z" fill="#DBAB56"/>
<path d="M24.0002 41.6051C34.045 41.6051 42.1879 33.4622 42.1879 23.4174C42.1879 13.3726 34.045 5.22974 24.0002 5.22974C13.9554 5.22974 5.8125 13.3726 5.8125 23.4174C5.8125 33.4622 13.9554 41.6051 24.0002 41.6051Z" fill="#FAC211"/>
<path d="M7.94842 25.6183C7.94842 15.586 16.1038 7.43063 26.1361 7.43063C30.6021 7.43063 34.6798 9.04875 37.8513 11.7025C34.5504 7.75425 29.5665 5.22998 24.0002 5.22998C13.9678 5.22998 5.8125 13.3853 5.8125 23.4177C5.8125 28.984 8.33677 33.9678 12.285 37.3335C9.56655 34.162 7.94842 30.0844 7.94842 25.6183Z" fill="#E5A300"/>
<path d="M36.8816 10.6021C44.0014 17.7218 44.0014 29.2428 36.8816 36.3626C29.7619 43.4823 18.2408 43.4823 11.1211 36.3626" fill="#E5A300"/>
<path d="M23.9995 42.835C13.3199 42.835 4.58203 34.0971 4.58203 23.4175C4.58203 12.7379 13.3199 4 23.9995 4C34.6791 4 43.417 12.7379 43.417 23.4175C43.417 34.0971 34.6791 42.835 23.9995 42.835ZM23.9995 6.45955C14.6144 6.45955 7.04158 14.0971 7.04158 23.4175C7.04158 32.8026 14.6791 40.3754 23.9995 40.3754C33.3199 40.3754 40.9574 32.7379 40.9574 23.4175C40.9574 14.0971 33.3846 6.45955 23.9995 6.45955Z" fill="#F7D27F"/>
<path d="M43.4167 23.4174C43.4167 18.4983 41.6044 14.0323 38.627 10.6666C35.1966 7.68925 30.7306 5.87695 25.8115 5.87695C22.5105 5.87695 19.4684 6.71838 16.75 8.14233C18.9506 7.042 21.4102 6.45948 23.9992 6.45948C29.1125 6.45948 33.7727 8.78957 36.8794 12.4142C40.504 15.521 42.7694 20.1164 42.7694 25.2944C42.7694 27.8834 42.1869 30.343 41.1513 32.5436C42.5752 29.8252 43.4167 26.7184 43.4167 23.4174Z" fill="#EFC273"/>
<path d="M6.39453 25.2947C6.39453 30.2138 8.20683 34.6798 11.1842 38.0455C14.6146 41.0229 19.0806 42.8352 23.935 42.8352C27.236 42.8352 30.278 41.9937 32.9965 40.5698C30.7958 41.6054 28.3363 42.1879 25.7473 42.1879C20.634 42.1879 15.9738 39.8578 12.867 36.2332C9.24243 33.1264 6.91233 28.5309 6.91233 23.353C6.91233 20.764 7.49485 18.3044 8.53045 16.1038C7.23596 18.8869 6.39453 21.9937 6.39453 25.2947Z" fill="#EAC06C"/>
<path d="M25.103 11.1846C25.103 11.7671 24.5852 12.738 24.0027 12.738C23.4201 12.738 22.9023 11.7671 22.9023 11.1846C22.9023 10.602 23.4201 10.0842 24.0027 10.0842C24.5852 10.0842 25.103 10.602 25.103 11.1846Z" fill="#E5A300"/>
<path d="M24.0027 12.2849C24.6104 12.2849 25.103 11.7922 25.103 11.1846C25.103 10.5769 24.6104 10.0842 24.0027 10.0842C23.395 10.0842 22.9023 10.5769 22.9023 11.1846C22.9023 11.7922 23.395 12.2849 24.0027 12.2849Z" fill="#F7D27F"/>
<path d="M24.7761 10.408C25.2291 10.861 25.2291 11.5083 24.7761 11.9614C24.323 12.4144 23.6757 12.4144 23.2227 11.9614" fill="#EFC273"/>
<path d="M24.13 5.81235C24.13 5.87707 24.0653 5.9418 24.0005 5.9418C23.9358 5.9418 23.8711 5.87707 23.8711 5.81235V4.58257C23.8711 4.51785 23.9358 4.45312 24.0005 4.45312C24.0653 4.45312 24.13 4.51785 24.13 4.58257V5.81235Z" fill="#FFE0A1"/>
<path d="M24.13 42.317C24.13 42.3817 24.0653 42.4464 24.0005 42.4464C23.9358 42.4464 23.8711 42.3817 23.8711 42.317V41.0872C23.8711 41.0225 23.9358 40.9578 24.0005 40.9578C24.0653 40.9578 24.13 41.0225 24.13 41.0872V42.317Z" fill="#FFE0A1"/>
<path d="M36.5591 11.1198C36.4944 11.1845 36.4297 11.1845 36.3649 11.1198C36.3002 11.0551 36.3002 10.9904 36.3649 10.9256L37.2711 10.0195C37.3358 9.95477 37.4005 9.95477 37.4653 10.0195C37.53 10.0842 37.53 10.1489 37.4653 10.2137L36.5591 11.1198Z" fill="#FFE0A1"/>
<path d="M10.7935 36.8803C10.7288 36.945 10.664 36.945 10.5993 36.8803C10.5346 36.8156 10.5346 36.7509 10.5993 36.6861L11.5055 35.78C11.5702 35.7153 11.6349 35.7153 11.6996 35.78C11.7644 35.8447 11.7644 35.9094 11.6996 35.9742L10.7935 36.8803Z" fill="#FFE0A1"/>
<path d="M41.606 23.6117C41.5413 23.6117 41.4766 23.547 41.4766 23.4822C41.4766 23.4175 41.5413 23.3528 41.606 23.3528H42.8358C42.9005 23.3528 42.9652 23.4175 42.9652 23.4822C42.9652 23.547 42.9005 23.6117 42.8358 23.6117H41.606Z" fill="#FFE0A1"/>
<path d="M5.16461 23.6116C5.09988 23.6116 5.03516 23.5469 5.03516 23.4822C5.03516 23.4175 5.09988 23.3527 5.16461 23.3527H6.39438C6.4591 23.288 6.52383 23.3527 6.52383 23.4175C6.52383 23.4822 6.4591 23.5469 6.39438 23.5469H5.16461V23.6116Z" fill="#FFE0A1"/>
<path d="M36.3649 36.0389C36.3002 35.9741 36.3002 35.9094 36.3649 35.8447C36.4297 35.78 36.4944 35.78 36.5591 35.8447L37.4653 36.7508C37.53 36.8156 37.53 36.8803 37.4653 36.945C37.4005 37.0097 37.3358 37.0097 37.2711 36.945L36.3649 36.0389Z" fill="#FFE0A1"/>
<path d="M10.5368 10.2137C10.4721 10.1489 10.4721 10.0842 10.5368 10.0195C10.6015 9.95477 10.6663 9.95477 10.731 10.0195L11.6371 10.9256C11.7019 10.9904 11.7019 11.0551 11.6371 11.1198C11.5724 11.1845 11.5077 11.1845 11.443 11.1198L10.5368 10.2137Z" fill="#FFE0A1"/>
<path d="M15.3275 8.14254C15.3922 8.20727 15.3275 8.33672 15.2628 8.33672C15.198 8.40144 15.0686 8.33672 15.0686 8.27199L14.4213 7.17167C14.3566 7.10694 14.4213 6.97749 14.4861 6.97749C14.5508 6.91277 14.6802 6.97749 14.6802 7.04222L15.3275 8.14254Z" fill="#FFE0A1"/>
<path d="M33.5814 39.728C33.6461 39.7927 33.5814 39.9222 33.5167 39.9222C33.4519 39.9869 33.3225 39.9222 33.3225 39.8574L32.6752 38.7571C32.6105 38.6924 32.6752 38.5629 32.74 38.5629C32.8047 38.4982 32.9341 38.5629 32.9341 38.6277L33.5814 39.728Z" fill="#FFE0A1"/>
<path d="M28.7221 6.45959C28.7221 6.52432 28.5926 6.58904 28.5279 6.58904C28.4632 6.58904 28.3984 6.45959 28.3984 6.39487L28.7221 5.16509C28.7221 5.10037 28.8515 5.03564 28.9162 5.03564C28.981 5.03564 29.0457 5.16509 29.0457 5.22982L28.7221 6.45959Z" fill="#FFE0A1"/>
<path d="M19.2728 41.67C19.2728 41.7348 19.1434 41.7995 19.0787 41.7995C19.0139 41.7995 18.9492 41.67 18.9492 41.6053L19.2728 40.3755C19.2728 40.3108 19.4023 40.2461 19.467 40.2461C19.5317 40.2461 19.5965 40.3755 19.5965 40.4403L19.2728 41.67Z" fill="#FFE0A1"/>
<path d="M39.3421 14.7442C39.2774 14.809 39.1479 14.7442 39.1479 14.6795C39.0832 14.6148 39.1479 14.4853 39.2126 14.4853L40.313 13.8381C40.3777 13.7734 40.5071 13.8381 40.5071 13.9028C40.5719 13.9675 40.5071 14.097 40.4424 14.097L39.3421 14.7442Z" fill="#FFE0A1"/>
<path d="M7.75223 32.9967C7.68751 33.0614 7.55806 32.9967 7.55806 32.932C7.49334 32.8672 7.55806 32.7378 7.62278 32.7378L8.72311 32.0905C8.78783 32.0258 8.91728 32.0905 8.91728 32.1553C8.98201 32.22 8.91728 32.3494 8.85256 32.3494L7.75223 32.9967Z" fill="#FFE0A1"/>
<path d="M40.9576 28.1425C40.8928 28.1425 40.8281 28.013 40.8281 27.9483C40.8281 27.8836 40.9576 27.8188 41.0223 27.8188L42.2521 28.1425C42.3168 28.1425 42.3815 28.2719 42.3815 28.3366C42.3815 28.4014 42.2521 28.4661 42.1873 28.4661L40.9576 28.1425Z" fill="#FFE0A1"/>
<path d="M5.74664 18.6925C5.68191 18.6925 5.61719 18.5631 5.61719 18.4983C5.61719 18.4336 5.74664 18.3689 5.81136 18.3689L7.04114 18.6925C7.10586 18.6925 7.17059 18.822 7.17059 18.8867C7.17059 18.9514 7.04114 19.0161 6.97641 19.0161L5.74664 18.6925Z" fill="#FFE0A1"/>
<path d="M8.85256 14.4853C8.91728 14.5501 8.98201 14.6148 8.91728 14.6795C8.85256 14.7442 8.78783 14.809 8.72311 14.7442L7.62278 14.097C7.55806 14.0323 7.49334 13.9675 7.55806 13.9028C7.62278 13.8381 7.68751 13.7734 7.75223 13.8381L8.85256 14.4853Z" fill="#FFE0A1"/>
<path d="M40.4424 32.7378C40.5071 32.8025 40.5719 32.8672 40.5071 32.932C40.4424 32.9967 40.3777 33.0614 40.313 32.9967L39.2126 32.3494C39.1479 32.2847 39.0832 32.22 39.1479 32.1553C39.2126 32.0905 39.2774 32.0258 39.3421 32.0905L40.4424 32.7378Z" fill="#FFE0A1"/>
<path d="M19.5965 6.39487C19.5965 6.45959 19.5965 6.58904 19.467 6.58904C19.4023 6.58904 19.2728 6.58904 19.2728 6.45959L18.9492 5.22982C18.9492 5.16509 18.9492 5.03564 19.0787 5.03564C19.1434 5.03564 19.2728 5.03564 19.2728 5.16509L19.5965 6.39487Z" fill="#FFE0A1"/>
<path d="M29.0457 41.6053C29.0457 41.67 29.0457 41.7995 28.9162 41.7995C28.8515 41.7995 28.7221 41.7995 28.7221 41.67L28.3984 40.4403C28.3984 40.3755 28.3984 40.2461 28.5279 40.2461C28.5926 40.2461 28.7221 40.2461 28.7221 40.3755L29.0457 41.6053Z" fill="#FFE0A1"/>
<path d="M32.9341 8.27199C32.8694 8.33672 32.8047 8.40144 32.74 8.33672C32.6752 8.27199 32.6105 8.20727 32.6752 8.14254L33.3225 7.04222C33.3872 6.97749 33.4519 6.91277 33.5167 6.97749C33.5814 7.04222 33.6461 7.10694 33.5814 7.17167L32.9341 8.27199Z" fill="#FFE0A1"/>
<path d="M14.6802 39.8574C14.6155 39.9222 14.5508 39.9869 14.4861 39.9222C14.4213 39.8574 14.3566 39.7927 14.4213 39.728L15.0686 38.6277C15.1333 38.5629 15.198 38.4982 15.2628 38.5629C15.3275 38.6277 15.3922 38.6924 15.3275 38.7571L14.6802 39.8574Z" fill="#FFE0A1"/>
<path d="M41.0223 19.0161C40.9576 19.0161 40.8281 19.0161 40.8281 18.8867C40.8281 18.822 40.8281 18.6925 40.9576 18.6925L42.1873 18.3689C42.2521 18.3689 42.3815 18.3689 42.3815 18.4983C42.3815 18.5631 42.3815 18.6925 42.2521 18.6925L41.0223 19.0161Z" fill="#FFE0A1"/>
<path d="M5.81136 28.4661C5.74664 28.4661 5.61719 28.4661 5.61719 28.3366C5.61719 28.2719 5.61719 28.1425 5.74664 28.1425L6.97641 27.8188C7.04114 27.8188 7.17059 27.8188 7.17059 27.9483C7.17059 28.013 7.17059 28.1425 7.04114 28.1425L5.81136 28.4661Z" fill="#FFE0A1"/>
<path d="M14.4889 30.4076C14.4242 30.4076 14.3594 30.4076 14.2947 30.3429C11.4468 29.1131 10.0876 25.8121 11.3174 22.8995C11.4468 22.6406 11.7057 22.5112 11.9646 22.6406C12.2235 22.7701 12.353 23.029 12.2235 23.2879C11.7057 24.4529 11.7057 25.7474 12.2235 26.8477C12.6766 28.0128 13.5827 28.9189 14.7478 29.4367C15.0067 29.5662 15.1361 29.8251 15.0067 30.084C14.8772 30.2782 14.6831 30.4076 14.4889 30.4076Z" fill="#F7D27F"/>
<path d="M12.1552 26.9125C11.7668 25.9416 11.7021 24.906 12.0257 23.8704C12.0257 23.5468 12.0904 23.2232 12.2199 22.8995C12.1552 22.7701 12.0904 22.7054 11.961 22.6406C11.7021 22.5112 11.4432 22.6406 11.3137 22.8995C11.1843 23.1584 11.1196 23.4173 11.0548 23.6762C10.7959 26.071 12.1552 28.4659 14.4853 29.5015C14.55 29.5015 14.6147 29.5662 14.6794 29.5662C14.7442 29.5662 14.7442 29.5662 14.8089 29.5662L14.7442 29.5015C13.5144 28.9837 12.6082 28.0775 12.1552 26.9125Z" fill="#EFC273"/>
<path d="M13.8345 19.0164C13.1225 19.0164 12.3458 19.5989 11.8927 20.5698C11.4396 21.4759 11.7633 21.7995 12.1516 22.3173L13.8345 19.0164Z" fill="#F7D27F"/>
<path d="M13.8391 19.0161C14.2274 19.5986 14.2274 20.5695 13.7744 21.4757C13.3213 22.4465 12.8682 22.3171 12.1562 22.3171L13.8391 19.0161Z" fill="#EFC273"/>
<path d="M9.62891 20.4402C10.082 20.3754 10.5998 20.7638 10.9234 21.2816C11.247 21.8641 11.0529 22.0583 10.8587 22.4466L9.62891 20.4402Z" fill="#F7D27F"/>
<path d="M9.63241 20.4402C9.37351 20.7638 9.43823 21.4111 9.76186 21.9936C10.0855 22.5761 10.4091 22.4467 10.7975 22.4467L9.63241 20.4402Z" fill="#EFC273"/>
<path d="M15.3898 22.7702C15.0014 22.3819 14.2895 22.3171 13.5775 22.5113C12.8655 22.7702 12.8655 23.0938 12.8008 23.5469L15.3898 22.7702Z" fill="#F7D27F"/>
<path d="M15.3898 22.7703C15.3251 23.2881 14.8073 23.8059 14.0306 24C13.3186 24.2589 13.1244 23.9353 12.8008 23.6117L15.3898 22.7703Z" fill="#EFC273"/>
<path d="M14.7414 25.0355C14.4825 24.7766 13.9 24.6471 13.2527 24.8413C12.6702 25.0355 12.6702 25.2944 12.6055 25.6827L14.7414 25.0355Z" fill="#F7D27F"/>
<path d="M14.7414 25.0356C14.6767 25.424 14.2883 25.8771 13.6411 26.0712C12.9938 26.2654 12.9291 26.0065 12.6055 25.7476L14.7414 25.0356Z" fill="#EFC273"/>
<path d="M8.59766 23.1588C8.92128 22.9646 9.5038 23.0293 10.0863 23.353C10.6041 23.6766 10.5394 23.9355 10.4747 24.3238L8.59766 23.1588Z" fill="#F7D27F"/>
<path d="M8.59414 23.0938C8.52942 23.4821 8.85304 23.9999 9.37084 24.3235C9.88864 24.6471 10.0828 24.453 10.4064 24.2588L8.59414 23.0938Z" fill="#EFC273"/>
<path d="M8.66016 25.4239C8.91906 25.165 9.37213 25.0356 9.88993 25.165C10.4077 25.2945 10.4077 25.5534 10.4725 25.877L8.66016 25.4239Z" fill="#F7D27F"/>
<path d="M8.66016 25.4238C8.72488 25.7475 9.11323 26.0711 9.63103 26.2005C10.1488 26.33 10.2783 26.1358 10.4725 25.8769L8.66016 25.4238Z" fill="#EFC273"/>
<path d="M9.04688 27.4304C9.24105 27.1068 9.69412 26.9773 10.2766 27.0421C10.7944 27.1068 10.8592 27.3657 10.9239 27.6893L9.04688 27.4304Z" fill="#F7D27F"/>
<path d="M9.04688 27.4304C9.17632 27.754 9.56467 28.0129 10.1472 28.0777C10.665 28.1424 10.7297 27.9482 10.9239 27.6246L9.04688 27.4304Z" fill="#EFC273"/>
<path d="M10.4062 29.3721C10.5357 29.1132 10.8593 28.8543 11.3124 28.8543C11.7655 28.7896 11.8302 28.9838 11.9596 29.2427L10.4062 29.3721Z" fill="#F7D27F"/>
<path d="M10.4062 29.3074C10.5357 29.5663 10.9888 29.6958 11.4418 29.6958C11.8949 29.6311 11.8949 29.4369 12.0244 29.178L10.4062 29.3074Z" fill="#EFC273"/>
<path d="M12.2188 30.7314C12.2188 30.4725 12.4129 30.2136 12.7365 30.0194C13.0602 29.8253 13.1896 29.9547 13.3838 30.0842L12.2188 30.7314Z" fill="#F7D27F"/>
<path d="M12.2188 30.7315C12.4129 30.8609 12.8013 30.8609 13.1249 30.6668C13.4485 30.4726 13.4485 30.3431 13.3838 30.0842L12.2188 30.7315Z" fill="#EFC273"/>
<path d="M14.94 26.5243C14.6163 26.3301 14.1633 26.3948 13.6455 26.6537C13.1924 26.9126 13.2571 27.1715 13.2571 27.4952L14.94 26.5243Z" fill="#F7D27F"/>
<path d="M14.9384 26.5242C14.9384 26.8478 14.6795 27.3009 14.2265 27.5598C13.7734 27.8187 13.5792 27.6892 13.3203 27.495L14.9384 26.5242Z" fill="#EFC273"/>
<path d="M15.3883 27.8189C15.1294 27.6894 14.741 27.8189 14.4174 28.1425C14.0938 28.4661 14.2232 28.5956 14.2879 28.8545L15.3883 27.8189Z" fill="#F7D27F"/>
<path d="M15.3894 27.8188C15.4541 28.0777 15.3247 28.4661 15.001 28.7897C14.6774 29.1133 14.548 28.9839 14.2891 28.8544L15.3894 27.8188Z" fill="#EFC273"/>
<path d="M33.5139 30.4076C33.5786 30.4076 33.6433 30.4076 33.7081 30.3429C36.556 29.1131 37.9152 25.8121 36.6854 22.8995C36.556 22.6406 36.2971 22.5112 36.0382 22.6406C35.7793 22.7701 35.6498 23.029 35.7793 23.2879C36.2971 24.4529 36.2971 25.7474 35.7793 26.8477C35.3262 28.0128 34.42 28.9189 33.255 29.4367C32.9961 29.5662 32.8666 29.8251 32.9961 30.084C33.1255 30.2782 33.3197 30.4076 33.5139 30.4076Z" fill="#F7D27F"/>
<path d="M35.8468 26.9125C36.2352 25.9416 36.2999 24.906 36.041 23.8704C36.041 23.5468 35.9763 23.2232 35.8468 22.8995C35.9115 22.7701 35.9763 22.7054 36.1057 22.6406C36.3646 22.5112 36.6235 22.6406 36.753 22.8995C36.8824 23.1584 36.9471 23.4173 37.0119 23.6762C37.2708 26.071 35.9115 28.4659 33.5814 29.5015C33.5167 29.5015 33.452 29.5662 33.3873 29.5662C33.3225 29.5662 33.3225 29.5662 33.2578 29.5662L33.3225 29.5015C34.4876 28.9837 35.3937 28.0775 35.8468 26.9125Z" fill="#EFC273"/>
<path d="M34.1602 19.0164C34.8721 19.0164 35.6488 19.5989 36.1019 20.5698C36.555 21.4759 36.2314 21.7995 35.843 22.3173L34.1602 19.0164Z" fill="#F7D27F"/>
<path d="M34.1625 19.0164C33.7742 19.5989 33.7742 20.5698 34.2273 21.4759C34.6803 22.4468 35.1334 22.3173 35.8454 22.3173L34.1625 19.0164Z" fill="#EFC273"/>
<path d="M38.366 20.4402C37.913 20.3754 37.3952 20.7638 37.0715 21.2816C36.7479 21.8641 36.9421 22.0583 37.1363 22.4466L38.366 20.4402Z" fill="#F7D27F"/>
<path d="M38.3665 20.4402C38.5607 20.8285 38.5607 21.4111 38.1723 21.9936C37.8487 22.5761 37.5251 22.4467 37.1367 22.4467L38.3665 20.4402Z" fill="#EFC273"/>
<path d="M32.6055 22.7702C32.9938 22.3819 33.7058 22.3171 34.4178 22.5113C35.1297 22.7702 35.1297 23.0938 35.1945 23.5469L32.6055 22.7702Z" fill="#F7D27F"/>
<path d="M32.6055 22.7703C32.6702 23.2881 33.188 23.8059 33.9647 24C34.6767 24.2589 34.8708 23.9353 35.1945 23.6117L32.6055 22.7703Z" fill="#EFC273"/>
<path d="M33.2578 25.0355C33.5167 24.7766 34.0992 24.6471 34.7465 24.8413C35.329 25.0355 35.329 25.2944 35.3937 25.6827L33.2578 25.0355Z" fill="#F7D27F"/>
<path d="M33.2578 25.0356C33.3225 25.424 33.7109 25.8771 34.3581 26.0712C34.9407 26.2654 35.0701 26.0065 35.3937 25.7476L33.2578 25.0356Z" fill="#EFC273"/>
<path d="M39.4045 23.1588C39.0809 22.9646 38.4984 23.0293 37.9159 23.353C37.3981 23.6766 37.4628 23.9355 37.5275 24.3238L39.4045 23.1588Z" fill="#F7D27F"/>
<path d="M39.406 23.094C39.4708 23.4823 39.1471 24.0001 38.6293 24.3238C38.1115 24.6474 37.9174 24.4532 37.5938 24.259L39.406 23.094Z" fill="#EFC273"/>
<path d="M39.3396 25.4239C39.0807 25.165 38.6277 25.0356 38.1099 25.165C37.5921 25.2945 37.5921 25.5534 37.5273 25.877L39.3396 25.4239Z" fill="#F7D27F"/>
<path d="M39.3396 25.4238C39.2749 25.7475 38.8866 26.0711 38.3688 26.2005C37.851 26.33 37.7215 26.1358 37.5273 25.8769L39.3396 25.4238Z" fill="#EFC273"/>
<path d="M38.9512 27.4304C38.7571 27.1068 38.304 26.9773 37.7215 27.0421C37.2037 27.1068 37.1389 27.3657 37.0742 27.6893L38.9512 27.4304Z" fill="#F7D27F"/>
<path d="M38.9512 27.4304C38.8218 27.754 38.4334 28.0129 37.8509 28.0777C37.3331 28.1424 37.2684 27.9482 37.0742 27.6246L38.9512 27.4304Z" fill="#EFC273"/>
<path d="M37.5925 29.3721C37.463 29.1132 37.1394 28.8543 36.6863 28.8543C36.2332 28.7896 36.1685 28.9838 36.0391 29.2427L37.5925 29.3721Z" fill="#F7D27F"/>
<path d="M37.5947 29.3074C37.4652 29.5663 37.0122 29.6958 36.5591 29.6958C36.106 29.6311 36.106 29.4369 35.9766 29.178L37.5947 29.3074Z" fill="#EFC273"/>
<path d="M35.7822 30.7314C35.7822 30.4725 35.5881 30.2136 35.2644 30.0194C34.9408 29.8253 34.8114 29.9547 34.6172 30.0842L35.7822 30.7314Z" fill="#F7D27F"/>
<path d="M35.7809 30.7315C35.5867 30.8609 35.1984 30.8609 34.8748 30.6668C34.5511 30.4726 34.5511 30.3431 34.6159 30.0842L35.7809 30.7315Z" fill="#EFC273"/>
<path d="M33.0625 26.5243C33.3861 26.3301 33.8392 26.3948 34.357 26.6537C34.8101 26.9126 34.7453 27.1715 34.7453 27.4952L33.0625 26.5243Z" fill="#F7D27F"/>
<path d="M33.0625 26.5242C33.0625 26.8478 33.3214 27.3009 33.7745 27.5598C34.2275 27.8187 34.4217 27.6892 34.6806 27.495L33.0625 26.5242Z" fill="#EFC273"/>
<path d="M32.6055 27.8189C32.8644 27.6894 33.2527 27.8189 33.5763 28.1425C33.9 28.4661 33.7705 28.5956 33.7058 28.8545L32.6055 27.8189Z" fill="#F7D27F"/>
<path d="M32.6099 27.8188C32.5452 28.0777 32.6747 28.4661 32.9983 28.7897C33.3219 29.1133 33.4514 28.9839 33.7103 28.8544L32.6099 27.8188Z" fill="#EFC273"/>
<path d="M30.0822 20.4399H28.9819C28.9172 19.2102 28.4641 18.0451 27.6874 17.139H30.0822C30.6 17.139 30.9884 16.7506 30.9884 16.2328C30.9884 15.715 30.6 15.3267 30.0822 15.3267H23.6098H19.9204H17.914C17.3962 15.3267 17.0078 15.715 17.0078 16.2328C17.0078 16.7506 17.3962 17.139 17.914 17.139H19.9204H23.6098C25.4868 17.139 26.9754 18.6276 27.1049 20.4399H17.914C17.3962 20.4399 17.0078 20.8283 17.0078 21.3461C17.0078 21.8639 17.3962 22.2522 17.914 22.2522H27.1049C26.846 23.9351 25.4221 25.1648 23.6745 25.1648H19.9852C19.6615 25.1648 19.3379 25.359 19.1437 25.6826C18.9496 26.0063 19.0143 26.3299 19.2085 26.6535L25.4221 35.9739C25.6162 36.2328 25.8751 36.3623 26.1987 36.3623C26.3929 36.3623 26.5871 36.2975 26.7165 36.2328C27.1696 35.9739 27.2343 35.3914 26.9754 34.9383L21.7327 27.0419H23.6745C26.4577 27.0419 28.723 24.9059 29.0466 22.2522H30.147C30.6648 22.2522 31.0531 21.8639 31.0531 21.3461C31.0531 20.8283 30.6 20.4399 30.0822 20.4399Z" fill="#F9E310"/>
<path d="M30.0803 20.4399H28.98C28.98 19.8574 28.8505 19.2749 28.6564 18.7571L27.103 20.3105C27.103 20.3752 27.103 20.3752 27.103 20.4399H26.9735L25.0965 22.317H27.0383C26.7794 23.9998 25.3554 25.2296 23.6078 25.2296H22.1839L19.7891 27.6244L25.3554 36.0386C25.5496 36.2975 25.8085 36.427 26.1321 36.427C26.3263 36.427 26.5205 36.3623 26.6499 36.2975C27.103 36.0386 27.1677 35.4561 26.9088 35.003L21.6661 27.1066H23.6078C26.391 27.1066 28.6564 24.9707 28.98 22.317H30.0803C30.5981 22.317 30.9865 21.9286 30.9865 21.4108C30.9865 20.893 30.5981 20.4399 30.0803 20.4399Z" fill="#F7C011"/>
<path d="M30.9854 16.427L30.2734 17.139C30.6618 17.0095 30.9207 16.7506 30.9854 16.427Z" fill="#F7C011"/>
</g>
<defs>
<clipPath id="clip0_417_12396">
<rect width="40" height="40" fill="white" transform="translate(4 4)"/>
</clipPath>
</defs>
</svg>
