<?xml version="1.0" encoding="UTF-8"?>
<svg id="Layer_5" data-name="Layer 5" xmlns="http://www.w3.org/2000/svg" xmlns:xlink="http://www.w3.org/1999/xlink" viewBox="0 0 504 512">
  <defs>
    <style>
      .cls-1 {
        fill: url(#linear-gradient-2);
      }

      .cls-2 {
        fill: url(#linear-gradient-3);
      }

      .cls-3 {
        fill: url(#linear-gradient);
      }

      .cls-4 {
        fill: url(#linear-gradient-4);
      }
    </style>
    <linearGradient id="linear-gradient" x1="41.74" y1="19.46" x2="57.74" y2="19.46" gradientUnits="userSpaceOnUse">
      <stop offset="0" stop-color="#f9c213"/>
      <stop offset="1" stop-color="#ffd86c"/>
    </linearGradient>
    <linearGradient id="linear-gradient-2" x1="55.73" y1="88" x2="120" y2="88" xlink:href="#linear-gradient"/>
    <linearGradient id="linear-gradient-3" x1="24" y1="88" x2="152" y2="88" xlink:href="#linear-gradient"/>
    <linearGradient id="linear-gradient-4" x1="0" y1="256" x2="504" y2="256" xlink:href="#linear-gradient"/>
  </defs>
  <circle class="cls-3" cx="49.74" cy="19.46" r="8"/>
  <g>
    <path class="cls-1" d="m80,48h-4.42c-10.79,0-19.58,8.79-19.58,19.58v8.83c0,10.79,8.79,19.58,19.58,19.58h24.83c1.98,0,3.58,1.61,3.58,3.58v8.83c0,1.98-1.61,3.58-3.58,3.58h-25.1c-1.98,0-3.58-1.61-3.58-3.58,0-4.42-3.58-8-8-8s-8,3.58-8,8c0,10.8,8.79,19.58,19.58,19.58h4.69c0,4.42,3.58,8,8,8s8-3.58,8-8h4.42c10.79,0,19.58-8.79,19.58-19.58v-8.83c0-10.79-8.79-19.58-19.58-19.58h-24.83c-1.98,0-3.58-1.61-3.58-3.58v-8.83c0-1.98,1.61-3.58,3.58-3.58h22.9c1.98,0,3.58,1.61,3.58,3.58,0,4.42,3.58,8,8,8s8-3.58,8-8c0-10.79-8.78-19.58-19.58-19.58h-2.49c0-4.42-3.58-8-8-8s-8,3.58-8,8Z"/>
    <path class="cls-2" d="m88,152c35.29,0,64-28.71,64-64S123.29,24,88,24,24,52.71,24,88s28.71,64,64,64Zm0-112c26.47,0,48,21.53,48,48s-21.53,48-48,48-48-21.53-48-48,21.53-48,48-48Z"/>
    <path class="cls-4" d="m496,152c4.42,0,8-3.58,8-8s-3.58-8-8-8h-16V48c0-4.42-3.58-8-8-8V8c0-4.42-3.58-8-8-8h-32c-4.42,0-8,3.58-8,8v32c-4.42,0-8,3.58-8,8v280h-48v-32c0-13.23-10.77-24-24-24h-16c-4.42,0-8-3.58-8-8v-32c0-13.23-10.77-24-24-24h-64c-4.42,0-8-3.58-8-8v-32c0-13.23-10.77-24-24-24h-44.17c12.59-15.22,20.17-34.74,20.17-56C176,39.48,136.52,0,88,0c-4.06,0-8.17.28-12.22.84-4.38.6-7.44,4.64-6.84,9.01.59,4.38,4.6,7.47,9.01,6.83,3.34-.45,6.73-.68,10.06-.68,39.7,0,72,32.3,72,72s-32.3,72-72,72S16,127.7,16,88c0-16.61,5.79-32.82,16.3-45.64,2.8-3.42,2.3-8.46-1.12-11.26-3.42-2.81-8.46-2.3-11.26,1.12C7.08,47.89,0,67.7,0,88,0,125.22,23.27,157.05,56,169.89v278.11H8c-4.42,0-8,3.58-8,8v48c0,4.42,3.58,8,8,8h464c4.42,0,8-3.58,8-8v-72h16c4.42,0,8-3.58,8-8s-3.58-8-8-8h-16v-24h16c4.42,0,8-3.58,8-8s-3.58-8-8-8h-16v-24h16c4.42,0,8-3.58,8-8s-3.58-8-8-8h-16v-24h16c4.42,0,8-3.58,8-8s-3.58-8-8-8h-16v-24h16c4.42,0,8-3.58,8-8s-3.58-8-8-8h-16v-24h16c4.42,0,8-3.58,8-8s-3.58-8-8-8h-16v-24h16c4.42,0,8-3.58,8-8s-3.58-8-8-8h-16v-24h16Zm-64-96h32v392h-32V56Zm8-40h16v24h-16v-24Zm-24,328v104h-48v-48.9l29.2-25.03c2.54-2.17,3.46-5.7,2.3-8.84-1.15-3.14-4.14-5.23-7.5-5.23h-24v-16h48Zm-96,104v-35.18l10.8,9.26c1.49,1.29,3.35,1.93,5.2,1.93s3.71-.64,5.2-1.93l10.8-9.26v35.18h-32Zm-48,0v-121.47c2.51.9,5.18,1.47,8,1.47h16c4.42,0,8,3.58,8,8v24h-24c-3.35,0-6.34,2.09-7.5,5.22-1.17,3.14-.25,6.67,2.3,8.84l29.21,25.04v48.9h-32Zm-48,0v-184h24c4.42,0,8,3.58,8,8v176h-32Zm-48,0v-185.47c2.51.9,5.18,1.47,8,1.47h24v184h-32Zm-48,0v-248h24c4.42,0,8,3.58,8,8v240h-32Zm-40-272c18.77,0,36.14-5.95,50.44-16h61.56c4.42,0,8,3.58,8,8v32c0,13.23,10.77,24,24,24h64c4.42,0,8,3.58,8,8v32c0,13.23,10.77,24,24,24h16c4.42,0,8,3.58,8,8v72c0,4.42,3.58,8,8,8h10.38l-34.38,29.46-34.38-29.46h10.38c4.42,0,8-3.58,8-8v-32c0-13.23-10.77-24-24-24h-16c-4.42,0-8-3.58-8-8v-32c0-13.23-10.77-24-24-24h-64c-4.42,0-8-3.58-8-8v-32c0-13.23-10.77-24-24-24h-72c-4.42,0-8-3.58-8-8v-1.53c5.2.96,10.53,1.53,16,1.53Zm-16,22.53c2.51.9,5.18,1.47,8,1.47h32v248h-40v-249.47Zm392,297.47H16v-32h448v32Z"/>
  </g>
</svg>