<?xml version="1.0" encoding="UTF-8"?>
<svg id="Layer_5" data-name="Layer 5" xmlns="http://www.w3.org/2000/svg" xmlns:xlink="http://www.w3.org/1999/xlink" viewBox="0 0 510 510">
  <defs>
    <style>
      .cls-1 {
        fill: url(#linear-gradient-2);
      }

      .cls-2 {
        fill: url(#linear-gradient-3);
      }

      .cls-3 {
        fill: url(#linear-gradient);
      }
    </style>
    <linearGradient id="linear-gradient" x1="0" y1="255" x2="510" y2="255" gradientUnits="userSpaceOnUse">
      <stop offset="0" stop-color="#f9c213"/>
      <stop offset="1" stop-color="#ffd86c"/>
    </linearGradient>
    <linearGradient id="linear-gradient-2" x1="69.18" y1="319.95" x2="440.82" y2="319.95" xlink:href="#linear-gradient"/>
    <linearGradient id="linear-gradient-3" x1="300.82" y1="289.9" x2="360.83" y2="289.9" xlink:href="#linear-gradient"/>
  </defs>
  <g id="_05_Calender_date_and_time_economic_crisies_shedule_graph" data-name="05, Calender, date and time, economic crisies, shedule, graph">
    <g>
      <path class="cls-3" d="m470,40v-10c0-16.58-13.43-30-30-30s-30,13.46-30,30v10h-20v-10c0-16.58-13.43-30-30-30s-30,13.46-30,30v10h-150v-10c0-16.58-13.43-30-30-30s-30,13.46-30,30v10h-20v-10c0-16.58-13.43-30-30-30s-30,13.46-30,30v10C17.94,40,0,57.94,0,80v390c0,22.06,17.94,40,40,40h430c22.06,0,40-17.94,40-40V80c0-22.06-17.94-40-40-40Zm-40-10c0-5.51,4.49-10,10-10s10,4.48,10,10v40c0,5.51-4.49,10-10,10s-10-4.49-10-10V30Zm-80,0c0-5.51,4.49-10,10-10s10,4.48,10,10v40c0,5.51-4.49,10-10,10s-10-4.49-10-10V30Zm-210,0c0-5.51,4.49-10,10-10s10,4.48,10,10v40c0,5.51-4.49,10-10,10s-10-4.49-10-10V30Zm-80,0c0-5.51,4.49-10,10-10s10,4.48,10,10v40c0,5.51-4.49,10-10,10s-10-4.49-10-10V30Zm-20,30v10c0,16.54,13.46,30,30,30s30-13.46,30-30v-10h20v10c0,16.54,13.46,30,30,30s30-13.46,30-30v-10h150v10c0,16.54,13.46,30,30,30s30-13.46,30-30v-10h20v10c0,16.54,13.46,30,30,30s30-13.46,30-30v-10c11.03,0,20,8.97,20,20v50H20v-50c0-11.03,8.97-20,20-20Zm430,430H40c-11.03,0-20-8.97-20-20V150h470v320c0,11.03-8.97,20-20,20Z"/>
      <path class="cls-1" d="m330.82,179.9c-60.65,0-110,49.35-110,110,0,10.31,1.4,20.38,4.17,30.1h-25.81c-5.52,0-10,4.48-10,10v110h-20v-190c0-5.52-4.48-10-10-10h-40c-5.52,0-10,4.48-10,10v190h-20v-250c0-5.52-4.48-10-10-10s-10,4.48-10,10v260c0,5.52,4.48,10,10,10h270.82c5.52,0,10-4.48,10-10s-4.48-10-10-10h-20.82v-40.11c60.73,1.01,111.64-48.29,111.64-109.99s-49.35-110-110-110h0Zm-61.64,260.1h-20v-76.36c5.97,6.61,12.7,12.44,20,17.38v58.98Zm-140-180h20v180h-20v-180Zm80,80h20v100h-20v-100Zm80,51.73c6.43,2.63,13.12,4.65,20,6.02v42.25h-20v-48.27Zm31.09-12.45s-.07,0-.11-.01c-44.85-5.28-79.34-43.49-79.34-89.37,0-49.63,40.37-90,90-90s90,40.37,90,90c0,53.67-46.89,95.64-100.55,89.38Z"/>
      <path class="cls-2" d="m330.82,279.9c-5.52,0-10-4.48-10-10s4.49-10,10-10h20c5.52,0,10-4.48,10-10s-4.48-10-10-10h-10v-10c0-5.52-4.48-10-10-10s-10,4.48-10,10v11.72c-11.64,4.13-20,15.24-20,28.28,0,16.58,13.42,30,30,30,5.52,0,10,4.48,10,10s-4.48,10-10,10h-20c-5.52,0-10,4.48-10,10s4.48,10,10,10h10v10c0,5.52,4.48,10,10,10s10-4.48,10-10v-11.7c4.17-1.47,7.99-3.87,11.21-7.08,11.73-11.73,11.73-30.7,0-42.42-5.67-5.67-13.2-8.79-21.21-8.79Z"/>
    </g>
  </g>
</svg>