<svg width="48" height="48" viewBox="0 0 48 48" fill="none" xmlns="http://www.w3.org/2000/svg">
<path d="M20.3926 13.788C20.7688 13.2712 21.2294 12.8213 21.7554 12.4574L22.0511 12.2388C22.2181 12.1102 22.3917 11.9817 22.559 11.8598C22.0075 11.4868 21.3791 11.2429 20.7205 11.146L18.4706 11.3132C17.1933 11.3393 15.9615 10.8398 15.0637 9.93125L14.8835 9.75109C14.752 9.61569 14.5713 9.53934 14.3823 9.53906C14.1937 9.54044 14.0132 9.61679 13.8808 9.75109L6.21202 17.4844C6.07635 17.6198 6 17.8035 6 17.9952C6 18.1869 6.07635 18.371 6.21202 18.5064L7.6841 20.0042C8.08068 20.3854 8.29161 20.9204 8.2625 21.4697C8.14055 24.2787 10.506 26.7088 10.5253 26.7343L11.1361 27.3514C11.4956 27.7129 11.9828 27.9186 12.4922 27.9235H12.4988C13.0113 27.9227 13.5021 27.7167 13.8616 27.3514L17.937 23.2376C17.7052 23.1442 17.4954 23.0041 17.3199 22.8262C16.775 22.233 16.5086 21.4357 16.5871 20.634C16.6333 19.7958 16.909 18.9864 17.3842 18.2943C20.3863 13.8073 20.3863 13.8073 20.3926 13.788ZM12.4409 15.0736L9.09191 18.455C8.97107 18.5769 8.80711 18.6464 8.63546 18.6478C8.46491 18.6472 8.30122 18.5802 8.179 18.4613C7.92826 18.2086 7.92826 17.8011 8.179 17.5487L11.5283 14.1673C11.7785 13.9152 12.1857 13.9138 12.4376 14.164C12.6897 14.4145 12.6911 14.8218 12.4409 15.0736ZM14.8385 12.6502L14.3628 13.1388C14.2401 13.2569 14.0769 13.3233 13.9067 13.3253C13.7355 13.3275 13.5708 13.2602 13.4502 13.1388C13.2008 12.888 13.2008 12.4832 13.4502 12.2325L13.9259 11.7505C14.0816 11.5659 14.3277 11.4843 14.5628 11.5393C14.7981 11.5939 14.9827 11.776 15.0409 12.0103C15.0989 12.2448 15.0209 12.492 14.8385 12.6502Z" fill="#E5A300"/>
<path d="M24.9238 37.2709C24.6107 36.93 24.3913 36.5139 24.2875 36.063L23.6088 36.7493L22.8047 37.5614C23.173 38.0025 23.6786 38.3076 24.2405 38.4279C24.7777 38.5166 25.3292 38.4263 25.8098 38.1706L24.9793 37.3343C24.9595 37.3145 24.9408 37.2931 24.9238 37.2709Z" fill="#E5A300"/>
<path d="M25.9067 34.4225L25.8902 34.439L25.8734 34.4571C25.348 35.01 25.3557 35.88 25.8907 36.4236C25.9083 36.4414 25.9251 36.4606 25.9402 36.4807L27.2637 37.8176C27.4875 38.0514 27.7893 38.1944 28.1118 38.2194C28.5237 38.2576 28.9313 38.1101 29.2238 37.8171C29.7651 37.2631 29.7651 36.3785 29.2238 35.8243L27.85 34.4352C27.6262 34.202 27.3244 34.0592 27.0022 34.0342C26.5977 33.996 26.197 34.138 25.9067 34.4225Z" fill="#E5A300"/>
<path d="M32.7339 28.2514C32.3217 28.2119 31.9136 28.3594 31.6219 28.6532C31.1317 29.1545 31.0828 29.9391 31.5068 30.4974L33.8569 32.8638C33.8858 32.8931 33.9053 32.928 33.9322 32.9582C34.1434 33.1444 34.4092 33.257 34.6899 33.2796C35.1016 33.3177 35.5089 33.1705 35.8008 32.8778C36.3422 32.3238 36.3422 31.4392 35.8008 30.885L33.5845 28.6546C33.3601 28.4201 33.0574 28.2764 32.7339 28.2514Z" fill="#E5A300"/>
<path d="M30.6562 31.4881C30.6247 31.4546 30.6035 31.4161 30.5747 31.3812L29.6527 30.4532C29.4294 30.219 29.1276 30.0756 28.8049 30.0506C28.3929 30.0108 27.9848 30.158 27.6934 30.4518C27.1491 31.0028 27.1491 31.889 27.6934 32.44C27.7113 32.4575 27.7277 32.4765 27.7428 32.4965L30.9861 35.7659C31.2102 35.9996 31.5123 36.1427 31.8353 36.1677C32.247 36.2069 32.6545 36.0595 32.9459 35.7659C33.4548 35.2435 33.4859 34.4207 33.0179 33.8612C32.9896 33.8357 32.958 33.8151 32.9311 33.7879L32.2434 33.0964C32.2176 33.0824 32.1929 33.0664 32.1695 33.0489C32.1451 33.0203 32.1236 32.9895 32.1052 32.9568L30.7123 31.5556C30.6917 31.5345 30.673 31.512 30.6562 31.4881Z" fill="#E5A300"/>
<path d="M34.1174 9.75768C33.9875 9.61898 33.8062 9.53989 33.6161 9.53906C33.4275 9.54044 33.247 9.61679 33.1146 9.75109L32.9219 9.93757C32.1603 10.7244 31.1394 11.2086 30.0483 11.3003C29.5457 11.3237 29.042 11.2979 28.5441 11.2232C28.0953 11.1567 27.6408 11.1375 27.1879 11.1655C26.3395 11.2943 25.5197 11.5681 24.7645 11.9754C24.0825 12.3489 23.433 12.779 22.823 13.261L22.5209 13.4925C22.1089 13.7762 21.7461 14.1258 21.4476 14.5274C21.4026 14.5916 18.4518 19.0078 18.4518 19.0078C18.1091 19.5058 17.9091 20.0883 17.8734 20.6919C17.8147 21.1358 17.9454 21.5837 18.2335 21.9262C18.504 22.1951 18.9393 22.2008 19.217 21.9391L19.7119 21.4439L26.8215 14.2958C27.0703 14.0448 27.4754 14.0421 27.7278 14.2895C27.9574 14.5158 27.9797 14.8789 27.7792 15.1316L30.6783 18.0565C31.9768 19.3811 31.9768 21.5013 30.6783 22.8262C30.3051 23.2085 29.792 23.4221 29.2576 23.4175C28.7399 23.4216 28.242 23.2178 27.8756 22.8517L24.9188 19.8691C24.6774 19.6258 24.3486 19.4887 24.0059 19.4887C23.6631 19.4887 23.3344 19.6258 23.093 19.8691L22.926 20.0364L20.1233 22.8517V22.8583L14.7749 28.2577C14.1737 28.8658 13.3545 29.2083 12.4995 29.2094H12.4929C11.8689 29.2042 11.2595 29.019 10.7382 28.6757C10.256 29.7836 10.5471 31.0764 11.4581 31.8706C12.3644 32.6163 14.01 32.7899 15.8872 31.0478C15.907 31.0324 15.9287 31.0195 15.9515 31.0091L16.2599 30.6941L21.6533 25.2817C21.9057 25.031 22.3133 25.031 22.5659 25.2817C22.8153 25.5325 22.8153 25.9373 22.5659 26.188L16.7999 31.9797C16.7622 32.0118 16.7213 32.0401 16.6779 32.0634C15.7741 32.9568 14.5975 33.5226 13.3353 33.6704C13.3748 33.8085 13.4333 33.9403 13.5086 34.0625C14.1803 35.2001 15.5143 35.7681 16.7999 35.4638C17.3079 35.3174 17.7671 35.0378 18.1305 34.6538C19.1912 33.574 21.6533 31.0863 21.6533 31.0863L24.5329 28.1872C24.7834 27.935 25.1904 27.9337 25.4425 28.1839C25.6947 28.4343 25.696 28.8414 25.4458 29.0935L22.5659 31.9926C22.5659 31.9926 20.1041 34.474 19.0368 35.5602C18.5169 36.1056 17.8597 36.5008 17.1341 36.7046C17.844 37.6642 19.0599 38.1047 20.2197 37.8229C20.6945 37.6826 21.126 37.4239 21.4732 37.071C21.4973 37.0457 21.5231 37.0221 21.5503 37.0001L22.6945 35.843C23.5173 35.0139 24.4236 34.101 24.8416 33.677L24.9573 33.5611L24.9636 33.5481C24.9702 33.5418 24.9702 33.5355 24.9765 33.5289C24.9831 33.5226 24.996 33.5226 24.996 33.516L25.0473 33.4647C25.0666 33.4454 25.0987 33.4391 25.1179 33.4196C25.4739 33.1068 25.9064 32.8937 26.3714 32.8025C25.7576 31.7512 25.9234 30.4189 26.7765 29.5499C27.3373 28.9831 28.123 28.6974 28.917 28.7721C29.2944 28.8018 29.6594 28.9185 29.984 29.1127C30.2512 27.7736 31.4844 26.8508 32.8447 26.9721C33.0394 26.9878 33.2314 27.0265 33.4168 27.088C33.4764 26.3819 33.8153 25.7289 34.3585 25.2738C34.9015 24.8187 35.604 24.5995 36.3096 24.6646C36.9377 24.7143 37.5257 24.9934 37.9615 25.4487L38.2636 25.7445C39.201 24.51 39.717 23.0069 39.7357 21.4568C39.7102 20.91 39.9208 20.3786 40.3141 19.9977L41.7862 18.5127C41.9235 18.3756 42.0007 18.1894 42.0007 17.9952C42.0007 17.8011 41.9235 17.6151 41.7862 17.4778L34.1174 9.75768ZM34.548 13.1388C34.4274 13.2602 34.2629 13.3275 34.0918 13.3253C33.9213 13.3247 33.7576 13.2577 33.6354 13.1388L33.1597 12.6502C32.9773 12.492 32.8993 12.2448 32.9576 12.0103C33.0155 11.776 33.2003 11.5939 33.4354 11.5393C33.6705 11.4843 33.9166 11.5659 34.0723 11.7505L34.548 12.2325C34.7974 12.4832 34.7974 12.888 34.548 13.1388ZM39.8192 18.4613C39.697 18.5802 39.5333 18.6472 39.3627 18.6478C39.1908 18.6475 39.0263 18.578 38.9063 18.455L35.551 15.0736C35.3019 14.8193 35.3049 14.4117 35.5573 14.161C35.6776 14.0399 35.8413 13.9726 36.0118 13.9737C36.1824 13.9748 36.3453 14.0448 36.4636 14.1673L39.8192 17.5487C40.0699 17.8011 40.0699 18.2086 39.8192 18.4613Z" fill="#FAC211"/>
<path d="M37.9244 27.2266L37.0464 26.3486C36.8223 26.1141 36.5194 25.9704 36.1961 25.9449C35.7839 25.9051 35.3755 26.0525 35.0838 26.3467C34.5398 26.8976 34.5398 27.7833 35.0838 28.3342C35.1006 28.3524 35.1168 28.3702 35.1316 28.3889L36.3746 29.6328C36.5982 29.8676 36.9011 30.0112 37.2247 30.0359C37.6372 30.0774 38.0461 29.9299 38.3372 29.6347C38.8799 29.0799 38.8799 28.1934 38.3372 27.6389L37.9244 27.2266Z" fill="#E5A300"/>
<path d="M28.7838 21.9416C28.9085 22.0668 29.0787 22.1366 29.2553 22.1344C29.4443 22.1382 29.6264 22.0641 29.7587 21.9295C30.5673 21.1056 30.5687 19.7865 29.762 18.9609L26.8808 16.0571L24.6523 18.2987C25.0973 18.4116 25.5035 18.6423 25.8286 18.9667L28.7838 21.9416Z" fill="#E5A300"/>
</svg>
