<?xml version="1.0" encoding="UTF-8"?>
<svg id="Layer_5" data-name="Layer 5" xmlns="http://www.w3.org/2000/svg" xmlns:xlink="http://www.w3.org/1999/xlink" viewBox="0 0 423.37 423.37">
  <defs>
    <style>
      .cls-1 {
        fill: url(#linear-gradient-2);
      }

      .cls-2 {
        fill: url(#linear-gradient-3);
      }

      .cls-3 {
        fill: url(#linear-gradient);
      }

      .cls-4 {
        fill: url(#linear-gradient-4);
      }
    </style>
    <linearGradient id="linear-gradient" x1="0" y1="211.69" x2="423.37" y2="211.69" gradientUnits="userSpaceOnUse">
      <stop offset="0" stop-color="#f9c213"/>
      <stop offset="1" stop-color="#ffd86c"/>
    </linearGradient>
    <linearGradient id="linear-gradient-2" x1="104.5" x2="169.89" xlink:href="#linear-gradient"/>
    <linearGradient id="linear-gradient-3" x1="253.49" x2="318.87" xlink:href="#linear-gradient"/>
    <linearGradient id="linear-gradient-4" x1="177.59" y1="211.69" x2="245.77" y2="211.69" xlink:href="#linear-gradient"/>
  </defs>
  <path class="cls-3" d="m240.83,423.37h-58.18c-4.3,0-7.97-3.09-8.69-7.32l-9.58-55.64c-8.44-2.66-16.62-6.02-24.42-10.03l-46.06,32.51c-3.5,2.45-8.28,2.07-11.32-.97l-41.04-41.03c-3.03-3.03-3.45-7.81-.97-11.32l32.28-45.81c-4.14-7.96-7.61-16.25-10.34-24.77l-55.19-9.48c-4.24-.72-7.33-4.39-7.33-8.69v-58.17c0-4.29,3.08-7.96,7.31-8.69l54.67-9.47c2.69-8.75,6.18-17.29,10.41-25.46l-31.82-45.14c-2.47-3.51-2.06-8.28.96-11.31l41.04-41.15c3.04-3.05,7.83-3.45,11.34-.97l44.72,31.65c8.35-4.44,17.05-8.1,25.97-10.9l9.35-53.91c.73-4.23,4.4-7.31,8.69-7.31h58.18c4.29,0,7.96,3.09,8.69,7.31l9.35,54.02c9.04,2.82,17.74,6.43,25.97,10.79l44.73-31.65c3.52-2.47,8.31-2.08,11.34.97l41.03,41.15c3.02,3.03,3.44,7.8.96,11.31l-31.82,45.14c4.24,8.17,7.73,16.71,10.41,25.47l54.57,9.46c4.23.73,7.31,4.4,7.31,8.69v58.17c0,4.3-3.09,7.97-7.32,8.69l-55.09,9.48c-2.72,8.5-6.18,16.8-10.34,24.77l32.28,45.81c2.47,3.51,2.06,8.29-.97,11.32l-41.03,41.03c-3.03,3.04-7.82,3.43-11.32.97l-46.08-32.52c-7.9,4.04-16.06,7.4-24.39,10.04l-9.59,55.64c-.73,4.23-4.4,7.32-8.69,7.32Zm-50.74-17.64h43.31l9.26-53.71c.58-3.36,3.05-6.09,6.34-7,10.61-2.94,20.99-7.21,30.87-12.69,2.95-1.64,6.59-1.45,9.36.5l44.45,31.37,30.53-30.53-31.16-44.21c-1.96-2.79-2.14-6.46-.47-9.43,5.6-9.88,9.97-20.37,13.01-31.18.92-3.27,3.64-5.73,6.99-6.31l53.15-9.15v-43.31l-52.7-9.14c-3.39-.59-6.13-3.09-7.02-6.42-2.94-11.04-7.3-21.73-12.97-31.76-1.68-2.96-1.5-6.63.47-9.42l30.7-43.55-30.53-30.62-43.18,30.56c-2.83,2-6.55,2.15-9.53.43-9.97-5.79-20.79-10.29-32.19-13.4-3.3-.9-5.78-3.63-6.37-7l-9.02-52.12h-43.33l-9.02,52c-.59,3.37-3.07,6.1-6.37,7-11.16,3.06-21.99,7.61-32.19,13.52-2.98,1.72-6.7,1.57-9.53-.43l-43.17-30.56-30.54,30.63,30.7,43.54c1.96,2.79,2.14,6.46.47,9.42-5.67,10.03-10.03,20.72-12.97,31.76-.89,3.32-3.63,5.83-7.02,6.42l-52.8,9.14v43.31l53.24,9.15c3.36.58,6.08,3.02,7,6.3,3.05,10.84,7.42,21.34,13.01,31.19,1.68,2.97,1.5,6.64-.47,9.43l-31.16,44.21,30.54,30.53,44.45-31.37c2.77-1.96,6.43-2.16,9.4-.48,9.65,5.42,20.02,9.67,30.85,12.67,3.29.91,5.76,3.64,6.34,7l9.25,53.71Z"/>
  <g>
    <g>
      <path class="cls-1" d="m161.07,276.98h-26.66c-4.88,0-8.82-3.95-8.82-8.82v-33.15l-18.25-16.85c-1.81-1.66-2.83-4.01-2.83-6.48s1.03-4.81,2.83-6.48l18.25-16.85v-33.15c0-4.88,3.95-8.82,8.82-8.82h26.66c4.88,0,8.82,3.95,8.82,8.82s-3.95,8.82-8.82,8.82h-17.84v28.18c0,2.46-1.03,4.81-2.83,6.48l-14.07,12.99,14.07,12.99c1.81,1.66,2.83,4.01,2.83,6.48v28.18h17.84c4.88,0,8.82,3.95,8.82,8.82s-3.95,8.82-8.82,8.82Z"/>
      <path class="cls-2" d="m288.96,276.98h-26.65c-4.88,0-8.82-3.95-8.82-8.82s3.95-8.82,8.82-8.82h17.83v-28.18c0-2.46,1.03-4.81,2.83-6.48l14.07-12.99-14.07-12.99c-1.81-1.66-2.83-4.01-2.83-6.48v-28.18h-17.83c-4.88,0-8.82-3.95-8.82-8.82s3.95-8.82,8.82-8.82h26.65c4.88,0,8.82,3.95,8.82,8.82v33.15l18.25,16.85c1.81,1.66,2.83,4.01,2.83,6.48s-1.03,4.81-2.83,6.48l-18.25,16.85v33.15c0,4.88-3.95,8.82-8.82,8.82Z"/>
    </g>
    <path class="cls-4" d="m186.42,289.18c-1.02,0-2.04-.17-3.05-.54-4.57-1.68-6.91-6.75-5.23-11.33l50.54-137.35c1.68-4.57,6.76-6.89,11.33-5.23,4.57,1.68,6.91,6.75,5.23,11.33l-50.54,137.35c-1.31,3.57-4.69,5.77-8.28,5.77Z"/>
  </g>
</svg>