<?xml version="1.0" encoding="UTF-8"?>
<svg id="Capa_1" data-name="Capa 1" xmlns="http://www.w3.org/2000/svg" xmlns:xlink="http://www.w3.org/1999/xlink" viewBox="0 0 512 512">
  <defs>
    <style>
      .cls-1 {
        fill: url(#linear-gradient-2);
      }

      .cls-2 {
        fill: url(#linear-gradient-15);
      }

      .cls-3 {
        fill: url(#linear-gradient-14);
      }

      .cls-4 {
        fill: url(#linear-gradient-6);
      }

      .cls-5 {
        fill: url(#linear-gradient-11);
      }

      .cls-6 {
        fill: url(#linear-gradient-10);
      }

      .cls-7 {
        fill: url(#linear-gradient-16);
      }

      .cls-8 {
        fill: url(#linear-gradient-5);
      }

      .cls-9 {
        fill: url(#linear-gradient-7);
      }

      .cls-10 {
        fill: url(#linear-gradient-9);
      }

      .cls-11 {
        fill: url(#linear-gradient-3);
      }

      .cls-12 {
        fill: url(#linear-gradient);
      }

      .cls-13 {
        fill: url(#linear-gradient-4);
      }

      .cls-14 {
        fill: url(#linear-gradient-8);
      }

      .cls-15 {
        fill: url(#linear-gradient-12);
      }

      .cls-16 {
        fill: url(#linear-gradient-13);
      }
    </style>
    <linearGradient id="linear-gradient" x1="0" y1="256" x2="512" y2="256" gradientUnits="userSpaceOnUse">
      <stop offset="0" stop-color="#f9c213"/>
      <stop offset="1" stop-color="#ffd86c"/>
    </linearGradient>
    <linearGradient id="linear-gradient-2" x1="132" y1="256" x2="472" y2="256" xlink:href="#linear-gradient"/>
    <linearGradient id="linear-gradient-3" x1="292" y1="128.5" x2="312" y2="128.5" xlink:href="#linear-gradient"/>
    <linearGradient id="linear-gradient-4" x1="227" y1="145.58" x2="249.5" y2="145.58" xlink:href="#linear-gradient"/>
    <linearGradient id="linear-gradient-5" x1="179.42" y1="192.25" x2="203.75" y2="192.25" xlink:href="#linear-gradient"/>
    <linearGradient id="linear-gradient-6" x1="162" y1="256" x2="187" y2="256" xlink:href="#linear-gradient"/>
    <linearGradient id="linear-gradient-7" x1="179.42" y1="319.75" x2="203.75" y2="319.75" xlink:href="#linear-gradient"/>
    <linearGradient id="linear-gradient-8" x1="227" y1="366.42" x2="249.5" y2="366.42" xlink:href="#linear-gradient"/>
    <linearGradient id="linear-gradient-9" x1="292" y1="383.5" x2="312" y2="383.5" xlink:href="#linear-gradient"/>
    <linearGradient id="linear-gradient-10" x1="354.5" y1="366.42" x2="377" y2="366.42" xlink:href="#linear-gradient"/>
    <linearGradient id="linear-gradient-11" x1="400.25" y1="319.75" x2="424.59" y2="319.75" xlink:href="#linear-gradient"/>
    <linearGradient id="linear-gradient-12" x1="417" y1="256" x2="442" y2="256" xlink:href="#linear-gradient"/>
    <linearGradient id="linear-gradient-13" x1="400.25" y1="192.25" x2="424.59" y2="192.25" xlink:href="#linear-gradient"/>
    <linearGradient id="linear-gradient-14" x1="354.5" y1="145.58" x2="377" y2="145.58" xlink:href="#linear-gradient"/>
    <linearGradient id="linear-gradient-15" x1="272" y1="241.65" x2="344.5" y2="241.65" xlink:href="#linear-gradient"/>
    <linearGradient id="linear-gradient-16" x1="35" y1="362.67" x2="78.5" y2="362.67" xlink:href="#linear-gradient"/>
  </defs>
  <path class="cls-12" d="m302,46c-45.97,0-88.54,14.85-123.16,40h-83.84c-5.52,0-10,4.48-10,10s4.48,10,10,10h60.17c-10.33,10.11-19.62,21.28-27.71,33.33H45c-5.52,0-10,4.48-10,10s4.48,10,10,10h70.6c-5.53,10.62-10.17,21.76-13.84,33.33h-41.76c-5.52,0-10,4.48-10,10s4.48,10,10,10h36.5c-2.28,10.83-3.72,21.96-4.26,33.33H10C4.48,246,0,250.48,0,256s4.48,10,10,10h82.24c.54,11.37,1.98,22.5,4.26,33.33H20c-5.52,0-10,4.48-10,10s4.48,10,10,10h81.76c10.53,33.2,29.1,62.86,53.41,86.67h-60.17c-5.52,0-10,4.48-10,10s4.48,10,10,10h83.84c34.62,25.15,77.19,40,123.16,40,115.8,0,210-94.21,210-210S417.8,46,302,46h0Zm0,400c-104.77,0-190-85.23-190-190s85.23-190,190-190,190,85.23,190,190-85.23,190-190,190Z"/>
  <path class="cls-1" d="m302,86c-93.74,0-170,76.26-170,170s76.26,170,170,170,170-76.26,170-170-76.26-170-170-170Zm0,320c-82.71,0-150-67.29-150-150s67.29-150,150-150,150,67.29,150,150-67.29,150-150,150Z"/>
  <path class="cls-11" d="m302,141c5.52,0,10-4.48,10-10v-5c0-5.52-4.48-10-10-10s-10,4.48-10,10v5c0,5.52,4.48,10,10,10Z"/>
  <path class="cls-13" d="m245.66,138.42c-2.76-4.78-8.88-6.42-13.66-3.66s-6.42,8.88-3.66,13.66l2.5,4.33c1.85,3.21,5.21,5,8.67,5,1.7,0,3.42-.43,4.99-1.34,4.78-2.76,6.42-8.88,3.66-13.66l-2.5-4.33Z"/>
  <path class="cls-8" d="m198.75,184.84l-4.33-2.5c-4.78-2.76-10.9-1.12-13.66,3.66-2.76,4.78-1.12,10.9,3.66,13.66l4.33,2.5c1.57.91,3.29,1.34,4.99,1.34,3.46,0,6.82-1.79,8.67-5,2.76-4.78,1.12-10.9-3.66-13.66h0Z"/>
  <path class="cls-4" d="m187,256c0-5.52-4.48-10-10-10h-5c-5.52,0-10,4.48-10,10s4.48,10,10,10h5c5.52,0,10-4.48,10-10Z"/>
  <path class="cls-9" d="m188.75,309.84l-4.33,2.5c-4.78,2.76-6.42,8.88-3.66,13.66,1.85,3.21,5.21,5,8.67,5,1.7,0,3.42-.43,4.99-1.34l4.33-2.5c4.78-2.76,6.42-8.88,3.66-13.66-2.76-4.78-8.88-6.42-13.66-3.66Z"/>
  <path class="cls-14" d="m244.5,355.6c-4.78-2.76-10.9-1.12-13.66,3.66l-2.5,4.33c-2.76,4.78-1.12,10.9,3.66,13.66,1.57.91,3.29,1.34,4.99,1.34,3.46,0,6.82-1.79,8.67-5l2.5-4.33c2.76-4.78,1.12-10.9-3.66-13.66Z"/>
  <path class="cls-10" d="m302,371c-5.52,0-10,4.48-10,10v5c0,5.52,4.48,10,10,10s10-4.48,10-10v-5c0-5.52-4.48-10-10-10Z"/>
  <path class="cls-6" d="m373.16,359.26c-2.76-4.78-8.88-6.42-13.66-3.66-4.78,2.76-6.42,8.88-3.66,13.66l2.5,4.33c1.85,3.21,5.21,5,8.67,5,1.7,0,3.42-.43,4.99-1.34,4.78-2.76,6.42-8.88,3.66-13.66l-2.5-4.33Z"/>
  <path class="cls-5" d="m419.58,312.34l-4.33-2.5c-4.78-2.76-10.9-1.12-13.66,3.66-2.76,4.78-1.12,10.9,3.66,13.66l4.33,2.5c1.58.91,3.29,1.34,4.99,1.34,3.46,0,6.82-1.79,8.67-5,2.76-4.78,1.12-10.9-3.66-13.66Z"/>
  <path class="cls-15" d="m432,246h-5c-5.52,0-10,4.48-10,10s4.48,10,10,10h5c5.52,0,10-4.48,10-10s-4.48-10-10-10h0Z"/>
  <path class="cls-16" d="m410.26,203.5c1.7,0,3.42-.43,4.99-1.34l4.33-2.5c4.78-2.76,6.42-8.88,3.66-13.66-2.76-4.78-8.88-6.42-13.66-3.66l-4.33,2.5c-4.78,2.76-6.42,8.88-3.66,13.66,1.85,3.21,5.21,5,8.67,5Z"/>
  <path class="cls-3" d="m372,134.76c-4.78-2.76-10.9-1.12-13.66,3.66l-2.5,4.33c-2.76,4.78-1.12,10.9,3.66,13.66,1.58.91,3.29,1.34,4.99,1.34,3.46,0,6.82-1.79,8.67-5l2.5-4.33c2.76-4.78,1.12-10.9-3.66-13.66Z"/>
  <path class="cls-2" d="m324.8,275.48c4.49-5.25,7.2-12.05,7.2-19.48,0-13.04-8.36-24.16-20-28.29v-56.71c0-5.52-4.48-10-10-10s-10,4.48-10,10v56.71c-11.64,4.13-20,15.25-20,28.29,0,16.54,13.46,30,30,30,1.87,0,3.7-.17,5.48-.5l18.36,31.8c1.85,3.21,5.21,5,8.67,5,1.7,0,3.42-.43,4.99-1.34,4.78-2.76,6.42-8.88,3.66-13.66l-18.36-31.81Zm-32.8-19.48c0-5.5,4.46-9.98,9.96-10h.08c5.5.02,9.96,4.5,9.96,10s-4.49,10-10,10-10-4.49-10-10Z"/>
  <path class="cls-7" d="m68.5,352.67h-23.5c-5.52,0-10,4.48-10,10s4.48,10,10,10h23.5c5.52,0,10-4.48,10-10s-4.48-10-10-10Z"/>
</svg>