<?xml version="1.0" encoding="UTF-8"?>
<svg id="Layer_1" data-name="Layer 1" xmlns="http://www.w3.org/2000/svg" viewBox="0 0 512 512">
  <path d="m226.73,220.39c-18.77,0-34.04,15.27-34.04,34.04,0,10.99,5.24,21.12,13.94,27.48v15.44c0,11.08,9.01,20.1,20.1,20.1s20.1-9.02,20.1-20.1v-15.43c8.71-6.35,13.94-16.49,13.94-27.48,0-18.77-15.27-34.04-34.04-34.04Zm8.37,50.02c-2.63,1.38-4.28,4.11-4.28,7.08v19.85c0,2.22-1.88,4.1-4.1,4.1s-4.1-1.88-4.1-4.1v-19.85c0-2.97-1.65-5.7-4.28-7.08-5.96-3.13-9.66-9.26-9.66-15.98,0-9.95,8.09-18.04,18.04-18.04s18.04,8.09,18.04,18.04c0,6.73-3.7,12.85-9.67,15.98Zm211.02-14.36c0-.62.03-1.24.03-1.85V84.71c0-2.75-1.41-5.3-3.74-6.77C357.94,24.73,291.42,1,226.73,1S95.52,24.73,11.05,77.94c-2.33,1.46-3.74,4.02-3.74,6.77v169.49c0,65.1,29.11,121.87,81.97,159.86l132.78,95.43c1.4,1,3.03,1.5,4.67,1.5s3.27-.5,4.67-1.5l79.57-57.19c20.4,16.24,46.22,25.95,74.26,25.95,65.88,0,119.47-53.59,119.47-119.47,0-43.65-23.53-81.89-58.57-102.74h0Zm-219.39,237.1l-128.12-92.08c-48.56-34.9-75.31-87.06-75.31-146.87V89.14c153.46-95.67,253.38-95.67,406.84,0v158.96c-5.77-2.35-11.76-4.27-17.93-5.7V103.66c0-2.81-1.47-5.41-3.88-6.86-71.06-42.74-127.07-61.81-181.62-61.81,0,0,0,0,0,0-54.54,0-110.56,19.06-181.61,61.8-2.4,1.45-3.88,4.05-3.88,6.86v150.54c0,54.66,23.46,100.41,67.84,132.31l112.98,81.2c1.4,1,3.03,1.5,4.67,1.5s3.27-.5,4.67-1.5l56.08-40.3c3.46,4.91,7.27,9.55,11.41,13.88l-72.16,51.86Zm39.59-145.92h-119.3c-7.41,0-13.45-6.03-13.45-13.45v-129.73c0-7.41,6.03-13.45,13.45-13.45h159.42c7.41,0,13.45,6.03,13.45,13.45v54.77c-29.53,19.36-50,51.45-53.57,88.4h0Zm21.48-172.62h-16.83v-28.35c0-24.39-19.85-44.24-44.24-44.24s-44.24,19.85-44.24,44.24v28.35h-16.83v-28.35c0-33.67,27.39-61.07,61.07-61.07s61.07,27.39,61.07,61.07v28.35Zm-32.83,0h-56.48v-28.35c0-15.57,12.67-28.24,28.24-28.24s28.24,12.67,28.24,28.24v28.35Zm51.47,0h-2.65v-28.35c0-42.49-34.57-77.07-77.07-77.07s-77.07,34.57-77.07,77.07v28.35h-2.65c-16.24,0-29.45,13.21-29.45,29.45v129.73c0,16.24,13.21,29.45,29.45,29.45h118.83c.67,18.14,5.39,35.26,13.29,50.47l-52.41,37.67-108.31-77.85c-40.02-28.77-61.18-70.02-61.18-119.32V108.2c127.74-75.85,211.24-75.85,338.98,0v131.64c-3.62-.33-7.29-.51-11-.51-17.58,0-34.29,3.82-49.33,10.67v-45.94c0-16.24-13.21-29.45-29.45-29.45h0Zm78.78,287.66c-57.05,0-103.47-46.42-103.47-103.47s46.42-103.47,103.47-103.47,103.47,46.42,103.47,103.47-46.42,103.47-103.47,103.47h0Zm68.22-156.18c-8.45-8.45-22.21-8.45-30.66,0l-57.59,57.59-15.94-20.05c-7.43-9.35-21.08-10.91-30.43-3.48-4.53,3.6-7.38,8.75-8.04,14.49-.66,5.75.96,11.41,4.56,15.93l30.38,38.23c.69.96,1.46,1.87,2.3,2.71,4.1,4.1,9.54,6.35,15.33,6.35s11.24-2.26,15.33-6.35l74.75-74.75c8.45-8.46,8.45-22.21,0-30.67h0Zm-11.31,19.35l-74.75,74.75c-1.07,1.07-2.5,1.66-4.02,1.66s-2.95-.59-4.02-1.66c-.24-.24-.46-.5-.65-.78-.1-.14-.19-.27-.3-.4l-30.51-38.4c-.94-1.18-1.36-2.66-1.19-4.16s.92-2.85,2.1-3.79c1.04-.83,2.28-1.23,3.52-1.23,1.67,0,3.32.73,4.43,2.13l21.51,27.07c1.42,1.79,3.53,2.88,5.81,3.01,2.27.13,4.5-.72,6.11-2.33l63.93-63.93c2.22-2.22,5.82-2.21,8.04,0,2.21,2.21,2.21,5.82,0,8.04h0Z"/>
</svg>