<svg width="221" height="60" viewBox="0 0 221 60" fill="none" xmlns="http://www.w3.org/2000/svg">
<mask id="path-1-inside-1_1888_15330" fill="white">
<path fill-rule="evenodd" clip-rule="evenodd" d="M10 0H211C211 5.52285 215.477 10 221 10V50C215.477 50 211 54.4772 211 60H10C10 54.4772 5.52285 50 0 50V10C5.52285 10 10 5.52285 10 0Z"/>
</mask>
<path d="M211 0H213V-2H211V0ZM10 0V-2H8V0H10ZM221 10H223V8H221V10ZM221 50V52H223V50H221ZM211 60V62H213V60H211ZM10 60H8V62H10V60ZM0 50H-2V52H0V50ZM0 10V8H-2V10H0ZM211 -2H10V2H211V-2ZM221 8C216.582 8 213 4.41828 213 0H209C209 6.62742 214.373 12 221 12V8ZM223 50V10H219V50H223ZM213 60C213 55.5817 216.582 52 221 52V48C214.373 48 209 53.3726 209 60H213ZM10 62H211V58H10V62ZM0 52C4.41828 52 8 55.5817 8 60H12C12 53.3726 6.62742 48 0 48V52ZM-2 10V50H2V10H-2ZM8 0C8 4.41828 4.41828 8 0 8V12C6.62742 12 12 6.62742 12 0H8Z" fill="#00AAEA" mask="url(#path-1-inside-1_1888_15330)"/>
</svg>
