<svg width="48" height="48" viewBox="0 0 48 48" fill="none" xmlns="http://www.w3.org/2000/svg">
<g clip-path="url(#clip0_417_12734)">
<path d="M22.0165 22.7374H26.2385V16.406H19.9062V18.5154H24.1291V20.6281H19.9071V26.9595H26.2393V24.8501H22.0165V22.7374Z" fill="#FAC211"/>
<path d="M34.6791 26.9601V16.405H32.57V20.6279H30.457V16.405H28.3477V22.7373H32.57V26.9601H34.6791Z" fill="#FAC211"/>
<path d="M35.4836 14.079L33.9922 12.5873L35.9824 10.5972L37.4738 12.0886L35.4836 14.079Z" fill="#FAC211"/>
<path d="M29.9131 7.0376L31.8619 7.84482L30.7846 10.4456L28.8359 9.63806L29.9131 7.0376Z" fill="#FAC211"/>
<path d="M22.9492 6.07056H25.0586V8.88525H22.9492V6.07056Z" fill="#FAC211"/>
<path d="M17.2139 10.4446L16.1367 7.84409L18.0857 7.03687L19.1629 9.63733L17.2139 10.4446Z" fill="#FAC211"/>
<path d="M12.5175 14.0788L10.5273 12.0886L12.019 10.5969L14.0092 12.5874L12.5175 14.0788Z" fill="#FAC211"/>
<path d="M35.9826 37.5451L33.9922 35.5546L35.4839 34.0632L37.474 36.0534L35.9826 37.5451Z" fill="#FAC211"/>
<path d="M40.2257 31.9327L37.625 30.8555L38.4322 28.9065L41.033 29.9837L40.2257 31.9327Z" fill="#FAC211"/>
<path d="M39.1875 23.0161H42.0022V25.1255H39.1875V23.0161Z" fill="#FAC211"/>
<path d="M40.2294 16.2087L41.0366 18.1577L38.4361 19.2349L37.6289 17.2859L40.2294 16.2087Z" fill="#FAC211"/>
<path d="M22.0556 33.7979V36.3915C19.504 35.7669 17.2219 34.4483 15.4218 32.6482L12.1182 33.069L11.6875 36.3824C15.2015 39.8964 20.0558 42.0698 25.4177 42.0698H29.5538V33.7979H22.0556Z" fill="#E5A300"/>
<path d="M11.6783 26.0143H14.2719V18.5161H6V22.6522C6 28.0141 8.17337 32.8684 11.6874 36.3824L15.4216 32.6481C13.6212 30.848 12.3029 28.5659 11.6783 26.0143Z" fill="#FAC211"/>
</g>
<defs>
<clipPath id="clip0_417_12734">
<rect width="36.0001" height="36" fill="white" transform="translate(6 6)"/>
</clipPath>
</defs>
</svg>
