<svg width="40" height="40" viewBox="0 0 40 40" fill="none" xmlns="http://www.w3.org/2000/svg">
<path d="M31.3767 9.90463C31.2948 10.0874 31.2066 10.2701 31.1184 10.4591C30.9168 10.8875 30.6962 11.3286 30.4631 11.776C29.9085 12.8651 29.3202 13.9368 28.6989 14.9894C28.6364 15.0965 28.5535 15.1903 28.4547 15.2654C28.356 15.3405 28.2435 15.3954 28.1235 15.427C28.0036 15.4586 27.8786 15.4662 27.7557 15.4495C27.6328 15.4328 27.5144 15.3921 27.4072 15.3296C27.3001 15.2671 27.2063 15.1842 27.1312 15.0854C27.0561 14.9867 27.0012 14.8742 26.9696 14.7542C26.9058 14.512 26.9408 14.2543 27.067 14.0379C27.8483 12.7022 28.5351 11.4357 29.121 10.2512C29.2219 10.0495 29.3227 9.84792 29.4172 9.6463C29.6188 9.21784 29.8015 8.81459 29.9653 8.44285C29.1421 7.69788 28.2399 7.04503 27.2749 6.49591C29.6125 4.37254 30.8097 3.89998 31.1751 3.89998C31.2885 4.24023 31.2255 5.53189 29.9653 8.44285C30.4689 8.89699 30.9405 9.38542 31.3767 9.90463C33.9159 4.37884 33.122 2.94226 32.284 2.34369C31.4523 1.74512 29.8393 1.46158 25.454 5.59489C22.2134 4.26024 18.6167 4.06042 15.2482 5.02788C11.8797 5.99533 8.93716 8.07324 6.89865 10.9241C4.86014 13.7749 3.84535 17.2312 4.01912 20.7316C4.19289 24.232 5.545 27.5708 7.85585 30.2057C5.36703 35.637 6.16723 37.0547 6.99894 37.6533C7.30806 37.8836 7.6846 38.0055 8.07007 37.9998C9.10971 37.9998 10.8046 37.25 13.7975 34.421C13.1659 34.1739 12.5531 33.8812 11.964 33.5452C11.2173 34.2423 10.4144 34.8766 9.56336 35.4417C9.13592 35.7706 8.63749 35.995 8.10788 36.097C7.98816 35.763 8.04487 34.4966 9.27983 31.636C10.1014 32.3695 11.0016 33.0098 11.964 33.5452C12.2664 33.2679 12.594 32.9655 12.9343 32.6315C13.0855 32.4803 13.243 32.3291 13.4005 32.1716C15.5446 29.99 17.5561 27.6818 19.4241 25.2596C19.5778 25.0624 19.8036 24.9344 20.0518 24.9037C20.2999 24.873 20.5501 24.9421 20.7473 25.0958C20.9445 25.2495 21.0725 25.4753 21.1032 25.7235C21.1339 25.9716 21.0648 26.2218 20.9111 26.419C19.1515 28.6923 17.2756 30.8732 15.2908 32.9529C14.9379 33.3183 14.5914 33.6649 14.2512 33.9925C14.0936 34.1437 13.9424 34.2887 13.7975 34.421C15.6261 35.1564 17.5792 35.5329 19.5501 35.5299C22.5203 35.5329 25.429 34.6843 27.9317 33.0848C30.4343 31.4852 32.4259 29.2018 33.6706 26.505C34.9152 23.8082 35.3606 20.8112 34.9541 17.869C34.5475 14.9268 33.306 12.1628 31.3767 9.90463ZM26.0652 17.5034L26.5377 20.0741L27.1426 19.3117C27.235 19.2063 27.3489 19.1219 27.4765 19.0641C27.6042 19.0062 27.7428 18.9763 27.8829 18.9763C28.0231 18.9763 28.1616 19.0062 28.2893 19.0641C28.417 19.1219 28.5308 19.2063 28.6233 19.3117L29.2282 20.0741L29.7007 17.5034C29.7202 17.3787 29.7645 17.2593 29.831 17.152C29.8974 17.0448 29.9846 16.9519 30.0875 16.8789C30.1904 16.8059 30.3068 16.7542 30.43 16.727C30.5531 16.6997 30.6805 16.6973 30.8046 16.72C30.9287 16.7427 31.047 16.7901 31.1525 16.8592C31.258 16.9284 31.3486 17.0179 31.419 17.1226C31.4893 17.2274 31.538 17.3451 31.5621 17.4689C31.5862 17.5927 31.5853 17.7201 31.5594 17.8436L30.7088 22.4558C30.6753 22.6342 30.5918 22.7994 30.4679 22.9322C30.3441 23.0649 30.1851 23.1597 30.0095 23.2056C29.933 23.2233 29.8548 23.2317 29.7763 23.2308C29.6342 23.2312 29.4938 23.199 29.366 23.1368C29.2382 23.0745 29.1264 22.9838 29.0391 22.8716L27.8798 21.4225L26.7267 22.8716C26.6146 23.0151 26.4634 23.1229 26.2913 23.1822C26.1192 23.2415 25.9336 23.2496 25.7569 23.2056C25.5803 23.1616 25.4202 23.0674 25.296 22.9343C25.1718 22.8012 25.0888 22.635 25.057 22.4558L24.2064 17.8436C24.1805 17.7201 24.1796 17.5927 24.2038 17.4689C24.2279 17.3451 24.2766 17.2274 24.3469 17.1226C24.4173 17.0179 24.5079 16.9284 24.6134 16.8592C24.7189 16.7901 24.8372 16.7427 24.9613 16.72C25.0853 16.6973 25.2127 16.6997 25.3359 16.727C25.459 16.7542 25.5755 16.8059 25.6784 16.8789C25.7813 16.9519 25.8685 17.0448 25.9349 17.152C26.0013 17.2593 26.0456 17.3787 26.0652 17.5034ZM15.0199 17.8436L14.1692 22.4558C14.1357 22.6342 14.0522 22.7994 13.9283 22.9322C13.8045 23.0649 13.6455 23.1597 13.4699 23.2056C13.3934 23.2233 13.3152 23.2317 13.2367 23.2308C13.0946 23.2312 12.9542 23.199 12.8264 23.1368C12.6987 23.0745 12.5868 22.9838 12.4995 22.8716L11.3465 21.4225L10.1871 22.8716C10.075 23.0151 9.92379 23.1229 9.75168 23.1822C9.57956 23.2415 9.39396 23.2496 9.21732 23.2056C9.04069 23.1616 8.88058 23.0674 8.75637 22.9343C8.63216 22.8012 8.54917 22.635 8.51743 22.4558L7.66682 17.8436C7.64094 17.7201 7.64003 17.5927 7.66416 17.4689C7.68829 17.3451 7.73696 17.2274 7.80731 17.1226C7.87766 17.0179 7.96826 16.9284 8.07377 16.8592C8.17928 16.7901 8.29757 16.7427 8.42166 16.72C8.54575 16.6973 8.67313 16.6997 8.79629 16.727C8.91946 16.7542 9.03591 16.8059 9.13879 16.8789C9.24167 16.9519 9.32889 17.0448 9.39532 17.152C9.46175 17.2593 9.50603 17.3787 9.52556 17.5034L9.99812 20.0741L10.603 19.3117C10.6954 19.2063 10.8093 19.1219 10.937 19.0641C11.0646 19.0062 11.2032 18.9763 11.3433 18.9763C11.4835 18.9763 11.6221 19.0062 11.7497 19.0641C11.8774 19.1219 11.9913 19.2063 12.0837 19.3117L12.6886 20.0741L13.1611 17.5034C13.1806 17.3787 13.2249 17.2593 13.2914 17.152C13.3578 17.0448 13.445 16.9519 13.5479 16.8789C13.6508 16.8059 13.7672 16.7542 13.8904 16.727C14.0135 16.6997 14.1409 16.6973 14.265 16.72C14.3891 16.7427 14.5074 16.7901 14.6129 16.8592C14.7184 16.9284 14.809 17.0179 14.8794 17.1226C14.9497 17.2274 14.9984 17.3451 15.0225 17.4689C15.0466 17.5927 15.0457 17.7201 15.0199 17.8436ZM20.7662 22.8716L19.6131 21.4225L18.4601 22.8716C18.3465 23.0134 18.1951 23.1201 18.0233 23.1792C17.8515 23.2383 17.6665 23.2475 17.4898 23.2056C17.3136 23.1608 17.154 23.0663 17.03 22.9334C16.906 22.8004 16.8228 22.6347 16.7904 22.4558L15.9398 17.8436C15.9139 17.7201 15.913 17.5927 15.9371 17.4689C15.9612 17.3451 16.0099 17.2274 16.0803 17.1226C16.1506 17.0179 16.2412 16.9284 16.3467 16.8592C16.4522 16.7901 16.5705 16.7427 16.6946 16.72C16.8187 16.6973 16.9461 16.6997 17.0692 16.727C17.1924 16.7542 17.3089 16.8059 17.4117 16.8789C17.5146 16.9519 17.6018 17.0448 17.6683 17.152C17.7347 17.2593 17.779 17.3787 17.7985 17.5034L18.2711 20.0741L18.8759 19.3117C18.9677 19.2064 19.081 19.1219 19.2082 19.0641C19.3353 19.0062 19.4734 18.9763 19.6131 18.9763C19.7528 18.9763 19.8909 19.0062 20.0181 19.0641C20.1452 19.1219 20.2585 19.2064 20.3503 19.3117L20.9552 20.0741L21.4278 17.5034C21.4473 17.3787 21.4916 17.2593 21.558 17.152C21.6244 17.0448 21.7117 16.9519 21.8145 16.8789C21.9174 16.8059 22.0339 16.7542 22.157 16.727C22.2802 16.6997 22.4076 16.6973 22.5317 16.72C22.6558 16.7427 22.774 16.7901 22.8796 16.8592C22.9851 16.9284 23.0757 17.0179 23.146 17.1226C23.2164 17.2274 23.265 17.3451 23.2892 17.4689C23.3133 17.5927 23.3124 17.7201 23.2865 17.8436L22.4359 22.4558C22.4034 22.6347 22.3203 22.8004 22.1963 22.9334C22.0723 23.0663 21.9127 23.1608 21.7365 23.2056C21.6622 23.2233 21.586 23.2317 21.5097 23.2308C21.3666 23.2312 21.2254 23.1991 21.0965 23.1369C20.9677 23.0747 20.8548 22.984 20.7662 22.8716Z" fill="#FAC211"/>
</svg>
