<?xml version="1.0" encoding="UTF-8"?>
<svg id="Layer_1" data-name="Layer 1" xmlns="http://www.w3.org/2000/svg" xmlns:xlink="http://www.w3.org/1999/xlink" viewBox="0 0 512 512">
  <defs>
    <style>
      .cls-1 {
        fill: url(#linear-gradient-2);
      }

      .cls-2 {
        fill: url(#linear-gradient-3);
      }

      .cls-3 {
        fill: url(#linear-gradient);
      }
    </style>
    <linearGradient id="linear-gradient" x1="123.87" y1="305.55" x2="189.94" y2="305.55" gradientUnits="userSpaceOnUse">
      <stop offset="0" stop-color="#f9c213"/>
      <stop offset="1" stop-color="#ffd86c"/>
    </linearGradient>
    <linearGradient id="linear-gradient-2" x1="0" y1="256" x2="512" y2="256" xlink:href="#linear-gradient"/>
    <linearGradient id="linear-gradient-3" x1="322.06" y1="294.81" x2="404.65" y2="294.81" xlink:href="#linear-gradient"/>
  </defs>
  <path class="cls-3" d="m165.16,330.32h-16.52c-4.56,0-8.26-3.7-8.26-8.26h-16.52c0,13.66,11.12,24.77,24.77,24.77v16.52h16.52v-16.52c13.66,0,24.77-11.12,24.77-24.77s-11.12-24.77-24.77-24.77h-16.52c-4.56,0-8.26-3.7-8.26-8.26s3.7-8.26,8.26-8.26h16.52c4.56,0,8.26,3.7,8.26,8.26h16.52c0-13.66-11.12-24.77-24.77-24.77v-16.52h-16.52v16.52c-13.66,0-24.77,11.12-24.77,24.77s11.12,24.77,24.77,24.77h16.52c4.56,0,8.26,3.7,8.26,8.26s-3.7,8.26-8.26,8.26Z"/>
  <path class="cls-1" d="m495.48,132.13h-66.06V28.19L457.61,0h-77.74v16.52h37.87l-62.65,62.65-49.55-49.55-49.55,49.55-24.77-24.77-80.16,80.16,11.68,11.68,68.48-68.48,16.52,16.52v37.87h-16.52c-9.11,0-16.52,7.41-16.52,16.52v16.52c0,9.11,7.41,16.52,16.52,16.52v71.8c-16.45-23.4-43.6-38.77-74.32-38.77-47.92,0-87.2,37.33-90.52,84.42l-12.3-.91-3.39-44.12c-.98-12.82-11.84-22.87-24.71-22.87H0v16.52h25.99c4.29,0,7.9,3.35,8.23,7.62l14.77,191.92c-13.91,3.88-24.21,16.54-24.21,31.69,0,18.22,14.81,33.03,33.03,33.03s33.03-14.81,33.03-33.03c0-6.04-1.75-11.64-4.59-16.52h133.05c-2.84,4.88-4.59,10.47-4.59,16.52,0,18.22,14.81,33.03,33.03,33.03,14.7,0,27.05-9.71,31.31-23.02,23.25,4.2,52.75,6.5,84.3,6.5,13.53,0,132.13-.92,132.13-33.03V181.68c9.11,0,16.52-7.41,16.52-16.52v-16.52c0-9.11-7.41-16.52-16.52-16.52Zm-82.58,0h-16.52V61.23l16.52-16.52v87.42Zm-66.06,0h-16.52v-54.39l16.52,16.52v37.87Zm16.52-37.87l16.52-16.52v54.39h-16.52v-37.87Zm-49.55-33.03v70.9h-16.52V61.23l8.26-8.26,8.26,8.26Zm-49.55,33.03l16.52-16.52v54.39h-16.52v-37.87Zm-16.52,136.97h66.28c-20.13,15.07-33.25,39.04-33.25,66.06s13.11,50.99,33.25,66.06h-41.51v-48.96l-24.77-1.83v-81.33Zm181.68,66.06c0,36.43-29.64,66.06-66.06,66.06s-66.06-29.64-66.06-66.06,29.64-66.06,66.06-66.06,66.06,29.64,66.06,66.06Zm-16.73-66.06h66.28v132.13h-66.28c20.13-15.07,33.25-39.04,33.25-66.06s-13.11-50.99-33.25-66.06Zm-255.79,0c40.98,0,74.32,33.34,74.32,74.32s-33.34,74.32-74.32,74.32-74.32-33.34-74.32-74.32,33.34-74.32,74.32-74.32Zm-90.24,84.48c5.08,45.32,43.59,80.68,90.24,80.68,42.01,0,77.35-28.71,87.68-67.5l11.41.85v74.91c0,4.56-3.7,8.26-8.26,8.26H62.91l-7.54-98.03,11.3.83Zm164.56,113.71v16.52H65.45l-1.27-16.52h167.04Zm-156.9,49.55c0,9.11-7.41,16.52-16.52,16.52s-16.52-7.41-16.52-16.52,7.41-16.52,16.52-16.52,16.52,7.41,16.52,16.52Zm173.42,16.52c-9.11,0-16.52-7.41-16.52-16.52s7.41-16.52,16.52-16.52,16.52,7.41,16.52,16.52-7.41,16.52-16.52,16.52Zm115.61-16.52c-31.03,0-60.87-2.4-83.25-6.61-3.07-15.06-16.41-26.43-32.36-26.43v-16.52c13.66,0,24.77-11.12,24.77-24.77v-24.77h206.45v81.7c-5.3,6.11-44.37,17.4-115.61,17.4h0Zm115.61-264.26h-231.23v-33.03h231.23v33.03Zm16.52-49.55H231.23v-16.52h264.26v16.52Z"/>
  <path class="cls-2" d="m360.89,346.84h4.94c21.4,0,38.82-17.42,38.82-38.82,0-8.78-3.02-17.4-8.51-24.26l-32.78-40.98-32.78,40.98c-5.49,6.85-8.51,15.48-8.51,24.26,0,21.4,17.42,38.82,38.82,38.82Zm-17.41-52.76l19.88-24.86,19.89,24.87c3.15,3.93,4.89,8.89,4.89,13.93,0,12.3-10.01,22.31-22.31,22.31h-4.94c-12.3,0-22.31-10.01-22.31-22.31,0-5.05,1.73-10,4.9-13.94h0Z"/>
</svg>