<?xml version="1.0" encoding="UTF-8"?>
<svg id="Layer_1" data-name="Layer 1" xmlns="http://www.w3.org/2000/svg" xmlns:xlink="http://www.w3.org/1999/xlink" viewBox="0 0 512 512">
  <defs>
    <style>
      .cls-1 {
        fill: url(#linear-gradient-2);
      }

      .cls-2 {
        fill: url(#linear-gradient-17);
      }

      .cls-3 {
        fill: url(#linear-gradient-15);
      }

      .cls-4 {
        fill: url(#linear-gradient-18);
      }

      .cls-5 {
        fill: url(#linear-gradient-14);
      }

      .cls-6 {
        fill: url(#linear-gradient-20);
      }

      .cls-7 {
        fill: url(#linear-gradient-6);
      }

      .cls-8 {
        fill: url(#linear-gradient-11);
      }

      .cls-9 {
        fill: url(#linear-gradient-10);
      }

      .cls-10 {
        fill: url(#linear-gradient-16);
      }

      .cls-11 {
        fill: url(#linear-gradient-21);
      }

      .cls-12 {
        fill: url(#linear-gradient-25);
      }

      .cls-13 {
        fill: url(#linear-gradient-5);
      }

      .cls-14 {
        fill: url(#linear-gradient-7);
      }

      .cls-15 {
        fill: url(#linear-gradient-24);
      }

      .cls-16 {
        fill: url(#linear-gradient-9);
      }

      .cls-17 {
        fill: url(#linear-gradient-22);
      }

      .cls-18 {
        fill: url(#linear-gradient-3);
      }

      .cls-19 {
        fill: url(#linear-gradient);
      }

      .cls-20 {
        fill: url(#linear-gradient-23);
      }

      .cls-21 {
        fill: url(#linear-gradient-19);
      }

      .cls-22 {
        fill: url(#linear-gradient-4);
      }

      .cls-23 {
        fill: url(#linear-gradient-8);
      }

      .cls-24 {
        fill: url(#linear-gradient-12);
      }

      .cls-25 {
        fill: url(#linear-gradient-13);
      }
    </style>
    <linearGradient id="linear-gradient" x1="158.75" y1="469.06" x2="486.4" y2="469.06" gradientUnits="userSpaceOnUse">
      <stop offset="0" stop-color="#f9c213"/>
      <stop offset="1" stop-color="#ffd86c"/>
    </linearGradient>
    <linearGradient id="linear-gradient-2" x1="338.52" y1="349.11" x2="386.52" y2="349.11" xlink:href="#linear-gradient"/>
    <linearGradient id="linear-gradient-3" x1="338.52" y1="397.71" x2="413.16" y2="397.71" xlink:href="#linear-gradient"/>
    <linearGradient id="linear-gradient-4" x1="232" y1="373.41" x2="319.95" y2="373.41" xlink:href="#linear-gradient"/>
    <linearGradient id="linear-gradient-5" x1="205.36" y1="301.5" x2="379.86" y2="301.5" xlink:href="#linear-gradient"/>
    <linearGradient id="linear-gradient-6" x1="371.81" y1="301.5" x2="399.85" y2="301.5" xlink:href="#linear-gradient"/>
    <linearGradient id="linear-gradient-7" x1="391.8" y1="301.5" x2="419.83" y2="301.5" xlink:href="#linear-gradient"/>
    <linearGradient id="linear-gradient-8" x1="411.78" y1="301.5" x2="439.79" y2="301.5" xlink:href="#linear-gradient"/>
    <linearGradient id="linear-gradient-9" x1="220.11" y1="201.95" x2="245.1" y2="201.95" xlink:href="#linear-gradient"/>
    <linearGradient id="linear-gradient-10" x1="198.71" y1="96.72" x2="239.87" y2="96.72" xlink:href="#linear-gradient"/>
    <linearGradient id="linear-gradient-11" x1="198.71" y1="151.19" x2="266.5" y2="151.19" xlink:href="#linear-gradient"/>
    <linearGradient id="linear-gradient-12" x1="311.2" y1="141.6" x2="413.87" y2="141.6" xlink:href="#linear-gradient"/>
    <linearGradient id="linear-gradient-13" x1="265.28" y1="122.84" x2="459.76" y2="122.84" xlink:href="#linear-gradient"/>
    <linearGradient id="linear-gradient-14" x1="298.57" y1="134.38" x2="426.47" y2="134.38" xlink:href="#linear-gradient"/>
    <linearGradient id="linear-gradient-15" x1="327.59" y1="196.87" x2="397.45" y2="196.87" xlink:href="#linear-gradient"/>
    <linearGradient id="linear-gradient-16" x1="71.51" y1="366.98" x2="174.15" y2="366.98" xlink:href="#linear-gradient"/>
    <linearGradient id="linear-gradient-17" x1="80.17" y1="333.97" x2="165.49" y2="333.97" xlink:href="#linear-gradient"/>
    <linearGradient id="linear-gradient-18" x1="25.6" y1="362.53" x2="220.07" y2="362.53" xlink:href="#linear-gradient"/>
    <linearGradient id="linear-gradient-19" x1="87.9" y1="436.56" x2="157.76" y2="436.56" xlink:href="#linear-gradient"/>
    <linearGradient id="linear-gradient-20" x1="172.06" y1="122.85" x2="293.14" y2="122.85" xlink:href="#linear-gradient"/>
    <linearGradient id="linear-gradient-21" x1="172.07" y1="120.01" x2="293.14" y2="120.01" xlink:href="#linear-gradient"/>
    <linearGradient id="linear-gradient-22" x1="205.36" y1="373.41" x2="439.79" y2="373.41" xlink:href="#linear-gradient"/>
    <linearGradient id="linear-gradient-23" x1="185.38" y1="362.54" x2="459.77" y2="362.54" xlink:href="#linear-gradient"/>
    <linearGradient id="linear-gradient-24" x1="358.49" y1="242.68" x2="366.54" y2="242.68" xlink:href="#linear-gradient"/>
    <linearGradient id="linear-gradient-25" x1="118.81" y1="194.67" x2="180.12" y2="194.67" xlink:href="#linear-gradient"/>
  </defs>
  <path class="cls-19" d="m460.19,486.4H184.98c-3.1,0-7.5-1.04-10.23-2.42l-9.8-4.9c-3.53-1.75-6.2-6.06-6.2-10.03v-4.44c0-7.11,5.79-12.89,12.91-12.89h301.86c7.11,0,12.89,5.78,12.89,12.89v4.44c0,3.96-2.66,8.27-6.19,10.04l-9.82,4.91c-2.7,1.37-7.1,2.41-10.21,2.41h0Zm-288.53-26.64c-2.68,0-4.86,2.17-4.86,4.84v4.44c0,.92.92,2.42,1.73,2.83l9.83,4.91c1.63.82,4.77,1.56,6.61,1.56h275.21c1.81,0,5.01-.75,6.58-1.55l9.84-4.92c.81-.41,1.74-1.91,1.74-2.83v-4.44c0-2.67-2.17-4.84-4.84-4.84H171.65Z"/>
  <path class="cls-1" d="m382.5,364.13h-39.95c-2.22,0-4.02-1.8-4.02-4.03v-22c0-2.22,1.8-4.02,4.02-4.02h39.95c2.22,0,4.03,1.8,4.03,4.02v22c0,2.22-1.8,4.03-4.03,4.03Zm-35.93-8.05h31.9v-13.95h-31.9v13.95Z"/>
  <path class="cls-18" d="m409.14,412.73h-66.59c-2.22,0-4.02-1.8-4.02-4.03v-21.99c0-2.22,1.8-4.02,4.02-4.02h66.59c2.22,0,4.02,1.8,4.02,4.02v21.99c0,2.22-1.8,4.03-4.02,4.03Zm-62.57-8.05h58.54v-13.94h-58.54v13.94Z"/>
  <path class="cls-22" d="m315.92,412.73h-79.89c-2.22,0-4.02-1.8-4.02-4.03v-70.6c0-2.22,1.8-4.02,4.02-4.02h79.89c2.22,0,4.02,1.8,4.02,4.02v70.6c0,2.22-1.8,4.03-4.02,4.03Zm-75.87-8.05h71.84v-62.55h-71.84v62.55Z"/>
  <path class="cls-13" d="m375.84,315.5h-166.46c-2.22,0-4.02-1.8-4.02-4.02v-19.96c0-2.22,1.8-4.03,4.02-4.03h166.46c2.22,0,4.02,1.8,4.02,4.03v19.96c0,2.22-1.8,4.02-4.03,4.02Zm-162.43-8.05h158.41v-11.91h-158.41v11.91Z"/>
  <path class="cls-7" d="m395.82,315.5h-19.98c-2.22,0-4.03-1.8-4.03-4.02v-19.96c0-2.22,1.8-4.03,4.03-4.03h19.98c2.22,0,4.03,1.8,4.03,4.03v19.96c0,2.22-1.8,4.02-4.03,4.02Zm-15.96-8.05h11.94v-11.91h-11.94v11.91Z"/>
  <path class="cls-14" d="m415.8,315.5h-19.98c-2.22,0-4.02-1.8-4.02-4.02v-19.96c0-2.22,1.8-4.03,4.02-4.03h19.98c2.22,0,4.03,1.8,4.03,4.03v19.96c0,2.22-1.8,4.02-4.03,4.02Zm-15.95-8.05h11.93v-11.91h-11.93v11.91Z"/>
  <path class="cls-23" d="m435.76,315.5h-19.96c-2.22,0-4.02-1.8-4.02-4.02v-19.96c0-2.22,1.8-4.03,4.02-4.03h19.96c2.22,0,4.03,1.8,4.03,4.03v19.96c0,2.22-1.8,4.02-4.03,4.02Zm-15.94-8.05h11.91v-11.91h-11.91v11.91Z"/>
  <path class="cls-16" d="m241.08,205.97h-16.94c-2.22,0-4.02-1.8-4.02-4.02s1.8-4.03,4.02-4.03h16.94c2.22,0,4.02,1.8,4.02,4.03s-1.8,4.02-4.02,4.02h0Z"/>
  <path class="cls-9" d="m235.84,118.6h-33.1c-2.22,0-4.02-1.8-4.02-4.03v-35.71c0-2.22,1.8-4.02,4.02-4.02h33.1c2.22,0,4.02,1.8,4.02,4.02v35.71c0,2.22-1.8,4.02-4.02,4.02Zm-29.08-8.05h25.05v-27.66h-25.05v27.66Z"/>
  <path class="cls-8" d="m262.48,165.2h-59.74c-2.22,0-4.02-1.8-4.02-4.02v-19.96c0-2.22,1.8-4.02,4.02-4.02h59.74c2.22,0,4.02,1.8,4.02,4.02v19.96c0,2.22-1.8,4.02-4.02,4.02Zm-55.71-8.05h51.69v-11.91h-51.69v11.91Z"/>
  <path class="cls-24" d="m362.51,186.97c-15.91,0-30.2-12.93-37.71-33.92-7.82-2.24-13.6-12.05-13.6-23.9,0-7.15,4.55-13.57,11.32-15.99.44-.15.89-.23,1.35-.23h20.27c14.17,0,27.48-5.51,37.46-15.51.75-.76,1.78-1.18,2.85-1.18,2.22,0,4.05,1.8,4.05,4.03,0,6.99,5.68,12.67,12.65,12.67.46,0,.92.08,1.35.23,6.8,2.42,11.37,8.85,11.37,15.99,0,11.85-5.78,21.66-13.61,23.9-7.5,20.99-21.81,33.92-37.75,33.92h0Zm-37.87-66.01c-3.25,1.43-5.39,4.63-5.39,8.18,0,9.54,4.53,16.14,8.77,16.33,1.68.07,3.13,1.18,3.65,2.78,6.15,18.92,17.97,30.67,30.85,30.67s24.74-11.75,30.88-30.67c.52-1.6,1.97-2.7,3.65-2.78,4.15-.19,8.78-6.94,8.78-16.33,0-3.56-2.17-6.78-5.46-8.19-8.38-.32-15.49-5.64-18.45-13.05-10.71,8.47-23.88,13.07-37.77,13.07h-19.5Z"/>
  <path class="cls-25" d="m362.51,220.07c-53.61,0-97.23-43.62-97.23-97.25s43.62-97.22,97.23-97.22,97.25,43.61,97.25,97.22c0,53.62-43.63,97.25-97.25,97.25Zm0-186.42c-49.17,0-89.18,40-89.18,89.17s40.01,89.2,89.18,89.2,89.2-40.01,89.2-89.2-40.02-89.17-89.2-89.17Z"/>
  <path class="cls-5" d="m362.51,220.07c-22.83,0-45.03-8.1-62.51-22.8-.91-.76-1.43-1.89-1.43-3.08v-81.56c0-35.24,28.69-63.92,63.96-63.94,35.26.02,63.94,28.7,63.94,63.94v81.56c0,1.19-.53,2.32-1.43,3.08-17.49,14.7-39.7,22.8-62.52,22.8h0Zm-55.9-27.78c15.81,12.74,35.58,19.73,55.9,19.73s40.09-6.99,55.91-19.73v-79.66c0-30.8-25.07-55.87-55.89-55.89-30.83.02-55.91,25.09-55.91,55.89v79.66Z"/>
  <path class="cls-3" d="m362.51,220.07c-10.87,0-21.71-1.88-32.23-5.59-1.57-.56-2.64-2.02-2.69-3.69-.04-1.67.95-3.19,2.49-3.82l3.47-1.43c1.82-.76,3.48-1.87,4.79-3.2,2.84-2.82,4.38-6.56,4.38-10.56v-14.09c0-1.5.84-2.88,2.17-3.57,1.33-.69,2.94-.58,4.17.28,4.27,3,8.79,4.51,13.45,4.51s9.21-1.52,13.47-4.51c1.23-.86,2.84-.97,4.17-.28,1.33.69,2.17,2.07,2.17,3.57v14.09c0,3.99,1.55,7.73,4.35,10.53,1.36,1.36,3.04,2.47,4.86,3.23l3.44,1.43c1.54.64,2.52,2.16,2.48,3.83-.05,1.67-1.11,3.13-2.68,3.69-10.52,3.71-21.37,5.58-32.25,5.58h0Zm-20.25-10.44c13.39,3.18,27.16,3.17,40.53,0-.63-.5-1.23-1.04-1.8-1.61-4.34-4.32-6.72-10.08-6.72-16.23v-7.24c-3.78,1.61-7.71,2.42-11.76,2.42s-7.94-.83-11.73-2.44v7.26c0,6.15-2.39,11.92-6.73,16.23-.56.56-1.16,1.1-1.79,1.61h0Z"/>
  <path class="cls-10" d="m122.82,426.66c-15.94,0-30.24-12.94-37.72-33.93-7.82-2.24-13.59-12.04-13.59-23.88,0-6.17,3.39-11.8,8.67-14.79v-9.34c0-20.63,16.78-37.41,37.41-37.41,7.59,0,14.81,2.25,21.04,6.52,2.02-.64,4.07-.96,6.13-.96,11.43,0,20.72,9.29,20.72,20.72v20.47c5.28,2.99,8.67,8.62,8.67,14.79,0,11.84-5.78,21.64-13.59,23.88-7.51,21-21.81,33.93-37.74,33.93h0Zm-5.23-111.31c-16.19,0-29.37,13.17-29.37,29.36v11.91c0,1.7-1.07,3.22-2.67,3.79-3.59,1.29-6,4.68-6,8.44,0,9.38,4.62,16.12,8.76,16.31,1.68.07,3.13,1.18,3.65,2.78,6.12,18.92,17.95,30.67,30.85,30.67s24.73-11.75,30.87-30.68c.52-1.6,1.97-2.7,3.65-2.78,4.14-.18,8.76-6.93,8.76-16.31,0-3.76-2.41-7.15-6-8.43-1.6-.57-2.67-2.09-2.67-3.79v-23.04c0-6.99-5.69-12.67-12.68-12.67-1.71,0-3.43.38-5.13,1.13-1.35.6-2.93.41-4.1-.51-5.19-4.04-11.4-6.18-17.95-6.18Z"/>
  <path class="cls-2" d="m161.47,360.65c-8.72,0-16.21-5.41-19.26-13.05-10.72,8.46-23.88,13.05-37.74,13.05h-20.27c-2.22,0-4.02-1.8-4.02-4.03,0-.07,0-.15,0-.22v-11.69c0-20.63,16.78-37.41,37.41-37.41,7.59,0,14.81,2.25,21.04,6.52,2.01-.64,4.07-.96,6.14-.96,11.43,0,20.72,9.29,20.72,20.72v23.04c0,2.22-1.8,4.03-4.02,4.03h0Zm-73.24-8.05h16.24c14.14,0,27.44-5.5,37.45-15.5,1.15-1.15,2.88-1.49,4.38-.87,1.5.62,2.48,2.09,2.48,3.72,0,5.57,3.63,10.31,8.65,12v-18.36c0-6.99-5.69-12.67-12.67-12.67-1.71,0-3.44.38-5.12,1.13-1.36.6-2.93.41-4.1-.5-5.19-4.04-11.4-6.18-17.95-6.18-16.19,0-29.37,13.17-29.37,29.36v7.89Z"/>
  <path class="cls-4" d="m122.82,459.76c-53.61,0-97.22-43.63-97.22-97.25s43.61-97.23,97.22-97.23c53.62.01,97.25,43.63,97.25,97.23s-43.62,97.25-97.25,97.25Zm0-186.43c-49.17,0-89.17,40.01-89.17,89.18s40,89.2,89.17,89.2,89.2-40.02,89.2-89.2c0-49.16-40.01-89.17-89.2-89.18Z"/>
  <path class="cls-21" d="m122.82,459.76c-10.88,0-21.73-1.88-32.24-5.59-1.57-.56-2.64-2.02-2.68-3.69-.05-1.67.94-3.19,2.48-3.83l3.46-1.44c1.82-.75,3.49-1.86,4.84-3.21,2.82-2.82,4.37-6.56,4.37-10.54v-14.1c0-1.5.84-2.88,2.17-3.57,1.33-.69,2.94-.59,4.17.28,4.29,3.01,8.81,4.53,13.45,4.53s9.17-1.53,13.47-4.53c1.23-.86,2.84-.96,4.17-.27,1.33.69,2.17,2.07,2.17,3.57v14.1c0,3.97,1.55,7.71,4.37,10.54,1.36,1.35,3.04,2.46,4.83,3.21l3.46,1.44c1.54.64,2.52,2.16,2.48,3.83-.05,1.67-1.11,3.13-2.68,3.68-10.52,3.71-21.38,5.59-32.25,5.59h0Zm-20.26-10.44c13.38,3.18,27.16,3.18,40.55,0-.63-.5-1.23-1.04-1.8-1.6-4.35-4.36-6.74-10.12-6.74-16.24v-7.26c-7.58,3.24-15.91,3.24-23.48,0v7.25c0,6.13-2.39,11.89-6.72,16.23-.57.57-1.17,1.11-1.81,1.62h0Z"/>
  <path class="cls-6" d="m272.14,220.09h-79.09c-11.57,0-20.99-9.41-20.99-20.98V46.58c0-11.57,9.41-20.98,20.99-20.98h79.09c11.58,0,21,9.41,21,20.98v18.94c0,.9-.3,1.77-.85,2.48-12.39,15.85-18.94,34.81-18.94,54.83s6.55,38.99,18.94,54.83c.55.71.86,1.58.86,2.48v18.98c0,11.57-9.42,20.98-21,20.98h0ZM193.05,33.65c-7.13,0-12.94,5.8-12.94,12.93v152.54c0,7.13,5.8,12.93,12.94,12.93h79.09c7.14,0,12.95-5.8,12.95-12.93v-17.61c-12.96-17.04-19.8-37.3-19.8-58.68s6.84-41.63,19.8-58.68v-17.57c0-7.13-5.81-12.93-12.95-12.93h-79.09Z"/>
  <path class="cls-11" d="m289.12,191.83h-113.02c-2.22,0-4.02-1.8-4.02-4.02V52.21c0-2.22,1.8-4.02,4.02-4.02h113.02c2.22,0,4.03,1.8,4.03,4.02v13.3c0,.9-.3,1.77-.85,2.48-12.39,15.85-18.94,34.81-18.94,54.83s6.55,38.99,18.94,54.83c.55.71.85,1.58.85,2.48v7.67c0,2.22-1.8,4.02-4.03,4.02h0Zm-109-8.05h104.97v-2.28c-12.96-17.05-19.8-37.31-19.8-58.68s6.84-41.63,19.8-58.68v-7.91h-104.97v127.55Z"/>
  <path class="cls-17" d="m435.76,439.35h-226.38c-2.22,0-4.02-1.8-4.02-4.02v-38.34c0-.51.1-1.02.29-1.49,4.23-10.6,6.38-21.7,6.38-32.98s-2.15-22.36-6.38-32.96c-.19-.47-.29-.98-.29-1.49v-16.57c0-2.22,1.8-4.02,4.02-4.02h226.38c2.22,0,4.03,1.8,4.03,4.02v123.83c0,2.22-1.8,4.02-4.03,4.02Zm-222.36-8.05h218.34v-115.78h-218.34v11.78c4.42,11.34,6.67,23.18,6.67,35.22s-2.24,23.9-6.67,35.24v33.55Z"/>
  <path class="cls-20" d="m455.74,459.77H189.41c-2.22,0-4.02-1.8-4.02-4.02v-28.04c0-1.05.41-2.06,1.15-2.82,16.44-16.78,25.49-38.93,25.49-62.37s-9.05-45.58-25.49-62.37c-.74-.75-1.15-1.76-1.15-2.82v-10.26c0-12.01,9.77-21.79,21.78-21.79h230.82c12.01,0,21.78,9.77,21.78,21.78v168.67c0,2.22-1.8,4.02-4.02,4.02h0Zm-262.31-8.05h258.29v-164.65c0-7.57-6.16-13.73-13.73-13.73h-230.82c-7.57,0-13.73,6.16-13.73,13.74v8.64c17.19,18.15,26.64,41.81,26.64,66.8s-9.45,48.66-26.64,66.81v22.39Z"/>
  <path class="cls-15" d="m362.51,273.35c-2.22,0-4.02-1.8-4.02-4.03v-53.27c0-2.22,1.8-4.02,4.02-4.02s4.03,1.8,4.03,4.02v53.27c0,2.22-1.8,4.03-4.03,4.03Z"/>
  <path class="cls-12" d="m122.84,273.35c-2.22,0-4.02-1.8-4.02-4.03v-109.36c0-24.25,19.73-43.97,43.97-43.97h13.31c2.22,0,4.02,1.8,4.02,4.02s-1.8,4.03-4.02,4.03h-13.31c-19.81,0-35.92,16.12-35.92,35.93v109.36c0,2.22-1.8,4.02-4.02,4.02Z"/>
</svg>