<?xml version="1.0" encoding="UTF-8"?>
<svg id="Layer_1" data-name="Layer 1" xmlns="http://www.w3.org/2000/svg" xmlns:xlink="http://www.w3.org/1999/xlink" viewBox="0 0 512 512">
  <defs>
    <style>
      .cls-1 {
        fill: url(#linear-gradient-2);
      }

      .cls-2 {
        fill: url(#linear-gradient-5);
      }

      .cls-3 {
        fill: url(#linear-gradient-3);
      }

      .cls-4 {
        fill: url(#linear-gradient);
      }

      .cls-5 {
        fill: url(#linear-gradient-4);
      }
    </style>
    <linearGradient id="linear-gradient" x1=".92" y1="272.96" x2="511.08" y2="272.96" gradientUnits="userSpaceOnUse">
      <stop offset="0" stop-color="#f9c213"/>
      <stop offset="1" stop-color="#ffd86c"/>
    </linearGradient>
    <linearGradient id="linear-gradient-2" x1="71.7" y1="214.28" x2="126.44" y2="214.28" xlink:href="#linear-gradient"/>
    <linearGradient id="linear-gradient-3" x1="248.5" y1="125.22" x2="303.24" y2="125.22" xlink:href="#linear-gradient"/>
    <linearGradient id="linear-gradient-4" x1="406.63" y1="184.98" x2="472.68" y2="184.98" xlink:href="#linear-gradient"/>
    <linearGradient id="linear-gradient-5" x1="44.63" y1="298.87" x2="334.89" y2="298.87" xlink:href="#linear-gradient"/>
  </defs>
  <path class="cls-4" d="m463.43,71.5h-91.66v-30.08c0-4.14-3.36-7.5-7.5-7.5s-7.5,3.36-7.5,7.5v30.08h-31.05c-4.14,0-7.5,3.36-7.5,7.5s3.36,7.5,7.5,7.5h31.05v31.74h-5.63c-7.86,0-14.25,6.39-14.25,14.25v88.25c0,7.86,6.39,14.25,14.25,14.25h5.63v59.47c0,4.14,3.36,7.5,7.5,7.5s7.5-3.36,7.5-7.5v-59.47h5.63c7.85,0,14.25-6.39,14.25-14.25v-88.25c0-7.86-6.39-14.25-14.25-14.25h-5.63v-31.74h91.66c18.01,0,32.67,14.65,32.67,32.67v256.56H15.91V119.16c0-18.01,14.65-32.67,32.67-32.67h131.4v14.63h-5.63c-7.86,0-14.25,6.39-14.25,14.25v88.25c0,7.86,6.39,14.25,14.25,14.25h5.63v66.24c0,4.14,3.36,7.5,7.5,7.5s7.5-3.36,7.5-7.5v-66.24h5.63c7.86,0,14.25-6.39,14.25-14.25v-88.25c0-7.86-6.39-14.25-14.25-14.25h-5.63v-14.63h31.05c4.14,0,7.5-3.36,7.5-7.5s-3.36-7.5-7.5-7.5h-31.05v-3.7c0-4.14-3.36-7.5-7.5-7.5s-7.5,3.36-7.5,7.5v3.7H48.57C22.3,71.5.92,92.88.92,119.16v264.05c0,26.28,21.38,47.66,47.66,47.66h114.11v38.11l-24.16,28.02h-9.59c-4.14,0-7.5,3.36-7.5,7.5s3.36,7.5,7.5,7.5h253.44c4.14,0,7.5-3.36,7.5-7.5s-3.36-7.5-7.5-7.5h-8.9l-24.16-28.02v-38.11h114.11c26.28,0,47.66-21.38,47.66-47.66V119.16c0-26.28-21.38-47.66-47.66-47.66h0Zm-86.77,148.48h-24.75v-86.76h24.75v86.76h0Zm-176.8-17.11h-24.75v-86.75h24.75v86.75Zm263.58,213.01h-151.71c-4.14,0-7.5,3.36-7.5,7.5s3.36,7.5,7.5,7.5h22.61v33.4h-18.67c-4.14,0-7.5,3.36-7.5,7.5s3.36,7.5,7.5,7.5h22.73l15.3,17.74h-195.37l15.3-17.74h22.73c4.14,0,7.5-3.36,7.5-7.5s-3.36-7.5-7.5-7.5h-18.67v-33.4h102.1c4.14,0,7.5-3.36,7.5-7.5s-3.36-7.5-7.5-7.5H48.57c-15.43,0-28.39-10.76-31.79-25.17h478.43c-3.4,14.41-16.36,25.17-31.79,25.17h0Z"/>
  <path class="cls-1" d="m79.2,218.84c-4.14,0-7.5,3.36-7.5,7.5v18.1c0,7.86,6.39,14.25,14.25,14.25h5.63v39.92c0,4.14,3.36,7.5,7.5,7.5s7.5-3.36,7.5-7.5v-39.92h5.63c7.86,0,14.25-6.39,14.25-14.25v-88.25c0-7.86-6.39-14.25-14.25-14.25h-5.63v-11.99c0-4.14-3.36-7.5-7.5-7.5s-7.5,3.36-7.5,7.5v11.99h-5.63c-7.86,0-14.25,6.39-14.25,14.25v38.21c0,4.14,3.36,7.5,7.5,7.5s7.5-3.36,7.5-7.5v-37.46h24.75v86.76h-24.75v-17.35c0-4.14-3.36-7.5-7.5-7.5Z"/>
  <path class="cls-3" d="m262.75,203.03h5.63v39.92c0,4.14,3.36,7.5,7.5,7.5s7.5-3.36,7.5-7.5v-39.92h5.63c7.85,0,14.25-6.39,14.25-14.25v-58.79c0-4.14-3.36-7.5-7.5-7.5s-7.5,3.36-7.5,7.5v58.05h-24.75V52.31h24.75v45.73c0,4.14,3.36,7.5,7.5,7.5s7.5-3.36,7.5-7.5v-46.48c0-7.85-6.39-14.25-14.25-14.25h-5.63V7.5C283.37,3.36,280.01,0,275.87,0s-7.5,3.36-7.5,7.5v29.82h-5.63c-7.86,0-14.25,6.39-14.25,14.25v137.22c0,7.86,6.39,14.25,14.25,14.25h0Z"/>
  <path class="cls-5" d="m407.53,205.51c1.35,2.51,3.94,3.94,6.6,3.94,1.2,0,2.42-.29,3.55-.9l34.53-18.62-2.48,6.52c-1.47,3.87.47,8.2,4.34,9.67.88.33,1.78.49,2.67.49,3.02,0,5.87-1.84,7.01-4.83l8.44-22.15c1.47-3.87-.47-8.2-4.34-9.67l-23.51-8.96c-3.87-1.47-8.2.47-9.67,4.34s.47,8.2,4.34,9.67l5.45,2.08-33.87,18.26c-3.64,1.96-5.01,6.51-3.04,10.16h0Z"/>
  <path class="cls-2" d="m45.24,351.97c1.22,2.84,3.98,4.55,6.89,4.55.98,0,1.98-.19,2.95-.61l96.73-41.4,8.79,23.03c.77,2.02,2.37,3.6,4.39,4.35,2.02.75,4.27.6,6.17-.43l159.8-86.16c3.64-1.96,5.01-6.51,3.04-10.16-1.96-3.64-6.51-5.01-10.16-3.04l-152.28,82.11-8.53-22.34c-.73-1.91-2.2-3.43-4.08-4.23-1.88-.8-4-.79-5.87.01l-103.9,44.47c-3.8,1.63-5.57,6.04-3.94,9.84h0Z"/>
</svg>