<?xml version="1.0" encoding="UTF-8"?>
<svg id="Layer_1" data-name="Layer 1" xmlns="http://www.w3.org/2000/svg" xmlns:xlink="http://www.w3.org/1999/xlink" viewBox="0 0 512 512">
  <defs>
    <style>
      .cls-1 {
        fill: url(#linear-gradient);
        fill-rule: evenodd;
      }
    </style>
    <linearGradient id="linear-gradient" x1="83.48" y1="131.86" x2="393.79" y2="442.17" gradientTransform="translate(6.79 533.13) scale(1.02 -1.02)" gradientUnits="userSpaceOnUse">
      <stop offset="0" stop-color="#f9c213"/>
      <stop offset="1" stop-color="#ffd86c"/>
    </linearGradient>
  </defs>
  <path class="cls-1" d="m103.92,209.17c4.09,0,7.38,3.32,7.38,7.38s-3.29,7.39-7.38,7.39-7.38-3.32-7.38-7.39c0-4.06,3.29-7.38,7.38-7.38Zm0,28.16c11.48,0,20.79-9.32,20.79-20.78s-9.31-20.77-20.79-20.77-20.79,9.32-20.79,20.77,9.36,20.78,20.79,20.78h0Zm22.76,44.75h-45.53v-4.92c0-12.55,10.21-22.77,22.76-22.77s22.76,10.22,22.76,22.77v4.92Zm13.4,4.08v-9c0-19.94-16.23-36.16-36.17-36.16s-36.17,16.22-36.17,36.16v9c0,5.13,4.19,9.3,9.31,9.3h53.71c5.13,0,9.31-4.17,9.31-9.3Zm269.69-69.89c-3.25,1.24-6.63,2.1-10.21,2.58v3.05c0,3.7-3.01,6.69-6.73,6.69s-6.68-3-6.68-6.69v-2.96c-7.57-.71-14.86-2.51-21.73-5.36-3.43-1.42-5.03-5.33-3.62-8.75,1.41-3.41,5.31-5.03,8.75-3.61,9.94,4.12,24.66,6.74,35.32,2.59,6.02-2.38,6.91-5.01,7.1-6.41-.19-1.28-1.13-3.89-7.15-6.38-3.76-1.42-7.67-2.13-11.76-2.09-5.97-.02-11.57-1.03-16.7-2.99-.05-.03-.14-.05-.19-.08-12.46-5.26-15.33-13-15.52-18.55-.1-6.1,3.3-14.28,15.71-19.11,3.01-1.2,6.3-2.04,9.78-2.52v-3.1c0-3.7,3.01-6.69,6.68-6.69s6.73,2.99,6.73,6.69v2.99c7.95.75,15.1,2.52,21.68,5.38,3.39,1.48,4.94,5.42,3.48,8.81s-5.41,4.95-8.8,3.47c-6.68-2.89-14.16-4.4-22.95-4.64-4.42.04-8.37.75-11.71,2.08-.05,0-.09.02-.09.03-6.26,2.38-6.96,5.07-7.1,6.4.24,2.31,2.68,4.45,7.24,6.39,9.22,3.71,16.62.31,28.5,5.12,21,8.5,20.49,29.51-.05,37.67h0Zm-16.93,36.82c38.2,0,70.88-30.97,70.88-70.85s-31.79-70.86-70.88-70.86-70.83,31.78-70.83,70.86c0,39.07,31.79,70.85,70.83,70.85Zm-183.33,147.51l55.45-96.02,55.45,96.02h-110.9ZM33.09,250.04c0,39.06,31.75,70.85,70.83,70.85s70.88-31.79,70.88-70.85-31.79-70.85-70.88-70.85-70.83,31.78-70.83,70.85Zm459.04-11.5c-.85-3.59-4.47-5.82-8.04-4.99l-30.71,7.21c14.67-15.17,23.7-35.8,23.7-58.51,0-46.45-37.77-84.24-84.24-84.24s-84.24,37.79-84.24,84.24c0,36.55,23.38,67.73,56.02,79.36l-200.22,47.01c14.67-15.18,23.75-35.84,23.75-58.58,0-46.45-37.77-84.24-84.24-84.24S19.69,203.59,19.69,250.04c0,36.57,23.42,67.77,56.06,79.39l-30.48,7.16c-7.68,1.82-6.34,13.21,1.51,13.21.52,0,1.04-.06,1.55-.18l202.66-47.58-56.96,98.61c-3.39,5.89.8,13.34,7.71,13.34h126.42c6.86,0,11.13-7.41,7.71-13.34l-60.3-104.4,211.55-49.66c3.62-.85,5.83-4.45,4.98-8.05h0Z"/>
</svg>