<?xml version="1.0" encoding="UTF-8"?>
<svg id="Layer_1" data-name="Layer 1" xmlns="http://www.w3.org/2000/svg" xmlns:xlink="http://www.w3.org/1999/xlink" viewBox="0 0 512 512">
  <defs>
    <style>
      .cls-1 {
        fill: url(#linear-gradient-2);
      }

      .cls-2 {
        fill: url(#linear-gradient-3);
      }

      .cls-3 {
        fill: url(#linear-gradient);
      }

      .cls-4 {
        fill: url(#linear-gradient-4);
      }
    </style>
    <linearGradient id="linear-gradient" x1="43.32" y1="256" x2="458.2" y2="256" gradientUnits="userSpaceOnUse">
      <stop offset="0" stop-color="#f9c213"/>
      <stop offset="1" stop-color="#ffd86c"/>
    </linearGradient>
    <linearGradient id="linear-gradient-2" x1="215.11" y1="210.64" x2="425.79" y2="210.64" xlink:href="#linear-gradient"/>
    <linearGradient id="linear-gradient-3" x1="312.34" y1="201.28" x2="374.94" y2="201.28" xlink:href="#linear-gradient"/>
    <linearGradient id="linear-gradient-4" x1="93.5" y1="296.37" x2="109.7" y2="296.37" xlink:href="#linear-gradient"/>
  </defs>
  <path class="cls-3" d="m458.2,214.67c0-35.07-13.17-67.12-34.83-91.46l8.81-8.81c1.58,1.58,3.66,2.37,5.73,2.37s4.15-.79,5.73-2.37c3.16-3.16,3.16-8.3,0-11.46l-11.46-11.46c-3.16-3.16-8.3-3.16-11.46,0s-3.16,8.3,0,11.46l-8.81,8.81c-22.46-19.98-51.47-32.73-83.36-34.59v-12.39h8.1c4.48,0,8.1-3.63,8.1-8.1s-3.63-8.1-8.1-8.1h-32.41c-4.48,0-8.1,3.63-8.1,8.1s3.63,8.1,8.1,8.1h8.1v12.39c-31.89,1.86-60.9,14.62-83.36,34.59l-8.81-8.81c3.16-3.16,3.16-8.3,0-11.46s-8.3-3.16-11.46,0l-11.46,11.46c-3.16,3.16-3.16,8.3,0,11.46,1.58,1.58,3.66,2.37,5.73,2.37s4.15-.79,5.73-2.37l8.81,8.81c-2.8,3.15-5.46,6.42-7.96,9.82-27.43,4.94-52.09,17.74-71.46,37.11-11.41,11.41-21.55,26.4-30.14,44.55-1.38,2.92-.9,6.38,1.23,8.81,2.13,2.43,5.5,3.36,8.58,2.37,20.21-6.51,30.74,6.46,33.49,10.59,5.5,8.27,7.39,20.89-.79,30.44-4.78,5.58-9.86,9.02-16.47,11.15-4.26,1.37-6.6,5.94-5.22,10.2,1.11,3.43,4.29,5.62,7.71,5.62.82,0,1.66-.13,2.49-.39,9.5-3.06,17.07-8.16,23.81-16.04,11.85-13.84,12.64-33.92,1.97-49.96-8.08-12.15-20.89-19.02-35.01-19.49,6.03-10.4,12.67-19.24,19.82-26.39,13.42-13.42,29.75-23.25,47.9-28.94-9.44,18.65-14.77,39.73-14.77,62.02,0,24.53,6.45,47.58,17.73,67.55-7.12,10.62-17.93,15.53-29.34,20.7-17.55,7.96-37.44,16.98-37.16,48.34.03,2.93,1.63,5.62,4.2,7.03,1.22.67,2.56,1,3.9,1,1.49,0,2.98-.41,4.29-1.23,18.24-11.36,31.17-10.72,46.14-9.97,16.33.82,34.8,1.74,60.09-13.6,17.9,10.18,38.29,16.47,60.02,17.7-28.97,26.14-60.57,24.22-91.18,22.37-29.99-1.82-61-3.7-79.04,27.55-11.22,19.44-24.95,33.36-39.69,40.28-12.43,5.83-25.09,6.39-37.76,1.7,26.23-30.01,25.59-53.21,24.97-75.71-.31-11.07-.62-22.52,2.22-35.31.19-.84.38-1.65.57-2.45,1.05-4.35-1.63-8.73-5.98-9.78s-8.73,1.63-9.78,5.98c-.21.89-.43,1.8-.63,2.73-3.28,14.75-2.92,27.78-2.6,39.27.66,23.97,1.19,42.9-27.98,72.08-1.78,1.78-2.63,4.29-2.3,6.79.33,2.5,1.8,4.7,3.98,5.96,11.28,6.51,22.91,9.78,34.49,9.78,9.33,0,18.62-2.12,27.68-6.36,17.76-8.32,33.96-24.52,46.85-46.85,12.42-21.52,31.45-21.45,64.02-19.47,32.23,1.95,72.34,4.38,107.51-30.79,2.65-2.65,5.21-5.45,7.66-8.36,68.86-7.57,122.61-66.09,122.61-136.93h0Zm-264.93,117.24c-12.44-.62-25.22-1.26-40.68,4.83,4.13-9.51,13.21-13.63,25.19-19.06,10.78-4.89,22.73-10.31,32.01-21.06,7.81,10.52,17.09,19.89,27.52,27.82-17.46,8.8-30.43,8.16-44.04,7.47h0Zm127.18,4.3c-67.02,0-121.55-54.53-121.55-121.55s54.53-121.55,121.55-121.55,121.55,54.53,121.55,121.55-54.53,121.55-121.55,121.55Z"/>
  <path class="cls-1" d="m320.45,109.33c-58.08,0-105.34,47.26-105.34,105.34,0,41.91,24.83,79.82,63.25,96.59,2.22.97,4.76.89,6.92-.21s3.71-3.11,4.23-5.48l5.03-22.85h51.8l5.03,22.85c.52,2.37,2.08,4.38,4.23,5.48,1.15.59,2.41.88,3.68.88,1.1,0,2.21-.22,3.24-.68,38.42-16.77,63.25-54.68,63.25-96.59,0-58.09-47.26-105.34-105.34-105.34h0Zm44.52,182.58l-4.19-19.03c-.82-3.71-4.11-6.36-7.91-6.36h-64.82c-3.8,0-7.1,2.65-7.91,6.36l-4.19,19.03c-11.35-6.54-20.95-15.41-28.31-25.83l1.11-.64c3.88-2.24,5.2-7.19,2.97-11.07-2.24-3.88-7.19-5.2-11.07-2.97l-1.11.64c-4.21-9.12-6.91-19-7.84-29.26h6.97c4.48,0,8.1-3.63,8.1-8.1s-3.63-8.1-8.1-8.1h-6.98c.94-10.36,3.66-20.22,7.85-29.26l1.1.64c1.28.74,2.67,1.09,4.04,1.09,2.8,0,5.52-1.45,7.02-4.05,2.24-3.88.91-8.83-2.97-11.07l-1.08-.62c5.87-8.29,13.12-15.54,21.41-21.41l.62,1.08c1.5,2.6,4.22,4.05,7.02,4.05,1.37,0,2.77-.35,4.04-1.09,3.88-2.24,5.2-7.19,2.97-11.07l-.64-1.1c9.04-4.19,18.9-6.91,29.26-7.85v6.98c0,4.48,3.63,8.1,8.1,8.1s8.1-3.63,8.1-8.1v-6.98c10.36.94,20.22,3.66,29.26,7.85l-.64,1.1c-2.24,3.88-.91,8.83,2.97,11.07,1.28.74,2.67,1.09,4.04,1.09,2.8,0,5.52-1.45,7.02-4.05l.62-1.08c8.29,5.87,15.54,13.12,21.41,21.41l-1.08.62c-3.88,2.24-5.2,7.19-2.97,11.07,1.5,2.6,4.22,4.05,7.02,4.05,1.37,0,2.77-.35,4.04-1.09l1.1-.64c4.19,9.04,6.91,18.9,7.85,29.26h-6.98c-4.48,0-8.1,3.63-8.1,8.1s3.63,8.1,8.1,8.1h6.97c-.93,10.27-3.63,20.15-7.84,29.26l-1.11-.64c-3.87-2.24-8.83-.91-11.07,2.97s-.91,8.83,2.97,11.07l1.11.64c-7.36,10.43-16.96,19.29-28.31,25.83h0Z"/>
  <path class="cls-2" d="m362.79,180.87l-46.39,26.78c-3.88,2.24-5.2,7.19-2.97,11.07,1.5,2.6,4.22,4.05,7.02,4.05,1.37,0,2.77-.35,4.04-1.09l46.39-26.78c3.88-2.24,5.2-7.19,2.97-11.07-2.24-3.88-7.19-5.2-11.07-2.97Z"/>
  <path class="cls-4" d="m101.6,304.47c4.48,0,8.1-3.63,8.1-8.1s-3.63-8.1-8.1-8.1h0c-4.48,0-8.1,3.63-8.1,8.1s3.63,8.1,8.11,8.1Z"/>
</svg>