<?xml version="1.0" encoding="UTF-8"?>
<svg id="Layer_1" data-name="Layer 1" xmlns="http://www.w3.org/2000/svg" xmlns:xlink="http://www.w3.org/1999/xlink" viewBox="0 0 512 512">
  <defs>
    <style>
      .cls-1 {
        fill: url(#linear-gradient-2);
      }

      .cls-2 {
        fill: url(#linear-gradient-6);
      }

      .cls-3 {
        fill: url(#linear-gradient-10);
      }

      .cls-4 {
        fill: url(#linear-gradient-5);
      }

      .cls-5 {
        fill: url(#linear-gradient-7);
      }

      .cls-6 {
        fill: url(#linear-gradient-9);
      }

      .cls-7 {
        fill: url(#linear-gradient-3);
      }

      .cls-8 {
        fill: url(#linear-gradient);
      }

      .cls-9 {
        fill: url(#linear-gradient-4);
      }

      .cls-10 {
        fill: url(#linear-gradient-8);
      }
    </style>
    <linearGradient id="linear-gradient" x1="207.99" y1="232.04" x2="453" y2="232.04" gradientUnits="userSpaceOnUse">
      <stop offset="0" stop-color="#f9c213"/>
      <stop offset="1" stop-color="#ffd86c"/>
    </linearGradient>
    <linearGradient id="linear-gradient-2" x1="59" y1="305.37" x2="315.57" y2="305.37" xlink:href="#linear-gradient"/>
    <linearGradient id="linear-gradient-3" x1="301.63" y1="287.63" x2="315.55" y2="287.63" xlink:href="#linear-gradient"/>
    <linearGradient id="linear-gradient-4" x1="296.38" y1="348.99" x2="310.49" y2="348.99" xlink:href="#linear-gradient"/>
    <linearGradient id="linear-gradient-5" x1="290.53" y1="231.9" x2="294.68" y2="231.9" xlink:href="#linear-gradient"/>
    <linearGradient id="linear-gradient-6" x1="265.26" y1="221.83" x2="294.28" y2="221.83" xlink:href="#linear-gradient"/>
    <linearGradient id="linear-gradient-7" x1="282.84" y1="224.74" x2="290.53" y2="224.74" xlink:href="#linear-gradient"/>
    <linearGradient id="linear-gradient-8" x1="267.87" y1="232.06" x2="388.87" y2="232.06" xlink:href="#linear-gradient"/>
    <linearGradient id="linear-gradient-9" x1="132.36" y1="305.34" x2="242.41" y2="305.34" xlink:href="#linear-gradient"/>
    <linearGradient id="linear-gradient-10" x1="205.01" y1="185.61" x2="226.22" y2="185.61" xlink:href="#linear-gradient"/>
  </defs>
  <g id="outline">
    <g>
      <path class="cls-8" d="m370.88,112.38c66.09,25.51,99,99.77,73.48,165.87-19.08,49.45-66.63,82.07-119.63,82.09-6.96,0-13.91-.55-20.77-1.68,2.59-5.64,4.78-11.51,6.53-17.56,4.72.62,9.47.92,14.24.92,60.73-.03,109.94-49.27,109.92-110-.03-60.73-49.27-109.94-109.99-109.92-42,.02-80,23.92-98.43,61-5.9-1.88-11.99-3.34-18.23-4.36,27.95-61.3,99.2-90.95,162.88-66.37h0Z"/>
      <path class="cls-1" d="m315.55,303.25c0,.7.02,1.41.02,2.12-.02,12.41-1.79,24.39-5.08,35.74-3.36-.44-6.7-1.04-10.01-1.79l-4.09,17.87c2.51.57,5.03,1.06,7.57,1.48-20.25,44.21-64.87,74.93-116.67,74.99-70.85,0-128.28-57.43-128.28-128.28s57.43-128.28,128.28-128.28c7.05,0,13.97.57,20.71,1.66-1.05,2.32-2.05,4.7-2.99,7.12l17.09,6.61c1.24-3.21,2.62-6.33,4.12-9.37,15.34,4.88,29.42,12.57,41.65,22.46-1.49,3.02-2.39,6.35-2.61,9.83,7.74,6.66,14.58,14.29,20.34,22.72,1.97-.52,4-.77,6.05-.73.92,0,1.74.09,2.56.09,0-.96.02-1.92.07-2.89,9.52,14.35,16.22,30.74,19.33,48.35-4.76-2.56-8.89-6.28-11.98-10.92,2.64,9.01,4.18,18.3,4.59,27.67,3,1.48,6.13,2.68,9.33,3.56h0Zm-128.27,112.08c60.73,0,109.95-49.24,109.95-109.96-.06-60.69-49.26-109.89-109.95-109.95-60.73,0-109.96,49.24-109.96,109.95s49.24,109.96,109.96,109.96Z"/>
      <path class="cls-7" d="m313.61,282.93c1.16,6.61,1.82,13.4,1.94,20.32-3.2-.88-6.33-2.09-9.33-3.56-.41-9.37-1.95-18.66-4.59-27.67,3.09,4.64,7.23,8.36,11.98,10.92Z"/>
      <path class="cls-9" d="m310.49,341.1c-1.75,6.05-3.95,11.92-6.53,17.56-2.54-.42-5.06-.91-7.57-1.48l4.09-17.87c3.31.75,6.65,1.35,10.01,1.79h0Z"/>
      <path class="cls-4" d="m290.53,229.22h4.15c-.19,1.79-.32,3.57-.39,5.36-1.21-1.82-2.46-3.61-3.76-5.36Z"/>
      <path class="cls-2" d="m294.28,234.58c-.05.96-.07,1.92-.07,2.89-.82,0-1.65-.09-2.56-.09-2.05-.04-4.08.22-6.05.73-5.76-8.43-12.6-16.06-20.34-22.72.22-3.48,1.12-6.8,2.61-9.83,5.53,4.46,10.67,9.38,15.39,14.69l-.41,7.32c-.02.14-.02.28,0,.42.11.79.85,1.35,1.65,1.23h6.03c1.29,1.75,2.55,3.54,3.76,5.36h0Z"/>
      <path class="cls-5" d="m290.53,229.22h-6.03c-.8.12-1.54-.44-1.65-1.23-.02-.14-.02-.28,0-.42l.41-7.32c2.55,2.87,4.97,5.86,7.26,8.97Z"/>
      <path class="cls-10" d="m288.53,209.79c-3.58,1.81-5.66,5.64-5.23,9.63l-.05.83c-4.72-5.31-9.86-10.23-15.39-14.69,2.71-5.54,7.36-10.04,13.24-12.54,1.79-.79,3.67-1.38,5.59-1.74,11.71-20.49,33.68-32.93,57.27-32.44.76-.02,1.53,0,2.29.09,9.07.18,36.65,1.01,42.16,25.47.28,1.35.44,2.74.45,4.12-.09,21.26-6.6,33.17-19.33,35.46-.53,3.62-1.72,7.13-3.49,10.35.39,1.53.65,3.1.73,4.68,9.01,3.16,14.91,11.8,14.57,21.35.02.8,0,1.59-.08,2.39l-.28,2.19c-.13,9.05-3.15,17.82-8.61,25.02-.37.36-.65.73-1.01,1.1-10.43,9.66-24.29,14.74-38.49,14.11-.85.08-1.72.12-2.57.09-5.01.02-9.97-.67-14.76-2.02-.12-6.92-.78-13.71-1.94-20.32,5.05,2.73,10.78,4.16,16.7,4.02.71.02,1.42-.02,2.11-.09,9.43.68,18.74-2.45,25.84-8.7,3.26-5.22,4.91-11.26,4.76-17.41-.09-3.39-1.37-4.49-3.12-4.49-3.11.67-6.09,1.88-8.8,3.58-4.46,2.29-9.37,3.53-14.38,3.66-4.52.47-8.88-1.81-11.09-5.77,3.12,0,5.86.09,8.16.09,11.36,0,14.29-1.47,14.66-18.24,0-1.37-.82-2.11-2.39-2.11h-23.91l.27-8.24c.83-.08,1.65-.12,2.48-.09,2.93,0,7.15.18,11.27.18,5.78,0,11.46-.46,13.11-2.85,3.02-3.29,2.57-11.08,3.12-15.48,0-1.38-.82-2.02-2.48-2.02h-22.17c2.49-5.16,7.65-8.48,13.37-8.61h1.65c9.8,0,17.22,5.77,21.89,5.77,3.76,0,5.86-3.85,5.86-17.59-2.29-10.08-15.21-11-24.83-11.27-.58-.07-1.17-.11-1.75-.09-20.4-.53-38.72,12.4-45.08,31.8h-.64c-.82,0-1.74-.09-2.65-.09-2.39-.14-4.79.18-7.06.92h0Z"/>
      <path class="cls-6" d="m232.32,245.05c10.33,11.62,12.97,28.17,6.78,42.43-1.96,4.52-4.86,8.59-8.5,11.91,1.72,2.25,3.22,4.67,4.46,7.22,7.32,15.31,6.67,33.23-1.73,47.97-5.18,9.14-13.24,16.31-22.91,20.41-.57,5.62-3.41,10.77-7.85,14.25-1.27.95-2.65,1.74-4.12,2.34-3.36,1.35-6.93,2.02-10.56,2-9.43.13-18.37-4.27-24.03-11.83-1.49-2.17-2.69-4.52-3.57-7.01-13.01-3.46-23.35-13.34-27.38-26.19-.41-1.62-.59-3.29-.55-4.96v-2.22c.08-6.36.35-22.5,10.08-30.24-4.52-7.78-6.76-16.67-6.48-25.66-.58-20.26,10.87-38.97,29.2-47.64,1.05-.61,2.15-1.13,3.28-1.59,1.2-9.64,8.63-17.32,18.22-18.83.96-.17,1.95-.25,2.92-.25h.33l.08-.05c12.44-.61,23.91,6.7,28.63,18.23,5.22,2.2,9.88,5.51,13.68,9.7h0Zm-24.76,44.6c16.68,0,21.19-21.15,11.1-32.23-4.28-4.3-9.93-6.98-15.96-7.56-.19-9.2-2.69-14.35-12.77-14.35h-.22c-4,.67-3.47,6.23-3.88,9.7,1.48,7.63-7.34,5.73-12.07,8.86-12.37,5.5-20.09,18.02-19.47,31.54-.68,13.09,7.36,25.07,19.75,29.4,7.21,3.81,18.99,5,19.79,14.29-.18,3.96-3.3,7.15-7.26,7.4-1.42.32-2.87.48-4.32.48-8.22-.79-15.91-4.38-21.8-10.17-1.32-1.05-2.9-1.68-4.58-1.83-5.53,0-5.09,11.33-5.28,18.89,2.57,10.14,16.07,14.05,25.81,16.05-.32,3.89.53,7.8,2.44,11.2,2.24,2.61,5.53,4.06,8.97,3.96,1.25.02,2.49-.21,3.66-.65,1.15-4.66,1.83-9.42,2.07-14.21,3.86-.39,7.63-1.5,11.1-3.26,15.56-7.9,21.77-26.91,13.88-42.47-7.03-14.35-25.08-15.98-36.35-24.66-7.68-6.47-.17-17.41,8.51-17.41h1.49c7.43,0,9.36,8.36,9.17,14.23.11,2.89,1.24,2.59,4.28,2.75.67.09,1.32.09,1.95.09Z"/>
      <path class="cls-3" d="m226.22,183.11c-1.51,3.04-2.89,6.16-4.12,9.37l-17.09-6.61c.93-2.42,1.93-4.79,2.99-7.12,6.24,1.02,12.33,2.48,18.23,4.36h0Z"/>
    </g>
  </g>
</svg>