<?xml version="1.0" encoding="UTF-8"?>
<svg id="Layer_1" data-name="Layer 1" xmlns="http://www.w3.org/2000/svg" xmlns:xlink="http://www.w3.org/1999/xlink" viewBox="0 0 512 512">
  <defs>
    <style>
      .cls-1 {
        fill: url(#linear-gradient-2);
      }

      .cls-2 {
        fill: url(#linear-gradient-6);
      }

      .cls-3 {
        fill: url(#linear-gradient-5);
      }

      .cls-4 {
        fill: url(#linear-gradient-7);
      }

      .cls-5 {
        fill: url(#linear-gradient-9);
      }

      .cls-6 {
        fill: url(#linear-gradient-3);
      }

      .cls-7 {
        fill: url(#linear-gradient);
      }

      .cls-8 {
        fill: url(#linear-gradient-4);
      }

      .cls-9 {
        fill: url(#linear-gradient-8);
      }
    </style>
    <linearGradient id="linear-gradient" x1="58.07" y1="270.25" x2="453.93" y2="270.25" gradientUnits="userSpaceOnUse">
      <stop offset="0" stop-color="#f9c213"/>
      <stop offset="1" stop-color="#ffd86c"/>
    </linearGradient>
    <linearGradient id="linear-gradient-2" x1="378.59" y1="249.16" x2="410.23" y2="249.16" xlink:href="#linear-gradient"/>
    <linearGradient id="linear-gradient-3" x1="119.07" y1="225.5" x2="149.89" y2="225.5" xlink:href="#linear-gradient"/>
    <linearGradient id="linear-gradient-4" x1="153.47" y1="225.5" x2="176.46" y2="225.5" xlink:href="#linear-gradient"/>
    <linearGradient id="linear-gradient-5" x1="178.28" y1="225.5" x2="203.43" y2="225.5" xlink:href="#linear-gradient"/>
    <linearGradient id="linear-gradient-6" x1="204.91" y1="225.5" x2="229.99" y2="225.5" xlink:href="#linear-gradient"/>
    <linearGradient id="linear-gradient-7" x1="233.37" y1="225.5" x2="264.19" y2="225.5" xlink:href="#linear-gradient"/>
    <linearGradient id="linear-gradient-8" x1="267.77" y1="225.5" x2="290.75" y2="225.5" xlink:href="#linear-gradient"/>
    <linearGradient id="linear-gradient-9" x1="294.13" y1="225.84" x2="316.3" y2="225.84" xlink:href="#linear-gradient"/>
  </defs>
  <g>
    <path class="cls-7" d="m444.24,414.59h-98.26c-8.4-3.33-11.37-9.53-10.93-18.44.54-10.96.13-21.96.13-33.32h-52.42c-.55,14.38,1.47,27.02,14.8,35.09,9.07,5.5,9,10.97.05,16.67h-137.57c-8.33-6.12-8.72-11.38-.56-16.06,14.13-8.1,16.74-20.75,15.44-36.16-3.1,0-5.82,0-8.54,0-26.94,0-53.88,0-80.82,0-20.17,0-27.25-7.04-27.26-27.14-.02-60.16.27-120.33-.2-180.48-.11-14.55,4.98-24.14,18.81-28.83h305.37c13.64,5.64,18.97,15.99,17.9,30.45-.55,7.51-.1,15.1-.1,22.65,0,15.29,0,30.59,0,45.52,1.17.59,1.6.99,2.04.99,11.33.08,22.66.13,33.99.18,13.16.05,17.67,4.47,17.68,17.67.03,50.86-.14,101.73.16,152.59.05,8.41-2.39,14.53-9.69,18.63Zm-55.37-188.89c0-24.84.05-48.72-.02-72.61-.04-12.16-4.09-16.15-16.51-16.16-95.46-.04-190.91-.04-286.37,0-12.94,0-16.72,3.84-16.73,16.61-.02,50.11-.01,100.22.01,150.33,0,2.43.25,4.86.39,7.53h265.53c0-3.09,0-5.79,0-8.49,0-20.14-.05-40.29.02-60.43.04-12.05,4.86-16.73,17.07-16.77,11.8-.04,23.6,0,36.6,0Zm53.52,142.65c.06-.26.36-.98.36-1.71.04-41.27-.04-82.55.17-123.82.03-6.04-3.25-6.28-7.69-6.27-26.93.06-53.87.21-80.8-.1-6.71-.08-8.55,2.18-8.51,8.72.27,37.5.13,75,.14,112.49,0,3.73,0,7.46,0,10.69h96.33Zm-373.15-45.14c0,4.16,0,7.87,0,11.58,0,13.95,2.38,16.4,15.99,16.4,80.36,0,160.72,0,241.08,0,2.69,0,5.38,0,8.36,0v-27.98H69.23Zm103.07,79.73h113.28c-12.49-11.33-14.04-25.26-14.13-39.87h-84.62c-.73,14.51-1.46,28.73-14.54,39.87Zm270.51-24.73h-96.76c0,6.88-.41,13.44.25,19.88.2,1.98,3.32,5.21,5.13,5.23,28.67.33,57.35.33,86.02,0,1.81-.02,4.93-3.23,5.11-5.17.64-6.69.25-13.48.25-19.95Z"/>
    <path class="cls-1" d="m393.78,254.46c-3.51,0-7.2.65-10.47-.24-2.02-.55-4.39-3.31-4.71-5.37-.22-1.41,2.74-4.66,4.44-4.78,7.49-.54,15.06-.6,22.54,0,1.81.15,4.73,3.54,4.65,5.33-.08,1.77-3.09,4.39-5.21,4.86-3.58.81-7.48.22-11.24.22,0,0,0-.02,0-.03Z"/>
  </g>
  <g>
    <path class="cls-6" d="m119.07,201.84h10.61l4.73,33.87h.13l4.73-33.87h10.61v47.32h-7.03v-35.83h-.13l-5.41,35.83h-6.22l-5.41-35.83h-.13v35.83h-6.49v-47.32Z"/>
    <path class="cls-8" d="m161.25,208.6h-7.77v-6.76h22.98v6.76h-7.77v40.56h-7.44v-40.56Z"/>
    <path class="cls-3" d="m192.48,240.58h-14.2v-6.76l13.52-31.97h8.11v31.97h3.52v6.76h-3.52v8.58h-7.44v-8.58Zm0-6.76v-18.45h-.13l-7.3,18.45h7.44Z"/>
    <path class="cls-2" d="m223.57,201.84h6.42l-18.66,47.32h-6.42l18.66-47.32Z"/>
    <path class="cls-4" d="m233.37,201.84h10.61l4.73,33.87h.13l4.73-33.87h10.61v47.32h-7.03v-35.83h-.13l-5.41,35.83h-6.22l-5.41-35.83h-.13v35.83h-6.49v-47.32Z"/>
    <path class="cls-9" d="m275.55,208.6h-7.77v-6.76h22.98v6.76h-7.77v40.56h-7.44v-40.56Z"/>
    <path class="cls-5" d="m294.13,237.94v-3.72h7.03v4.26c0,3.38,1.49,4.6,3.85,4.6s3.85-1.22,3.85-4.6v-10.61c0-3.38-1.49-4.66-3.85-4.66s-3.85,1.28-3.85,4.66v.41h-7.03l1.35-26.43h19.6v6.76h-12.98l-.61,11.29h.14c1.35-2.23,3.45-3.45,6.42-3.45,5.48,0,8.25,3.85,8.25,10.82v10.68c0,7.57-3.79,11.9-11.09,11.9s-11.09-4.33-11.09-11.9Z"/>
  </g>
</svg>