<?xml version="1.0" encoding="UTF-8"?>
<svg id="Layer_1" data-name="Layer 1" xmlns="http://www.w3.org/2000/svg" xmlns:xlink="http://www.w3.org/1999/xlink" viewBox="0 0 512 512">
  <defs>
    <style>
      .cls-1 {
        fill: url(#linear-gradient);
      }
    </style>
    <linearGradient id="linear-gradient" x1="170.91" y1="261.94" x2="367.31" y2="261.94" gradientUnits="userSpaceOnUse">
      <stop offset="0" stop-color="#f9c213"/>
      <stop offset="1" stop-color="#ffd86c"/>
    </linearGradient>
  </defs>
  <path class="cls-1" d="m362.55,297.42c-3.18-8.65-8.08-16.42-14.68-23.3-6.63-6.88-15.05-13.24-25.28-19.06-10.24-5.83-22.51-11.73-36.8-17.74-.32-.13-.62-.26-.94-.39l9.59-94.97c4.37,2.41,8.08,5.59,11.07,9.61,7.5,10.06,11.24,24.18,11.24,42.35,12.53,0,22.19-2.96,28.99-8.87,6.79-5.91,10.19-13.8,10.19-23.69,0-6.7-1.69-13.1-5.03-19.19-3.36-6.09-8.38-11.38-15.09-15.88-6.7-4.5-15-8.07-24.87-10.72-4.23-1.13-8.79-1.97-13.57-2.62l5.11-50.67-26.13-2.64-5.26,52.12c-13.08.37-25.17,1.95-36.12,4.87-12.53,3.36-23.29,8.25-32.29,14.69-9,6.44-15.92,14.43-20.78,23.95-4.85,9.53-7.27,20.48-7.27,32.82s1.67,22.01,5.03,30.58,8.38,16.19,15.09,22.9c6.71,6.71,15.22,12.93,25.55,18.66,9.74,5.42,21.15,11.03,34.11,16.84l-10.78,106.69c-2.73-.77-5.33-1.68-7.71-2.82-7.5-3.61-13.55-8.56-18.14-14.82-4.59-6.26-7.86-13.54-9.79-21.84-1.95-8.3-2.92-17.2-2.92-26.74-3.18,0-6.75.58-10.72,1.73-3.97,1.15-7.68,3.13-11.12,5.95-3.44,2.82-6.36,6.66-8.74,11.51-2.38,4.85-3.57,10.9-3.57,18.14,0,9.53,2.11,17.87,6.35,25.01,4.23,7.15,10.23,13.15,18,18,7.76,4.85,17.16,8.47,28.19,10.85,5.47,1.18,11.27,2.06,17.36,2.66l-5.07,50.23,26.13,2.64,5.27-52.15c13.38-.44,25.77-2.08,37.03-5.1,13.15-3.53,24.39-8.87,33.75-16.02,9.35-7.14,16.58-16.01,21.7-26.59,5.12-10.59,7.68-22.94,7.68-37.06,0-11.28-1.58-21.25-4.77-29.9Zm-107.59-73.46c-8.57-3.97-15.53-8.07-20.92-12.31-5.39-4.24-9.31-8.87-11.78-13.9-2.47-5.03-3.71-10.99-3.71-17.87,0-6.35.97-12.17,2.91-17.47,1.94-5.29,4.99-9.88,9.14-13.76,4.14-3.88,9.48-6.88,16.01-9,6.14-1.99,13.49-3.01,21.97-3.12l-9.04,89.52c-1.56-.71-3.13-1.41-4.58-2.09Zm64.45,133.14c-2.65,6.09-6.49,11.3-11.52,15.62-5.03,4.32-11.25,7.68-18.65,10.06-5.78,1.86-12.29,2.97-19.46,3.38l9.87-97.67c3.42,1.63,6.68,3.21,9.6,4.7,8.64,4.41,15.49,8.73,20.51,12.97,5.03,4.23,8.55,8.78,10.58,13.63,2.03,4.86,3.04,10.64,3.04,17.34,0,7.22-1.32,13.89-3.96,19.97Z"/>
</svg>