<?xml version="1.0" encoding="UTF-8"?>
<svg id="Layer_1" data-name="Layer 1" xmlns="http://www.w3.org/2000/svg" xmlns:xlink="http://www.w3.org/1999/xlink" viewBox="0 0 512 512">
  <defs>
    <style>
      .cls-1 {
        fill: url(#linear-gradient-2);
      }

      .cls-2 {
        fill: url(#linear-gradient-6);
      }

      .cls-3 {
        fill: url(#linear-gradient-5);
      }

      .cls-4 {
        fill: url(#linear-gradient-3);
      }

      .cls-5 {
        fill: url(#linear-gradient);
      }

      .cls-6 {
        fill: url(#linear-gradient-4);
      }
    </style>
    <linearGradient id="linear-gradient" x1="267.25" y1="261.05" x2="439.44" y2="261.05" gradientUnits="userSpaceOnUse">
      <stop offset="0" stop-color="#f9c213"/>
      <stop offset="1" stop-color="#ffd86c"/>
    </linearGradient>
    <linearGradient id="linear-gradient-2" x1="287.84" y1="160.68" x2="418.85" y2="160.68" xlink:href="#linear-gradient"/>
    <linearGradient id="linear-gradient-3" x1="321.48" y1="160.24" x2="385.21" y2="160.24" xlink:href="#linear-gradient"/>
    <linearGradient id="linear-gradient-4" x1="72.56" y1="301.92" x2="258.08" y2="301.92" xlink:href="#linear-gradient"/>
    <linearGradient id="linear-gradient-5" x1="94.85" y1="251.28" x2="235.79" y2="251.28" xlink:href="#linear-gradient"/>
    <linearGradient id="linear-gradient-6" x1="134.38" y1="246.21" x2="187.04" y2="246.21" xlink:href="#linear-gradient"/>
  </defs>
  <path class="cls-5" d="m274.04,435.32c0,6.66,5.42,12.08,12.08,12.08h137.41c6.66,0,12.08-5.42,12.08-12.08v-186.44c0-7.06-5.74-12.8-12.8-12.8h-28.1c26.63-14.64,44.72-42.94,44.72-75.39,0-47.42-38.62-85.99-86.1-85.99-6.15,0-12.3.65-18.26,1.94-2.95.64-4.82,3.54-4.18,6.49.64,2.95,3.54,4.82,6.49,4.18,5.21-1.12,10.58-1.69,15.96-1.69,41.45,0,75.18,33.68,75.18,75.07s-33.72,75.07-75.18,75.07-75.18-33.68-75.18-75.07c0-27.12,14.72-52.22,38.43-65.51,2.63-1.47,3.57-4.8,2.09-7.43-1.48-2.63-4.8-3.57-7.43-2.09-27.14,15.22-44,43.97-44,75.03s18.09,60.75,44.72,75.39h-25.13c-7.06,0-12.8,5.74-12.8,12.8v186.44h0Zm150.66-132.44h-139.74v-22.48h139.74v22.48Zm0,33.4h-139.74v-22.48h139.74v22.48Zm0,33.4h-139.74v-22.48h139.74v22.48Zm-139.74,10.92h139.74v22.48h-139.74v-22.48Zm0-131.72c0-1.04.85-1.88,1.88-1.88h135.97c1.04,0,1.88.85,1.88,1.88v20.6h-139.74v-20.6Zm139.74,186.44c0,.64-.52,1.16-1.16,1.16h-137.41c-.64,0-1.16-.52-1.16-1.16v-21.32h139.74v21.32Z"/>
  <path class="cls-1" d="m287.84,160.68c0,36.07,29.38,65.42,65.5,65.42s65.5-29.35,65.5-65.42-29.38-65.42-65.5-65.42-65.5,29.35-65.5,65.42Zm65.5-54.5c30.1,0,54.58,24.45,54.58,54.5s-24.49,54.5-54.58,54.5-54.58-24.45-54.58-54.5,24.49-54.5,54.58-54.5Z"/>
  <path class="cls-4" d="m330.07,183.89h-3.12c-3.02,0-5.46,2.44-5.46,5.46s2.44,5.46,5.46,5.46h8.21v3.51c0,3.02,2.44,5.46,5.46,5.46s5.46-2.44,5.46-5.46v-3.51h8.22v3.51c0,3.02,2.44,5.46,5.46,5.46s5.46-2.44,5.46-5.46v-3.51c11.02,0,19.99-8.98,19.99-20.03,0-7.21-3.83-13.54-9.57-17.06,2.53-3.36,4.04-7.53,4.04-12.06,0-9.11-6.12-16.81-14.46-19.22v-4.29c0-3.02-2.44-5.46-5.46-5.46s-5.46,2.44-5.46,5.46v3.51h-8.22v-3.51c0-3.02-2.44-5.46-5.46-5.46s-5.46,2.44-5.46,5.46v3.51h-8.21c-3.02,0-5.46,2.44-5.46,5.46s2.44,5.46,5.46,5.46h3.12v47.31h0Zm35.14-18.19c5.01,0,9.08,4.08,9.08,9.11s-4.08,9.08-9.08,9.08h-24.22v-18.19h24.22Zm3.55-20c0,5.01-4.08,9.08-9.08,9.08h-18.69v-18.19h18.69c5.01,0,9.08,4.08,9.08,9.11h0Z"/>
  <path class="cls-6" d="m246.11,346.94c0-7.11-5.78-12.89-12.89-12.89h-26.32c30.33-15.25,51.18-46.62,51.18-82.78,0-51.07-41.61-92.62-92.76-92.62-30.03,0-58.34,14.62-75.72,39.11-1.75,2.46-1.17,5.87,1.29,7.61,2.46,1.74,5.87,1.17,7.61-1.29,15.34-21.61,40.32-34.51,66.82-34.51,45.13,0,81.84,36.65,81.84,81.7s-36.71,81.7-81.84,81.7-81.84-36.65-81.84-81.7c0-9.5,1.62-18.79,4.8-27.64,1.02-2.84-.45-5.96-3.29-6.99-2.83-1.02-5.96.45-6.99,3.29-3.61,10.04-5.45,20.58-5.45,31.34,0,36.15,20.85,67.53,51.18,82.78h-26.32c-7.11,0-12.89,5.78-12.89,12.89v85.35c0,7.11,5.78,12.89,12.89,12.89h135.8c7.11,0,12.89-5.78,12.89-12.89v-85.35Zm-10.92,53.91H95.45v-22.48h139.74v22.48Zm0,31.43c0,1.08-.88,1.97-1.97,1.97H97.42c-1.08,0-1.97-.88-1.97-1.97v-20.51h139.74v20.51Zm0-85.35v20.51H95.45v-20.51c0-1.08.88-1.97,1.97-1.97h135.8c1.08,0,1.97.88,1.97,1.97Z"/>
  <path class="cls-3" d="m165.32,321.63c38.85,0,70.47-31.56,70.47-70.35s-31.61-70.35-70.47-70.35-70.46,31.56-70.46,70.35,31.61,70.35,70.46,70.35h0Zm0-129.78c32.83,0,59.55,26.66,59.55,59.43s-26.71,59.43-59.55,59.43-59.55-26.66-59.55-59.43,26.71-59.43,59.55-59.43h0Z"/>
  <path class="cls-2" d="m139.84,259.48c.51,0,1.03-.07,1.54-.22l6.8-2-6.68,25.51c-.43,1.64-.07,3.38.96,4.72s2.63,2.12,4.32,2.12h34.8c3.02,0,5.46-2.44,5.46-5.46s-2.44-5.46-5.46-5.46h-27.72l6.56-25.03,12.21-3.59c2.89-.85,4.55-3.88,3.7-6.78-.85-2.89-3.88-4.55-6.78-3.7l-5.91,1.74,8.3-31.7c.76-2.92-.98-5.9-3.9-6.66-2.92-.76-5.9.98-6.66,3.9l-9.97,38.06-13.11,3.85c-2.89.85-4.55,3.88-3.7,6.78.7,2.38,2.88,3.92,5.24,3.92Z"/>
</svg>